<?xml version="1.0" encoding="UTF-8" standalone="no"?>
<svg
   xmlns:dc="http://purl.org/dc/elements/1.1/"
   xmlns:cc="http://creativecommons.org/ns#"
   xmlns:rdf="http://www.w3.org/1999/02/22-rdf-syntax-ns#"
   xmlns:svg="http://www.w3.org/2000/svg"
   xmlns="http://www.w3.org/2000/svg"
   xmlns:sodipodi="http://sodipodi.sourceforge.net/DTD/sodipodi-0.dtd"
   xmlns:inkscape="http://www.inkscape.org/namespaces/inkscape"
   width="122.69704"
   viewBox="0 0 98.157627 48.451259"
   version="1.1"
   height="60.564075"
   id="svg2"
   inkscape:version="0.48.4 r9939"
   sodipodi:docname="Drawing15_neutral_sides.svg">
  <sodipodi:namedview
     pagecolor="#ffffff"
     bordercolor="#666666"
     borderopacity="1"
     objecttolerance="10"
     gridtolerance="10"
     guidetolerance="10"
     inkscape:pageopacity="0"
     inkscape:pageshadow="2"
     inkscape:window-width="1627"
     inkscape:window-height="1026"
     id="namedview1698"
     showgrid="false"
     inkscape:zoom="4.17193"
     inkscape:cx="125.23226"
     inkscape:cy="57.161534"
     inkscape:window-x="53"
     inkscape:window-y="24"
     inkscape:window-maximized="1"
     inkscape:current-layer="layer1"
     fit-margin-top="0"
     fit-margin-left="0"
     fit-margin-right="0"
     fit-margin-bottom="0" />
  <metadata
     id="metadata1700">
    <rdf:RDF>
      <cc:Work
         rdf:about="">
        <dc:format>image/svg+xml</dc:format>
        <dc:type
           rdf:resource="http://purl.org/dc/dcmitype/StillImage" />
        <dc:title />
      </cc:Work>
    </rdf:RDF>
  </metadata>
  <defs
     id="defs4" />
  <g
     inkscape:groupmode="layer"
     id="layer1"
     inkscape:label="bg"
     style="display:inline"
     transform="translate(27.705076,-293.71645)">
    <path
       d="m -27.705076,294.33284 98.157625,0 0,47.83487 -98.157625,0 0,-47.83487 z"
       id="path7"
       inkscape:connector-curvature="0"
       style="fill:#f4f1e1" />
  </g>
  <g
     inkscape:groupmode="layer"
     id="layer2"
     inkscape:label="fg"
     transform="translate(27.705076,-293.71645)">
    <path
       d="m 38.964184,323.60901 -2.65357,-1.50451 0.702713,-2.65248 2.628552,1.21245 -0.677695,2.94454 z"
       id="path1398"
       inkscape:connector-curvature="0"
       style="fill:#fffef7" />
    <path
       d="m 39.787325,320.23692 -2.628127,-1.28376 1.722568,-2.56069 2.415494,1.70749 -1.509935,2.13696 z"
       id="path1400"
       inkscape:connector-curvature="0"
       style="fill:#fffef7" />
    <path
       d="m 39.553254,323.37187 0.50064,-2.21072 3.808906,2.19214 -0.267715,1.5463 -4.041831,-1.52772 z"
       id="path1402"
       inkscape:connector-curvature="0"
       style="fill:#fffef7" />
    <path
       d="m 43.951941,322.83804 -3.465222,-2.19215 1.648385,-2.49074 1.788944,2.36316 0.02789,2.31973 z"
       id="path1404"
       inkscape:connector-curvature="0"
       style="fill:#fffef7" />
    <path
       d="m 35.648121,320.87101 0.943318,-1.86294 -1.787962,-0.93215 -0.116975,2.10445 0.961619,0.69064 z"
       id="path1406"
       inkscape:connector-curvature="0"
       style="fill:#fffef7" />
    <path
       d="m 36.802725,318.35267 1.218549,-1.74574 -3.682968,-1.32583 -0.358067,2.03532 2.822486,1.03625 z"
       id="path1408"
       inkscape:connector-curvature="0"
       style="fill:#fffef7" />
    <path
       d="m 30.530442,317.24594 2.898971,-0.10217 0.361381,-2.58747 -3.555,0.20545 0.294648,2.48419 z"
       id="path1410"
       inkscape:connector-curvature="0"
       style="fill:#fffef7" />
    <path
       d="m 28.27955,318.52342 1.998616,-0.11939 -0.388867,-3.40105 -1.619986,-0.24205 0.01024,3.76249 z"
       id="path1412"
       inkscape:connector-curvature="0"
       style="fill:#fffef7" />
    <path
       d="m 47.190916,324.58159 -3.004801,-0.2456 0.308013,0.98296 2.435319,2.54758 0.261469,-3.28494 z"
       id="path1414"
       inkscape:connector-curvature="0"
       style="fill:#fffef7" />
    <path
       d="m 47.627686,327.01033 0.323877,-2.34815 2.728652,-0.71987 -0.340499,3.06911 -2.71203,-10e-4 z"
       id="path1416"
       inkscape:connector-curvature="0"
       style="fill:#fffef7" />
    <path
       d="m 48.639438,323.62103 1.966556,-0.56006 -0.538376,-3.52563 -2.004764,0.27948 0.576584,3.80621 z"
       id="path1418"
       inkscape:connector-curvature="0"
       style="fill:#fffef7" />
    <path
       d="m 47.989079,318.81328 1.963921,-0.11939 0.340282,-3.12457 -3.488066,0.47946 1.183863,2.7645 z"
       id="path1420"
       inkscape:connector-curvature="0"
       style="fill:#fffef7" />
    <path
       d="m 46.089527,315.16717 3.928527,-0.39914 0.09143,-1.7624 -4.769222,0.31828 0.749262,1.84326 z"
       id="path1422"
       inkscape:connector-curvature="0"
       style="fill:#fffef7" />
    <path
       d="m 44.355335,313.55967 -2.956696,-1.16109 0.789175,-2.49102 2.744025,0.81741 -0.576504,2.8347 z"
       id="path1424"
       inkscape:connector-curvature="0"
       style="fill:#fffef7" />
    <path
       d="m 40.926279,312.39858 -3.730621,-1.03269 1.366658,-3.02731 3.111533,1.35397 -0.74757,2.70603 z"
       id="path1426"
       inkscape:connector-curvature="0"
       style="fill:#fffef7" />
    <path
       d="m 36.55352,311.02193 1.325057,-2.55959 -0.797081,-1.61488 -2.30372,0.93052 1.775744,3.24395 z"
       id="path1428"
       inkscape:connector-curvature="0"
       style="fill:#fffef7" />
    <path
       d="m 41.601844,308.89864 -2.707665,-1.14033 1.175058,-1.96539 2.70137,2.00828 -1.168763,1.09744 z"
       id="path1430"
       inkscape:connector-curvature="0"
       style="fill:#fffef7" />
    <path
       d="m 42.062757,309.34914 1.082727,-1.37419 0.897176,0.73054 0.506226,1.46079 -2.486129,-0.81714 z"
       id="path1432"
       inkscape:connector-curvature="0"
       style="fill:#fffef7" />
    <path
       d="m 38.622834,307.35725 0.894605,-1.62061 -1.960447,-0.68846 -0.572014,1.12967 1.637856,1.1794 z"
       id="path1434"
       inkscape:connector-curvature="0"
       style="fill:#fffef7" />
    <path
       d="m 34.515477,307.32692 1.89489,-0.77233 0.658045,-1.89955 -2.401446,-0.86057 -0.151489,3.53245 z"
       id="path1436"
       inkscape:connector-curvature="0"
       style="fill:#fffef7" />
    <path
       d="m 48.586354,312.42098 0.06808,-2.97185 1.920205,-0.71141 -0.390816,3.48738 -1.597473,0.19588 z"
       id="path1438"
       inkscape:connector-curvature="0"
       style="fill:#fffef7" />
    <path
       d="m 48.731568,308.93333 1.846295,-0.68682 -0.251899,-2.8246 -2.679256,0.31828 1.08486,3.19314 z"
       id="path1440"
       inkscape:connector-curvature="0"
       style="fill:#fffef7" />
    <path
       d="m 47.085246,305.19953 2.999651,-0.48985 0.03954,-2.3577 -4.229461,0.83326 1.190269,2.01429 z"
       id="path1442"
       inkscape:connector-curvature="0"
       style="fill:#fffef7" />
    <path
       d="m 48.532244,301.7127 1.671234,-0.19561 -0.104055,-2.92268 -1.596588,0.0484 0.02941,3.06993 z"
       id="path1444"
       inkscape:connector-curvature="0"
       style="fill:#fffef7" />
    <path
       d="m 45.455592,302.74293 2.287738,-0.58847 0.06133,-1.89108 -2.825057,0.12157 0.475986,2.35798 z"
       id="path1446"
       inkscape:connector-curvature="0"
       style="fill:#fffef7" />
    <path
       d="m 32.169229,313.98477 -3.559711,0.21747 -0.258542,-2.35415 1.999152,-0.16338 1.819101,2.30006 z"
       id="path1448"
       inkscape:connector-curvature="0"
       style="fill:#fffef7" />
    <path
       d="m 29.971205,311.00035 -1.861291,-7.7e-4 0.01699,-2.65494 1.89004,-0.1907 -0.04575,2.84645 z"
       id="path1450"
       inkscape:connector-curvature="0"
       style="fill:#fffef7" />
    <path
       d="m 33.753654,305.93826 -3.310499,-0.24779 0.125737,-2.51807 3.500916,0.38466 -0.316154,2.3812 z"
       id="path1452"
       inkscape:connector-curvature="0"
       style="fill:#fffef7" />
    <path
       d="m 30.48972,302.70714 2.133128,0.27457 -1.899913,-2.49158 -0.233215,2.21701 z"
       id="path1454"
       inkscape:connector-curvature="0"
       style="fill:#fffef7" />
    <path
       d="m 29.692178,307.5515 -1.587388,-0.0281 -0.06331,-2.92869 2.106898,0.13769 -0.4562,2.81914 z"
       id="path1456"
       inkscape:connector-curvature="0"
       style="fill:#fffef7" />
    <path
       d="m 27.990229,304.07449 2.024671,0.13797 0.01782,-2.79208 -2.107122,-0.0555 0.06462,2.70958 z"
       id="path1458"
       inkscape:connector-curvature="0"
       style="fill:#fffef7" />
    <path
       d="m 28.036297,300.5363 2.125371,0.1101 0.184618,-3.271 -2.342679,-0.27347 0.03269,3.43437 z"
       id="path1460"
       inkscape:connector-curvature="0"
       style="fill:#fffef7" />
    <path
       d="m 44.347716,302.20555 -3.883434,-1.24442 1.159039,-2.2558 2.640465,1.27638 0.08393,2.22384 z"
       id="path1462"
       inkscape:connector-curvature="0"
       style="fill:#fffef7" />
    <path
       d="m 44.170958,299.19681 -2.085955,-1.07995 1.323201,-2.38666 1.590115,1.89736 -0.827361,1.56925 z"
       id="path1464"
       inkscape:connector-curvature="0"
       style="fill:#fffef7" />
    <path
       d="m 40.007968,300.6994 0.870544,-1.34358 -2.974077,-2.09107 -0.965238,2.64866 3.068771,0.78599 z"
       id="path1466"
       inkscape:connector-curvature="0"
       style="fill:#fffef7" />
    <path
       d="m 48.950056,297.91387 1.274647,-0.21172 -0.121495,-3.11228 -2.051168,-7.8e-4 0.898016,3.32483 z"
       id="path1468"
       inkscape:connector-curvature="0"
       style="fill:#fffef7" />
    <path
       d="m 47.875271,341.53929 2.58448,0.0415 -0.208377,-3.61305 -4.22974,0.83326 1.853637,2.73826 z"
       id="path1470"
       inkscape:connector-curvature="0"
       style="fill:#fffef7" />
    <path
       d="m 48.599351,337.78364 1.671237,-0.19589 -0.104054,-2.92268 -1.59659,0.0486 0.02941,3.06994 z"
       id="path1472"
       inkscape:connector-curvature="0"
       style="fill:#fffef7" />
    <path
       d="m 45.582528,338.35872 2.287741,-0.58847 0.06133,-1.89108 -2.825054,0.12157 0.475986,2.35798 z"
       id="path1474"
       inkscape:connector-curvature="0"
       style="fill:#fffef7" />
    <path
       d="m 27.917037,341.21938 2.654073,-0.21993 -0.411448,-3.96302 -2.107396,-0.0557 -0.135229,4.23868 z"
       id="path1476"
       inkscape:connector-curvature="0"
       style="fill:#fffef7" />
    <path
       d="m 28.162959,336.15237 2.125648,0.10982 0.184342,-3.27073 -2.342403,-0.27374 0.03241,3.43465 z"
       id="path1478"
       inkscape:connector-curvature="0"
       style="fill:#fffef7" />
    <path
       d="m 44.474649,337.82133 -3.883434,-1.24414 1.159045,-2.25607 2.64046,1.27665 0.08393,2.22356 z"
       id="path1480"
       inkscape:connector-curvature="0"
       style="fill:#fffef7" />
    <path
       d="m 44.156494,335.0664 -2.338194,-1.29469 1.323468,-2.38666 1.074042,0.57618 -0.05932,3.10517 z"
       id="path1482"
       inkscape:connector-curvature="0"
       style="fill:#fffef7" />
    <path
       d="m 40.134902,336.31519 0.994617,-2.12521 -3.098147,-1.30917 -0.965245,2.64839 3.068775,0.78599 z"
       id="path1484"
       inkscape:connector-curvature="0"
       style="fill:#fffef7" />
    <path
       d="m 41.453015,333.72882 -3.05723,-1.29851 2.048536,-3.57097 2.602976,2.06128 -1.594282,2.8082 z"
       id="path1486"
       inkscape:connector-curvature="0"
       style="fill:#fffef7" />
    <path
       d="m 37.808582,332.03718 -2.776666,-2.16291 1.303441,-2.78253 3.325908,1.5056 -1.852683,3.43984 z"
       id="path1488"
       inkscape:connector-curvature="0"
       style="fill:#fffef7" />
    <path
       d="m 37.647448,332.66608 -2.971957,-2.39895 0.173863,3.53737 1.641167,1.49439 1.156927,-2.63281 z"
       id="path1490"
       inkscape:connector-curvature="0"
       style="fill:#fffef7" />
    <path
       d="m 34.293928,329.24919 1.192025,-2.28859 -2.054426,-0.91658 0.862401,3.20517 z"
       id="path1492"
       inkscape:connector-curvature="0"
       style="fill:#fffef7" />
    <path
       d="m 31.019558,329.90186 2.84449,0.0994 -1.085497,-4.08841 -2.158347,-0.0336 0.399354,4.02258 z"
       id="path1494"
       inkscape:connector-curvature="0"
       style="fill:#fffef7" />
    <path
       d="m 29.92647,332.09236 -1.960142,-0.32783 0.185788,-3.46634 2.223437,0.0664 -0.449083,3.72779 z"
       id="path1496"
       inkscape:connector-curvature="0"
       style="fill:#fffef7" />
    <path
       d="m 30.119471,327.51438 -2.256026,-0.0992 0.345896,-4.15262 2.162017,-0.12376 -0.251887,4.37555 z"
       id="path1498"
       inkscape:connector-curvature="0"
       style="fill:#fffef7" />
    <path
       d="m 31.064321,325.25885 1.413504,-0.041 -1.360193,-1.78781 -0.05331,1.82879 z"
       id="path1500"
       inkscape:connector-curvature="0"
       style="fill:#fffef7" />
    <path
       d="m 49.072974,334.15529 1.274645,-0.21173 -0.1215,-3.11201 -2.051169,-10e-4 0.898024,3.32483 z"
       id="path1502"
       inkscape:connector-curvature="0"
       style="fill:#fffef7" />
    <path
       d="m 41.067346,298.89083 -2.871076,-1.95473 3.401711,-2.2987 1.32238,0.66743 -1.853015,3.586 z"
       id="path1504"
       inkscape:connector-curvature="0"
       style="fill:#fffef7" />
    <path
       d="m 37.747185,296.51728 -2.825152,-2.64319 6.813405,-0.0634 -3.988253,2.70658 z"
       id="path1506"
       inkscape:connector-curvature="0"
       style="fill:#fffef7" />
    <path
       d="m 37.497408,297.12187 -2.798974,-2.86203 -0.137189,3.79091 1.944451,1.39631 0.991712,-2.32519 z"
       id="path1508"
       inkscape:connector-curvature="0"
       style="fill:#fffef7" />
    <path
       d="m 30.890134,294.70161 3.362063,0.48683 0.168798,-1.40669 -3.532336,-0.0653 0.0013,0.98516 z"
       id="path1510"
       inkscape:connector-curvature="0"
       style="fill:#fffef7" />
    <path
       d="m 30.093404,296.94839 -2.064743,-0.1519 0.09338,-2.77105 2.343246,-0.0494 -0.371881,2.9724 z"
       id="path1512"
       inkscape:connector-curvature="0"
       style="fill:#fffef7" />
    <path
       d="m 34.589504,341.56005 1.247298,-1.66541 5.643203,1.68427 -6.890501,-0.0188 z"
       id="path1514"
       inkscape:connector-curvature="0"
       style="fill:#fffef7" />
    <path
       d="m 30.813989,341.08934 2.810005,-0.39122 -0.310014,-2.01648 -2.681109,-1.87878 0.181118,4.28648 z"
       id="path1516"
       inkscape:connector-curvature="0"
       style="fill:#fffef7" />
    <path
       d="m 56.458198,306.74211 0.13667,-3.9764 3.10943,0.24533 -0.0859,3.84308 -3.16023,-0.11201 z"
       id="path1518"
       inkscape:connector-curvature="0"
       style="fill:#fffef7" />
    <path
       d="m 56.563278,302.33815 2.90709,0.0932 0.32236,-3.82696 -3.10435,-0.001 -0.1251,3.73517 z"
       id="path1520"
       inkscape:connector-curvature="0"
       style="fill:#fffef7" />
    <path
       d="m 56.369498,320.35695 -0.0404,-3.59857 3.01004,0.056 0.0316,3.61277 -3.00121,-0.0702 z"
       id="path1522"
       inkscape:connector-curvature="0"
       style="fill:#fffef7" />
    <path
       d="m 56.336568,316.23193 3.34285,0.13824 0.0258,-4.02613 -2.98623,-0.4281 -0.38239,4.31599 z"
       id="path1524"
       inkscape:connector-curvature="0"
       style="fill:#fffef7" />
    <path
       d="m 56.777358,311.60941 -0.31348,-4.44766 3.45542,0.36334 -0.0881,4.20917 -3.05388,-0.12485 z"
       id="path1526"
       inkscape:connector-curvature="0"
       style="fill:#fffef7" />
    <path
       d="m 56.730958,333.11696 -0.30387,-3.9092 3.48456,0.10546 -0.1279,3.74555 -3.05279,0.0582 z"
       id="path1528"
       inkscape:connector-curvature="0"
       style="fill:#fffef7" />
    <path
       d="m 56.322928,328.71819 3.33109,0.23085 -0.0284,-3.69364 -3.01564,-0.26145 -0.28705,3.72424 z"
       id="path1530"
       inkscape:connector-curvature="0"
       style="fill:#fffef7" />
    <path
       d="m 56.432358,324.63606 -0.0547,-3.96001 3.12004,0.20954 -0.0769,3.84964 -2.98847,-0.0992 z"
       id="path1532"
       inkscape:connector-curvature="0"
       style="fill:#fffef7" />
    <path
       d="m 56.791598,341.36728 2.99124,-0.0891 0.0756,-3.64146 -3.0403,-0.43193 -0.0266,4.16245 z"
       id="path1534"
       inkscape:connector-curvature="0"
       style="fill:#fffef7" />
    <path
       d="m 57.048698,336.80569 -0.33803,-3.17594 3.27697,0.0533 -0.17794,3.43356 -2.761,-0.3109 z"
       id="path1536"
       inkscape:connector-curvature="0"
       style="fill:#fffef7" />
    <path
       d="m 30.707187,322.80854 -2.584413,-0.32675 0.185791,-3.46634 2.207418,-0.17813 0.191204,3.97122 z"
       id="path1538"
       inkscape:connector-curvature="0"
       style="fill:#fffef7" />
    <path
       d="m 56.590148,298.12844 2.90737,0.0932 0.11107,-4.08241 -3.01911,-10e-4 5.1e-4,3.99061 z"
       id="path1540"
       inkscape:connector-curvature="0"
       style="fill:#fffef7" />
    <path
       d="m 34.441403,341.06338 1.164325,-1.22283 -1.880274,-0.61825 0.715949,1.84108 z"
       id="path1542"
       inkscape:connector-curvature="0"
       style="fill:#fffef7" />
    <path
       d="m 48.061351,330.3663 -0.450633,-2.85001 2.957981,-0.0555 -0.416804,2.90055 -2.090544,0.005 z"
       id="path1544"
       inkscape:connector-curvature="0"
       style="fill:#fffef7" />
    <path
       d="m 3.3322111,312.09472 2.6535733,1.50477 -0.702718,2.65248 -2.6285511,-1.21245 0.6776958,-2.9448 z"
       id="path1548"
       inkscape:connector-curvature="0"
       style="fill:#fffef7" />
    <path
       d="m 2.509343,315.46707 2.6281252,1.28349 -1.7225678,2.56096 -2.4156319,-1.70749 1.5100745,-2.13696 z"
       id="path1550"
       inkscape:connector-curvature="0"
       style="fill:#fffef7" />
    <path
       d="m 2.7431379,312.33212 -0.5006361,2.21073 -3.8088231,-2.19242 0.2676311,-1.54631 4.0418281,1.528 z"
       id="path1552"
       inkscape:connector-curvature="0"
       style="fill:#fffef7" />
    <path
       d="m -1.6555515,312.86595 3.465225,2.19215 -1.64819183,2.49075 -1.78897367,-2.36317 -0.02806,-2.31973 z"
       id="path1554"
       inkscape:connector-curvature="0"
       style="fill:#fffef7" />
    <path
       d="m 6.6485489,314.83298 -0.9435939,1.86267 1.788235,0.93242 0.1169748,-2.10471 -0.9616159,-0.69038 z"
       id="path1556"
       inkscape:connector-curvature="0"
       style="fill:#fffef7" />
    <path
       d="m 5.4936691,317.35105 -1.2182731,1.74601 3.6826917,1.32583 0.3580673,-2.0356 -2.8224859,-1.03624 z"
       id="path1558"
       inkscape:connector-curvature="0"
       style="fill:#fffef7" />
    <path
       d="m 11.765957,318.45778 -2.8986977,0.10245 -0.3616542,2.58746 3.5549949,-0.20544 -0.294643,-2.48447 z"
       id="path1560"
       inkscape:connector-curvature="0"
       style="fill:#fffef7" />
    <path
       d="m 14.016849,317.1803 -1.99835,0.11966 0.388598,3.40078 1.620255,0.24232 -0.01052,-3.76276 z"
       id="path1562"
       inkscape:connector-curvature="0"
       style="fill:#fffef7" />
    <path
       d="m -4.8944945,311.12213 3.0048592,0.2456 -0.3081249,-0.9827 -2.4353208,-2.54757 -0.2614135,3.28467 z"
       id="path1564"
       inkscape:connector-curvature="0"
       style="fill:#fffef7" />
    <path
       d="m -5.3312902,308.69367 -0.3238537,2.34814 -2.728704,0.71987 0.3405233,-3.06911 2.7120344,0.001 z"
       id="path1566"
       inkscape:connector-curvature="0"
       style="fill:#fffef7" />
    <path
       d="m -6.3428227,312.08297 -1.966561,0.56005 0.5382149,3.52563 2.0048226,-0.27975 -0.5764765,-3.80593 z"
       id="path1568"
       inkscape:connector-curvature="0"
       style="fill:#fffef7" />
    <path
       d="m -5.6926574,316.89044 -1.9637281,0.11939 -0.3405282,3.12457 3.4883106,-0.47919 -1.1840543,-2.76477 z"
       id="path1570"
       inkscape:connector-curvature="0"
       style="fill:#fffef7" />
    <path
       d="m -3.7931619,320.53682 -3.9284712,0.39887 -0.091432,1.76268 4.7692227,-0.31855 -0.7493199,-1.843 z"
       id="path1572"
       inkscape:connector-curvature="0"
       style="fill:#fffef7" />
    <path
       d="m -2.0587509,322.14405 2.95647979,1.16109 -0.78917689,2.4913 -2.7439141,-0.81741 0.5766112,-2.83498 z"
       id="path1574"
       inkscape:connector-curvature="0"
       style="fill:#fffef7" />
    <path
       d="m 1.3702501,323.30541 3.7304841,1.03242 -1.3666537,3.02758 -3.11145402,-1.35396 0.74762362,-2.70604 z"
       id="path1576"
       inkscape:connector-curvature="0"
       style="fill:#fffef7" />
    <path
       d="m 5.7428765,324.68179 -1.3247838,2.55959 0.796803,1.61515 2.3037222,-0.93051 -1.7757414,-3.24423 z"
       id="path1578"
       inkscape:connector-curvature="0"
       style="fill:#fffef7" />
    <path
       d="m 0.69471776,326.80508 2.70750314,1.14033 -1.1747861,1.96539 -2.7016182,-2.008 1.16890116,-1.09772 z"
       id="path1580"
       inkscape:connector-curvature="0"
       style="fill:#fffef7" />
    <path
       d="m 0.23382669,326.35485 -1.08269956,1.37419 -0.89739313,-0.7308 -0.5060879,-1.46052 2.48618059,0.81713 z"
       id="path1582"
       inkscape:connector-curvature="0"
       style="fill:#fffef7" />
    <path
       d="m 3.6735614,328.34647 -0.8946044,1.62061 1.9604448,0.68846 0.5720168,-1.1294 -1.6378572,-1.17967 z"
       id="path1584"
       inkscape:connector-curvature="0"
       style="fill:#fffef7" />
    <path
       d="m 7.7809172,328.3768 -1.8948901,0.7726 -0.6580456,1.89955 2.4014457,0.86057 0.15149,-3.53272 z"
       id="path1586"
       inkscape:connector-curvature="0"
       style="fill:#fffef7" />
    <path
       d="m -6.2897997,323.28301 -0.068163,2.97185 -1.920259,0.71141 0.3907851,-3.48738 1.5976366,-0.19588 z"
       id="path1588"
       inkscape:connector-curvature="0"
       style="fill:#fffef7" />
    <path
       d="m -6.4349797,326.77039 -1.8463776,0.68709 0.2520089,2.82433 2.6790871,-0.31801 -1.0847184,-3.19341 z"
       id="path1590"
       inkscape:connector-curvature="0"
       style="fill:#fffef7" />
    <path
       d="m -4.7888541,330.50419 -2.9994327,0.49012 -0.03973,2.3577 4.229653,-0.83325 -1.1904901,-2.01457 z"
       id="path1592"
       inkscape:connector-curvature="0"
       style="fill:#fffef7" />
    <path
       d="m -6.2357135,333.9913 -1.6713166,0.19561 0.1040283,2.92267 1.5966974,-0.0483 -0.029409,-3.06993 z"
       id="path1594"
       inkscape:connector-curvature="0"
       style="fill:#fffef7" />
    <path
       d="m -3.1591157,332.96106 -2.287849,0.58847 -0.061248,1.89108 2.8251647,-0.12185 -0.4760679,-2.3577 z"
       id="path1596"
       inkscape:connector-curvature="0"
       style="fill:#fffef7" />
    <path
       d="m 10.127435,321.71922 3.559714,-0.21746 0.258542,2.35387 -1.999149,0.16338 -1.819107,-2.29979 z"
       id="path1598"
       inkscape:connector-curvature="0"
       style="fill:#fffef7" />
    <path
       d="m 12.325189,324.70364 1.861296,5.2e-4 -0.01702,2.65521 -1.889764,0.1907 0.04547,-2.84646 z"
       id="path1600"
       inkscape:connector-curvature="0"
       style="fill:#fffef7" />
    <path
       d="m 8.543016,329.76546 3.310225,0.2478 -0.125739,2.51806 -3.500916,-0.38466 0.31643,-2.3812 z"
       id="path1602"
       inkscape:connector-curvature="0"
       style="fill:#fffef7" />
    <path
       d="m 11.806671,332.99685 -2.1331227,-0.27484 1.8999077,2.49185 0.233215,-2.21701 z"
       id="path1604"
       inkscape:connector-curvature="0"
       style="fill:#fffef7" />
    <path
       d="m 12.604216,328.1525 1.587387,0.0279 0.06331,2.92868 -2.106628,-0.13769 0.455927,-2.81886 z"
       id="path1606"
       inkscape:connector-curvature="0"
       style="fill:#fffef7" />
    <path
       d="m 14.306164,331.62922 -2.024394,-0.13769 -0.01782,2.79182 2.107119,0.0557 -0.0649,-2.70986 z"
       id="path1608"
       inkscape:connector-curvature="0"
       style="fill:#fffef7" />
    <path
       d="m 14.260373,335.16741 -2.125377,-0.10982 -0.184612,3.27073 2.342402,0.27375 -0.03241,-3.43466 z"
       id="path1610"
       inkscape:connector-curvature="0"
       style="fill:#fffef7" />
    <path
       d="m -2.0512383,333.49845 3.8836255,1.24414 -1.15915363,2.25607 -2.64064987,-1.27665 -0.083822,-2.22356 z"
       id="path1612"
       inkscape:connector-curvature="0"
       style="fill:#fffef7" />
    <path
       d="m -1.8743447,336.50691 2.08598117,1.08023 -1.32339077,2.38666 -1.590198,-1.89737 0.8276076,-1.56952 z"
       id="path1614"
       inkscape:connector-curvature="0"
       style="fill:#fffef7" />
    <path
       d="m 2.2884263,335.00459 -0.8703775,1.34332 2.9739102,2.09105 0.9652381,-2.64838 -3.0687708,-0.78599 z"
       id="path1616"
       inkscape:connector-curvature="0"
       style="fill:#fffef7" />
    <path
       d="m -6.6536643,337.79012 -1.2745101,0.21173 0.121498,3.112 2.0511951,10e-4 -0.898183,-3.32482 z"
       id="path1618"
       inkscape:connector-curvature="0"
       style="fill:#fffef7" />
    <path
       d="m -5.5788762,294.1647 -2.5842904,-0.0415 0.2082973,3.61278 4.2296514,-0.83298 -1.8536583,-2.73827 z"
       id="path1620"
       inkscape:connector-curvature="0"
       style="fill:#fffef7" />
    <path
       d="m -6.3027965,297.92036 -1.6713166,0.19561 0.1040558,2.92268 1.596698,-0.0484 -0.029437,-3.06993 z"
       id="path1622"
       inkscape:connector-curvature="0"
       style="fill:#fffef7" />
    <path
       d="m -3.2859956,297.345 -2.2878495,0.58847 -0.061248,1.89108 2.8251629,-0.12157 -0.4760658,-2.35798 z"
       id="path1624"
       inkscape:connector-curvature="0"
       style="fill:#fffef7" />
    <path
       d="m 14.379362,294.48462 -2.654078,0.21992 0.411726,3.96301 2.10712,0.0557 0.135232,-4.23867 z"
       id="path1626"
       inkscape:connector-curvature="0"
       style="fill:#fffef7" />
    <path
       d="m 14.133434,299.55163 -2.125374,-0.10983 -0.18461,3.27073 2.3424,0.27375 -0.03242,-3.43465 z"
       id="path1628"
       inkscape:connector-curvature="0"
       style="fill:#fffef7" />
    <path
       d="m -2.1781185,297.88239 3.8835147,1.24441 -1.15904382,2.25607 -2.64065038,-1.27665 -0.08382,-2.22383 z"
       id="path1630"
       inkscape:connector-curvature="0"
       style="fill:#fffef7" />
    <path
       d="m -1.8600737,300.63759 2.33814268,1.29442 -1.32339107,2.38666 -1.07398841,-0.57591 0.059237,-3.10517 z"
       id="path1632"
       inkscape:connector-curvature="0"
       style="fill:#fffef7" />
    <path
       d="m 2.1614902,299.38852 -0.994639,2.12522 3.0981714,1.30944 0.9655118,-2.64839 -3.0690442,-0.78627 z"
       id="path1634"
       inkscape:connector-curvature="0"
       style="fill:#fffef7" />
    <path
       d="m 0.84337581,301.97517 3.05750629,1.29824 -2.0488083,3.57097 -2.60289262,-2.06128 1.59419463,-2.80793 z"
       id="path1636"
       inkscape:connector-curvature="0"
       style="fill:#fffef7" />
    <path
       d="m 4.4878132,303.66681 2.7769403,2.16292 -1.3037189,2.78253 -3.3259058,-1.50588 1.8526844,-3.43957 z"
       id="path1638"
       inkscape:connector-curvature="0"
       style="fill:#fffef7" />
    <path
       d="m 4.6492188,303.03792 2.9716783,2.39894 -0.1738596,-3.53764 -1.6411622,-1.49412 -1.1566565,2.63282 z"
       id="path1640"
       inkscape:connector-curvature="0"
       style="fill:#fffef7" />
    <path
       d="m 8.0024661,306.4548 -1.1920199,2.28859 2.0544227,0.9163 -0.8624028,-3.20489 z"
       id="path1642"
       inkscape:connector-curvature="0"
       style="fill:#fffef7" />
    <path
       d="m 11.276838,305.80214 -2.844492,-0.0994 1.0857748,4.08814 2.1580662,0.0336 -0.399349,-4.0223 z"
       id="path1644"
       inkscape:connector-curvature="0"
       style="fill:#fffef7" />
    <path
       d="m 12.370194,303.61136 1.959872,0.3281 -0.185786,3.46607 -2.223166,-0.0664 0.44908,-3.72779 z"
       id="path1646"
       inkscape:connector-curvature="0"
       style="fill:#fffef7" />
    <path
       d="m 12.177196,308.18962 2.255752,0.0992 -0.345625,4.15261 -2.16229,0.12376 0.252163,-4.37554 z"
       id="path1648"
       inkscape:connector-curvature="0"
       style="fill:#fffef7" />
    <path
       d="m 11.23207,310.44514 -1.4132282,0.041 1.3599202,1.78781 0.05331,-1.82879 z"
       id="path1650"
       inkscape:connector-curvature="0"
       style="fill:#fffef7" />
    <path
       d="m -6.7765228,301.54871 -1.2745091,0.21145 0.1214699,3.11228 2.0511964,7.8e-4 -0.8981572,-3.32455 z"
       id="path1652"
       inkscape:connector-curvature="0"
       style="fill:#fffef7" />
    <path
       d="m 1.2290201,336.81317 2.8711029,1.95473 -3.40151768,2.29842 -1.32257235,-0.66715 1.85298713,-3.586 z"
       id="path1654"
       inkscape:connector-curvature="0"
       style="fill:#fffef7" />
    <path
       d="m 4.5492088,339.18671 2.8251497,2.64319 -6.81337543,0.0634 3.98822573,-2.70658 z"
       id="path1656"
       inkscape:connector-curvature="0"
       style="fill:#fffef7" />
    <path
       d="m 4.7989861,338.58212 2.798974,2.86203 0.1374673,-3.79118 -1.9447274,-1.39604 -0.9917139,2.32519 z"
       id="path1658"
       inkscape:connector-curvature="0"
       style="fill:#fffef7" />
    <path
       d="m 11.406265,341.00239 -3.3617928,-0.48684 -0.1690737,1.40642 3.5323365,0.0656 -0.0013,-0.98515 z"
       id="path1660"
       inkscape:connector-curvature="0"
       style="fill:#fffef7" />
    <path
       d="m 12.202993,338.75533 2.064739,0.15217 -0.0931,2.77105 -2.343253,0.0495 0.371613,-2.97267 z"
       id="path1662"
       inkscape:connector-curvature="0"
       style="fill:#fffef7" />
    <path
       d="m 7.7068921,294.14393 -1.2472982,1.66515 -5.64317441,-1.684 6.89047261,0.0188 z"
       id="path1664"
       inkscape:connector-curvature="0"
       style="fill:#fffef7" />
    <path
       d="m 11.482397,294.61466 -2.8100029,0.39122 0.3100169,2.01648 2.681107,1.87878 -0.181121,-4.28648 z"
       id="path1666"
       inkscape:connector-curvature="0"
       style="fill:#fffef7" />
    <path
       d="m -13.939322,328.96189 -0.13669,3.97613 -3.109442,-0.24506 0.08565,-3.84309 3.160481,0.11202 z"
       id="path1668"
       inkscape:connector-curvature="0"
       style="fill:#fffef7" />
    <path
       d="m -14.044507,333.36557 -2.907174,-0.0932 -0.322201,3.82724 3.104264,0.001 0.125111,-3.73545 z"
       id="path1670"
       inkscape:connector-curvature="0"
       style="fill:#fffef7" />
    <path
       d="m -13.850698,315.34704 0.04053,3.59857 -3.010284,-0.056 -0.03154,-3.61277 3.001293,0.0702 z"
       id="path1672"
       inkscape:connector-curvature="0"
       style="fill:#fffef7" />
    <path
       d="m -13.817941,319.47206 -3.342793,-0.13824 -0.02582,4.02586 2.986251,0.42837 0.382365,-4.31599 z"
       id="path1674"
       inkscape:connector-curvature="0"
       style="fill:#fffef7" />
    <path
       d="m -14.258696,324.09458 0.313584,4.44767 -3.455393,-0.36363 0.08803,-4.20889 3.053774,0.12485 z"
       id="path1676"
       inkscape:connector-curvature="0"
       style="fill:#fffef7" />
    <path
       d="m -14.212129,302.58703 0.303916,3.9092 -3.484806,-0.10545 0.128095,-3.74556 3.052795,-0.0582 z"
       id="path1678"
       inkscape:connector-curvature="0"
       style="fill:#fffef7" />
    <path
       d="m -13.80419,306.9858 -3.331036,-0.23085 0.02829,3.69364 3.015611,0.26118 0.287131,-3.72397 z"
       id="path1680"
       inkscape:connector-curvature="0"
       style="fill:#fffef7" />
    <path
       d="m -13.913676,311.06793 0.05476,3.95974 -3.119956,-0.20927 0.0767,-3.84964 2.988498,0.0992 z"
       id="path1682"
       inkscape:connector-curvature="0"
       style="fill:#fffef7" />
    <path
       d="m -14.272723,294.33671 -2.991482,0.0888 -0.07537,3.64174 3.040131,0.43192 0.02673,-4.16245 z"
       id="path1684"
       inkscape:connector-curvature="0"
       style="fill:#fffef7" />
    <path
       d="m -14.53007,298.89831 0.33809,3.17593 -3.277023,-0.0535 0.178105,-3.43329 2.760828,0.3109 z"
       id="path1686"
       inkscape:connector-curvature="0"
       style="fill:#fffef7" />
    <path
       d="m 11.589483,312.89519 2.584137,0.32702 -0.185789,3.46634 -2.207147,0.17812 -0.191201,-3.97148 z"
       id="path1688"
       inkscape:connector-curvature="0"
       style="fill:#fffef7" />
    <path
       d="m -14.071516,337.57556 -2.907174,-0.0932 -0.111237,4.0824 3.019219,0.001 -8.25e-4,-3.99033 z"
       id="path1690"
       inkscape:connector-curvature="0"
       style="fill:#fffef7" />
    <path
       d="m 7.8549886,294.64061 -1.1643228,1.22284 1.8802743,0.61797 -0.7159515,-1.84081 z"
       id="path1692"
       inkscape:connector-curvature="0"
       style="fill:#fffef7" />
    <path
       d="m -5.7647941,305.3377 0.4505533,2.84973 -2.9579801,0.0557 0.4167461,-2.90054 2.0906807,-0.005 z"
       id="path1694"
       inkscape:connector-curvature="0"
       style="fill:#fffef7" />
    <path
       style="fill:#d8d3b3;fill-opacity:1"
       d="m 22.896751,312.48856 -0.313748,-4.44766 3.88963,0.0281 0.07254,4.5351 -3.648422,-0.11557 z"
       id="path4384"
       inkscape:connector-curvature="0" />
    <path
       style="fill:#d8d3b3;fill-opacity:1"
       d="m 22.701233,307.41363 3.46546,-0.21774 0.322036,-3.54393 -3.760907,-0.40078 -0.02658,4.16245 z"
       id="path4382"
       inkscape:connector-curvature="0" />
    <path
       style="fill:#d8d3b3;fill-opacity:1"
       d="m 22.814681,302.70724 0.0395,-3.99197 3.579365,-0.16884 0.02955,4.27637 -3.648416,-0.11556 z"
       id="path4380"
       inkscape:connector-curvature="0" />
    <path
       inkscape:connector-curvature="0"
       style="fill:#d8d3b3;fill-opacity:1"
       d="m 33.852581,297.72892 -3.547886,0.93324 1.79686,3.64092 2.57848,-3.19642 -0.827454,-1.37774 z"
       id="path4378" />
    <path
       inkscape:connector-curvature="0"
       style="fill:#d8d3b3;fill-opacity:1"
       d="m 32.886594,302.59868 2.383823,-3.49175 1.369271,1.23049 -0.808499,3.34477 -2.944595,-1.08351 z"
       id="path4376" />
    <path
       inkscape:connector-curvature="0"
       style="fill:#d8d3b3;fill-opacity:1"
       d="m 36.272863,303.87916 0.743685,-3.01447 2.449285,0.39996 -0.423333,3.76331 -2.769637,-1.1488 z"
       id="path4374" />
    <path
       inkscape:connector-curvature="0"
       style="fill:#d8d3b3;fill-opacity:1"
       d="m 39.60216,305.09298 0.364192,-3.42099 4.867251,2.01402 -2.427141,2.60604 -2.804302,-1.19907 z"
       id="path4372" />
    <path
       inkscape:connector-curvature="0"
       style="fill:#d8d3b3;fill-opacity:1"
       d="m 42.896741,306.5382 2.42626,-2.45851 2.240912,3.39531 -2.763747,1.42528 -1.903425,-2.36208 z"
       id="path4370" />
    <path
       inkscape:connector-curvature="0"
       style="fill:#d8d3b3;fill-opacity:1"
       d="m 45.091996,309.39258 2.909487,-1.08105 -0.0086,4.31189 -2.479419,0.11447 -0.421434,-3.34531 z"
       id="path4368" />
    <path
       style="fill:#d8d3b3;fill-opacity:1"
       d="m 23.09239,327.11451 -0.313467,-4.44794 3.932335,0.28686 0.02956,4.27665 -3.648424,-0.11557 z"
       id="path4366"
       inkscape:connector-curvature="0" />
    <path
       style="fill:#d8d3b3;fill-opacity:1"
       d="m 22.896872,322.03958 3.719631,0.22239 0.06787,-3.98433 -3.76091,-0.40078 -0.02658,4.16272 z"
       id="path4364"
       inkscape:connector-curvature="0" />
    <path
       style="fill:#d8d3b3;fill-opacity:1"
       d="m 23.154251,317.47798 -0.313748,-4.44766 3.932616,0.28658 0.02955,4.27665 -3.648414,-0.11557 z"
       id="path4362"
       inkscape:connector-curvature="0" />
    <path
       inkscape:connector-curvature="0"
       style="fill:#d8d3b3;fill-opacity:1"
       d="m 52.438733,303.35172 -0.313748,-4.44767 3.932613,0.28658 0.0296,4.27665 -3.648425,-0.11556 z"
       id="path4360" />
    <path
       inkscape:connector-curvature="0"
       style="fill:#d8d3b3;fill-opacity:1"
       d="m 52.295083,298.32896 3.719355,0.22239 -0.002,-4.42773 -3.690619,0.0429 -0.02658,4.16245 z"
       id="path4358" />
    <path
       inkscape:connector-curvature="0"
       style="fill:#d8d3b3;fill-opacity:1"
       d="m 52.409711,317.72032 -0.09053,-4.58646 3.720657,0.46198 -0.18382,4.23047 -3.446303,-0.10599 z"
       id="path4356" />
    <path
       inkscape:connector-curvature="0"
       style="fill:#d8d3b3;fill-opacity:1"
       d="m 52.545376,312.5891 3.719632,0.22238 0.0679,-3.98405 -3.917046,-0.19451 0.129554,3.95618 z"
       id="path4354" />
    <path
       inkscape:connector-curvature="0"
       style="fill:#d8d3b3;fill-opacity:1"
       d="m 52.540628,308.18432 0.06179,-4.1996 3.55709,0.0385 0.0296,4.27665 -3.648425,-0.11557 z"
       id="path4352" />
    <path
       inkscape:connector-curvature="0"
       style="fill:#d8d3b3;fill-opacity:1"
       d="m 52.437194,331.68649 0.171686,-4.30424 3.447178,0.14316 0.0296,4.27665 -3.648424,-0.11557 z"
       id="path4350" />
    <path
       inkscape:connector-curvature="0"
       style="fill:#d8d3b3;fill-opacity:1"
       d="m 52.664777,326.80771 3.137561,0.33959 0.0681,-3.98432 -3.285531,-0.21993 0.07983,3.86466 z"
       id="path4348" />
    <path
       inkscape:connector-curvature="0"
       style="fill:#d8d3b3;fill-opacity:1"
       d="m 52.403587,322.4797 0.369199,-4.39357 3.249942,0.23249 0.0296,4.27665 -3.648691,-0.11557 z"
       id="path4346" />
    <path
       style="fill:#d8d3b3;fill-opacity:1"
       d="m 52.646876,341.23723 3.719632,0.22239 0.0679,-3.98405 -3.760633,-0.40078 -0.02685,4.16244 z"
       id="path4344"
       inkscape:connector-curvature="0" />
    <path
       inkscape:connector-curvature="0"
       style="fill:#d8d3b3;fill-opacity:1"
       d="m 52.694694,336.67564 -0.313469,-4.44767 3.932603,0.28686 0.0296,4.27665 -3.648694,-0.11584 z"
       id="path4342" />
    <path
       inkscape:connector-curvature="0"
       style="fill:#d8d3b3;fill-opacity:1"
       d="m 33.990643,306.55486 -3.590634,-0.22975 0.03263,3.76358 3.996752,-0.79665 -0.438746,-2.73718 z"
       id="path4340" />
    <path
       inkscape:connector-curvature="0"
       style="fill:#d8d3b3;fill-opacity:1"
       d="m 30.881157,311.28612 3.941701,-1.13869 1.302876,1.369 -3.151487,2.39376 -2.09309,-2.62407 z"
       id="path4338" />
    <path
       inkscape:connector-curvature="0"
       style="fill:#d8d3b3;fill-opacity:1"
       d="m 34.394807,314.65192 2.126374,-2.56506 2.449285,0.40024 -0.423336,3.76331 -4.152323,-1.59849 z"
       id="path4336" />
    <path
       inkscape:connector-curvature="0"
       style="fill:#d8d3b3;fill-opacity:1"
       d="m 38.897635,316.02393 0.586037,-3.28658 4.870217,1.3373 -2.791339,3.20326 -2.664915,-1.25398 z"
       id="path4334" />
    <path
       inkscape:connector-curvature="0"
       style="fill:#d8d3b3;fill-opacity:1"
       d="m 42.073562,317.62022 2.585349,-3.02103 1.978559,2.6809 -3.149163,2.05145 -1.414745,-1.71132 z"
       id="path4332" />
    <path
       inkscape:connector-curvature="0"
       style="fill:#d8d3b3;fill-opacity:1"
       d="m 43.960474,319.36405 2.885425,-1.48811 0.690578,3.24805 -2.685473,0.85402 -0.89053,-2.61396 z"
       id="path4330" />
    <path
       inkscape:connector-curvature="0"
       style="fill:#d8d3b3;fill-opacity:1"
       d="m 44.609154,322.35393 3.311708,-0.68272 -0.128347,2.22383 -3.30767,0.0555 0.124309,-1.59658 z"
       id="path4328" />
    <path
       inkscape:connector-curvature="0"
       style="fill:#d8d3b3;fill-opacity:1"
       d="m 34.248569,318.08274 -3.59091,-0.22948 0.568794,4.78726 3.192129,-1.33512 -0.170013,-3.22266 z"
       id="path4326" />
    <path
       inkscape:connector-curvature="0"
       style="fill:#d8d3b3;fill-opacity:1"
       d="m 31.457236,323.42678 3.510387,-1.92468 1.415758,1.54248 -2.387405,2.85929 -2.53874,-2.47709 z"
       id="path4324" />
    <path
       inkscape:connector-curvature="0"
       style="fill:#d8d3b3;fill-opacity:1"
       d="m 34.65273,326.1798 2.126101,-2.56478 2.449287,0.39996 -0.423064,3.76331 -4.152324,-1.59849 z"
       id="path4322" />
    <path
       inkscape:connector-curvature="0"
       style="fill:#d8d3b3;fill-opacity:1"
       d="m 39.228459,327.69605 0.364186,-3.42126 3.472339,0.91385 -1.675538,3.42044 -2.160987,-0.91303 z"
       id="path4320" />
    <path
       inkscape:connector-curvature="0"
       style="fill:#d8d3b3;fill-opacity:1"
       d="m 43.206142,330.03491 2.845758,-2.43584 1.310013,2.95819 -2.516107,1.54139 -1.639664,-2.06374 z"
       id="path4318" />
    <path
       inkscape:connector-curvature="0"
       style="fill:#d8d3b3;fill-opacity:1"
       d="m 44.904686,332.34835 2.773459,-1.54139 0.372028,4.61597 -3.307407,0.0557 0.16192,-3.13031 z"
       id="path4316" />
    <path
       inkscape:connector-curvature="0"
       style="fill:#d8d3b3;fill-opacity:1"
       d="m 34.28138,330.61327 -3.590642,-0.22949 0.01774,3.01174 3.231533,-0.66196 0.341368,-2.12029 z"
       id="path4314" />
    <path
       inkscape:connector-curvature="0"
       style="fill:#d8d3b3;fill-opacity:1"
       d="m 32.537786,337.64021 2.845967,-2.56288 1.825878,0.89609 -2.141962,3.43329 -2.529883,-1.7665 z"
       id="path4312" />
    <path
       inkscape:connector-curvature="0"
       style="fill:#d8d3b3;fill-opacity:1"
       d="m 35.857774,339.35835 1.571349,-2.94726 2.449279,0.39996 -0.423335,3.76331 -3.597293,-1.21601 z"
       id="path4310" />
    <path
       inkscape:connector-curvature="0"
       style="fill:#d8d3b3;fill-opacity:1"
       d="m 39.913309,340.46754 0.363921,-3.42099 3.472613,0.91357 -1.675541,3.42072 -2.160993,-0.9133 z"
       id="path4308" />
    <path
       inkscape:connector-curvature="0"
       style="fill:#d8d3b3;fill-opacity:1"
       d="m 42.278749,341.72999 2.670898,-3.07212 2.201215,2.95327 -4.872113,0.11885 z"
       id="path4306" />
    <path
       inkscape:connector-curvature="0"
       style="fill:#d8d3b3;fill-opacity:1"
       d="m 42.518715,293.76262 4.917174,0.0208 -3.502429,1.69055 -1.414745,-1.71131 z"
       id="path4304" />
    <path
       inkscape:connector-curvature="0"
       style="fill:#d8d3b3;fill-opacity:1"
       d="m 44.285423,296.08382 3.14814,-1.88043 0.26806,2.68035 -2.68547,0.85402 -0.73073,-1.65394 z"
       id="path4302" />
    <path
       inkscape:connector-curvature="0"
       style="fill:#d8d3b3;fill-opacity:1"
       d="m 44.891723,298.27367 3.311708,-0.68272 -0.128346,2.22357 -3.307675,0.0557 0.124313,-1.59658 z"
       id="path4300" />
    <path
       style="fill:#d8d3b3;fill-opacity:1"
       d="m 22.644789,336.97698 0.180327,-4.55995 3.438815,0.39887 -0.142413,4.11546 -3.476729,0.0456 z"
       id="path4298"
       inkscape:connector-curvature="0" />
    <path
       style="fill:#d8d3b3;fill-opacity:1"
       d="m 22.449272,331.90205 3.719631,0.22238 0.167297,-3.98132 -3.322247,-0.47646 -0.564681,4.2354 z"
       id="path4296"
       inkscape:connector-curvature="0" />
    <path
       style="fill:#d8d3b3;fill-opacity:1"
       d="m 22.967434,298.32459 0.05327,-4.2384 3.565598,0.0773 -0.600787,4.28813 -3.018083,-0.12704 z"
       id="path4294"
       inkscape:connector-curvature="0" />
    <path
       inkscape:connector-curvature="0"
       style="fill:#d8d3b3;fill-opacity:1"
       d="m 60.161608,303.69977 0.10682,-4.60476 3.56796,0.002 -0.0264,4.71868 -3.64843,-0.11556 z"
       id="path4292" />
    <path
       inkscape:connector-curvature="0"
       style="fill:#d8d3b3;fill-opacity:1"
       d="m 59.966088,298.62484 3.71963,0.22238 0.12358,-4.66404 -3.62608,-0.0598 -0.21713,4.50149 z"
       id="path4290" />
    <path
       inkscape:connector-curvature="0"
       style="fill:#d8d3b3;fill-opacity:1"
       d="m 60.216278,318.23557 0.18038,-4.47937 3.43875,0.31856 0.0296,4.27637 -3.64869,-0.11556 z"
       id="path4288" />
    <path
       inkscape:connector-curvature="0"
       style="fill:#d8d3b3;fill-opacity:1"
       d="m 60.161728,313.25051 3.71964,0.22239 0.0679,-3.98405 -3.76064,-0.40079 -0.0268,4.16245 z"
       id="path4286" />
    <path
       inkscape:connector-curvature="0"
       style="fill:#d8d3b3;fill-opacity:1"
       d="m 60.419108,308.68892 -0.31347,-4.44767 3.93261,0.28686 0.0296,4.27637 -3.64869,-0.11556 z"
       id="path4284" />
    <path
       inkscape:connector-curvature="0"
       style="fill:#d8d3b3;fill-opacity:1"
       d="m 60.381868,332.22306 -0.31375,-4.44768 3.93262,0.28659 0.0296,4.27665 -3.64842,-0.11556 z"
       id="path4282" />
    <path
       inkscape:connector-curvature="0"
       style="fill:#d8d3b3;fill-opacity:1"
       d="m 60.057318,327.16233 3.98524,0.4852 0.0679,-3.98406 -3.76064,-0.40078 -0.29247,3.89964 z"
       id="path4280" />
    <path
       inkscape:connector-curvature="0"
       style="fill:#d8d3b3;fill-opacity:1"
       d="m 60.247618,322.89742 -0.059,-4.3862 3.93261,0.28659 0.0296,4.27665 -3.90322,-0.17704 z"
       id="path4278" />
    <path
       inkscape:connector-curvature="0"
       style="fill:#d8d3b3;fill-opacity:1"
       d="m 60.314378,341.34078 3.99515,-0.16474 -0.20766,-3.59693 -3.7609,-0.40078 -0.0266,4.16245 z"
       id="path4276" />
    <path
       inkscape:connector-curvature="0"
       style="fill:#d8d3b3;fill-opacity:1"
       d="m 60.363268,336.83109 0.25541,-4.18813 3.36345,0.0273 0.14546,4.44795 -3.76432,-0.28714 z"
       id="path4274" />
    <path
       inkscape:connector-curvature="0"
       style="fill:#d8d3b3;fill-opacity:1"
       d="m 64.644508,303.70169 -0.31347,-4.44795 3.93261,0.28686 0.0296,4.27665 -3.64869,-0.11556 z"
       id="path4272" />
    <path
       inkscape:connector-curvature="0"
       style="fill:#d8d3b3;fill-opacity:1"
       d="m 64.448998,298.62675 3.71962,0.22238 -0.0311,-4.60558 -3.66164,0.22047 -0.0268,4.16273 z"
       id="path4270" />
    <path
       inkscape:connector-curvature="0"
       style="fill:#d8d3b3;fill-opacity:1"
       d="m 64.607748,318.17656 -0.31375,-4.44768 3.93261,0.28659 0.0296,4.27665 -3.64842,-0.11556 z"
       id="path4268" />
    <path
       inkscape:connector-curvature="0"
       style="fill:#d8d3b3;fill-opacity:1"
       d="m 64.644908,313.25243 3.71936,0.22238 0.0681,-3.98405 -3.7609,-0.40078 -0.0266,4.16245 z"
       id="path4266" />
    <path
       inkscape:connector-curvature="0"
       style="fill:#d8d3b3;fill-opacity:1"
       d="m 64.902288,308.69083 -0.31375,-4.44767 3.93261,0.28686 0.0296,4.27638 -3.64841,-0.11557 z"
       id="path4264" />
    <path
       inkscape:connector-curvature="0"
       style="fill:#d8d3b3;fill-opacity:1"
       d="m 64.516698,332.50172 -0.17272,-4.22966 3.79185,0.0688 0.0296,4.27638 -3.64869,-0.11556 z"
       id="path4262" />
    <path
       inkscape:connector-curvature="0"
       style="fill:#d8d3b3;fill-opacity:1"
       d="m 64.458438,327.63469 3.71963,0.22238 0.0679,-3.98405 -3.52858,0.17484 -0.25892,3.58683 z"
       id="path4260" />
    <path
       inkscape:connector-curvature="0"
       style="fill:#d8d3b3;fill-opacity:1"
       d="m 64.665208,323.35776 -0.31375,-4.44767 3.94316,-0.2874 0.019,4.85064 -3.64842,-0.11557 z"
       id="path4258" />
    <path
       inkscape:connector-curvature="0"
       style="fill:#d8d3b3;fill-opacity:1"
       d="m 64.796658,341.44678 3.04805,0.0951 0.28386,-3.69336 -3.38043,-0.15764 0.0485,3.75593 z"
       id="path4256" />
    <path
       inkscape:connector-curvature="0"
       style="fill:#d8d3b3;fill-opacity:1"
       d="m 64.583898,337.19718 -0.31375,-4.44795 3.93262,0.28686 0.0296,4.27665 -3.64842,-0.11556 z"
       id="path4254" />
    <path
       style="fill:#d8d3b3;fill-opacity:1"
       d="m 22.529782,341.44268 0.0064,-3.84636 3.932608,0.28686 -0.216827,3.40269 -3.722173,0.15681 z"
       id="path4252"
       inkscape:connector-curvature="0" />
    <path
       inkscape:connector-curvature="0"
       style="fill:#d8d3b3;fill-opacity:1"
       d="m 34.264745,333.0237 -3.659597,1.20262 1.403948,3.14861 2.933419,-2.43037 -0.67777,-1.92086 z"
       id="path4250" />
    <path
       inkscape:connector-curvature="0"
       style="fill:#d8d3b3;fill-opacity:1"
       d="m 41.682529,328.61919 1.749084,-3.06501 2.188754,1.88753 -2.687412,2.31782 -1.250426,-1.14034 z"
       id="path4248" />
    <path
       inkscape:connector-curvature="0"
       style="fill:#d8d3b3;fill-opacity:1"
       d="m 34.260936,295.41711 -3.63773,-0.39504 -0.1133,2.3118 3.641247,-0.14588 0.109783,-1.77088 z"
       id="path1546" />
    <path
       style="fill:#d8d3b3;fill-opacity:1"
       d="m 19.413885,323.00587 0.313477,4.44768 -3.88963,-0.0281 -0.07254,-4.53537 3.64869,0.11583 z"
       id="path4104"
       inkscape:connector-curvature="0" />
    <path
       style="fill:#d8d3b3;fill-opacity:1"
       d="m 19.609405,328.08054 -3.46546,0.21773 -0.322033,3.54421 3.760631,0.40078 0.02686,-4.16272 z"
       id="path4102"
       inkscape:connector-curvature="0" />
    <path
       style="fill:#d8d3b3;fill-opacity:1"
       d="m 19.495958,332.7872 -0.03978,3.99198 -3.57936,0.16883 -0.02955,-4.27665 3.64869,0.11584 z"
       id="path4100"
       inkscape:connector-curvature="0" />
    <path
       inkscape:connector-curvature="0"
       style="fill:#d8d3b3;fill-opacity:1"
       d="m 8.4438132,337.97508 3.5478828,-0.93325 -1.796584,-3.64119 -2.5784851,3.1967 0.8271863,1.37774 z"
       id="path4098" />
    <path
       inkscape:connector-curvature="0"
       style="fill:#d8d3b3;fill-opacity:1"
       d="m 9.4097973,333.10531 -2.3835474,3.49175 -1.3695464,-1.23049 0.8084989,-3.34476 2.9445949,1.0835 z"
       id="path4096" />
    <path
       inkscape:connector-curvature="0"
       style="fill:#d8d3b3;fill-opacity:1"
       d="m 6.0238012,331.82483 -0.7436822,3.01447 -2.4492844,-0.40023 0.4233376,-3.76304 2.769629,1.1488 z"
       id="path4094" />
    <path
       inkscape:connector-curvature="0"
       style="fill:#d8d3b3;fill-opacity:1"
       d="m 2.6942322,330.61074 -0.3639161,3.42126 -4.8673629,-2.01402 2.42717256,-2.60631 2.80410644,1.19907 z"
       id="path4092" />
    <path
       inkscape:connector-curvature="0"
       style="fill:#d8d3b3;fill-opacity:1"
       d="m -0.60021028,329.16552 -2.42623392,2.45879 -2.2410768,-3.39532 2.7639421,-1.42555 1.90336862,2.36208 z"
       id="path4090" />
    <path
       inkscape:connector-curvature="0"
       style="fill:#d8d3b3;fill-opacity:1"
       d="m -2.7955745,326.31141 -2.9093227,1.08105 0.00852,-4.31189 2.4795249,-0.11447 0.4212744,3.34531 z"
       id="path4088" />
    <path
       style="fill:#d8d3b3;fill-opacity:1"
       d="m 19.217967,308.37992 0.313749,4.44767 -3.932614,-0.28658 -0.02955,-4.27665 3.648419,0.11556 z"
       id="path4086"
       inkscape:connector-curvature="0" />
    <path
       style="fill:#d8d3b3;fill-opacity:1"
       d="m 19.413482,313.45486 -3.719349,-0.22238 -0.06814,3.98405 3.760907,0.40078 0.02658,-4.16245 z"
       id="path4084"
       inkscape:connector-curvature="0" />
    <path
       style="fill:#d8d3b3;fill-opacity:1"
       d="m 19.156111,318.01645 0.313751,4.44767 -3.932614,-0.28686 -0.02955,-4.27637 3.648414,0.11556 z"
       id="path4082"
       inkscape:connector-curvature="0" />
    <path
       inkscape:connector-curvature="0"
       style="fill:#d8d3b3;fill-opacity:1"
       d="m -9.9198849,332.35228 0.3135835,4.44767 -3.9325846,-0.28686 -0.02955,-4.27638 3.6485551,0.11557 z"
       id="path4080" />
    <path
       inkscape:connector-curvature="0"
       style="fill:#d8d3b3;fill-opacity:1"
       d="m -9.7762627,337.37503 -3.7195463,-0.22266 0.0024,4.428 3.6904581,-0.0429 0.026725,-4.16245 z"
       id="path4078" />
    <path
       inkscape:connector-curvature="0"
       style="fill:#d8d3b3;fill-opacity:1"
       d="m -9.8909177,317.98368 0.090452,4.58618 -3.7205433,-0.46198 0.183837,-4.2302 3.4462541,0.106 z"
       id="path4076" />
    <path
       inkscape:connector-curvature="0"
       style="fill:#d8d3b3;fill-opacity:1"
       d="m -10.026579,323.11462 -3.719548,-0.22238 -0.06798,3.98433 3.9171012,0.19451 -0.1295782,-3.95646 z"
       id="path4074" />
    <path
       inkscape:connector-curvature="0"
       style="fill:#d8d3b3;fill-opacity:1"
       d="m -10.021809,327.51967 -0.06172,4.19933 -3.557252,-0.0382 -0.02958,-4.27665 3.648556,0.11556 z"
       id="path4072" />
    <path
       inkscape:connector-curvature="0"
       style="fill:#d8d3b3;fill-opacity:1"
       d="m -9.9183735,304.0175 -0.1716565,4.30397 -3.447344,-0.14316 -0.02956,-4.27638 3.6485555,0.11557 z"
       id="path4070" />
    <path
       inkscape:connector-curvature="0"
       style="fill:#d8d3b3;fill-opacity:1"
       d="m -10.145956,308.89601 -3.137754,-0.33932 -0.06794,3.98406 3.285339,0.22019 -0.07964,-3.86493 z"
       id="path4068" />
    <path
       inkscape:connector-curvature="0"
       style="fill:#d8d3b3;fill-opacity:1"
       d="m -9.8848752,313.22429 -0.3692798,4.39357 -3.249695,-0.23249 -0.02958,-4.27665 3.6485558,0.11557 z"
       id="path4066" />
    <path
       inkscape:connector-curvature="0"
       style="fill:#d8d3b3;fill-opacity:1"
       d="m -9.918609,294.46648 -3.719521,-0.22238 -0.06797,3.98432 3.7607695,0.40079 0.026727,-4.16273 z"
       id="path4064" />
    <path
       inkscape:connector-curvature="0"
       style="fill:#d8d3b3;fill-opacity:1"
       d="m -10.175982,299.02808 0.3136101,4.44766 -3.9325851,-0.28658 -0.02958,-4.27665 3.648556,0.11557 z"
       id="path4062" />
    <path
       inkscape:connector-curvature="0"
       style="fill:#d8d3b3;fill-opacity:1"
       d="m 8.3057477,329.14913 3.5909073,0.22948 -0.0329,-3.7633 -3.9964782,0.79664 0.4384719,2.73718 z"
       id="path4060" />
    <path
       inkscape:connector-curvature="0"
       style="fill:#d8d3b3;fill-opacity:1"
       d="m 11.415239,324.41761 -3.9417034,1.13868 -1.3026023,-1.369 3.1514842,-2.39348 2.0928215,2.6238 z"
       id="path4058" />
    <path
       inkscape:connector-curvature="0"
       style="fill:#d8d3b3;fill-opacity:1"
       d="m 7.9015872,321.05207 -2.1263745,2.56479 -2.4492878,-0.39996 0.4233399,-3.76331 4.1523224,1.59848 z"
       id="path4056" />
    <path
       inkscape:connector-curvature="0"
       style="fill:#d8d3b3;fill-opacity:1"
       d="m 3.3987596,319.68007 -0.5860381,3.2863 -4.8700797,-1.3373 2.7912063,-3.20298 2.6649115,1.25398 z"
       id="path4054" />
    <path
       inkscape:connector-curvature="0"
       style="fill:#d8d3b3;fill-opacity:1"
       d="m 0.22286154,318.0835 -2.58532644,3.02103 -1.9785275,-2.68063 3.149325,-2.05145 1.41452894,1.71105 z"
       id="path4052" />
    <path
       inkscape:connector-curvature="0"
       style="fill:#d8d3b3;fill-opacity:1"
       d="m -1.6639161,316.33994 -2.8854234,1.48784 -0.6906308,-3.24778 2.6854679,-0.85402 0.8905863,2.61396 z"
       id="path4050" />
    <path
       inkscape:connector-curvature="0"
       style="fill:#d8d3b3;fill-opacity:1"
       d="m -2.3126789,313.34979 -3.3115713,0.683 0.1282911,-2.22384 3.3075645,-0.0557 -0.1242843,1.59658 z"
       id="path4048" />
    <path
       inkscape:connector-curvature="0"
       style="fill:#d8d3b3;fill-opacity:1"
       d="m 8.0480977,317.62097 3.5906373,0.22976 -0.568518,-4.78725 -3.1924049,1.33484 0.1702856,3.22265 z"
       id="path4046" />
    <path
       inkscape:connector-curvature="0"
       style="fill:#d8d3b3;fill-opacity:1"
       d="m 10.839431,312.27721 -3.5106602,1.92441 -1.4157608,-1.54221 2.3874102,-2.85956 2.5390108,2.47736 z"
       id="path4044" />
    <path
       inkscape:connector-curvature="0"
       style="fill:#d8d3b3;fill-opacity:1"
       d="m 7.6436613,309.52391 -2.1261011,2.56507 -2.4492834,-0.40024 0.4233376,-3.76303 4.1520469,1.5982 z"
       id="path4042" />
    <path
       inkscape:connector-curvature="0"
       style="fill:#d8d3b3;fill-opacity:1"
       d="m 3.0679351,308.00794 -0.3639138,3.42099 -3.47242309,-0.91358 1.67553937,-3.42071 2.16079752,0.9133 z"
       id="path4040" />
    <path
       inkscape:connector-curvature="0"
       style="fill:#d8d3b3;fill-opacity:1"
       d="m -0.90972129,305.66909 -2.84561771,2.43556 -1.3101791,-2.95792 2.5162988,-1.54139 1.63949801,2.06375 z"
       id="path4038" />
    <path
       inkscape:connector-curvature="0"
       style="fill:#d8d3b3;fill-opacity:1"
       d="m -2.6081538,303.35564 -2.7733776,1.54111 -0.3722153,-4.61568 3.3075371,-0.0557 -0.1619442,3.13031 z"
       id="path4036" />
    <path
       inkscape:connector-curvature="0"
       style="fill:#d8d3b3;fill-opacity:1"
       d="m 8.0150164,305.09045 3.5909106,0.22976 -0.01772,-3.01174 -3.2315326,0.66169 -0.3416362,2.12029 z"
       id="path4034" />
    <path
       inkscape:connector-curvature="0"
       style="fill:#d8d3b3;fill-opacity:1"
       d="m 9.758615,298.06352 -2.8459722,2.56287 -1.8258802,-0.89582 2.1422354,-3.43328 2.529617,1.76623 z"
       id="path4032" />
    <path
       inkscape:connector-curvature="0"
       style="fill:#d8d3b3;fill-opacity:1"
       d="m 6.4388926,296.34564 -1.5716179,2.94727 -2.4492839,-0.40024 0.4233373,-3.76303 3.5975645,1.216 z"
       id="path4030" />
    <path
       inkscape:connector-curvature="0"
       style="fill:#d8d3b3;fill-opacity:1"
       d="m 2.3833517,295.23646 -0.3641872,3.42099 -3.4724207,-0.91385 1.67556359,-3.42045 2.16104431,0.91331 z"
       id="path4028" />
    <path
       inkscape:connector-curvature="0"
       style="fill:#d8d3b3;fill-opacity:1"
       d="m 0.01767326,293.97373 -2.67089836,3.07239 -2.2012448,-2.95327 4.87214316,-0.11912 z"
       id="path4026" />
    <path
       inkscape:connector-curvature="0"
       style="fill:#d8d3b3;fill-opacity:1"
       d="m -0.22234496,341.9411 -4.91717624,-0.0205 3.502647,-1.69055 1.41452924,1.71104 z"
       id="path4024" />
    <path
       inkscape:connector-curvature="0"
       style="fill:#d8d3b3;fill-opacity:1"
       d="m -2.2111831,339.76808 -3.148189,1.88042 -0.2678995,-2.68007 2.6854423,-0.85402 0.7306462,1.65367 z"
       id="path4022" />
    <path
       inkscape:connector-curvature="0"
       style="fill:#d8d3b3;fill-opacity:1"
       d="m -2.5953026,337.43032 -3.3115967,0.68272 0.1283183,-2.22384 3.3075368,-0.0555 -0.1242584,1.59657 z"
       id="path4020" />
    <path
       style="fill:#d8d3b3;fill-opacity:1"
       d="m 19.665568,298.51746 -0.18032,4.55995 -3.438543,-0.39914 0.142142,-4.11519 3.476721,-0.0456 z"
       id="path4018"
       inkscape:connector-curvature="0" />
    <path
       style="fill:#d8d3b3;fill-opacity:1"
       d="m 19.861083,303.59239 -3.719353,-0.22238 -0.167565,3.98132 3.322242,0.47646 0.564676,-4.2354 z"
       id="path4016"
       inkscape:connector-curvature="0" />
    <path
       style="fill:#d8d3b3;fill-opacity:1"
       d="m 19.343196,337.16985 -0.05354,4.2384 -3.565601,-0.0776 0.60106,-4.28812 3.018078,0.12731 z"
       id="path4014"
       inkscape:connector-curvature="0" />
    <path
       inkscape:connector-curvature="0"
       style="fill:#d8d3b3;fill-opacity:1"
       d="m -17.642813,332.00422 -0.10677,4.60449 -3.567991,-10e-4 0.02621,-4.71869 3.648555,0.11557 z"
       id="path4012" />
    <path
       inkscape:connector-curvature="0"
       style="fill:#d8d3b3;fill-opacity:1"
       d="m -17.447295,337.07916 -3.719548,-0.22239 -0.123764,4.66378 3.626103,0.0601 0.217209,-4.50149 z"
       id="path4010" />
    <path
       inkscape:connector-curvature="0"
       style="fill:#d8d3b3;fill-opacity:1"
       d="m -17.697533,317.46815 -0.180331,4.47936 -3.438671,-0.31827 -0.02958,-4.27665 3.648583,0.11556 z"
       id="path4008" />
    <path
       inkscape:connector-curvature="0"
       style="fill:#d8d3b3;fill-opacity:1"
       d="m -17.643077,322.45348 -3.719519,-0.22266 -0.06795,3.98433 3.76077,0.40078 0.0267,-4.16245 z"
       id="path4006" />
    <path
       inkscape:connector-curvature="0"
       style="fill:#d8d3b3;fill-opacity:1"
       d="m -17.900422,327.0148 0.313582,4.44794 -3.932557,-0.28685 -0.02958,-4.27665 3.648555,0.11556 z"
       id="path4004" />
    <path
       inkscape:connector-curvature="0"
       style="fill:#d8d3b3;fill-opacity:1"
       d="m -17.863047,303.48094 0.313557,4.44767 -3.932585,-0.28686 -0.02956,-4.27637 3.648583,0.11556 z"
       id="path4002" />
    <path
       inkscape:connector-curvature="0"
       style="fill:#d8d3b3;fill-opacity:1"
       d="m -17.538631,308.54167 -3.985186,-0.48548 -0.06798,3.98433 3.760797,0.40078 0.292364,-3.89963 z"
       id="path4000" />
    <path
       inkscape:connector-curvature="0"
       style="fill:#d8d3b3;fill-opacity:1"
       d="m -17.72885,312.80656 0.05887,4.38621 -3.932585,-0.28686 -0.02955,-4.27665 3.903271,0.1773 z"
       id="path3998" />
    <path
       inkscape:connector-curvature="0"
       style="fill:#d8d3b3;fill-opacity:1"
       d="m -17.79553,294.36321 -3.995229,0.16447 0.207762,3.5972 3.760742,0.40078 0.02672,-4.16245 z"
       id="path3996" />
    <path
       inkscape:connector-curvature="0"
       style="fill:#d8d3b3;fill-opacity:1"
       d="m -17.844469,298.87263 -0.255465,4.1884 -3.36351,-0.0273 -0.145262,-4.44822 3.764237,0.28714 z"
       id="path3994" />
    <path
       inkscape:connector-curvature="0"
       style="fill:#d8d3b3;fill-opacity:1"
       d="m -22.125878,332.00231 0.31361,4.44767 -3.932578,-0.28658 -0.02956,-4.27666 3.648531,0.11557 z"
       id="path3992" />
    <path
       inkscape:connector-curvature="0"
       style="fill:#d8d3b3;fill-opacity:1"
       d="m -21.930334,337.07724 -3.719534,-0.22238 0.03126,4.6053 3.661553,-0.22046 0.02672,-4.16246 z"
       id="path3990" />
    <path
       inkscape:connector-curvature="0"
       style="fill:#d8d3b3;fill-opacity:1"
       d="m -22.088898,317.52743 0.313584,4.44768 -3.932538,-0.28686 -0.02962,-4.27637 3.648574,0.11555 z"
       id="path3988" />
    <path
       inkscape:connector-curvature="0"
       style="fill:#d8d3b3;fill-opacity:1"
       d="m -22.126116,322.45157 -3.719502,-0.22266 -0.06797,3.98432 3.760773,0.40079 0.0267,-4.16245 z"
       id="path3986" />
    <path
       inkscape:connector-curvature="0"
       style="fill:#d8d3b3;fill-opacity:1"
       d="m -22.38346,327.01289 0.313582,4.44794 -3.932546,-0.28686 -0.02958,-4.27665 3.648548,0.11557 z"
       id="path3984" />
    <path
       inkscape:connector-curvature="0"
       style="fill:#d8d3b3;fill-opacity:1"
       d="m -21.998065,303.20228 0.172828,4.22938 -3.791802,-0.0686 -0.02956,-4.27665 3.648538,0.11584 z"
       id="path3982" />
    <path
       inkscape:connector-curvature="0"
       style="fill:#d8d3b3;fill-opacity:1"
       d="m -21.939704,308.0693 -3.719545,-0.22238 -0.06795,3.98406 3.528587,-0.17485 0.258907,-3.58683 z"
       id="path3980" />
    <path
       inkscape:connector-curvature="0"
       style="fill:#d8d3b3;fill-opacity:1"
       d="m -22.146414,312.34623 0.31361,4.44767 -3.942935,0.2874 -0.01922,-4.85064 3.648548,0.11557 z"
       id="path3978" />
    <path
       inkscape:connector-curvature="0"
       style="fill:#d8d3b3;fill-opacity:1"
       d="m -22.277891,294.25721 -3.048032,-0.0951 -0.283809,3.69337 3.380416,0.15763 -0.04857,-3.75593 z"
       id="path3976" />
    <path
       inkscape:connector-curvature="0"
       style="fill:#d8d3b3;fill-opacity:1"
       d="m -22.06505,298.50681 0.313583,4.44767 -3.932558,-0.28658 -0.02956,-4.27665 3.648539,0.11556 z"
       id="path3974" />
    <path
       style="fill:#d8d3b3;fill-opacity:1"
       d="m 19.780575,294.05176 -0.0064,3.84609 -3.932609,-0.28659 0.21682,-3.40269 3.722176,-0.15681 z"
       id="path3972"
       inkscape:connector-curvature="0" />
    <path
       inkscape:connector-curvature="0"
       style="fill:#d8d3b3;fill-opacity:1"
       d="m 8.0316486,302.68002 3.6595944,-1.20262 -1.403945,-3.14833 -2.933419,2.43037 0.6777696,1.92058 z"
       id="path3970" />
    <path
       inkscape:connector-curvature="0"
       style="fill:#d8d3b3;fill-opacity:1"
       d="m 0.6140556,307.08453 -1.7490842,3.06529 -2.1889445,-1.88781 2.68760436,-2.31781 1.25042434,1.14033 z"
       id="path3968" />
    <path
       inkscape:connector-curvature="0"
       style="fill:#d8d3b3;fill-opacity:1"
       d="m 8.0354598,340.28688 3.6377252,0.39505 0.113303,-2.31209 -3.6412426,0.14617 -0.1097856,1.77087 z"
       id="path1696" />
  </g>
</svg>
