<?xml version="1.0" encoding="UTF-8" standalone="no"?>
<!-- Created with Vectornator for iOS (http://vectornator.io/) -->

<svg
   xmlns:vectornator="http://vectornator.io"
   xmlns:dc="http://purl.org/dc/elements/1.1/"
   xmlns:cc="http://creativecommons.org/ns#"
   xmlns:rdf="http://www.w3.org/1999/02/22-rdf-syntax-ns#"
   xmlns:svg="http://www.w3.org/2000/svg"
   xmlns="http://www.w3.org/2000/svg"
   xmlns:xlink="http://www.w3.org/1999/xlink"
   xmlns:sodipodi="http://sodipodi.sourceforge.net/DTD/sodipodi-0.dtd"
   xmlns:inkscape="http://www.inkscape.org/namespaces/inkscape"
   style="clip-rule:evenodd;fill-rule:evenodd;stroke-linecap:round;stroke-linejoin:round"
   xml:space="preserve"
   version="1.1"
   viewBox="0 0 500 920"
   id="svg273"
   sodipodi:docname="People_Stephanos2.svg"
   inkscape:version="0.92.2 (5c3e80d, 2017-08-06)"
   width="500"
   height="920"
   inkscape:export-filename="C:\Users\scott\Dropbox\pictures\Sketchbook\Paideia images\People_Stephanos2.png"
   inkscape:export-xdpi="96"
   inkscape:export-ydpi="96"><sodipodi:namedview
     pagecolor="#ffffff"
     bordercolor="#666666"
     borderopacity="1"
     objecttolerance="10"
     gridtolerance="10"
     guidetolerance="10"
     inkscape:pageopacity="0"
     inkscape:pageshadow="2"
     inkscape:window-width="1715"
     inkscape:window-height="1440"
     id="namedview275"
     showgrid="false"
     inkscape:object-nodes="false"
     inkscape:snap-others="false"
     inkscape:snap-nodes="false"
     inkscape:zoom="1.4202315"
     inkscape:cx="132.87175"
     inkscape:cy="510.5465"
     inkscape:window-x="2906"
     inkscape:window-y="123"
     inkscape:window-maximized="0"
     inkscape:current-layer="Layer_5"
     units="px"
     width="500in" /><metadata
     id="metadata2"><vectornator:setting
       key="DynamicGuides"
       value="1" /><vectornator:setting
       key="Units"
       value="Pixels" /><vectornator:setting
       key="GridSpacing"
       value="36" /><vectornator:setting
       key="SnapToGuides"
       value="1" /><vectornator:setting
       key="RulersVisible"
       value="1" /><rdf:RDF><cc:Work
         rdf:about=""><dc:format>image/svg+xml</dc:format><dc:type
           rdf:resource="http://purl.org/dc/dcmitype/StillImage" /><dc:title /></cc:Work></rdf:RDF></metadata><defs
     id="defs4"><linearGradient
       inkscape:collect="always"
       id="linearGradient1088"><stop
         style="stop-color:#a98a6e;stop-opacity:1"
         offset="0"
         id="stop1084" /><stop
         style="stop-color:#856241;stop-opacity:1"
         offset="1"
         id="stop1086" /></linearGradient><radialGradient
       inkscape:collect="always"
       xlink:href="#linearGradient1088"
       id="radialGradient1092"
       cx="191.66452"
       cy="76.819786"
       fx="191.66452"
       fy="76.819786"
       r="46.142197"
       gradientTransform="matrix(2.2051062,-0.02935486,0.02077628,1.5606946,-224.9321,-38.63254)"
       gradientUnits="userSpaceOnUse" /></defs><g
     id="Layer"
     vectornator:layerName="Layer"
     transform="matrix(0.9758681,0,0,0.9758681,55.82111,7.53)"><path
       d="m 291.808,198.262 33.358,96.599 74.328,49.179 -103.776,44.184 7.379,358.427 -90.115,-39.806 20.743,-542.309 z"
       id="path6"
       inkscape:connector-curvature="0"
       style="opacity:1;fill:#977823" /><path
       d="m 128.867,164.614 25.002,-9.566 -1.418,-56.4641 59.584,-1.9374 0.852,60.6155 30.699,8.556 -48.413,60.191 -76.883,-36.17 z"
       id="path8"
       inkscape:connector-curvature="0"
       style="opacity:1;fill:#493422" /><path
       d="m 126.962,166.4 27.089,-12.803 -0.575,-22.03 47.64,8.252 -6.085,12.162 -16.596,10.049 -5.313,4.408 -1.157,-1.252 -3.905,3.265 1.352,2.801 -31.144,3.489 z"
       id="path10"
       inkscape:connector-curvature="0"
       style="opacity:1;fill:#322819;fill-opacity:1" /><path
       d="m 199.255,132.343 13.663,-0.476 v 25.704 l 23.283,7.029 -1.594,12.401 -34.907,-3.311 -17.13,4.728 -16,-4.887 -26.017,1.42 6.141,-2.523 22.829,-3.199 13.209,5.407 8.026,-1.889 13.866,-36.278 z"
       id="path12"
       inkscape:connector-curvature="0"
       style="opacity:1;fill:#6e5135;fill-opacity:1" /><path
       d="m 177.36,173.721 -6.288,-9.405 -4.127,2.938 1.541,3.658 8.873,2.809 z"
       id="path14"
       inkscape:connector-curvature="0"
       style="opacity:1;fill:#6d5035" /><path
       d="m 195.846,153.204 -6.532,21.498 -6.435,1.389 -6.347,-3.123 -0.279,-8.952 z"
       id="path16"
       inkscape:connector-curvature="0"
       style="opacity:1;fill:#805e3e;fill-opacity:1" /><path
       d="m 139.076,176.744 25.991,-1.139 17.5,3.608 18.014,-3.967 13.395,1.258 -18.109,23.017 -29.56,-0.196 -25.646,-21.213 z"
       id="path18"
       inkscape:connector-curvature="0"
       style="opacity:1;fill:#846140;fill-opacity:1" /><path
       d="M 84.4457,716.618 170.184,690.12 217.721,602.342 157.45,587.436 Z"
       id="path20"
       inkscape:connector-curvature="0"
       style="opacity:1;fill:#977823" /></g><g
     id="Layer_2"
     vectornator:layerName="Layer_2"
     transform="matrix(0.9758681,0,0,0.9758681,55.82111,7.53)"><path
       d="m 116.709,688.286 2.247,29.606 12.365,89.913 3.883,66.193 -26.364,27.011 -37.3121,11.876 -10.3735,-3.323 -5.1868,10.8 2.0378,6.812 117.9046,1.233 -4.518,-38.059 2.259,-45.269 4.47,-52.682 8.951,-34.674 -14.162,-95.754 5.175,-34.169 -46.889,1.938 -17.285,31.785 z"
       id="path23"
       inkscape:connector-curvature="0"
       style="opacity:1;fill:#7a5a3b;fill-opacity:1" /><path
       d="m 238.361,868.707 -5.32,18.748 -7.275,18.853 -7.602,7.429 -0.324,9.518 59.663,-6.859 -1.566,-6.724 -5.01,-17.347 -1.985,-8.909 1.59,-12.584 z"
       id="path25"
       inkscape:connector-curvature="0"
       style="opacity:1;fill:#4e3f21" /><path
       d="m 274.642,665.019 12.16,57.904 -7.394,64.025 -9.265,58.333 -3.283,37.377 8.622,38.581 -1.872,10.3 -17.629,1.287 -37.088,-0.724 -9.033,-4.605 5.079,-14.08 9.89,-1.174 10.824,-27.854 4.073,-16.689 v -75.969 l -9.843,-35.839 -4.38,-14.657 1.577,-65.964 -2.315,-48.251 48.022,-0.805 z"
       id="path27"
       inkscape:connector-curvature="0"
       style="opacity:1;fill:#7a5a3b;fill-opacity:1" /><path
       d="m 118.29,715.475 14.21,89.73 2.296,56.519 v 11.891 l -25.494,27.566 -38.919,13.454 10.1152,16.895 71.8238,-6.956 -8.411,-41.158 2.124,-26.129 -3.64,-96.545 41.858,-17.451 -12.101,-82.295 4.101,-29.872 -64.592,-22.385 6.629,73.252"
       id="path29"
       inkscape:connector-curvature="0"
       style="opacity:1;fill:#5a402a;fill-opacity:1" /><path
       d="m 143.911,675.271 2.124,23.332"
       id="path31"
       inkscape:connector-curvature="0"
       style="opacity:1;fill:#493422" /><path
       d="m 132.251,857.287 44.959,3.675 -1.758,17.151 -44.457,-8.33 z"
       id="path33"
       inkscape:connector-curvature="0"
       style="opacity:1;fill:#c4a45f" /><path
       d="m 178.121,930.116 -3.931,-41.842 1.505,-17.442 -11.033,0.411 -3.467,15.99 -36.585,-5.167 -11.291,9.212 18.169,17.424 -16.424,5.206 -11.804,-16.523 -11.5994,5.609 7.0828,14.819 -12.2152,2.203 -8.8282,-15.22 -16.3211,1.202 -10.0992,8.238 3.8681,16.666 65.1122,0.628"
       id="path35"
       inkscape:connector-curvature="0"
       style="opacity:1;fill:#c4a45f" /><path
       d="m 225.503,755.655 10.698,35.698 3.525,79.479 -3.525,13.564 -9.839,26.898 -9.811,4.135 -4.059,12.978 h 13.011 l 1.24,-12.044 16.843,-3.548 -3.86,-18.696 9.921,-23.287 2.18,-124.181 10.387,-4.4 11.162,31.005 6.032,4.847 7.394,-57.405 -13.426,-52.532 v -29.514 l -46.296,-5.139"
       id="path37"
       inkscape:connector-curvature="0"
       style="opacity:1;fill:#5a402a;fill-opacity:1" /><path
       d="m 237.234,862.138 34.687,1.294 0.45,9.83 h -36.17 z"
       id="path39"
       inkscape:connector-curvature="0"
       style="opacity:1;fill:#c4a45f" /><path
       d="m 226.273,901.181 48.848,1.301 1.724,8.941 -54.904,-1.536 z"
       id="path41"
       inkscape:connector-curvature="0"
       style="opacity:1;fill:#c4a45f" /><path
       d="m 232.721,883.416 -3.522,12.007 44.075,0.428 -3.181,-11.577 z"
       id="path43"
       inkscape:connector-curvature="0"
       style="opacity:1;fill:#c4a45f" /><path
       d="m 213.153,911.423 -4.169,12.199 1.311,7.908 47.709,2.965 21.404,-2.965 v -9.005 l -0.909,-8.311 -51.419,-2.791 z"
       id="path45"
       inkscape:connector-curvature="0"
       style="opacity:1;fill:#c4a45f" /><path
       d="m 439.88286,260.22033 -0.775,-8.478 8.071,-0.885 7.227,5.802 0.573,6.728 -8.955,1.966 -2.906,4.551 -7.27,-5.305 z"
       id="path57"
       inkscape:connector-curvature="0"
       style="opacity:1;fill:#885640" /></g><g
     id="Layer_3"
     vectornator:layerName="Layer_3"
     transform="matrix(0.9758681,0,0,0.9758681,55.82111,7.53)"><path
       d="m 386.533,345.641 -8.723,1.791 -63.088,-3.531 -45.178,-63.678 -17.717,-73.929 11.811,-36.485 20.669,15.363 v 0 l 20.436,15.597 1.762,33.78 31.106,72.138 48.533,4.801"
       id="path60"
       inkscape:connector-curvature="0"
       style="opacity:1;fill:#82603f;fill-opacity:1" /><path
       d="m 350.827,334.923 26.596,-2.843 -7.287,13.862 -19.309,1.065 z"
       id="path62"
       inkscape:connector-curvature="0"
       style="opacity:1;fill:#423420" /><path
       d="m 276.868,213.375 -6.559,20.258 -1.367,45 45.161,64.075 10.027,0.638 6.143,-52.593 -13.24,20.805 -16.906,-13.743 -15.338,-51.816 -9.744,-11.656 z"
       id="path64"
       inkscape:connector-curvature="0"
       style="opacity:1;fill:#5c412b;fill-opacity:1" /></g><g
     id="Layer_4"
     vectornator:layerName="Layer_4"
     transform="matrix(0.9758681,0,0,0.9758681,55.82111,7.53)"><path
       d="m 371.661,282.578 -0.183,0.836 1.528,2.487 h 4.417 l 7.501,2.554 1.609,-5.041 h 14.971 l 13.058,14.541 -17.975,8.734 v 30.927 l 25.758,243.302 7.912,67.261 -42.252,-6.362 v -8.304 L 376.704,627.8 v 14.017 h -9.941 l -1.092,-23.543 -10.906,-0.551 0.126,7.074 -9.754,-2.101 v -4.911 l -11.748,-0.062 -2.885,6.644 -7.354,-0.369 3.636,-192.223 -3.636,-119.763 4.725,-20.628 6.246,-9.181 11.016,0.837 7.709,2.861 0.185,-4.53 11.094,-0.43 z"
       id="path69"
       inkscape:connector-curvature="0"
       style="opacity:1;fill:#d9ac32" /><path
       d="m 376.704,302.992 0.745,334.615 11.827,-0.221 -11.302,-339.897 z"
       id="path71"
       inkscape:connector-curvature="0"
       style="opacity:1;fill:#977823" /><path
       d="m 369.219,289.756 -6.383,13.343 6.676,173.999 -14.811,-176.364 13.475,-10.978 z"
       id="path73"
       inkscape:connector-curvature="0"
       style="opacity:1;fill:#977823" /><path
       d="m 346.858,288.455 -7.928,12.656 16.029,321.585 11.804,-0.76 -23.179,-320.795 5.104,-12.686 z"
       id="path75"
       inkscape:connector-curvature="0"
       style="opacity:1;fill:#977823" /><path
       d="m 330.504,391.482 14.633,227.025 -13.678,3.511 z"
       id="path77"
       inkscape:connector-curvature="0"
       style="opacity:1;fill:#977823" /></g><g
     id="Layer_5"
     vectornator:layerName="Layer_5"
     transform="matrix(0.9758681,0,0,0.9758681,55.82111,7.53)"><path
       d="m 399.359,302.178 5.121,-8.119 17.891,-17.612 -0.263,-3.226 5.08,-4.331 10.371,4.955 12.626,9.727 2.386,11.1 -3.762,5.371 0.92,8.86 -8.876,3.799 -1.811,6.714 -7.788,4.329 -4.53,6.361 -10.958,7.51 -8.693,-0.79"
       id="path80"
       inkscape:connector-curvature="0"
       style="opacity:1;fill:#846140;fill-opacity:1" /><path
       d="m 413.807,267.344 7.189,-4.538 3.665,7.654 -2.429,4.812 -10.965,12.809 z"
       id="path84"
       inkscape:connector-curvature="0"
       style="opacity:1;fill:#493422" /><path
       d="m 409.351,294.107 1.359,-1.989 1.491,0.153 3.425,0.586 10.209,6.265 3.264,3.737 z"
       id="path92"
       inkscape:connector-curvature="0"
       style="opacity:1;fill:#fff4e0" /><path
       d="m 423.428,272.191 9.281,-14.305 -6.98008,9.07455 6.609,-9.629 11.04008,3.10729 10.40192,11.18471 -6.88092,9.31745 -8.48,-6.719 -11.243,-5.048 z"
       id="path94"
       inkscape:connector-curvature="0"
       style="opacity:1;fill:#fff4e0"
       sodipodi:nodetypes="cccccccccc" /><path
       d="m 407.205,308.906 20.523,12.413 2.957,-2.039 -25.047,-16.301 -4.254,-3.604 3.806,-4.915 6.269,2.185 28.145,13.488 3.877,-3.444 -13.224,-10.442 -13.472,-6.491 -6.22,0.012 3.784,-4.412 4.095,-0.937 15.096,4.089 13.249,9.99 -1.325,-4.474 -12.842,-11.378 -8.897,-6.973 -1.069,-1.873 -17.442,21.196 -8.627,7.863 -3.874,6.584 -0.305,8.196 17.825,21.94 14.329,-7.277 -11.518,-7.311 -9.223,-10.195 z"
       id="path96"
       inkscape:connector-curvature="0"
       style="opacity:1;fill:#5c412b;fill-opacity:1" /><path
       d="m 411.556,326.841 3.59,3.077 -9.56112,14.34924 -15.61077,-1.03575 -3.38823,-15.85125 L 397.136,313.362 Z"
       id="path98"
       inkscape:connector-curvature="0"
       style="opacity:1;fill:#fff4e0"
       sodipodi:nodetypes="ccccccc" /><path
       d="m 396.587,314.184 5.701,-8.455 4.132,2.539 -6.973,8.79 z"
       id="path100"
       inkscape:connector-curvature="0"
       style="opacity:1;fill:#fff4e0" /><path
       d="m 421.286,276.776 -5.519,7.595 2.842,-0.862 16.82,4.87 z"
       id="path102"
       inkscape:connector-curvature="0"
       style="opacity:1;fill:#fff4e0" /><path
       d="m 409.085,294.185 2.182,-0.126 h 4.5 l 11.664,6.336 4.063,3.716 z"
       id="path104"
       inkscape:connector-curvature="0"
       style="opacity:1;fill:#fff4e0" /><path
       d="m 453.77992,271.62355 -6.99092,9.31745 -9.276,-7.141 -2.084,-1.301 10.59486,-7.14567 z"
       id="path106"
       inkscape:connector-curvature="0"
       style="opacity:1;fill:#e4dac8"
       sodipodi:nodetypes="cccccc" /><path
       d="m 397.05499,332.32019 -11.73177,-5.30071 3.38823,15.85125 15.77177,4.22704 10.71578,-17.63077 -3.932,-3.288 -6.072,-5.794 z"
       id="path108"
       inkscape:connector-curvature="0"
       style="opacity:1;fill:#e4dac8"
       sodipodi:nodetypes="cccccccc" /><path
       d="m 394.20689,344.69998 0.602,8.491 -8.087,0.728 -7.107,-5.941 -0.436,-6.738 8.993,-1.792 2.999,-4.493 4.31605,2.00676 2.84395,3.43824 z"
       id="path110"
       inkscape:connector-curvature="0"
       style="opacity:1;fill:#885640"
       sodipodi:nodetypes="cccccccccc" /></g><g
     id="Layer_6"
     vectornator:layerName="Layer_6"
     transform="matrix(0.9758681,0,0,0.9758681,55.82111,7.53)"><path
       d="m 105.434,522.339 -2.215,111.297 190.082,14.92 -7.316,-208.337 -3.323,-31.336 -163.937,27.014 z"
       id="path113"
       inkscape:connector-curvature="0"
       style="opacity:1;fill:#f5f2e1" /><path
       d="m 271.115,441.444 -0.617,205.49 -22.487,-1.829 4.107,-206.174 z"
       id="path115"
       inkscape:connector-curvature="0"
       style="opacity:1;fill:#1061a3" /><path
       d="m 152.209,435.953 -0.617,205.49 -22.489,-1.828 4.109,-206.174 z"
       id="path117"
       inkscape:connector-curvature="0"
       style="opacity:1;fill:#1061a3" /><path
       d="m 85.4917,446.325 207.9253,-2.856 6.438,-14.804 -12.878,-30.059 -4.735,-84.378 -9.745,-71.45 -6.891,-72.009 -25.589,-14.402 -54.479,32.438 -69.535,-21.876 z"
       id="path119"
       inkscape:connector-curvature="0"
       style="opacity:1;fill:#f5f2e1" /><path
       d="M 129.927,153.548 63.3401,192.947 2.41997,352.694 29.5929,521.7 l 14.164,11.738 v 30.249 l 7.5228,13.346 V 627.8 l 19.1033,24.227 9.756,68.671 43.17,-38.993 97.531,-134.134 52.764,-152.851 35.205,-200.113 -35.764,-27.688 -36.966,-9.591 -40.215,66.967 z"
       id="path121"
       inkscape:connector-curvature="0"
       style="opacity:1;fill:#d9ac32" /><path
       d="m 287.717,442.601 -29.437,-2.085 -4.932,12.294 32.671,2.625 z"
       id="path123"
       inkscape:connector-curvature="0"
       style="opacity:1;fill:#aca88e" /><path
       d="m 270.965,441.693 -0.098,12.611 -17.405,-1.455 4.376,-12.417 z"
       id="path125"
       inkscape:connector-curvature="0"
       style="opacity:1;fill:#133652" /><path
       d="m 269.702,404.777 6.235,21.445 -1.747,15.718 -16.186,-1.19 z"
       id="path127"
       inkscape:connector-curvature="0"
       style="opacity:1;fill:#1061a3" /><path
       d="m 248.45,161.713 -40.49,75.848 -34.867,-3.088 -66.178,-67.182 -3.346,1.904 76.294,77.824 25.783,4.901 z"
       id="path129"
       inkscape:connector-curvature="0"
       style="opacity:1;fill:#977823" /><path
       d="M 287.547,178.433 233.792,399.518 181.851,536.553 94.8899,638.273 71.6734,654.011 51.2119,626.758 82.6915,610.253 167.686,523.502 220.967,396.842 Z"
       id="path131"
       inkscape:connector-curvature="0"
       style="opacity:1;fill:#977823" /><path
       d="m 277.222,172.123 -85.658,214.546 -69.996,112.629 -79.0149,34.14 -12.9602,-11.626 84.2931,-33.316 66.853,-108.22 z"
       id="path133"
       inkscape:connector-curvature="0"
       style="opacity:1;fill:#977823" /><path
       d="m 258.432,165.88 -32.701,87.126 -49.664,27.513 -76.5819,-108.846 -1.2579,0.774 78.7068,128.104 53.194,-38.085 z"
       id="path135"
       inkscape:connector-curvature="0"
       style="opacity:1;fill:#977823" /><path
       d="M 299.36,189.126 261.954,388.533 205.233,534.918 252.7,382.175 Z"
       id="path137"
       inkscape:connector-curvature="0"
       style="opacity:1;fill:#977823" /><path
       d="M 282.589,175.493 186.292,445.552 142.395,521.7 Z"
       id="path139"
       inkscape:connector-curvature="0"
       style="opacity:1;fill:#977823" /><path
       d="m 273.376,166.126 -37.723,78.012 7.209,-25.677 z"
       id="path141"
       inkscape:connector-curvature="0"
       style="opacity:1;fill:#977823" /><path
       d="m 213.028,269.392 -36.894,34.606 -56.574,-53.62 -24.4592,-73.072 17.5322,84.899 64.843,49.153 45.656,-48.126 z"
       id="path143"
       inkscape:connector-curvature="0"
       style="opacity:1;fill:#977823" /><path
       d="m 139.732,522.277 -89.0448,54.756 -6.9303,-13.322 15.1371,-4.83 z"
       id="path145"
       inkscape:connector-curvature="0"
       style="opacity:1;fill:#977823" /><path
       d="m 19.8788,379.076 40.373,69.252 -25.3144,-5.597 z"
       id="path147"
       inkscape:connector-curvature="0"
       style="opacity:1;fill:#977823" /><path
       d="m 221.556,181.545 -28.105,25.37 -27.667,-13.576 14.526,14.538 15.001,6.231 19.934,-21.524 z"
       id="path149"
       inkscape:connector-curvature="0"
       style="opacity:1;fill:#aca88e" /><path
       d="m 225.503,168.228 -36.368,31.567 -25.179,-12.97 26.903,8.496 z"
       id="path151"
       inkscape:connector-curvature="0"
       style="opacity:1;fill:#aca88e" /><path
       d="m 239.726,489.691 -4.362,154.499 -8.621,-0.427 0.386,-115.316 z"
       id="path153"
       inkscape:connector-curvature="0"
       style="opacity:1;fill:#aca88e" /><path
       d="m 202.051,573.175 0.562,68.642 -18.714,-1.644 -0.188,-41.989 z"
       id="path155"
       inkscape:connector-curvature="0"
       style="opacity:1;fill:#aca88e" /><path
       d="m 273.872,436.432 3.631,211.4 -7.651,-0.78 0.591,-208.053 z"
       id="path157"
       inkscape:connector-curvature="0"
       style="opacity:1;fill:#aca88e" /><path
       d="m 266.508,450.856 0.449,196.976 3.419,-0.486 0.551,-201.696 z"
       id="path159"
       inkscape:connector-curvature="0"
       style="opacity:1;fill:#133652" /></g><g
     id="Layer_7"
     vectornator:layerName="Layer_7"
     transform="matrix(0.9758681,0,0,0.9758681,55.82111,7.53)"><path
       d="m 135.135,75.6374 -2.158,-4.8055 -6.504,7.7238 3.675,16.8269 4.808,7.9994 3.571,-5.3999 z"
       id="path162"
       inkscape:connector-curvature="0"
       style="opacity:1;fill:#493422" /><path
       d="m 226.99,73.9712 2.256,-4.9006 6.504,7.7238 -3.677,16.8269 -4.808,7.9987 -3.669,-5.3051 z"
       id="path164"
       inkscape:connector-curvature="0"
       style="opacity:1;fill:#6d5035" /></g><g
     id="Layer_8"
     vectornator:layerName="Layer_8"
     transform="matrix(0.9758681,0,0,0.9758681,55.82111,7.53)"><path
       d="m 134.848,84.184 c -1.06,-34.5075 13.883,-63.2732 46.16,-63.2172 32.28,0.056 45.892,28.1239 46.07,62.6465 0.17,32.9447 -8.91491,42.9284 -14.58971,48.19636 C 203.47097,140.1805 204.721,147.414 182.481,147.644 160.243,147.875 157.74998,137.18621 152.19743,131.99172 143.99427,124.31755 136.053,123.343 134.848,84.184 Z"
       id="path167"
       inkscape:connector-curvature="0"
       style="opacity:1;fill:url(#radialGradient1092);fill-opacity:1"
       sodipodi:nodetypes="cscscsc" /><path
       d="m 166.542,106.703 c 0,0 1.90991,-1.79572 6.05729,-1.88297 2.73057,-0.0575 7.04416,1.5454 10.25195,1.63512 3.61748,0.10073 7.5658,-1.37267 10.42514,-1.13806 3.52728,0.28941 5.58562,2.28391 5.58562,2.28391 l -11.557,6.051 -17.155,2.629 z"
       id="path169"
       inkscape:connector-curvature="0"
       style="opacity:1;fill:#493422"
       sodipodi:nodetypes="cscscccc" /><path
       d="m 168.26748,107.15019 c 0,0 1.10757,-0.23929 1.02849,-1.37388 -0.0514,-0.73815 -1.48788,-2.25984 -1.03697,-2.95631 1.144,-1.768 3.311,-3.2495 3.311,-3.2495 l -3.704,0.8125 -5.729,5.236 z"
       id="path171"
       inkscape:connector-curvature="0"
       style="opacity:1;fill:#493422"
       sodipodi:nodetypes="csccccc" /><path
       d="m 197.77834,107.72952 c 0,0 -1.55008,-0.60982 -1.32634,-1.45122 0.22824,-0.85829 2.22722,-1.95756 1.9,-2.8963 -0.647,-1.86 -1.903,-3.8115 -1.903,-3.8115 l 6.189,7.3155 z"
       id="path173"
       inkscape:connector-curvature="0"
       style="opacity:1;fill:#493422"
       sodipodi:nodetypes="cscccc" /><path
       d="m 173.086,84.1042 -2.63743,0.783123 -1.87657,0.226377 -4.84,1.7314 -9.433,-3.4464 -8.264,8.1303 -1.36809,15.39847 7.81166,12.61742 c 0,0 0.17411,2.45836 4.18911,8.99836 1.69529,2.76254 5.19709,11.43268 8.67707,13.85891 4.75975,3.31847 11.64325,5.93484 11.64325,5.93484 0,0 -17.45233,-2.16172 -25.12071,-16.00842 -3.70001,-4.10715 -6.76401,-3.99711 -10.59401,-12.68911 -3.832,-8.691 -5.20228,-21.24597 -5.20228,-21.24597 l -2.607,-16.569 11.773,-48.7152 19.467,-2.7341 c 0,0 -9.833,7.449 -14.862,18.5082 -5.03,11.0592 -3.807,26.8556 -3.807,26.8556 l 9.191,-0.514 h 11.627 l 3.297,2.472"
       id="path175"
       inkscape:connector-curvature="0"
       style="opacity:1;fill:#593f29;fill-opacity:1"
       sodipodi:nodetypes="cccccccccscccccccccccc" /><path
       d="m 176.44686,96.0427 c -0.0382,0.132 -1.50931,4.0433 -1.50931,4.0433 l -4.78755,-0.4142 2.82392,-3.1675"
       id="path177"
       inkscape:connector-curvature="0"
       style="opacity:1;fill:#63462e;fill-opacity:1;stroke-width:0.84919071" /><path
       d="m 179.536,78.275 c 0,0 0.1,0.6194 0.223,1.6493"
       id="path179"
       inkscape:connector-curvature="0"
       style="opacity:1;fill:#423420" /><path
       d="m 192.011,77.9823 9.987,-4.0143 10.494,3.3903 0.706,5.5712 -10.794,0.0438 5.38608,1.658951 -11.81417,0.132478 -6.08491,-1.410329 1.066,-2.6305 z"
       id="path181"
       inkscape:connector-curvature="0"
       style="opacity:1;fill:#5c412b;fill-opacity:1"
       sodipodi:nodetypes="cccccccccc" /><path
       d="m 174.517,129.974 h 16.239 l 0.491,5.274 -8.092,-1.489 -7.583,1.652 z"
       id="path183"
       inkscape:connector-curvature="0"
       style="opacity:1;fill:#493422" /><path
       d="m 228.112,80.2769 2.416,-5.0519 2.877,4.0415 -3.273,13.3467 -1.655,1.3458 2.759,-12.7421 -0.819,-2.7289 -1.388,2.2803 0.643,3.5892 -1.195,4.3973 -2.115,-3.6795 z"
       id="path185"
       inkscape:connector-curvature="0"
       style="opacity:1;fill:#493422" /></g><g
     id="Layer_9"
     vectornator:layerName="Layer_9"
     transform="matrix(0.9758681,0,0,0.9758681,55.82111,7.53)"><path
       d="m 168.384,124.569 28.026,0.215 -5.076,5.167 -7.29,1.42 -11.908,-2.281 z"
       id="path188"
       inkscape:connector-curvature="0"
       style="opacity:1;fill:#a87653;fill-opacity:1" /></g><g
     id="Layer_10"
     vectornator:layerName="Layer_10"
     transform="matrix(0.9758681,0,0,0.9758681,55.82111,7.53)"><path
       d="m 150.407,83.7753 4.179,-4.7351 8.734,-1.3432 5.793,5.7611 -9.395,3.6912 z"
       id="path191"
       inkscape:connector-curvature="0"
       style="opacity:1;fill:#ffffff" /><path
       d="m 154.574,82.0484 c 0.281,-2.8504 2.877,-4.9395 5.799,-4.666 2.923,0.2735 5.064,2.806 4.784,5.6564 -0.281,2.8504 -2.876,4.9402 -5.798,4.666 -2.922,-0.2733 -5.065,-2.8058 -4.785,-5.6564 z"
       id="path193"
       inkscape:connector-curvature="0"
       style="opacity:1;fill:#977823" /><path
       d="m 156.765,82.2534 c 0.164,-1.6703 1.686,-2.8945 3.398,-2.7342 1.713,0.1603 2.967,1.6443 2.804,3.3146 -0.165,1.6705 -1.685,2.8947 -3.399,2.734 -1.712,-0.1596 -2.968,-1.6439 -2.803,-3.3144 z"
       id="path195"
       inkscape:connector-curvature="0"
       style="opacity:1;fill:#000000" /><path
       d="m 150.371,83.5775 9.495,3.5294 9.513,-3.5294 1.85177,0.7291 -8.509,7.167775 -6.92377,0.05463 z"
       id="path197"
       inkscape:connector-curvature="0"
       style="opacity:1;fill:#5c412b;fill-opacity:1"
       sodipodi:nodetypes="ccccccc" /><path
       d="m 166.895,80.7954 -11.325,-0.5323 -5.21,3.4238 5.427,-7.0537 8.156,0.6933 z"
       id="path199"
       inkscape:connector-curvature="0"
       style="opacity:1;fill:#6d5035" /><path
       d="m 191.19192,100.086 -1.94535,-3.986 4.39589,0.6274 2.80654,2.8431 z"
       id="path201"
       inkscape:connector-curvature="0"
       style="opacity:1;fill:#66482f;fill-opacity:1;stroke-width:0.87687838" /><path
       d="m 171.06062,106.50181 4.75221,0.0108 3.1586,1.57621 -3.5247,0.81 z"
       id="path203"
       inkscape:connector-curvature="0"
       style="opacity:1;fill:#282014;stroke-width:1.13814187"
       sodipodi:nodetypes="ccccc" /><path
       d="m 164.245,82.213 c -0.092,-0.7521 -0.792,-1.2889 -1.563,-1.1992 -0.771,0.0898 -1.321,0.7721 -1.228,1.5241 0.091,0.7521 0.791,1.289 1.562,1.1992 0.77,-0.0898 1.321,-0.7722 1.229,-1.5241 z"
       id="path205"
       inkscape:connector-curvature="0"
       style="opacity:1;fill:#d8d8d8" /></g><g
     id="Layer_11"
     vectornator:layerName="Layer_11"
     transform="matrix(0.9758681,0,0,0.9758681,55.82111,7.53)"><path
       d="m 213.153,82.9818 -4.66,-4.6144 -8.393,-1.1709 -5.655,5.8903 9.354,4.0201 z"
       id="path208"
       inkscape:connector-curvature="0"
       style="opacity:1;fill:#ffffff" /><path
       d="m 208.946,81.3496 c -0.347,-2.8435 -2.993,-4.8734 -5.907,-4.5341 -2.916,0.3395 -4.997,2.9195 -4.648,5.763 0.347,2.843 2.992,4.8735 5.908,4.5337 2.914,-0.3388 4.996,-2.9193 4.647,-5.7626 z"
       id="path210"
       inkscape:connector-curvature="0"
       style="opacity:1;fill:#977823" /><path
       d="m 206.843,81.5944 c -0.209,-1.7101 -1.801,-2.9309 -3.554,-2.7268 -1.753,0.2041 -3.004,1.7558 -2.795,3.4661 0.209,1.71 1.8,2.9312 3.553,2.7267 1.753,-0.204 3.006,-1.7558 2.796,-3.466 z"
       id="path212"
       inkscape:connector-curvature="0"
       style="opacity:1;fill:#000000" /><path
       d="m 213.186,82.7835 -9.387,3.643 -9.057,-3.3211 5.65323,5.747682 4.91244,0.776784 5.05881,-2.257752 z"
       id="path214"
       inkscape:connector-curvature="0"
       style="opacity:1;fill:#674930;fill-opacity:1"
       sodipodi:nodetypes="ccccccc" /><path
       d="m 197.31,80.2923 11.062,-0.965 4.826,3.5652 -5.444,-7.1571 -8.203,1.3701 z"
       id="path216"
       inkscape:connector-curvature="0"
       style="opacity:1;fill:#6d5035" /><path
       d="m 207.335,81.3956 c -0.093,-0.7521 -0.792,-1.2888 -1.562,-1.1991 -0.772,0.0898 -1.322,0.7721 -1.23,1.5241 0.092,0.752 0.791,1.2888 1.562,1.1991 0.771,-0.0897 1.322,-0.7721 1.23,-1.5241 z"
       id="path218"
       inkscape:connector-curvature="0"
       style="opacity:1;fill:#d8d8d8" /></g><g
     id="Layer_13"
     vectornator:layerName="Layer_13"
     transform="matrix(0.9758681,0,0,0.9758681,55.82111,7.53)"><path
       d="m 158.389,16.2404 -12.579,7.2222 -11.014,9.452 -3.801,14.7915 v 21.3645 l 7.536,12.0349 2.589,-26.9488 8.211,-14.4861 11.754,-7.8183 23.928,1.0665 15.466,-1.2785 9.723,7.4032 10.483,13.5253 1.645,29.6181 9.535,-11.9701 -0.977,-21.2329 -7.534,-19.8717 -19.682,-15.0454 -30.908,-0.8414 z"
       id="path254"
       inkscape:connector-curvature="0"
       style="opacity:1;fill:#2f1f18" /><path
       d="m 196.449,124.569 6.74718,-3.818 -5.97637,1.04653 -7.04381,-1.82353 -5.273,-1.586 -2.081,0.099 -2.601,0.096 -5.705,1.349 -6.40257,1.45972 -6.08809,-1.17538 6.35866,4.35266"
       id="path256"
       inkscape:connector-curvature="0"
       style="opacity:1;fill:#423020"
       sodipodi:nodetypes="ccccccccccc" /><path
       d="m 170.91,124.569 h 24.657"
       id="path258"
       inkscape:connector-curvature="0"
       style="opacity:1;fill:#423020" /><path
       d="m 203.256,167.699 4.686,-4.257 -0.97,-8.67 z"
       id="path260"
       inkscape:connector-curvature="0"
       style="opacity:1;fill:#493422" /><path
       d="m 189.464,75.7743 3.938,-0.997235 4.865,-1.450965 5.058,-0.113 7.374,1.13 4.815,1.886 1.037,-1.9678 -2.027,-2.4011 -1.751,-1.1923 -2.575,-1.5227 -2.355,-1.3183 -4.865,0.1507 -4.557,1.2429 -5.03255,-0.292435 -4.071,0.769314 -1.91764,3.479244 z"
       id="path262"
       inkscape:connector-curvature="0"
       style="opacity:1;fill:#2f1f18"
       sodipodi:nodetypes="ccccccccccccccccc" /><path
       d="M 173.123,75.7742 169.69519,74.904613 164.32,73.3261 l -5.059,-0.1131 -7.375,1.13 -4.814,1.8861 -1.037,-1.9678 2.027,-2.4012 1.751,-1.1922 2.576,-1.5227 2.355,-1.3183 4.865,0.1507 4.555,1.243 4.6509,-0.547732 4.5812,1.152059 1.2809,3.479145 z"
       id="path264"
       inkscape:connector-curvature="0"
       style="opacity:1;fill:#2f1f18"
       sodipodi:nodetypes="ccccccccccccccccc" /><path
       d="m 195.07595,106.77238 -4.82182,0.0383 -3.81051,1.54869 3.84617,0.81 z"
       id="path270"
       inkscape:connector-curvature="0"
       style="opacity:1;fill:#282014;stroke-width:1.18891275"
       sodipodi:nodetypes="ccccc" /></g><g
     inkscape:groupmode="layer"
     id="layer1"
     inkscape:label="Layer 1"
     style="display:none"
     transform="translate(0,-20)"><g
       style="clip-rule:evenodd;fill-rule:evenodd;stroke-linecap:round;stroke-linejoin:round"
       id="Layer_12"
       vectornator:layerName="Layer_12"
       transform="matrix(0.9758681,0,0,0.9758681,56.718909,26.585802)"><path
         d="m 203.964,53.7733 -5.704,0.5685 -13.583,-1.0074 h -10.161 l -0.221,4.2537 17.103,-0.8316 13.802,0.5245"
         id="path221"
         inkscape:connector-curvature="0"
         style="opacity:1;fill:#9e8a77" /><path
         d="m 200.471,43.4505 -1.95,-0.9218 -5.847,-1.6867 -6.625,-0.3551 -9.061,-0.3551 c 0,0 -2.47,12.0889 -2.472,12.1152 l 8.366,-1.4771 8.883,1.4771 10.873,-1.0729"
         id="path223"
         inkscape:connector-curvature="0"
         style="opacity:1;fill:#9e8a77" /><path
         d="m 204,59.411 h -19.747 -9.958 l -0.559,5.8194 10.274,2.5965 20.515,-3.3946"
         id="path225"
         inkscape:connector-curvature="0"
         style="opacity:1;fill:#9e8a77" /><path
         d="m 194.729,84.0392 8.527,1.8285 9.236,-1.5611 -2.229,6.3684 -8.024,0.854 -5.829,-4.0965 z"
         id="path227"
         inkscape:connector-curvature="0"
         style="opacity:1;fill:#6d5035" /><path
         d="m 189.341,100.993 6.188,-0.455 c 0,0 1.268,0.7 1.938,2.07 0.668,1.369 0.421,2.165 0.421,2.165 l -7.511,1.867 c 0,0 0.863,-1.268 0.266,-2.779 -0.598,-1.515 -1.302,-2.868 -1.302,-2.868 z"
         id="path229"
         inkscape:connector-curvature="0"
         style="opacity:1;fill:#9e8a77" /><path
         d="m 171.677,100.993 h 2.059 l -1.403,2.868 -2.183,-0.756 z"
         id="path231"
         inkscape:connector-curvature="0"
         style="opacity:1;fill:#9e8a77" /><path
         d="m 178.121,137.729 5.295,-2.278 10.458,1.4 0.855,-5.48 7.502,1.321 -2.035,5.005 -7.175,4.324 c 0,0 -6.13619,1.66862 -10.70519,1.81762 -4.57,0.147 -11.29874,-2.81809 -11.29874,-2.81809 l 1.51976,-4.70321 z"
         id="path233"
         inkscape:connector-curvature="0"
         style="opacity:1;fill:#9e8a77"
         sodipodi:nodetypes="ccccccccccc" /><path
         d="m 189.1,116.281 0.241,1.941 7.969,3.257 h 3.806 l 1.115,3.09 5.216,-3.981 0.495,-3.337 -7.838,-7.567 z"
         id="path235"
         inkscape:connector-curvature="0"
         style="opacity:1;fill:#9e8a77" /><path
         d="m 180.591,116.646 -0.121,1.576 3.769,-0.117 0.014,-1.824 z"
         id="path237"
         inkscape:connector-curvature="0"
         style="opacity:1;fill:#9e8a77" /><path
         d="m 200.173,77.7966 -0.069,1.3461 7.51,-0.582 2.681,1.2636 -2.907,-2.8954 z"
         id="path239"
         inkscape:connector-curvature="0"
         style="opacity:1;fill:#9e8a77" /><path
         d="m 156.388,77.5405 -0.473,1.95 5.991,0.4329 2.399,-0.0212 -1.613,-2.1915 z"
         id="path241"
         inkscape:connector-curvature="0"
         style="opacity:1;fill:#9e8a77" /><path
         d="m 153.408,85.8677 6.458,1.2392 9.513,-1.2392 -5.34,5.6613 h -8.241 z"
         id="path243"
         inkscape:connector-curvature="0"
         style="opacity:1;fill:#6d5035" /><path
         d="m 202.231,150.167 -4.298,14.48 2.538,1.233 2.785,-7.734 0.708,-4.598 z"
         id="path245"
         inkscape:connector-curvature="0"
         style="opacity:1;fill:#9e8a77" /><path
         d="m 189.1,87.4325 -4.847,-3.1259 1.781,9.7734 7.639,1.4392 6.426,5.0208 5.019,7.946 6.649,6.369 4.784,-8.215 1.613,-9.7775 -4.188,-3.7647 -6.034,2.9449 2.091,4.5613 -16.363,-9.075 z"
         id="path247"
         inkscape:connector-curvature="0"
         style="opacity:1;fill:#9e8a77" /><path
         d="m 186.034,86.0204 1.048,-6.5153 -3.844,-1.8081 -0.536,18.9495 c 0,0 -5.955,4.0275 -3.357,7.8595 2.547,3.754 7.899,3.812 9.672,0.032 1.527,-3.254 -3.016,-7.2917 -3.016,-7.2917 z"
         id="path249"
         inkscape:connector-curvature="0"
         style="opacity:1;fill:#9e8a77" /><path
         d="m 172.152,91.529 h -3.039 l -6.64858,3.96655 -7.6167,0.770041 -4.64878,5.373149 5.41659,9.05313 3.03824,-3.92669 9.73023,-10.11868 z"
         id="path251"
         inkscape:connector-curvature="0"
         style="opacity:1;fill:#9e8a77"
         sodipodi:nodetypes="ccccccccc" /></g><path
       style="clip-rule:evenodd;fill:#9e8a77;fill-opacity:1;fill-rule:evenodd;stroke:none;stroke-width:1px;stroke-linecap:butt;stroke-linejoin:miter;stroke-opacity:1"
       d="m 216.26762,132.14514 2.02431,0.088 3.52055,10.29762 -8.62536,0.35206 -3.2565,-5.54488 z"
       id="path1082"
       inkscape:connector-curvature="0"
       sodipodi:nodetypes="cccccc" /><path
       d="m 361.78894,287.21724 9.60351,10.72869 4.39141,13.93637 -3.8742,3.93958 -4.65977,-7.43904 -3.06129,-10.43691 z"
       id="path66"
       inkscape:connector-curvature="0"
       style="clip-rule:evenodd;opacity:1;fill:#9e8a77;fill-rule:evenodd;stroke-width:0.97586811;stroke-linecap:round;stroke-linejoin:round" /><path
       d="m 487.44689,301.44843 -4.33383,-1.60335 -2.7178,3.32576 4.18062,3.32673 z"
       id="path82"
       inkscape:connector-curvature="0"
       style="clip-rule:evenodd;display:inline;opacity:1;fill:#9e8a77;fill-rule:evenodd;stroke-width:0.97586811;stroke-linecap:round;stroke-linejoin:round" /><path
       d="m 472.05549,329.8862 3.27697,0.91829 3.93275,1.56237 -4.33091,4.165 -4.26552,-2.52359 z"
       id="path86"
       inkscape:connector-curvature="0"
       style="clip-rule:evenodd;display:inline;opacity:1;fill:#9e8a77;fill-rule:evenodd;stroke-width:0.97586811;stroke-linecap:round;stroke-linejoin:round" /><path
       d="m 479.26521,319.61519 4.09084,-4.19916 4.09084,2.78708 -2.87101,5.61124 z"
       id="path88"
       inkscape:connector-curvature="0"
       style="clip-rule:evenodd;display:inline;opacity:1;fill:#9e8a77;fill-rule:evenodd;stroke-width:0.97586811;stroke-linecap:round;stroke-linejoin:round" /><path
       d="m 469.99446,343.98359 -2.40942,1.92344 -3.08277,-0.60114 1.79463,-3.24671 z"
       id="path90"
       inkscape:connector-curvature="0"
       style="clip-rule:evenodd;display:inline;opacity:1;fill:#9e8a77;fill-rule:evenodd;stroke-width:0.97586811;stroke-linecap:round;stroke-linejoin:round" /><path
       d="m 314.35004,798.66679 v 24.25813 l -0.51818,22.80994 -0.63627,4.87153 6.24946,1.80633 2.05908,-17.24359 4.19038,-32.52666 -6.24946,-13.61043 z"
       id="path47"
       inkscape:connector-curvature="0"
       style="clip-rule:evenodd;opacity:1;fill:#9e8a77;fill-rule:evenodd;stroke-width:0.97586811;stroke-linecap:round;stroke-linejoin:round" /><path
       d="m 217.39462,791.8201 -3.21939,74.82371 h 5.85326 l 4.89983,-55.85576 z"
       id="path49"
       inkscape:connector-curvature="0"
       style="clip-rule:evenodd;opacity:1;fill:#9e8a77;fill-rule:evenodd;stroke-width:0.97586811;stroke-linecap:round;stroke-linejoin:round" /><path
       d="m 223.06929,762.51673 11.39912,-4.22453 0.73971,9.06093 -3.60291,5.06866 -4.12011,-4.58658 z"
       id="path51"
       inkscape:connector-curvature="0"
       style="clip-rule:evenodd;opacity:1;fill:#9e8a77;fill-rule:evenodd;stroke-width:0.97586811;stroke-linecap:round;stroke-linejoin:round" /><path
       d="m 308.04593,884.27872 -0.76312,6.90915 7.41562,-0.10832 -0.53185,-6.80083 z"
       id="path53"
       inkscape:connector-curvature="0"
       style="clip-rule:evenodd;opacity:1;fill:#9e8a77;fill-rule:evenodd;stroke-width:0.97586811;stroke-linecap:round;stroke-linejoin:round" /><path
       d="m 306.10493,905.06081 0.0547,3.99423 8.19046,0.16199 -0.22152,-4.42653 z"
       id="path55"
       inkscape:connector-curvature="0"
       style="clip-rule:evenodd;opacity:1;fill:#9e8a77;fill-rule:evenodd;stroke-width:0.97586811;stroke-linecap:round;stroke-linejoin:round" /><path
       d="m 234.19809,197.43445 14.26914,-3.09351 7.08188,-0.0849 -0.76996,1.69997 -6.54613,-0.18249 -14.84783,3.90152 -6.00452,-1.44331 -1.69508,-3.04764 z"
       id="path266"
       inkscape:connector-curvature="0"
       style="clip-rule:evenodd;opacity:1;fill:#9e8a77;fill-rule:evenodd;stroke-width:0.97586811;stroke-linecap:round;stroke-linejoin:round" /><path
       d="m 232.43274,204.37872 1.54968,-1.96052 3.39895,0.37181 4.94765,-1.46283 1.12518,3.05154 -5.70493,3.69659 -3.31014,-1.2901 z"
       id="path268"
       inkscape:connector-curvature="0"
       style="clip-rule:evenodd;opacity:1;fill:#9e8a77;fill-rule:evenodd;stroke-width:0.97586811;stroke-linecap:round;stroke-linejoin:round" /></g></svg>