<?xml version="1.0" encoding="UTF-8" standalone="no"?>
<svg
   xmlns:dc="http://purl.org/dc/elements/1.1/"
   xmlns:cc="http://creativecommons.org/ns#"
   xmlns:rdf="http://www.w3.org/1999/02/22-rdf-syntax-ns#"
   xmlns:svg="http://www.w3.org/2000/svg"
   xmlns="http://www.w3.org/2000/svg"
   xmlns:sodipodi="http://sodipodi.sourceforge.net/DTD/sodipodi-0.dtd"
   xmlns:inkscape="http://www.inkscape.org/namespaces/inkscape"
   width="434.88376"
   viewBox="0 0 347.90701 738.5583"
   version="1.1"
   height="923.19788"
   id="svg2"
   inkscape:version="0.48.3.1 r9886"
   sodipodi:docname="images.image.966cd44aef28a89e.44726177696e672032372e737667.svg">
  <metadata
     id="metadata246">
    <rdf:RDF>
      <cc:Work
         rdf:about="">
        <dc:format>image/svg+xml</dc:format>
        <dc:type
           rdf:resource="http://purl.org/dc/dcmitype/StillImage" />
      </cc:Work>
    </rdf:RDF>
  </metadata>
  <sodipodi:namedview
     pagecolor="#ffffff"
     bordercolor="#666666"
     borderopacity="1"
     objecttolerance="10"
     gridtolerance="10"
     guidetolerance="10"
     inkscape:pageopacity="0"
     inkscape:pageshadow="2"
     inkscape:window-width="1627"
     inkscape:window-height="1026"
     id="namedview244"
     showgrid="false"
     fit-margin-top="10"
     fit-margin-left="10"
     fit-margin-right="10"
     fit-margin-bottom="10"
     inkscape:zoom="0.87777778"
     inkscape:cx="181.4125"
     inkscape:cy="432.87875"
     inkscape:window-x="53"
     inkscape:window-y="24"
     inkscape:window-maximized="1"
     inkscape:current-layer="svg2" />
  <defs
     id="defs4" />
  <g
     id="back cloak"
     transform="translate(-160.87,-3.744723)">
    <path
       d="m 232.668,150.623 24.395,-9.309 0.592,-9.561 -4.249,-25.494 51.953,3.477 -2.897,19.892 0.763,11.411 32.613,11.726 -44.696,61.924 -71.694,-34.575 13.22,-29.491 z"
       id="path7"
       inkscape:connector-curvature="0"
       style="fill:#c89347" />
    <path
       d="m 252.56,161.448 19.154,-1.553 12.942,1.208 8.11,-1.726 23.64,0.173 -26.718,32.05 -52.313,-17.383 15.185,-12.769 z"
       id="path9"
       inkscape:connector-curvature="0"
       style="fill:#ecbb73" />
    <path
       d="m 298.633,141.431 4.141,4.832 8.456,4.314 -12.597,1.38 0,-10.526 z"
       id="path11"
       inkscape:connector-curvature="0"
       style="fill:#c89347" />
  </g>
  <g
     id="legs"
     transform="translate(-160.87,-3.744723)">
    <path
       d="m 280.529,473.619 -54.68,-7.24 3.255,39.519 0.602,23.348 7.274,9.857 1.682,22.717 9.255,68.994 -3.365,54.689 -13.462,16.828 -39.545,24.4 9.255,7.572 74.694,-10.097 -5.096,-24.209 5.345,-66.125 3.287,-24.106 3.288,-24.653 -9.797,-63.074 4.634,-22.325 3.374,-26.095 z"
       id="path14"
       inkscape:connector-curvature="0"
       style="fill:#ecbb73" />
    <path
       d="m 351.131,495.896 -0.155,20.344 5.838,22.32 2.203,39.431 -5.184,45.998 -4.075,58.856 2.991,8.362 -3.502,6.187 5.113,14.844 4.288,8.576 0.33,6.598 -25.082,2.07 -22.181,-1.773 -0.385,-9.363 5.811,-2.523 8.241,-9.256 4.03,-10.21 -1.88,-6.091 1.75,-6.74 -0.071,-34.915 -4.709,-52.541 -5.478,-29.584 -3.759,-44.065 -5.236,-14.014 -3.423,-29.439 46.212,-11.981 -1.687,28.909 z"
       id="path16"
       inkscape:connector-curvature="0"
       style="fill:#ecbb73" />
    <path
       d="m 326.033,527.33 14.278,-0.519 -1.364,5.233 -9.336,0.42 -3.578,-5.134 z"
       id="path18"
       inkscape:connector-curvature="0"
       style="fill:#c89347" />
    <path
       d="m 251.64,698.592 8.105,3.08 5.674,-2.918 -6.808,10.213 -6.971,-10.375 z"
       id="path20"
       inkscape:connector-curvature="0"
       style="fill:#c89347" />
    <path
       d="m 229.958,528.072 6.811,10.037 3.227,27.963 8.604,64.529 -3.227,54.49 -13.821,16.632 -5.973,4.102 -33.861,20.804 11.556,0.133 24.149,-15.792 23.41,-12.807 0.993,-7.336 1.075,-32.264 2.151,-36.925 -2.096,-37.077 -7.332,-36.692 0.64,-8.907 0.656,-2.02 -7.74,-5.306 1.487,-4.214 -3.965,-2.726 -0.549,-4.755 0.72,-19.353 38.212,2.221 4.655,-24.749 -53.008,-3.762 2.509,25.094 0.717,28.68 z"
       id="path22"
       inkscape:connector-curvature="0"
       style="fill:#c89347" />
    <path
       d="m 262.862,720.843 -13.365,-6.682 -14.628,2.89 -13.364,8.307 -21.13,1.264 -8.891,-0.536 5.774,4.33 25.691,0.541 14.81,-1.626 27.631,-1.444 -2.528,-7.044 z"
       id="path24"
       inkscape:connector-curvature="0"
       style="fill:#c89347" />
    <path
       d="m 307.303,487.542 44.08,0 -0.69,10.979 -41.186,1.51 -2.204,-12.489 z"
       id="path26"
       inkscape:connector-curvature="0"
       style="fill:#c89347" />
    <path
       d="m 322.477,511.696 3.286,6.688 -3.635,4.673 1.815,5.301 -1.704,8.733 5.325,22.791 6.897,54.874 -0.73,41.62 -3.234,26.815 -1.946,9.178 1.894,-25.77 -4.038,-62.719 -7.087,-33.819 -3.162,-44.408 -5.712,-15.057 -0.688,-8.039 21.293,-1.037 -8.574,10.176 z"
       id="path28"
       inkscape:connector-curvature="0"
       style="fill:#c89347" />
    <path
       d="m 328.858,703.424 c 5.396,-4.319 12.92,-4.769 17.343,0.391"
       id="path30"
       inkscape:connector-curvature="0"
       style="fill:none;stroke:#976f35;stroke-width:1.5;stroke-linecap:round;stroke-linejoin:round" />
    <path
       d="m 327.164,706.027 c 5.459,-0.327 13.584,-4.398 18.519,-0.36"
       id="path32"
       inkscape:connector-curvature="0"
       style="fill:none;stroke:#976f35;stroke-width:1.5;stroke-linecap:round;stroke-linejoin:round" />
    <path
       d="m 326.744,708.305 c 7.937,-3.279 13.606,-1.738 20.797,1.138"
       id="path34"
       inkscape:connector-curvature="0"
       style="fill:none;stroke:#976f35;stroke-width:1.5;stroke-linecap:round;stroke-linejoin:round" />
    <path
       d="m 324.527,710.942 c 6.05,-1.083 16.276,-3.88 21.875,0.119"
       id="path36"
       inkscape:connector-curvature="0"
       style="fill:none;stroke:#976f35;stroke-width:1.5;stroke-linecap:round;stroke-linejoin:round" />
    <path
       d="m 324.646,711.901 c 6.104,-1.127 13.855,-2.634 19.958,-0.6 2.164,0.721 3.899,2.463 5.574,3.237"
       id="path38"
       inkscape:connector-curvature="0"
       style="fill:none;stroke:#976f35;stroke-width:1.5;stroke-linecap:round;stroke-linejoin:round" />
    <path
       d="m 325.126,714.058 c 8.195,-1.042 17.477,-2.491 25.052,0.3"
       id="path40"
       inkscape:connector-curvature="0"
       style="fill:none;stroke:#976f35;stroke-width:1.5;stroke-linecap:round;stroke-linejoin:round" />
    <path
       d="m 322.309,714.957 c 9.301,-2.02 18.712,-1.123 27.03,3.356"
       id="path42"
       inkscape:connector-curvature="0"
       style="fill:none;stroke:#976f35;stroke-width:1.5;stroke-linecap:round;stroke-linejoin:round" />
    <path
       d="m 324.347,717.594 c 7.543,-0.408 15.071,1.167 22.475,2.038"
       id="path44"
       inkscape:connector-curvature="0"
       style="fill:none;stroke:#976f35;stroke-width:1.5;stroke-linecap:round;stroke-linejoin:round" />
  </g>
  <g
     id="clothing"
     transform="translate(-160.87,-3.744723)">
    <path
       d="m 214.942,458.396 4.039,69.668 42.962,6.168 54.313,-4.068 43.072,0.93 -1.315,-127.137 0.277,-55.481 -140.318,32.173 -3.03,77.747 z"
       id="path47"
       inkscape:connector-curvature="0"
       style="fill:#5c7c4d" />
    <path
       d="m 217.801,413.185 31.993,-0.06 40.412,7.177 47.278,-7.342 20.195,-0.039 -0.894,-45.605 -138.984,-5.272 0,51.141 z"
       id="path49"
       inkscape:connector-curvature="0"
       style="fill:#465f3b" />
    <path
       d="m 218.108,393.247 32.437,9.574 68.778,0 39.697,-10.46 7.154,-12.079 -4.024,-24.591 -1.578,-46.034 -8.791,-79.803 5.038,-68.239 -23.862,-13.767 -41.301,39.465 -63.135,-40.38 -18.847,12.363 2.543,48.275 2.444,48.53 -2.444,53.417 -2.095,36.659 0.009,25.163 7.977,21.907 z"
       id="path51"
       inkscape:connector-curvature="0"
       style="fill:#5c7c4d" />
    <path
       d="m 210.353,157.669 18.37,-8.785 21.165,13.178 -14.376,14.776 -23.961,6.389 -1.198,-25.558 z"
       id="path53"
       inkscape:connector-curvature="0"
       style="fill:#465f3b" />
    <path
       d="m 335.348,159.267 -28.353,44.726 -18.37,5.192 -42.73,-29.152 -15.575,-8.786 25.958,28.354 36.739,25.558 24.361,-22.763 17.97,-43.129 z"
       id="path55"
       inkscape:connector-curvature="0"
       style="fill:#465f3b" />
    <path
       d="m 344.932,163.26 -10.172,71.023 -20.805,70.445 -53.29,-22.265 -25.185,-41.61 -12.348,-62.817 22.933,57.707 35.04,46.72 31.39,-1.095 32.437,-118.108 z"
       id="path57"
       inkscape:connector-curvature="0"
       style="fill:#465f3b" />
    <path
       d="m 230.421,413.185 2.847,55.514 -0.474,57.412 -14.235,0.475 -2.372,-67.851 2.372,-48.397 11.862,2.847 z"
       id="path59"
       inkscape:connector-curvature="0"
       style="fill:#465f3b" />
    <path
       d="m 342.682,344.173 -73.342,12.942 -31.278,-32.356 17.796,40.446 83.049,6.471 3.775,-27.503 z"
       id="path61"
       inkscape:connector-curvature="0"
       style="fill:#465f3b" />
    <path
       d="m 210.708,178.985 5.205,76.137 -5.712,88.314 1.318,29.877 7.129,19.395 28.805,10.265 64.777,0.852 -66.618,-19.746 -23.189,-54.467 -1.618,-36.671 -1.079,-64.713 -9.018,-49.243 z"
       id="path63"
       inkscape:connector-curvature="0"
       style="fill:#465f3b" />
    <path
       d="m 331.799,412.41 -3.449,14.375 -18.423,9.826 -11.053,-24.564 32.925,0.363 z"
       id="path65"
       inkscape:connector-curvature="0"
       style="fill:#465f3b" />
    <path
       d="m 225.753,178.985 17.217,27.777 -1.377,-8.264 -15.84,-19.513 z"
       id="path67"
       inkscape:connector-curvature="0"
       style="fill:#465f3b" />
    <path
       d="m 246.643,164.752 27.089,20.89 -35.353,-15.38 8.264,-5.51 z"
       id="path69"
       inkscape:connector-curvature="0"
       style="fill:#465f3b" />
    <path
       d="m 267.074,241.655 25.482,25.941 -1.607,-11.019 -23.875,-14.922 z"
       id="path71"
       inkscape:connector-curvature="0"
       style="fill:#465f3b" />
    <path
       d="m 213.586,179.214 7.576,31.68 -1.377,-31.909"
       id="path73"
       inkscape:connector-curvature="0"
       style="fill:#465f3b" />
  </g>
  <g
     id="arm"
     transform="translate(-160.87,-3.744723)">
    <path
       d="m 363.663,167.058 6.958,28.45 0.855,18.816 8.981,24.377 6.415,37.634 20.23,9.675 35.793,13.846 12.054,0.671 13.08,-13.993 14.754,-4.05 6.436,-2.989 -2.758,10.115 4.75,-4.85 9.566,7.141 -2.414,16.444 -12.393,15.88 -35.118,-2.062 -84.38,-15.1 -11.367,-49.54 0.434,-82.443 1.736,-12.584 6.388,4.562 z"
       id="path76"
       inkscape:connector-curvature="0"
       style="fill:#ecbb73" />
    <path
       d="m 357.186,163.781 -5.562,67.491 5.019,45.005 9.786,30.442 20.241,4.131 63.472,11.401 -2.069,-5.058 -24.136,-3.907 -52.409,-11.953 -5.287,-13.792 11.263,-11.034 -7.126,-3.448 -13.562,-27.814 -1.79,-31.183 2.16,-50.281 z"
       id="path78"
       inkscape:connector-curvature="0"
       style="fill:#c89347" />
    <path
       d="m 445.707,317.368 23.924,0.684 14.354,5.81 -34.897,-1.673 -3.381,-4.821 z"
       id="path80"
       inkscape:connector-curvature="0"
       style="fill:#c89347" />
    <path
       d="m 480.712,306.752 -7.519,8.593 -8.36,3.449 12.06,3.354 8.593,2.149 -0.478,-10.503 -4.296,-7.042 z"
       id="path82"
       inkscape:connector-curvature="0"
       style="fill:#c89347" />
    <path
       d="m 197.602,171.584 -7.386,38.93 -8.465,36.228 -8.126,39.614 -4.755,31.421 4.415,43.512 5.722,53.123 4.993,38.425 11.538,17.913 10.074,7.094 8.363,-2.803 -1.472,-5.353 -4.818,1.739 -5.343,-3.43 -3.617,-19.386 5.518,-12.519 7.358,10.609 7.842,-0.538 -5.247,-8.245 -7.557,-20.82 -7.358,-11.294 -3.917,-21.237 4.389,-43.892 0,-42.794 15.034,-44.359 -2.596,-48.208 -2.225,-43.017 -12.364,9.287 z"
       id="path84"
       inkscape:connector-curvature="0"
       style="fill:#ecbb73" />
    <path
       d="m 209.508,164.481 -12.876,6.755 -6.087,40.284 -7.107,30.151 -8.545,38.898 12.225,-1.766 11.836,-49.2 -0.598,-25.507 5.734,-18.646 6.615,-4.257 -1.197,-16.712 z"
       id="path86"
       inkscape:connector-curvature="0"
       style="fill:#c89347" />
    <path
       d="m 178.061,273.58 -3.286,6.927 -5.656,20.622 5.242,73.776 5.383,50.522 2.217,26.387 2.436,4.088 3.881,10.975 17.131,10.573 -9.1,-6.023 -5.686,-15.582 -3.182,-4.919 0.144,-6.655 0.286,-27.71 -5.066,-33.81 -7.107,-66.881 11.243,-47.263 -8.88,4.973 z"
       id="path88"
       inkscape:connector-curvature="0"
       style="fill:#c89347" />
    <path
       d="m 214.133,230.597 0.097,26.489 -13.976,38.303 -1.265,48.57 -3.263,44.394 4.531,21.985 -15.097,-9.057 0.799,-30.167 10.395,-57.971 -4.768,-9.97 2.817,-13.438 7.153,-2.384 10.961,-32.861 1.616,-23.893 z"
       id="path90"
       inkscape:connector-curvature="0"
       style="fill:#c89347" />
    <path
       d="m 204.42,436.068 9.026,8.146 4.861,1.717 -6.753,1.169 -7.134,-11.032 z"
       id="path92"
       inkscape:connector-curvature="0"
       style="fill:#c89347" />
    <path
       d="m 207.551,471.427 5.086,-4.149 -4.283,-2.275 -6.157,3.748 5.354,2.676 z"
       id="path94"
       inkscape:connector-curvature="0"
       style="fill:#c89347" />
    <path
       d="m 205.409,466.877 -2.81,-4.417 -1.297,0.514 1.051,5.561 3.056,-1.658 z"
       id="path96"
       inkscape:connector-curvature="0"
       style="fill:#c89347" />
    <path
       d="m 482.896,292.986 -2.173,6.664 -2.752,5.505 2.173,3.476 -12.024,8.692 -0.724,-10.865 6.374,-7.678 0.724,-5.36 10.141,-4.78 -1.739,4.346 z"
       id="path98"
       inkscape:connector-curvature="0"
       style="fill:#c89347" />
  </g>
  <g
     id="shoes"
     transform="translate(-160.87,-3.744723)">
    <path
       d="m 189.917,729.607 87.642,-4.497 -0.942,5.653 -85.569,3.367 -1.131,-4.523 z"
       id="path101"
       inkscape:connector-curvature="0"
       style="fill:#5e3e30" />
    <path
       d="m 198.694,729.712 -2.468,-7.972 5.884,-2.942 9.016,10.629 -12.432,0.285 z"
       id="path103"
       inkscape:connector-curvature="0"
       style="fill:#5e3e30" />
    <path
       d="m 211.505,728.763 9.572,-0.466 -9.761,-14.908 -5.979,2.942 6.168,12.432 z"
       id="path105"
       inkscape:connector-curvature="0"
       style="fill:#5e3e30" />
    <path
       d="m 222.799,728.478 11.293,-0.949 -12.147,-18.6 -6.549,3.226 7.403,16.323 z"
       id="path107"
       inkscape:connector-curvature="0"
       style="fill:#5e3e30" />
    <path
       d="m 237.129,727.814 12.147,0 -15.862,-23.656 -7.133,2.927 10.848,20.729 z"
       id="path109"
       inkscape:connector-curvature="0"
       style="fill:#5e3e30" />
    <path
       d="m 257.265,727.793 14.814,-23.691 3.102,22.489 -17.916,1.202 z"
       id="path111"
       inkscape:connector-curvature="0"
       style="fill:#5e3e30" />
    <path
       d="m 270.381,708.856 -4.814,10.306 -23.269,-13.218 2.404,-5.244 25.679,8.156 z"
       id="path113"
       inkscape:connector-curvature="0"
       style="fill:#5e3e30" />
    <path
       d="m 229.271,708.604 c -0.944,-0.987 -2.671,-4.874 -3.185,-5.901"
       id="path115"
       inkscape:connector-curvature="0"
       style="fill:#5e3e30;stroke:#976f35;stroke-width:1.5;stroke-linecap:round;stroke-linejoin:round" />
    <path
       d="m 232.549,706.356 c -1.44,-2.013 -2.415,-4.293 -4.121,-5.62"
       id="path117"
       inkscape:connector-curvature="0"
       style="fill:#5e3e30;stroke:#976f35;stroke-width:1.5;stroke-linecap:round;stroke-linejoin:round" />
    <path
       d="m 217.657,712.444 c -1.059,-1.01 -1.48,-2.397 -2.061,-3.559"
       id="path119"
       inkscape:connector-curvature="0"
       style="fill:#5e3e30;stroke:#976f35;stroke-width:1.5;stroke-linecap:round;stroke-linejoin:round" />
    <path
       d="m 221.778,710.664 c -0.243,-1.372 -0.531,-3.071 -0.843,-4.215"
       id="path121"
       inkscape:connector-curvature="0"
       style="fill:#5e3e30;stroke:#976f35;stroke-width:1.5;stroke-linecap:round;stroke-linejoin:round" />
    <path
       d="m 210.538,715.067 c 0,-0.656 0,-1.312 0,-1.967"
       id="path123"
       inkscape:connector-curvature="0"
       style="fill:#5e3e30;stroke:#976f35;stroke-width:1.5;stroke-linecap:round;stroke-linejoin:round" />
    <path
       d="m 206.979,716.659 c -0.718,-0.185 -1.321,-0.81 -1.78,-1.218"
       id="path125"
       inkscape:connector-curvature="0"
       style="fill:#5e3e30;stroke:#976f35;stroke-width:1.5;stroke-linecap:round;stroke-linejoin:round" />
    <path
       d="m 201.184,721.031 c 0.057,-0.906 0.47,-2.345 0.656,-2.904"
       id="path127"
       inkscape:connector-curvature="0"
       style="fill:#5e3e30;stroke:#976f35;stroke-width:1.5;stroke-linecap:round;stroke-linejoin:round" />
    <path
       d="m 197.625,722.53 c -0.638,-0.085 -1.998,-0.094 -2.342,-0.094"
       id="path129"
       inkscape:connector-curvature="0"
       style="fill:#5e3e30;stroke:#976f35;stroke-width:1.5;stroke-linecap:round;stroke-linejoin:round" />
    <path
       d="m 244.351,704.482 c -4.347,-1.006 -9.789,-4.402 -14.05,-5.713"
       id="path131"
       inkscape:connector-curvature="0"
       style="fill:#5e3e30;stroke:#976f35;stroke-width:1.5;stroke-linecap:round;stroke-linejoin:round" />
    <path
       d="m 245.382,701.953 c -4.456,-1.014 -7.703,-4.975 -11.428,-6.837"
       id="path133"
       inkscape:connector-curvature="0"
       style="fill:#5e3e30;stroke:#976f35;stroke-width:1.5;stroke-linecap:round;stroke-linejoin:round" />
    <path
       d="m 310.93,732.385 48.734,-0.081 0.55,-5.36 -49.657,0.033 0.373,5.408 z"
       id="path135"
       inkscape:connector-curvature="0"
       style="fill:#5e3e30" />
    <path
       d="m 310.482,725.371 1.978,2.064 -1.155,-4.79 2.523,-4.585 11.656,0.164 -2.495,-4.465 -13.25,5.079 0.743,6.533 z"
       id="path137"
       inkscape:connector-curvature="0"
       style="fill:#5e3e30" />
    <path
       d="m 358.787,727.577 1.412,-1.029 0.42,-5.226 -13.091,-3.808 -2.962,1.947 12.632,2.888 2.092,2.356 -0.503,2.872 z"
       id="path139"
       inkscape:connector-curvature="0"
       style="fill:#5e3e30" />
    <path
       d="m 354.004,714.909 -8.572,-9.625 0,-2.72 8.886,7.434 -0.314,4.911 z"
       id="path141"
       inkscape:connector-curvature="0"
       style="fill:#5e3e30" />
    <path
       d="m 322.986,705.864 5.259,-2.538 -0.725,2.72 -6.891,3.626 2.357,-3.808 z"
       id="path143"
       inkscape:connector-curvature="0"
       style="fill:#5e3e30" />
    <path
       d="m 355.847,713.66 -8.822,-5.768 -1.358,2.545 10.689,5.599 -0.509,-2.376 z"
       id="path145"
       inkscape:connector-curvature="0"
       style="fill:#5e3e30" />
    <path
       d="m 358.5,716.192 -10.943,-3.647 0.934,1.951 10.433,6.616 -0.424,-4.92 z"
       id="path147"
       inkscape:connector-curvature="0"
       style="fill:#5e3e30" />
    <path
       d="m 317.983,714.853 7.04,-0.339 0.255,-2.969 -7.889,0.764 -1.527,2.12 2.121,0.424 z"
       id="path149"
       inkscape:connector-curvature="0"
       style="fill:#5e3e30" />
    <path
       d="m 319.934,710.018 7.21,-2.036 -2.63,3.139 -6.531,1.951 1.951,-3.054 z"
       id="path151"
       inkscape:connector-curvature="0"
       style="fill:#5e3e30" />
    <path
       d="m 353.296,704.949 -2.293,-1.192 0.917,4.402 1.651,1.375 -0.275,-4.585 z"
       id="path153"
       inkscape:connector-curvature="0"
       style="fill:#5e3e30" />
  </g>
  <g
     id="Layer 1"
     transform="translate(-160.87,-3.744723)">
    <path
       d="m 240.931,72.702 c -3.552,-33.1787 7.535,-61.0107 37.634,-60.9572 30.1,0.0534 43.471,28.5945 39.776,60.1034 -1.73,14.7492 -3.514,33.2048 -3.514,33.2048 0,0 -15.858,19.796 -33.176,20.243 -17.318,0.447 -36.097,-18.455 -36.097,-18.455 0,0 -2.498,-14.2871 -4.623,-34.139 z"
       id="path156"
       inkscape:connector-curvature="0"
       style="fill:#ecbb73" />
    <path
       d="m 267.885,88.3922 13.547,4.5157 10.386,-4.5157 -9.257,10.1603 -13.096,0.4516 -1.58,-10.6119 z"
       id="path158"
       inkscape:connector-curvature="0"
       style="fill:#c89347" />
    <path
       d="m 269.753,88.4716 4.268,-6.7577 -4.268,-0.2371 -14.435,21.6352 14.435,-14.6404 z"
       id="path160"
       inkscape:connector-curvature="0"
       style="fill:#c89347" />
    <path
       d="m 290.461,87.6303 1.66,-4.9793 13.628,17.0547 -15.288,-12.0754 z"
       id="path162"
       inkscape:connector-curvature="0"
       style="fill:#c89347" />
    <path
       d="m 248.916,60.9045 20.205,2.1551 7.086,5.3156 -0.25,14.5993 -7.226,-0.6773 -0.177,-6.048 -9.754,7.2869 -14.227,-6.5574 12.199,30.2853 8.039,6.996 0.864,3.645 7.807,6.621 -10.301,-4.51 -7.962,-4.892 -9.94,-7.828 -5.202,-37.44 1.178,-26.8648 8.771,-17.1354 0.367,17.2109 1.824,13.381 -3.301,4.4568 z"
       id="path164"
       inkscape:connector-curvature="0"
       style="fill:#c89347" />
    <path
       d="m 284.006,68.008 6.879,-6.2138 7.987,-0.8643 16.308,7.4443 -17.018,9.7991 -6.117,-3.8681 -6.298,4.9574 -1.741,-11.2546 z"
       id="path166"
       inkscape:connector-curvature="0"
       style="fill:#c89347" />
    <path
       d="m 281.743,58.7799 -1.959,4.1054 -1.502,-3.7705 -16.239,-3.0391 -9.03,-0.1843 6.798,-1.0944 10.88,0.8571 9.423,-2.8379 8.104,1.6099 9.558,-0.7846 9.244,2.4761 -13.095,0.1423 -12.182,2.52 z"
       id="path168"
       inkscape:connector-curvature="0"
       style="fill:#c89347" />
    <path
       d="m 266.458,47.1316 12.584,3.1943 13.455,-3.7764 -14.327,1.7437 -11.712,-1.1616 z"
       id="path170"
       inkscape:connector-curvature="0"
       style="fill:#c89347" />
    <path
       d="m 266.058,106.913 12.306,-1.758 4.923,-0.234 12.106,1.851 -29.335,0.141 z"
       id="path172"
       inkscape:connector-curvature="0"
       style="fill:#996a48" />
    <path
       d="m 303.874,116.858 -1.322,12.981 0.481,11.418 27.815,9.301 -5.459,5.003 -32.092,0.6 -8.776,5.261 -11.537,-5.381 -20.941,2.301 4.659,-6.039 12.09,-0.508 -0.807,-7.017 2.823,-4.92 3.979,11.135 9.734,9.449 7.394,-10.567 5.236,-22.996 6.723,-10.021 z"
       id="path174"
       inkscape:connector-curvature="0"
       style="fill:#ecbb73" />
    <path
       d="m 274.385,109.634 -4.152,2.496 -3.554,0.844 7.072,2.217 1.654,-1.724 4.035,-1.525 3.128,0.417 3.614,1.181 1.818,1.862 7.071,-2.216 -3.553,-0.845 -4.773,-2.245 -3.46,0.416 -5.594,-0.387 -0.07,0.07 -3.236,-0.561 z"
       id="path176"
       inkscape:connector-curvature="0"
       style="fill:#c89347" />
    <path
       d="m 268.576,71.2343 0.157,5.0234 -9.764,6.6429 -9.076,-4.7017 2.076,-5.7294 8.235,4.1176 8.372,-5.3528 z"
       id="path178"
       inkscape:connector-curvature="0"
       style="fill:#b5856f" />
    <path
       d="m 290.314,70.2585 -0.401,6.3529 9.765,6.6428 7.763,-4.9285 -1.737,-5.7091 -7.262,4.3241 -8.128,-6.6822 z"
       id="path180"
       inkscape:connector-curvature="0"
       style="fill:#b5856f" />
    <path
       d="m 307.778,151.785 -7.592,-4.141 -1.553,-7.938 -3.969,13.804 13.114,-1.725 z"
       id="path182"
       inkscape:connector-curvature="0"
       style="fill:#c89347" />
    <path
       d="m 280.169,146.608 4.659,3.624 5.004,-5.695 0.173,-6.212 -6.385,5.005 -3.451,3.278 z"
       id="path184"
       inkscape:connector-curvature="0"
       style="fill:#ecbb73" />
    <path
       d="m 293.479,22.2612 6.863,2.3739 2.139,6.3631 -6.824,-2.1316 -2.178,-6.6054 z"
       id="path186"
       inkscape:connector-curvature="0"
       style="fill:#b68641" />
    <path
       d="m 279.638,18.439 2.418,3.627 4.232,-0.7556 -6.65,-2.8714 z"
       id="path188"
       inkscape:connector-curvature="0"
       style="fill:#b68641" />
    <path
       d="m 254.954,115.773 16.857,9.513 9.68,1.168 8.845,-2.503 -7.677,4.84 -10.681,0.834 -9.347,-2.17 -2.336,5.341 -2.671,7.844 -2.67,-24.867 z"
       id="path190"
       inkscape:connector-curvature="0"
       style="fill:#b68641" />
    <path
       d="m 275.959,110.098 9.701,0.216 -2.443,2.012 -4.455,-0.072 -2.803,-2.156 z"
       id="path192"
       inkscape:connector-curvature="0"
       style="fill:#b68641" />
  </g>
  <g
     id="Layer 2"
     transform="translate(-160.87,-3.744723)">
    <path
       d="m 269.338,107.03 22.444,-0.193 -1.355,2.902 -8.312,0.925 -11.035,-1.377 -1.742,-2.257 z"
       id="path195"
       inkscape:connector-curvature="0"
       style="fill:#c8875a" />
  </g>
  <g
     id="l eye"
     transform="translate(-160.87,-3.744723)">
    <path
       d="m 252.165,72.1252 10.575,-6.4146 5.461,4.5942 -6.848,3.294 -9.188,-1.4736 z"
       id="path198"
       inkscape:connector-curvature="0"
       style="fill:#ffffff" />
    <path
       d="m 255.598,70.2618 c 0,-2.5325 2.053,-4.5854 4.586,-4.5854 2.532,0 4.585,2.0529 4.585,4.5854 0,2.5324 -2.053,4.5853 -4.585,4.5853 -2.533,0 -4.586,-2.0529 -4.586,-4.5853 z"
       id="path200"
       inkscape:connector-curvature="0"
       style="fill:#976f35" />
    <path
       d="m 257.168,70.2618 c 0,-1.6656 1.35,-3.0159 3.016,-3.0159 1.665,0 3.015,1.3503 3.015,3.0159 0,1.6655 -1.35,3.0158 -3.015,3.0158 -1.666,0 -3.016,-1.3503 -3.016,-3.0158 z"
       id="path202"
       inkscape:connector-curvature="0"
       style="fill:#000000" />
    <path
       d="m 252.116,71.9542 8.743,1.7484 7.091,-3.3511 -7.864,6.7802 -6.651,-3.7305 -1.319,-1.447 z"
       id="path204"
       inkscape:connector-curvature="0"
       style="fill:#ecbb73" />
    <path
       d="m 262.798,65.6724 -10.682,6.3789 3.915,-6.8412 6.767,0.4623 z"
       id="path206"
       inkscape:connector-curvature="0"
       style="fill:#ecbb73" />
  </g>
  <g
     id="r eye"
     transform="translate(-160.87,-3.744723)">
    <path
       d="m 306.19,71.61 -10.576,-6.4145 -5.461,4.5942 6.848,3.2939 9.189,-1.4736 z"
       id="path209"
       inkscape:connector-curvature="0"
       style="fill:#ffffff" />
    <path
       d="m 302.756,69.7466 c 0,-2.5324 -2.053,-4.5854 -4.585,-4.5854 -2.532,0 -4.585,2.053 -4.585,4.5854 0,2.5324 2.053,4.5854 4.585,4.5854 2.532,0 4.585,-2.053 4.585,-4.5854 z"
       id="path211"
       inkscape:connector-curvature="0"
       style="fill:#976f35" />
    <path
       d="m 301.187,69.7466 c 0,-1.6656 -1.35,-3.0158 -3.016,-3.0158 -1.666,0 -3.016,1.3502 -3.016,3.0158 0,1.6656 1.35,3.0158 3.016,3.0158 1.666,0 3.016,-1.3502 3.016,-3.0158 z"
       id="path213"
       inkscape:connector-curvature="0"
       style="fill:#000000" />
    <path
       d="m 306.238,71.439 -8.742,1.7485 -7.091,-3.3512 7.864,6.7803 6.65,-3.7306 1.319,-1.447 z"
       id="path215"
       inkscape:connector-curvature="0"
       style="fill:#ecbb73" />
    <path
       d="m 295.556,65.1572 10.682,6.379 -3.914,-6.8412 -6.768,0.4622 z"
       id="path217"
       inkscape:connector-curvature="0"
       style="fill:#ecbb73" />
  </g>
  <g
     id="ears"
     transform="translate(-160.87,-3.744723)">
    <path
       d="m 240.164,64.6726 -5.537,-4.4826 -6.065,7.3831 3.428,16.0848 4.483,7.6468 6.855,-5.2737 -3.164,-21.3584 z"
       id="path220"
       inkscape:connector-curvature="0"
       style="fill:#c89347" />
    <path
       d="m 319.697,63.8134 5.537,-4.4826 6.065,7.3831 -3.428,16.0848 -4.482,7.6468 -6.856,-5.2736 3.164,-21.3585 z"
       id="path222"
       inkscape:connector-curvature="0"
       style="fill:#ecbb73" />
    <path
       d="m 233.591,67.0382 -0.501,7.0097 2.504,10.3477 4.172,-1.669 0.334,-5.1738 -3.839,1.8359 0,-6.0084 -2.67,-6.3421 z"
       id="path224"
       inkscape:connector-curvature="0"
       style="fill:#b68641" />
    <path
       d="m 271.509,91.6027 4.646,0.6775 -2.226,1.7421 -2.42,-2.4196 z"
       id="path226"
       inkscape:connector-curvature="0"
       style="fill:#b68641" />
    <path
       d="m 285.543,92.6673 3.58,-1.8388 -1.354,2.5163 -2.226,-0.6775 z"
       id="path228"
       inkscape:connector-curvature="0"
       style="fill:#b68641" />
    <path
       d="m 324.433,67.0565 4.424,1.9232 -3.847,5.9618 0.385,7.1157 -2.925,1.6429 -2.394,-4.7868 3.28,0.4432 -1.595,-5.4074 0.177,-3.3685 2.127,2.8367 1.596,-2.7481 -1.228,-3.6127 z"
       id="path230"
       inkscape:connector-curvature="0"
       style="fill:#c89347" />
    <path
       d="M 208.112,210.876"
       id="path232"
       inkscape:connector-curvature="0"
       style="fill:#ecbb73" />
  </g>
  <g
     id="beard"
     transform="translate(-160.87,-3.744723)">
    <path
       d="m 271.17,60.569 -2.515,3.7654 -6.336,0.6255 -3.405,2.2075 -5.559,2.6209 -5.509,1.7361 -7.795,-0.254 7.052,-3.958 -2.847,-4.6835 6.655,1.6108 1.351,-3.5636 4.793,1.5964 2.712,-4.1095 4.787,0.0875 3.361,-3.0087 3.255,5.3272 z"
       id="path235"
       inkscape:connector-curvature="0"
       style="fill:#fff4e0" />
    <path
       d="m 286.926,59.8539 2.435,3.8181 6.321,0.7602 3.358,2.2795 5.501,2.7386 5.471,1.853 7.799,-0.0879 -6.966,-4.1073 2.946,-4.6217 -6.688,1.4687 -1.275,-3.5916 -4.826,1.494 -2.624,-4.1664 -4.788,-0.0144 -3.296,-3.0795 -3.368,5.2567 z"
       id="path237"
       inkscape:connector-curvature="0"
       style="fill:#fff4e0" />
  </g>
  <g
     id="hair"
     transform="translate(-160.87,-3.744723)">
    <path
       d="m 242.275,44.6232 1.632,-8.5678 -4.911,6.1271 -2.841,19.5762 2.04,1.2239 -1.779,9.3036 5.734,8.8877 0,-14.3351 0.86,-11.1813 -0.735,-11.0343 z"
       id="path240"
       inkscape:connector-curvature="0"
       style="fill:#c8c5b8" />
    <path
       d="m 314.792,54.9771 0.903,11.0635 0,13.9987 5.645,-6.7736 -1.14,-8.8551 2.244,-2.0399 -2.652,-19.5835 -5.711,-7.3437 3.263,11.4236 -2.552,8.11 z"
       id="path242"
       inkscape:connector-curvature="0"
       style="fill:#c8c5b8" />
  </g>
</svg>
