<?xml version="1.0" encoding="UTF-8" standalone="no"?>
<svg
   xmlns:dc="http://purl.org/dc/elements/1.1/"
   xmlns:cc="http://creativecommons.org/ns#"
   xmlns:rdf="http://www.w3.org/1999/02/22-rdf-syntax-ns#"
   xmlns:svg="http://www.w3.org/2000/svg"
   xmlns="http://www.w3.org/2000/svg"
   xmlns:sodipodi="http://sodipodi.sourceforge.net/DTD/sodipodi-0.dtd"
   xmlns:inkscape="http://www.inkscape.org/namespaces/inkscape"
   width="500"
   viewBox="0 0 400 736"
   version="1.1"
   height="920"
   id="svg2"
   inkscape:version="0.92.2 (5c3e80d, 2017-08-06)"
   sodipodi:docname="people_simon (DESKTOP-RV4I2EU's conflicted copy 2019-08-26).svg"
   inkscape:export-filename="C:\Users\scott\Dropbox\pictures\Sketchbook\Paideia images\people_simon.png"
   inkscape:export-xdpi="96"
   inkscape:export-ydpi="96">
  <metadata
     id="metadata118">
    <rdf:RDF>
      <cc:Work
         rdf:about="">
        <dc:format>image/svg+xml</dc:format>
        <dc:type
           rdf:resource="http://purl.org/dc/dcmitype/StillImage" />
        <dc:title></dc:title>
      </cc:Work>
    </rdf:RDF>
  </metadata>
  <sodipodi:namedview
     pagecolor="#ffffff"
     bordercolor="#666666"
     borderopacity="1"
     objecttolerance="10"
     gridtolerance="10"
     guidetolerance="10"
     inkscape:pageopacity="0"
     inkscape:pageshadow="2"
     inkscape:window-width="2164"
     inkscape:window-height="2055"
     id="namedview116"
     showgrid="false"
     fit-margin-top="10"
     fit-margin-left="10"
     fit-margin-right="10"
     fit-margin-bottom="10"
     inkscape:zoom="1.7555556"
     inkscape:cx="139.21355"
     inkscape:cy="497.29539"
     inkscape:window-x="3029"
     inkscape:window-y="0"
     inkscape:window-maximized="0"
     inkscape:current-layer="Layer 2"
     inkscape:object-nodes="false"
     inkscape:snap-nodes="false"
     inkscape:snap-others="false" />
  <defs
     id="defs4" />
  <g
     id="back cloak"
     transform="matrix(0.99522155,0,0,0.99522155,-105.72239,-25.693936)">
    <path
       d="m 383.263,185.66 25.00893,100.83587 30.47991,13.52141 -52.25084,46.93372 6.112,304.328 -74.639,-33.798 17.181,-460.456 z"
       id="path7"
       inkscape:connector-curvature="0"
       style="fill:#572e2d"
       sodipodi:nodetypes="cccccccc" />
    <path
       d="m 248.305,157.091 20.708,-8.122 -1.175,-47.942 49.352,-1.6446 0.705,51.4666 25.427,7.264 -40.098,51.107 -63.68,-30.711 z"
       id="path9"
       inkscape:connector-curvature="0"
       style="fill:#c89347" />
    <path
       d="m 246.727,158.608 22.437,-10.871 -0.477,-18.705 39.459,7.007 -5.04,10.326 -13.746,8.532 -2.772,7.3 -2.587,-4.62 -3.234,2.772 1.12,2.378 -25.796,2.963 z"
       id="path11"
       inkscape:connector-curvature="0"
       style="fill:#9f7639;fill-opacity:1" />
    <path
       d="m 306.605,129.691 11.316,-0.404 v 21.824 l 19.284,5.968 -1.32,10.529 -28.912,-2.811 -14.188,4.015 -13.252,-4.149 -21.55,1.205 5.087,-2.142 20.479,-1.874 9.37,3.748 6.648,-1.603 11.484,-30.803 z"
       id="path13"
       inkscape:connector-curvature="0"
       style="fill:#ecbb73" />
    <path
       d="m 288.469,164.823 -5.207,-7.985 -3.419,2.494 0.494,2.788 z"
       id="path15"
       inkscape:connector-curvature="0"
       style="fill:#ecbb73" />
    <path
       d="m 298.692,152.68 -1.016,6.19 -4.435,2.31 3.049,-4.527 z"
       id="path17"
       inkscape:connector-curvature="0"
       style="fill:#ecbb73" />
    <path
       d="m 258.073,168.552 21.52,-0.315 13.189,1.25 13.744,-1.666 10.749,1.415 -13.477,17.494 -24.483,-0.167 z"
       id="path19"
       inkscape:connector-curvature="0"
       style="fill:#ecbb73" />
    <path
       d="m 211.512,625.779 71.014,-22.499 39.373,-74.529 -49.92,-12.656 z"
       id="path21"
       inkscape:connector-curvature="0"
       style="fill:#572e2d" />
  </g>
  <g
     id="legs"
     transform="matrix(0.99522155,0,0,0.99522155,-105.72239,-25.693936)">
    <path
       d="m 242.884,579.769 1.61,21.739 8.857,66.022 -3.221,52.335 -12.882,16.103 -37.842,23.349 8.856,7.247 81.32,-8.052 -4.025,-28.18 v -34.621 l 0.805,-46.699 9.662,-26.57 -12.883,-61.997 -39.452,-1.61"
       id="path24"
       inkscape:connector-curvature="0"
       style="fill:#ecbb73" />
    <path
       d="m 376.799,578.159 -1.61,21.739 -8.857,66.022 3.221,52.335 12.882,16.103 37.842,23.349 -8.856,7.246 -81.32,-8.051 4.025,-28.18 V 694.1 l -0.805,-46.699 -9.662,-26.569 12.883,-61.997 39.452,-1.61"
       id="path26"
       inkscape:connector-curvature="0"
       style="fill:#ecbb73" />
  </g>
  <g
     id="arm"
     transform="matrix(0.99522155,0,0,0.99522155,-105.72239,-25.693936)">
    <path
       d="m 387.68295,183.64671 8.26337,11.25072 2.04037,39.94178 13.83032,74.52437 42.62263,22.08311 9.2202,-8.31411 8.90699,-3.28052 0.57445,-3.10913 5.23795,-0.6244 13.60957,10.06445 -2.09941,15.04536 -2.3471,4.90437 -3.36282,2.45866 -1.14003,4.45333 -4.13486,1.66034 -0.82138,3.94039 -4.7945,3.26855 -32.77108,-5.90212 -33.85968,-7.73438 -28.65124,-15.68857 -23.56346,-61.96721 -1.1008,-73.52464 18.43097,-32.14796 z"
       id="path29"
       inkscape:connector-curvature="0"
       style="fill:#ecbb73;stroke-width:1.14069271"
       sodipodi:nodetypes="cccccccccccccccccccccccc" />
    <path
       d="m 478.37921,316.11853 15.50376,-17.50619 8.88531,4.80864 1.23651,10.34172 -12.01601,12.42027 -4.65561,-3.51782 z"
       id="path33"
       inkscape:connector-curvature="0"
       style="fill:#fff4e0;stroke-width:1.14069271"
       sodipodi:nodetypes="ccccccc" />
    <path
       d="m 374.99643,208.83736 -10.2339,17.85067 -10.65488,46.41371 23.89905,59.48717 27.86802,13.33854 8.46046,3.77538 -3.85532,-34.89321 -3.20197,-17.55696 -9.92791,6.8132 -7.31081,13.74563 -10.93656,-22.39079 6.67576,-15.00375 -10.20081,-39.11337 -6.58934,-12.99021 z"
       id="path35"
       inkscape:connector-curvature="0"
       style="fill:#c89347;stroke-width:1.14069271"
       sodipodi:nodetypes="ccccccccccccccc" />
    <path
       d="m 410.11427,284.00933 28.63757,16.00795 4.35831,26.18367 -8.57056,-4.52573 -9.57637,11.86786 21.7926,218.76737 12.601,54.439 -53.431,-28.732 -1.99935,-164.36146 -15.78999,-101.49009 4.68312,-16.06704 z"
       id="path31"
       inkscape:connector-curvature="0"
       style="fill:#803c3a"
       sodipodi:nodetypes="cccccccccccc" />
    <path
       d="m 425.80559,341.15384 21.23237,5.78062 -8.9063,7.86564 -11.00054,-2.37001 z"
       id="path37"
       inkscape:connector-curvature="0"
       style="fill:#c89347;stroke-width:0.82122463"
       sodipodi:nodetypes="ccccc" />
    <path
       d="m 459.77343,344.05516 -6.25036,-1.85928 4.74054,12.32178 -5.31109,4.24164 17.90114,2.20664 -2.53416,-7.81622 z"
       id="path39"
       inkscape:connector-curvature="0"
       style="fill:#c89347;stroke-width:1.14069271"
       sodipodi:nodetypes="ccccccc" />
    <path
       d="m 452.0043,342.31998 8.04809,6.8006 2.54346,7.46844 -17.08333,18.3238 -11.10772,-7.13129 -0.66336,-9.04635 z"
       id="path41"
       inkscape:connector-curvature="0"
       style="fill:#fff4e0;stroke-width:1.14069271"
       sodipodi:nodetypes="ccccccc" />
    <path
       style="fill:#d9cdbb;fill-opacity:1;stroke:none;stroke-width:0.95396745px;stroke-linecap:butt;stroke-linejoin:miter;stroke-opacity:1"
       d="m 433.74144,358.73518 0.66336,9.04635 11.1077,7.13129 -0.13427,-6.65798 -4.5912,-6.90008 z"
       id="path4563"
       inkscape:connector-curvature="0"
       sodipodi:nodetypes="cccccc" />
  </g>
  <g
     id="clothing"
     transform="matrix(0.99522155,0,0,0.99522155,-105.72239,-25.693936)">
    <path
       d="m 228.896,460.824 -1.835,94.498 157.439,12.668 -6.06,-176.892 -2.752,-26.606 -135.783,22.936 z"
       id="path44"
       inkscape:connector-curvature="0"
       style="fill:#5c7c4d" />
    <path
       d="m 212.378,396.282 172.217,-2.424 5.333,-12.57 -10.666,-25.522 3.46184,-78.78765 L 367.268,223.458 361.561,162.317 340.366,150.089 295.243,177.631 237.65,159.057 Z"
       id="path46"
       inkscape:connector-curvature="0"
       style="fill:#5c7c4d"
       sodipodi:nodetypes="ccccccccccc" />
    <path
       d="m 249.183,147.695 -55.152,33.453 -50.458,135.636 64.372,312.459 35.756,-33.107 80.782,-113.889 43.702,-129.781 29.159,-169.909 -29.622,-23.509 -30.617,-8.143 -33.309,56.859 z"
       id="path48"
       inkscape:connector-curvature="0"
       style="fill:#803c3a" />
    <path
       d="m 379.874,393.121 -24.381,-1.771 -4.085,10.439 27.06,2.229 z"
       id="path50"
       inkscape:connector-curvature="0"
       style="fill:#48623d" />
  </g>
  <g
     id="ears"
     transform="matrix(0.99522155,0,0,0.99522155,-105.72239,-25.693936)">
    <path
       d="m 257.586,81.2332 -1.787,-4.0801 -5.387,6.558 3.044,14.2871 3.982,6.7918 2.958,-4.585 z"
       id="path53"
       inkscape:connector-curvature="0"
       style="fill:#c89347" />
    <path
       d="m 327.653,79.9158 1.868,-4.161 5.387,6.558 -3.045,14.2871 -3.982,6.7921 -3.039,-4.5048 z"
       id="path55"
       inkscape:connector-curvature="0"
       style="fill:#ecbb73" />
  </g>
  <g
     id="Layer 1"
     transform="matrix(0.99522155,0,0,0.99522155,-105.72239,-25.693936)">
    <path
       d="m 258.155,89.6159 c 0,-29.3123 6.693,-54.1918 33.428,-54.1443 26.736,0.0475 35.33,24.0737 35.33,53.386 0,14.2164 -8.199,38.7824 -8.199,38.7824 0,0 -14.549,18.747 -26.22,18.747 -10.992,0 -25.143,-16.456 -25.143,-16.456 0,0 -9.196,-25.219 -9.196,-40.3151 z"
       id="path58"
       inkscape:connector-curvature="0"
       style="fill:#ecbb73" />
    <path
       d="m 283.596,107.624 9.787,3.691 9.273,-4.744 -6.199,9.997 -5.62,2.023 z"
       id="path60"
       inkscape:connector-curvature="0"
       style="fill:#ad7f3e;fill-opacity:1;stroke:none;stroke-opacity:1" />
    <path
       d="m 282.753,107.835 3.791,-6.003 -3.791,-0.21 -9.094,9.449 z"
       id="path62"
       inkscape:connector-curvature="0"
       style="fill:#b48136;fill-opacity:1" />
    <path
       d="m 302.551,106.887 1.474,-4.423 8.04,9.25 z"
       id="path64"
       inkscape:connector-curvature="0"
       style="fill:#c89347" />
    <path
       d="m 264.177,74.9248 19.017,6.1264 6.295,4.7215 -0.624,19.3273 -5.611,-3.616 2.937,-9.129 -2.08365,-3.851877 -3.84354,0.361327 -13.60611,-0.465677 -5.2677,5.015825 8.252,19.584402 0.321,14.463 11.171,15.383 -14.17,-12.46 -4.65,-15.699 -3.627,-16.683902 -1.291,-10.914 3.165,-24.6322 8.603,-17.3318 -0.808,21.9158 z"
       id="path66"
       inkscape:connector-curvature="0"
       style="fill:#b18343;fill-opacity:1"
       sodipodi:nodetypes="ccccccccccccccccccccc" />
    <path
       d="m 296.416,85.4466 6.11,-5.5193 13.685,0.9242 4.762,6.792 -14.37697,1.326047 -6.21205,-0.503075 -1.55098,1.877228 -0.87,5.0996 z"
       id="path68"
       inkscape:connector-curvature="0"
       style="fill:#b88a47;fill-opacity:1"
       sodipodi:nodetypes="ccccccccc" />
    <path
       d="m 293.238,77.3647 -0.125,5.3404 -0.862,-5.4637 -16.581,-4.9929 -1.663,-0.9887 1.264,-0.5043 9.318,3.7179 7.834,1.0907 8.206,-0.953 7.38,-3.5282 2.656,0.144 -2.325,1.2065 z"
       id="path70"
       inkscape:connector-curvature="0"
       style="fill:#c89347" />
    <path
       d="m 287.504,80.5549 -5.519,2.795 -3.236,-2.1951 -3.545,0.6561 -5.452,0.2646 -5.112,-0.445 -0.859,-1.6708 1.679,-2.0387 1.45,-1.0123 2.719,-0.2171 2.444,-0.6434 3.677,0.3129 3.211,-1.6517 3.899,1.6967 3.372,1.5196 z"
       id="path72"
       inkscape:connector-curvature="0"
       style="fill:#2f1f18" />
    <path
       d="m 297.744,80.2963 3.329,2.2573 5.422,-1.6037 3.541,0.6777 5.45,0.298 5.114,-0.4136 1.762,-2.0745 -2.559,-1.64 -1.178,-2.2071 -2.983,0.9522 -2.733,-0.8423 -2.98,1.2777 -3.606,-2.4747 -3.91,1.6728 -3.023,1.5027 z"
       id="path74"
       inkscape:connector-curvature="0"
       style="fill:#2f1f18" />
    <path
       d="m 288.414,129.323 9.183,0.255 1.02,3.826 -5.484,-1.148 -5.867,1.148 z"
       id="path76"
       inkscape:connector-curvature="0"
       style="fill:#c89347" />
    <path
       d="m 328.582,85.2697 2.001,-4.2894 2.383,3.4315 -2.711,11.3319 -1.371,1.1428 2.286,-10.8187 -0.679,-2.317 -1.15,1.9361 0.533,3.0475 -0.99,3.7332 -1.752,-3.1237 z"
       id="path78"
       inkscape:connector-curvature="0"
       style="fill:#c89347" />
    <path
       style="fill:#8a6634;fill-opacity:1;stroke:none;stroke-width:0.84055281px;stroke-linecap:butt;stroke-linejoin:miter;stroke-opacity:1"
       d="m 265.84333,84.805384 5.03608,-2.708479 4.65519,-0.338559 3.0406,-0.817793 3.33468,2.354519 2.21568,3.964871 -18.28223,0.16928 z"
       id="path4584"
       inkscape:connector-curvature="0"
       sodipodi:nodetypes="cccccccc" />
    <path
       sodipodi:nodetypes="cccccccc"
       inkscape:connector-curvature="0"
       id="path4595"
       d="m 317.72762,84.720744 -4.10504,-2.920079 -3.38559,-0.126959 -3.42148,-0.944753 -5.15444,2.481479 -2.21568,3.964871 18.28223,0.16928 z"
       style="fill:#8a6634;fill-opacity:1;stroke:none;stroke-width:0.84055281px;stroke-linecap:butt;stroke-linejoin:miter;stroke-opacity:1" />
  </g>
  <g
     id="Layer 2"
     transform="matrix(0.95175461,0,0,0.95175461,-102.2159,-30.652246)">
    <path
       d="m 290.5862,135.21576 24.2721,0.19135 -4.39599,4.58631 -6.31376,1.26108 -10.31345,-2.02547 z"
       id="path81"
       inkscape:connector-curvature="0"
       style="fill:#da9749;fill-opacity:1;stroke-width:1.04567027" />
  </g>
  <g
     id="l eye"
     transform="matrix(0.99522155,0,0,0.99522155,-105.72239,-25.693936)">
    <path
       d="m 268.134,89.1036 2.832,-4.0082 7.69814,-1.150755 3.71386,3.542055 -4.94839,3.381761 -4.54603,0.322082 z"
       id="path84"
       inkscape:connector-curvature="0"
       style="fill:#ffffff"
       sodipodi:nodetypes="ccccccc" />
    <path
       style="fill:#cbe2ec;fill-opacity:1;stroke:none;stroke-width:0.84055281px;stroke-linecap:butt;stroke-linejoin:miter;stroke-opacity:1"
       d="m 268.66177,88.218509 2.15458,-2.244355 9.57592,-0.359097 1.82541,1.735635 -2.34559,0.150159 z"
       id="path4597"
       inkscape:connector-curvature="0"
       sodipodi:nodetypes="cccccc" />
    <path
       d="m 271.183,87.4484 c 0,-2.2493 1.824,-4.0728 4.073,-4.0728 2.25,0 4.073,1.8235 4.073,4.0728 0,2.2494 -1.823,4.0729 -4.073,4.0729 -2.249,0 -4.073,-1.8235 -4.073,-4.0729 z"
       id="path86"
       inkscape:connector-curvature="0"
       style="fill:#607f84" />
    <path
       d="m 272.91556,87.448406 c 0,-1.29244 1.04835,-2.340178 2.34044,-2.340178 1.29296,0 2.34044,1.047738 2.34044,2.340178 0,1.292528 -1.04748,2.340266 -2.34044,2.340266 -1.29209,0 -2.34044,-1.047738 -2.34044,-2.340266 z"
       id="path88"
       inkscape:connector-curvature="0"
       style="fill:#000000;stroke-width:0.87362456" />
    <path
       d="m 268.091,88.9517 4.34989,1.77378 5.15075,0.01872 4.56236,-3.216 -6.08726,5.423905 L 269.262,90.237 Z"
       id="path90"
       inkscape:connector-curvature="0"
       style="fill:#ecbb73"
       sodipodi:nodetypes="ccccccc" />
    <path
       d="m 280.6566,85.704396 -9.97554,0.4125 -3.3681,3.3999 4.15092,-5.9126 3.81099,-0.388059 3.39995,0.333259 z"
       id="path92"
       inkscape:connector-curvature="0"
       style="fill:#ecbb73;stroke-width:1.07215703"
       sodipodi:nodetypes="ccccccc" />
    <path
       style="fill:#eaeaea;fill-opacity:0.72402595;stroke:none;stroke-width:0.84055281px;stroke-linecap:butt;stroke-linejoin:miter;stroke-opacity:1"
       d="m 276.08476,86.752103 2.20065,0.25392 0.63479,0.97336 -2.62383,0.25392 z"
       id="path4565"
       inkscape:connector-curvature="0"
       sodipodi:nodetypes="ccccc" />
  </g>
  <g
     id="r eye"
     transform="matrix(1.000276,0,0,1.000276,-100.72997,15.125874)">
    <path
       d="m 309.5316,47.389516 -3.10027,-4.001876 -7.01939,-0.654634 -4.05237,3.047781 5.03995,3.44694 5.90697,-0.187315 z"
       id="path95"
       inkscape:connector-curvature="0"
       style="fill:#ffffff;stroke-width:0.9949469"
       sodipodi:nodetypes="ccccccc" />
    <path
       sodipodi:nodetypes="ccccc"
       inkscape:connector-curvature="0"
       id="path4614"
       d="m 308.98317,46.85998 -2.14369,-2.233014 -9.52753,-0.357283 -1.81619,1.726865 z"
       style="fill:#cbe2ec;fill-opacity:1;stroke:none;stroke-width:0.83630544px;stroke-linecap:butt;stroke-linejoin:miter;stroke-opacity:1" />
    <path
       d="m 306.49798,45.742781 c 0,-2.238036 -1.81477,-4.05232 -4.0524,-4.05232 -2.23864,0 -4.05243,1.814284 -4.05243,4.05232 0,2.237932 1.81379,4.052218 4.05243,4.052218 2.23763,0 4.0524,-1.814286 4.0524,-4.052218 z"
       id="path97"
       inkscape:connector-curvature="0"
       style="fill:#607f84;stroke-width:0.9949469" />
    <path
       d="m 304.68999,45.742773 c 0,-1.23949 -1.00534,-2.244235 -2.24441,-2.244235 -1.23991,0 -2.2444,1.004745 -2.2444,2.244235 0,1.239404 1.00449,2.244149 2.2444,2.244149 1.23907,0 2.24441,-1.004745 2.24441,-2.244149 z"
       id="path99"
       inkscape:connector-curvature="0"
       style="fill:#000000;stroke-width:0.83777595" />
    <path
       d="m 309.57437,47.238483 -4.08224,1.757292 -5.42993,0.145143 -4.47976,-3.31884 7.18789,5.396496 5.63896,-2.701385 z"
       id="path101"
       inkscape:connector-curvature="0"
       style="fill:#ecbb73;stroke-width:0.9949469"
       sodipodi:nodetypes="ccccccc" />
    <path
       d="m 297.24181,44.240256 9.15812,0.250527 3.41262,3.488482 -3.74204,-6.045894 -3.58948,-0.435207 -3.26701,0.75737 z"
       id="path103"
       inkscape:connector-curvature="0"
       style="fill:#ecbb73;stroke-width:1.03493929"
       sodipodi:nodetypes="ccccccc" />
  </g>
  <g
     id="hair"
     transform="matrix(0.99522155,0,0,0.99522155,-105.72239,-25.693936)">
    <path
       d="m 273.485,36.581 -9.146,6.9333 -5.754,7.9659 -1.77,9.7361 1.18,24.4878 2.066,2.3603 0.737,-24.6353 5.311,-10.3262 9.736,-6.6383 19.819,0.9055 12.809,-1.0855 8.054,6.2858 6.908,8.6407 1.538,28.6816 2.161,-4.1251 1.179,-22.7862 L 325.17,47.856 310.184,33.567 285.331,31.6305 Z"
       id="path106"
       inkscape:connector-curvature="0"
       style="fill:#2f1f18" />
    <path
       d="m 279.65,124.417 27.311,0.165 -5.61,-1.98 -6.601,-1.651 -1.815,1.156 -2.063,-0.991 -7.261,1.651 z"
       id="path108"
       inkscape:connector-curvature="0"
       style="fill:#b48143;fill-opacity:1" />
    <path
       d="m 263.833,57.7741 -6.895,2.925 0.836,24.6542 3.538,4.725 -0.718,-27.0809 z"
       id="path110"
       inkscape:connector-curvature="0"
       style="fill:#424242" />
    <path
       d="m 320.871,56.9662 6.44,-0.339 1.694,6.6093 -2.033,22.2004 -1.864,4.9145 -1.356,-24.9118 z"
       id="path112"
       inkscape:connector-curvature="0"
       style="fill:#87867c" />
    <path
       d="m 309.918,159.71 3.882,-3.614 -0.804,-7.362 z"
       id="path114"
       inkscape:connector-curvature="0"
       style="fill:#c89347" />
  </g>
  <path
     sodipodi:nodetypes="ccccc"
     inkscape:connector-curvature="0"
     id="path4567"
     d="m 202.67413,60.243505 2.19013,0.252707 0.63176,0.968709 -2.61129,0.252707 z"
     style="fill:#eaeaea;fill-opacity:0.72402595;stroke:none;stroke-width:0.83653623px;stroke-linecap:butt;stroke-linejoin:miter;stroke-opacity:1" />
</svg>
