<?xml version="1.0" encoding="UTF-8"?>
<!DOCTYPE svg PUBLIC "-//W3C//DTD SVG 1.1//EN"
  "http://www.w3.org/Graphics/SVG/1.1/DTD/svg11.dtd">
<svg xmlns:xlink="http://www.w3.org/1999/xlink" width="512pt" viewBox="0,0,512,512" xmlns="http://www.w3.org/2000/svg" version="1.1" height="512pt">
<defs/>
<g id="far wall">
<path fill="#354b5d" d="M18.7232 234.132 L473.989 234.181 L475.148 310.074 L18.5267 310.17 L18.7232 234.132 Z" opacity="1"/>
<path fill="#564835" d="M292.359 246.663 " opacity="1"/>
<path fill="#f4f1e1" d="M20.2317 310.595 L473.792 311.615 L479.006 321.464 L20.1859 320.352 L20.2317 310.595 Z" opacity="1"/>
<path fill="#979ca4" d="M22.8828 118.565 L469.157 120.434 L469.737 233.984 L20.8896 234.17 L22.8828 118.565 Z" opacity="1"/>
<path fill="#4380b2" d="M67.6766 275.631 L473.213 275.631 L473.792 310.391 L75.5777 310.578 L67.6766 275.631 Z" opacity="1"/>
<path fill="#8ea782" d="M146.69 317.32 L484.768 317.32 L484.768 422.97 L146.69 422.97 L146.69 317.32 Z" opacity="1"/>
</g>
<g id="Layer 2">
<path fill="#3c3730" d="M52.5105 118.528 L119.294 177.18 L168.292 112.295 L52.5105 118.528 Z" opacity="1"/>
<path fill="#564d3f" d="M114.93 190.583 L115.379 177.719 L230.517 22.4974 L230.682 43.2344 L114.93 190.583 Z" opacity="1"/>
<path fill="#7c694d" d="M117.408 182.111 L17.8877 92.6432 L17.1939 84.1815 L117.922 175.326 L117.408 182.111 Z" opacity="1"/>
<path fill="#7c694d" d="M139.138 155.037 L67.7432 91.0445 L79.8296 91.0445 L138.964 144.239 L139.138 155.037 Z" opacity="1"/>
<path fill="#9c8460" d="M115.229 189.985 L132.414 190.295 L270.813 44.1071 L230.233 43.854 L115.229 189.985 Z" opacity="1"/>
<path fill="#cac0b2" d="M116.136 182.842 L43.7242 116.848 L46.2834 118.188 L117.412 182.091 L116.136 182.842 Z" opacity="1"/>
</g>
<g id="Layer 1">
<g opacity="1">
<path fill="#aaaaaa" d="M301.546 278.818 L364.825 278.844 L364.825 282.31 L301.546 282.284 L301.546 278.818 Z" opacity="1"/>
<path fill="#aaaaaa" d="M301.546 310.337 L364.825 310.363 L364.825 313.83 L301.546 313.803 L301.546 310.337 Z" opacity="1"/>
<path fill="#aaaaaa" d="M301.226 281.354 L365.708 307.832 L364.389 311.038 L299.907 284.56 L301.226 281.354 Z" opacity="1"/>
<path fill="#aaaaaa" d="M300.863 308.856 L364.337 281.265 L365.725 284.441 L302.25 312.033 L300.863 308.856 Z" opacity="1"/>
<path fill="#aaaaaa" d="M301.809 281.953 L305.134 281.953 L305.134 310.82 L301.809 310.82 L301.809 281.953 Z" opacity="1"/>
<path fill="#aaaaaa" d="M361.659 282.255 L364.984 282.255 L364.984 311.123 L361.659 311.123 L361.659 282.255 Z" opacity="1"/>
</g>
<path fill="#9c8460" d="M128.951 188.447 L148.262 188.498 L471.789 188.621 L473.826 190.185 L120.164 190.179 L128.951 188.447 Z" opacity="1"/>
<path fill="#92b1dd" d="M472.633 121.013 L199.499 119.972 C199.499 119.972 166.111 154.627 166.486 155.003C166.861 155.378 470.895 154.615 470.895 154.615L472.633 121.013 Z" opacity="1"/>
<path fill="#f4f1e1" d="M18.8187 311.16 L122.929 311.326 L291.204 423.223 L2.29834 414.438 L18.8187 311.16 Z" opacity="1"/>
<path fill="#e48848" d="M201.031 117.465 L472.839 120.898 L473.792 178.367 L143.964 177.783 L201.031 117.465 Z" opacity="1"/>
<path fill="#e48848" d="M279.051 276.256 " opacity="1"/>
<path fill="#abb1ba" d="M19.763 310.644 L76.5723 310.3 L153.998 421.11 L-0.823977 416.677 L-0.45111 336.443 L19.763 310.644 Z" opacity="1"/>
<path fill="#fffef7" d="M144.405 177.013 L475.141 177.879 L475.141 188.097 L134.313 188.607 L144.405 177.013 Z" opacity="1"/>
<g opacity="1">
<path fill="#f4f1e1" d="M449.002 189.044 L462.511 189.044 L464.012 320.757 L447.125 320.757 L449.002 189.044 Z" opacity="1"/>
<path fill="#af0b06" d="M448.057 268.703 L463.273 268.995 L464.012 320.757 L447.125 320.757 L448.057 268.703 Z" opacity="1"/>
<path fill="#abb1ba" d="M448.298 189.099 L462.486 189.134 L462.541 193.74 L448.465 225.566 L448.298 189.099 Z" opacity="1"/>
<path fill="#abb1ba" d="M462.6 189.178 C462.6 188.715 459.118 188.23 455.546 188.223C451.974 188.216 448.311 188.638 448.311 189.15C448.311 189.661 451.55 190.076 455.546 190.076C459.542 190.076 462.6 189.642 462.6 189.178Z" opacity="1"/>
<path fill="#af0b06" d="M447.076 320.852 C447.076 320.16 450.876 319.599 455.562 319.599C460.249 319.599 464.048 320.16 464.048 320.852C464.048 321.544 460.249 322.105 455.562 322.105C450.876 322.105 447.076 321.544 447.076 320.852Z" opacity="1"/>
</g>
<g opacity="1">
<path fill="#f4f1e1" d="M287.025 189.044 L300.534 189.044 L302.035 320.757 L285.149 320.757 L287.025 189.044 Z" opacity="1"/>
<path fill="#af0b06" d="M286.08 268.703 L301.297 268.995 L302.035 320.757 L285.149 320.757 L286.08 268.703 Z" opacity="1"/>
<path fill="#abb1ba" d="M286.322 189.099 L300.509 189.134 L300.565 193.74 L286.489 225.566 L286.322 189.099 Z" opacity="1"/>
<path fill="#abb1ba" d="M300.623 189.178 C300.623 188.715 297.142 188.23 293.57 188.223C289.997 188.216 286.334 188.638 286.334 189.15C286.334 189.661 289.574 190.076 293.57 190.076C297.565 190.076 300.623 189.642 300.623 189.178Z" opacity="1"/>
<path fill="#af0b06" d="M285.1 320.852 C285.1 320.16 288.899 319.599 293.586 319.599C298.273 319.599 302.072 320.16 302.072 320.852C302.072 321.544 298.273 322.105 293.586 322.105C288.899 322.105 285.1 321.544 285.1 320.852Z" opacity="1"/>
</g>
<g opacity="1">
<path fill="#f4f1e1" d="M366.122 189.044 L379.631 189.044 L381.132 320.757 L364.246 320.757 L366.122 189.044 Z" opacity="1"/>
<path fill="#af0b06" d="M365.177 268.703 L380.394 268.995 L381.132 320.757 L364.246 320.757 L365.177 268.703 Z" opacity="1"/>
<path fill="#abb1ba" d="M365.419 189.099 L379.607 189.134 L379.662 193.74 L365.586 225.566 L365.419 189.099 Z" opacity="1"/>
<path fill="#abb1ba" d="M379.72 189.178 C379.72 188.715 376.239 188.23 372.667 188.223C369.094 188.216 365.431 188.638 365.431 189.15C365.431 189.661 368.671 190.076 372.667 190.076C376.663 190.076 379.72 189.642 379.72 189.178Z" opacity="1"/>
<path fill="#af0b06" d="M364.197 320.852 C364.197 320.16 367.996 319.599 372.683 319.599C377.37 319.599 381.169 320.16 381.169 320.852C381.169 321.544 377.37 322.105 372.683 322.105C367.996 322.105 364.197 321.544 364.197 320.852Z" opacity="1"/>
</g>
<g opacity="1">
<path fill="#aaaaaa" d="M222.429 278.46 L285.708 278.486 L285.708 281.952 L222.429 281.926 L222.429 278.46 Z" opacity="1"/>
<path fill="#aaaaaa" d="M222.429 309.979 L285.708 310.005 L285.708 313.472 L222.429 313.445 L222.429 309.979 Z" opacity="1"/>
<path fill="#aaaaaa" d="M222.109 280.996 L286.591 307.474 L285.272 310.68 L220.79 284.202 L222.109 280.996 Z" opacity="1"/>
<path fill="#aaaaaa" d="M221.746 308.498 L285.221 280.907 L286.608 284.083 L223.134 311.675 L221.746 308.498 Z" opacity="1"/>
<path fill="#aaaaaa" d="M222.692 281.595 L226.017 281.595 L226.017 310.462 L222.692 310.462 L222.692 281.595 Z" opacity="1"/>
<path fill="#aaaaaa" d="M282.543 281.897 L285.868 281.897 L285.868 310.765 L282.543 310.765 L282.543 281.897 Z" opacity="1"/>
</g>
<g opacity="1">
<path fill="#aaaaaa" d="M132.024 278.46 L195.303 278.486 L195.303 281.952 L132.024 281.926 L132.024 278.46 Z" opacity="1"/>
<path fill="#aaaaaa" d="M132.024 309.979 L195.303 310.005 L195.303 313.472 L132.024 313.445 L132.024 309.979 Z" opacity="1"/>
<path fill="#aaaaaa" d="M131.704 280.996 L196.186 307.474 L194.866 310.68 L130.385 284.202 L131.704 280.996 Z" opacity="1"/>
<path fill="#aaaaaa" d="M131.34 308.498 L194.815 280.907 L196.203 284.083 L132.728 311.675 L131.34 308.498 Z" opacity="1"/>
<path fill="#aaaaaa" d="M132.286 281.595 L135.611 281.595 L135.611 310.462 L132.286 310.462 L132.286 281.595 Z" opacity="1"/>
<path fill="#aaaaaa" d="M192.137 281.897 L195.462 281.897 L195.462 310.764 L192.137 310.764 L192.137 281.897 Z" opacity="1"/>
</g>
<path fill="#7c694d" d="M127.08 168.945 L55.6855 104.952 L63.6825 104.233 L127.594 162.16 L127.08 168.945 Z" opacity="1"/>
<path fill="#7c694d" d="M169.352 117.268 L97.9578 53.2762 L110.044 53.2762 L169.178 106.471 L169.352 117.268 Z" opacity="1"/>
<path fill="#7c694d" d="M152.734 139.174 L81.3398 75.1818 L93.4261 75.1818 L152.56 128.376 L152.734 139.174 Z" opacity="1"/>
<path fill="#445f76" d="M21.9765 234.723 L-0.663011 205.703 L0.142161 335.553 L22.9831 309.746 L21.9765 234.723 Z" opacity="1"/>
<path fill="#354b5d" d="M-58.6493 382.09 " opacity="1"/>
<path fill="#abb1ba" d="M21.9765 234.607 L23.5853 119.057 L0.082263 17.9226 L0.186177 208.25 L21.9765 234.607 Z" opacity="1"/>
<path fill="#abb1ba" d="M-64.782 344.232 " opacity="1"/>
</g>
<g id="gardens">
<path fill="#aaaaaa" d="M340.474 347.816 C340.474 339.146 385.466 332.118 440.965 332.118C496.465 332.118 541.457 339.146 541.457 347.816C541.457 356.487 496.465 363.515 440.965 363.515C385.466 363.515 340.474 356.487 340.474 347.816Z" opacity="1"/>
<path fill="#aaaaaa" d="M163.333 338.567 L487.479 338.231 L487.479 357.06 L189.824 356.629 L163.333 338.567 Z" opacity="1"/>
<path fill="#73b587" d="M198.697 248.016 L201.948 172.308 L219.598 147.227 L241.428 224.793 L244.215 283.78 L222.849 325.582 L205.664 323.26 L194.517 290.283 L198.697 248.016 Z" opacity="1"/>
<path fill="#5c7c4d" d="M157.824 287.96 L184.298 265.201 L212.631 283.316 L215.882 320.473 L187.085 337.194 L160.611 321.402 L155.966 306.075 L157.824 287.96 Z" opacity="1"/>
<path fill="#73b587" d="M425.218 255.548 L428.469 179.839 L446.119 154.758 L467.949 232.324 L470.736 291.312 L449.37 333.114 L432.185 330.791 L421.038 297.814 L425.218 255.548 Z" opacity="1"/>
<path fill="#5c7c4d" d="M372.58 275.51 L399.055 252.751 L427.388 270.866 L430.639 308.023 L401.842 324.744 L375.367 308.952 L370.723 293.625 L372.58 275.51 Z" opacity="1"/>
<path fill="#5c7c4d" d="M281.38 322.04 L241.587 361.154 L266.639 408.703 L325.38 418.86 L355.868 375.238 L334.265 330.959 L310.477 321.508 L281.38 322.04 Z" opacity="1"/>
</g>
<g id="fountain">
<path fill="#abb1ba" d="M432.578 321.241 C432.578 319.338 436.201 317.796 440.671 317.796C445.141 317.796 448.764 319.338 448.764 321.241C448.764 323.143 445.141 324.686 440.671 324.686C436.201 324.686 432.578 323.143 432.578 321.241Z" opacity="1"/>
<path fill="#abb1ba" d="M436.214 318.25 C436.214 318.25 437.375 322.557 436.219 328.643C435.063 334.729 432.1 334.4 432.018 339.04C431.936 343.681 433.496 345.902 436.214 346.75L436.214 346.906 L436.682 346.906 C437.935 347.244 439.274 347.469 440.776 347.469C442.278 347.469 443.649 347.244 444.901 346.906L445.557 346.906 L445.557 346.688 C448.168 345.826 450.424 344.712 450.424 339.04C450.424 333.368 446.672 334.667 445.563 328.581C444.454 322.495 445.557 318.25 445.557 318.25L436.214 318.25 Z" opacity="1"/>
<path fill="#fffef7" d="M393.442 284.061 C393.442 280.956 414.523 278.439 440.527 278.439C466.531 278.439 487.612 280.956 487.612 284.061C487.612 287.166 479.204 320.047 441.141 319.789C403.079 319.532 393.442 287.166 393.442 284.061Z" opacity="1"/>
<path fill="#cad1db" d="M393.592 283.281 C393.592 283.281 396.087 308.232 423.355 317.143C450.622 326.054 470.227 311.44 470.227 311.44C470.227 311.44 451.692 322.668 435.295 310.905C418.899 299.142 417.775 291.378 417.775 291.378C417.775 291.378 411.579 291.092 401.226 288.956C392.101 287.072 393.592 283.281 393.592 283.281Z" opacity="1"/>
<path fill="#95c5cd" d="M397.122 284.575 C397.122 281.696 416.67 279.362 440.784 279.362C464.898 279.362 484.447 281.696 484.447 284.575C484.447 287.455 464.898 289.789 440.784 289.789C416.67 289.789 397.122 287.455 397.122 284.575Z" opacity="1"/>
</g>
<g id="pillars">
<path fill="#f4f1e1" d="M138.529 161.66 L156.558 161.66 L158.562 337.448 L136.025 337.448 L138.529 161.66 Z" opacity="1"/>
<path fill="#af0b06" d="M137.268 267.974 L157.576 268.365 L158.562 337.448 L136.025 337.448 L137.268 267.974 Z" opacity="1"/>
<path fill="#f4f1e1" d="M169.904 122.307 L194.839 122.307 L197.609 365.421 L166.441 365.421 L169.904 122.307 Z" opacity="1"/>
<path fill="#af0b06" d="M167.738 267.917 L196.667 268.133 L197.78 365.079 L166.612 365.079 L167.738 267.917 Z" opacity="1"/>
<g opacity="1">
<path fill="#f4f1e1" d="M253.731 59.9489 L218.267 59.9489 L214.326 405.727 L258.657 405.727 L253.731 59.9489 Z" opacity="1"/>
<path fill="#af0b06" d="M256.212 269.07 L216.265 269.838 L214.326 405.727 L258.657 405.727 L256.212 269.07 Z" opacity="1"/>
</g>
<path fill="#abb1ba" d="M217.853 60.0562 C217.853 58.7915 225.859 57.7663 235.736 57.7663C245.612 57.7663 253.619 58.7915 253.619 60.0562C253.619 61.3209 245.612 62.3461 235.736 62.3461C225.859 62.3461 217.853 61.3209 217.853 60.0562Z" opacity="1"/>
<path fill="#abb1ba" d="M194.972 122.289 C194.972 121.403 189.365 120.685 182.449 120.685C175.533 120.685 169.926 121.403 169.926 122.289C169.926 123.174 175.533 123.892 182.449 123.892C189.365 123.892 194.972 123.174 194.972 122.289Z" opacity="1"/>
<path fill="#abb1ba" d="M156.546 161.801 C156.546 161.313 154.183 160.896 150.843 160.727C149.817 160.675 148.699 160.647 147.528 160.647C142.548 160.647 138.511 161.164 138.511 161.801C138.511 162.439 142.548 162.956 147.528 162.956C152.508 162.956 156.546 162.439 156.546 161.801Z" opacity="1"/>
<path fill="#abb1ba" d="M138.355 161.662 L156.905 161.707 L156.978 167.729 L137.795 209.821 L138.355 161.662 Z" opacity="1"/>
<path fill="#abb1ba" d="M169.849 122.385 L194.827 122.943 L194.923 130.894 L169.137 187.136 L169.849 122.385 Z" opacity="1"/>
<path fill="#abb1ba" d="M217.217 60.628 L255.008 60.7203 L255.156 72.9885 L217.663 157.76 L217.217 60.628 Z" opacity="1"/>
<path fill="#f4f1e1" d="M117.318 188.823 L130.827 188.823 L132.328 320.536 L115.442 320.536 L117.318 188.823 Z" opacity="1"/>
<path fill="#af0b06" d="M116.373 268.481 L131.59 268.773 L132.328 320.536 L115.442 320.536 L116.373 268.481 Z" opacity="1"/>
<path fill="#abb1ba" d="M116.615 188.877 L130.802 188.912 L130.858 193.518 L116.782 225.344 L116.615 188.877 Z" opacity="1"/>
<path fill="#abb1ba" d="M130.916 188.957 C130.916 188.493 127.435 188.009 123.862 188.002C120.29 187.994 116.627 188.416 116.627 188.928C116.627 189.44 119.867 189.854 123.862 189.854C127.858 189.854 130.916 189.42 130.916 188.957Z" opacity="1"/>
<path fill="#af0b06" d="M115.393 320.631 C115.393 319.939 119.192 319.378 123.879 319.378C128.566 319.378 132.365 319.939 132.365 320.631C132.365 321.323 128.566 321.884 123.879 321.884C119.192 321.884 115.393 321.323 115.393 320.631Z" opacity="1"/>
<path fill="#af0b06" d="M136.102 337.412 C136.102 336.499 141.116 335.758 147.3 335.758C153.485 335.758 158.499 336.499 158.499 337.412C158.499 338.325 153.485 339.065 147.3 339.065C141.116 339.065 136.102 338.325 136.102 337.412Z" opacity="1"/>
<path fill="#af0b06" d="M166.636 365.348 C166.636 364.082 173.586 363.056 182.16 363.056C190.734 363.056 197.684 364.082 197.684 365.348C197.684 366.614 190.734 367.641 182.16 367.641C173.586 367.641 166.636 366.614 166.636 365.348Z" opacity="1"/>
<path fill="#af0b06" d="M214.295 405.773 C214.295 403.96 224.249 402.49 236.527 402.49C248.806 402.49 258.759 403.96 258.759 405.773C258.759 407.586 248.806 409.055 236.527 409.055C224.249 409.055 214.295 407.586 214.295 405.773Z" opacity="1"/>
<path fill="#702a28" d="M215.972 269.959 L229.131 269.481 L229.641 408.95 C229.641 408.95 225.636 408.815 220.533 408.117C215.43 407.419 214.514 406.049 214.514 406.049L215.972 269.959 Z" opacity="1"/>
<path fill="#702a28" d="M167.838 268.289 L177.256 267.946 L177.621 367.764 C177.621 367.764 174.755 367.667 171.103 367.167C167.451 366.668 166.795 365.687 166.795 365.687L167.838 268.289 Z" opacity="1"/>
<path fill="#702a28" d="M136.775 267.914 L143.51 267.67 L143.771 339.049 C143.771 339.049 141.721 338.98 139.109 338.623C136.498 338.265 136.029 337.564 136.029 337.564L136.775 267.914 Z" opacity="1"/>
<path fill="#702a28" d="M116.176 268.466 L121.246 268.282 L121.442 322.018 C121.442 322.018 119.899 321.966 117.933 321.697C115.967 321.428 115.614 320.9 115.614 320.9L116.176 268.466 Z" opacity="1"/>
<path fill="#abb1ba" d="M217.427 132.498 L229.012 127.892 L228.802 269.78 L216.182 270.422 L217.427 132.498 Z" opacity="1"/>
<path fill="#abb1ba" d="M169.063 171 L177.223 167.756 L177.075 267.696 L168.186 268.148 L169.063 171 Z" opacity="1"/>
<path fill="#abb1ba" d="M137.635 198.267 L143.494 195.937 L143.387 267.689 L137.005 268.014 L137.635 198.267 Z" opacity="1"/>
<path fill="#abb1ba" d="M116.736 215.188 L121.23 213.401 L121.149 268.445 L116.253 268.694 L116.736 215.188 Z" opacity="1"/>
<path fill="#303030" d="M23.0005 310.997 L23.1906 302.533 L73.5763 302.688 L75.5918 310.44 L23.0005 310.997 Z" opacity="1"/>
<path fill="#303030" d="M23.5085 302.22 L-0.110922 324.062 L-0.618866 336.506 L23.2545 310.347 L23.5085 302.22 Z" opacity="1"/>
<path fill="#4b4b4b" d="M75.519 310.372 L73.7803 302.735 L115.632 302.735 L115.632 310.931 L75.519 310.372 Z" opacity="1"/>
</g>
<g id="Layer 3" visibility="hidden">
<path stroke-linejoin="round" stroke-width="4" stroke="#ecde29" d="M512.322 572.237 L98.9408 285.846 " fill="#cac0b2" stroke-linecap="round" opacity="1"/>
<path stroke-linejoin="round" stroke-width="4" stroke="#ecde29" d="M98.1055 285.846 L462.833 -113.141 " fill="#cac0b2" stroke-linecap="round" opacity="1"/>
<path stroke-linejoin="round" stroke-width="4" stroke="#ecde29" d="M99.0254 284.005 L436.454 -217.656 " fill="#7c694d" stroke-linecap="round" opacity="1"/>
<path fill="#cac0b2" d="M246.215 64.025 L106.666 -63.1557 L111.598 -60.573 L248.674 62.5775 L246.215 64.025 Z" opacity="1"/>
</g>
</svg>
