<?xml version="1.0" encoding="UTF-8" standalone="no"?>
<!-- Created with Inkscape (http://www.inkscape.org/) -->

<svg
   xmlns:dc="http://purl.org/dc/elements/1.1/"
   xmlns:cc="http://creativecommons.org/ns#"
   xmlns:rdf="http://www.w3.org/1999/02/22-rdf-syntax-ns#"
   xmlns:svg="http://www.w3.org/2000/svg"
   xmlns="http://www.w3.org/2000/svg"
   xmlns:sodipodi="http://sodipodi.sourceforge.net/DTD/sodipodi-0.dtd"
   xmlns:inkscape="http://www.inkscape.org/namespaces/inkscape"
   width="356.66733"
   height="510.74493"
   id="svg2"
   version="1.1"
   inkscape:version="0.48.5 r10040"
   sodipodi:docname="people_big-small_simon+georgios.svg">
  <defs
     id="defs4" />
  <sodipodi:namedview
     id="base"
     pagecolor="#ffffff"
     bordercolor="#666666"
     borderopacity="1.0"
     inkscape:pageopacity="0.0"
     inkscape:pageshadow="2"
     inkscape:zoom="0.98994949"
     inkscape:cx="302.05555"
     inkscape:cy="263.82806"
     inkscape:document-units="px"
     inkscape:current-layer="layer1"
     showgrid="false"
     inkscape:window-width="1360"
     inkscape:window-height="744"
     inkscape:window-x="0"
     inkscape:window-y="24"
     inkscape:window-maximized="1"
     fit-margin-top="1.1"
     fit-margin-left="1"
     fit-margin-right="1"
     fit-margin-bottom="1.1" />
  <metadata
     id="metadata7">
    <rdf:RDF>
      <cc:Work
         rdf:about="">
        <dc:format>image/svg+xml</dc:format>
        <dc:type
           rdf:resource="http://purl.org/dc/dcmitype/StillImage" />
        <dc:title></dc:title>
      </cc:Work>
    </rdf:RDF>
  </metadata>
  <g
     inkscape:label="Layer 1"
     inkscape:groupmode="layer"
     id="layer1"
     transform="translate(-78.577069,-541.24358)">
    <g
       id="g3151"
       transform="matrix(0.69196049,0,0,0.69196049,74.041385,536.8079)">
      <g
         transform="translate(-135.573,-23.6305)"
         id="back cloak">
        <path
           style="fill:#572e2d"
           inkscape:connector-curvature="0"
           id="path7"
           d="m 383.263,185.66 27.629,82.019 30.27,21.427 -54.661,57.845 6.112,304.328 -74.639,-33.798 17.181,-460.456 48.108,28.635 z" />
        <path
           style="fill:#c89347"
           inkscape:connector-curvature="0"
           id="path9"
           d="m 248.305,157.091 20.708,-8.122 -1.175,-47.942 49.352,-1.6446 0.705,51.4666 25.427,7.264 -40.098,51.107 -63.68,-30.711 8.761,-21.418 z" />
        <path
           style="fill:#af813f"
           inkscape:connector-curvature="0"
           id="path11"
           d="m 246.727,158.608 22.437,-10.871 -0.477,-18.705 39.459,7.007 -5.04,10.326 -13.746,8.532 -2.772,7.3 -2.587,-4.62 -3.234,2.772 1.12,2.378 -25.796,2.963 -9.364,-7.082 z" />
        <path
           style="fill:#ecbb73"
           inkscape:connector-curvature="0"
           id="path13"
           d="m 306.605,129.691 11.316,-0.404 0,21.824 19.284,5.968 -1.32,10.529 -28.912,-2.811 -14.188,4.015 -13.252,-4.149 -21.55,1.205 5.087,-2.142 20.479,-1.874 9.37,3.748 6.648,-1.603 11.484,-30.803 -4.446,-3.503 z" />
        <path
           style="fill:#ecbb73"
           inkscape:connector-curvature="0"
           id="path15"
           d="m 288.469,164.823 -5.207,-7.985 -3.419,2.494 0.494,2.788 8.132,2.703 z" />
        <path
           style="fill:#ecbb73"
           inkscape:connector-curvature="0"
           id="path17"
           d="m 298.692,152.68 -1.016,6.19 -4.435,2.31 3.049,-4.527 2.402,-3.973 z" />
        <path
           style="fill:#ecbb73"
           inkscape:connector-curvature="0"
           id="path19"
           d="m 258.073,168.552 21.52,-0.315 13.189,1.25 13.744,-1.666 10.749,1.415 -13.477,17.494 -24.483,-0.167 -21.242,-18.011 z" />
        <path
           style="fill:#572e2d"
           inkscape:connector-curvature="0"
           id="path21"
           d="m 211.512,625.779 71.014,-22.499 39.373,-74.529 -49.92,-12.656 -60.467,109.684 z" />
      </g>
      <g
         transform="translate(-135.573,-23.6305)"
         id="legs">
        <path
           style="fill:#ecbb73"
           inkscape:connector-curvature="0"
           id="path24"
           d="m 242.884,579.769 1.61,21.739 8.857,66.022 -3.221,52.335 -12.882,16.103 -37.842,23.349 8.856,7.247 81.32,-8.052 -4.025,-28.18 0,-34.621 0.805,-46.699 9.662,-26.57 -12.883,-61.997 -39.452,-1.61" />
        <path
           style="fill:#ecbb73"
           inkscape:connector-curvature="0"
           id="path26"
           d="m 376.799,578.159 -1.61,21.739 -8.857,66.022 3.221,52.335 12.882,16.103 37.842,23.349 -8.856,7.246 -81.32,-8.051 4.025,-28.18 0,-34.622 -0.805,-46.699 -9.662,-26.569 12.883,-61.997 39.452,-1.61" />
      </g>
      <g
         transform="translate(-135.573,-23.6305)"
         id="arm">
        <path
           style="fill:#ecbb73"
           inkscape:connector-curvature="0"
           id="path29"
           d="m 377.05,174.546 16.927,13.243 1.459,28.681 25.764,61.25 40.632,10.955 15.489,-22.826 19.565,15.489 -17.935,32.608 -24.456,-1.63 -52.254,-2.998 -37.419,-54.067 -14.674,-62.771 9.783,-30.978 17.119,13.044 z" />
        <path
           style="fill:#803c3a"
           inkscape:connector-curvature="0"
           id="path31"
           d="m 407.726,240.025 44.358,31.252 -9.578,30.244 25.204,209.187 12.601,54.439 -53.431,-28.732 -9.145,-157.454 -6.985,-78.952 -3.024,-59.984 z" />
        <path
           style="fill:#fff4e0"
           inkscape:connector-curvature="0"
           id="path33"
           d="m 480.126,268.2 27.461,-45.265 13.881,14.183 -30.78,39.229 -10.562,-8.147 z" />
        <path
           style="fill:#c89347"
           inkscape:connector-curvature="0"
           id="path35"
           d="m 370.888,198.492 -5.432,17.201 -1.132,38.208 26.251,36.944 8.98,18.998 6.089,-24.831 -15.069,-13.125 2.916,-14.098 -16.042,-31.597 -8.07,-9.896 1.509,-17.804 z" />
        <path
           style="fill:#c89347"
           inkscape:connector-curvature="0"
           id="path37"
           d="m 432.146,301.695 22.028,-2.414 -6.035,11.769 -15.993,0.905 0,-10.26 z" />
        <path
           style="fill:#c89347"
           inkscape:connector-curvature="0"
           id="path39"
           d="m 464.587,296.573 -5.82,-1.378 10.649,12.527 -3.757,4.625 13.018,1.532 -5.667,-10.874 -8.423,-6.432 z" />
        <path
           style="fill:#fff4e0"
           inkscape:connector-curvature="0"
           id="path41"
           d="m 463.444,298.205 9.355,9.053 -26.857,38.324 -13.58,-12.373 31.082,-35.004 z" />
      </g>
      <g
         transform="translate(-135.573,-23.6305)"
         id="clothing">
        <path
           style="fill:#5c7c4d"
           inkscape:connector-curvature="0"
           id="path44"
           d="m 228.896,460.824 -1.835,94.498 157.439,12.668 -6.06,-176.892 -2.752,-26.606 -135.783,22.936 -11.009,73.396 z" />
        <path
           style="fill:#5c7c4d"
           inkscape:connector-curvature="0"
           id="path46"
           d="m 212.378,396.282 172.217,-2.424 5.333,-12.57 -10.666,-25.522 -3.922,-71.642 -8.072,-60.666 -5.707,-61.141 -21.195,-12.228 -45.123,27.542 -57.593,-18.574 -25.272,237.225 z" />
        <path
           style="fill:#803c3a"
           inkscape:connector-curvature="0"
           id="path48"
           d="m 249.183,147.695 -55.152,33.453 -50.458,135.636 64.372,312.459 35.756,-33.107 80.782,-113.889 43.702,-129.781 29.159,-169.909 -29.622,-23.509 -30.617,-8.143 -33.309,56.859 -54.613,-60.069 z" />
        <path
           style="fill:#48623d"
           inkscape:connector-curvature="0"
           id="path50"
           d="m 379.874,393.121 -24.381,-1.771 -4.085,10.439 27.06,2.229 1.406,-10.897 z" />
      </g>
      <g
         transform="translate(-135.573,-23.6305)"
         id="ears">
        <path
           style="fill:#c89347"
           inkscape:connector-curvature="0"
           id="path53"
           d="m 257.586,81.2332 -1.787,-4.0801 -5.387,6.558 3.044,14.2871 3.982,6.7918 2.958,-4.585 -2.81,-18.9718 z" />
        <path
           style="fill:#ecbb73"
           inkscape:connector-curvature="0"
           id="path55"
           d="m 327.653,79.9158 1.868,-4.161 5.387,6.558 -3.045,14.2871 -3.982,6.7921 -3.039,-4.5048 2.811,-18.9714 z" />
      </g>
      <g
         transform="translate(-135.573,-23.6305)"
         id="Layer 1">
        <path
           style="fill:#ecbb73"
           inkscape:connector-curvature="0"
           id="path58"
           d="m 258.155,89.6159 c 0,-29.3123 6.693,-54.1918 33.428,-54.1443 26.736,0.0475 35.33,24.0737 35.33,53.386 0,14.2164 -8.199,38.7824 -8.199,38.7824 0,0 -14.549,18.747 -26.22,18.747 -10.992,0 -25.143,-16.456 -25.143,-16.456 0,0 -9.196,-25.219 -9.196,-40.3151 z" />
        <path
           style="fill:#c89347"
           inkscape:connector-curvature="0"
           id="path60"
           d="m 283.596,107.624 9.787,3.691 9.273,-4.744 -6.199,9.997 -5.62,2.023 -7.241,-10.967 z" />
        <path
           style="fill:#c89347"
           inkscape:connector-curvature="0"
           id="path62"
           d="m 282.753,107.835 3.791,-6.003 -3.791,-0.21 -9.094,9.449 9.094,-3.236 z" />
        <path
           style="fill:#c89347"
           inkscape:connector-curvature="0"
           id="path64"
           d="m 302.551,106.887 1.474,-4.423 8.04,9.25 -9.514,-4.827 z" />
        <path
           style="fill:#c89347"
           inkscape:connector-curvature="0"
           id="path66"
           d="m 264.177,74.9248 19.017,6.1264 6.295,4.7215 -0.624,19.3273 -5.611,-3.616 2.937,-9.129 -1.545,-1.2185 -9.23,3.4735 -8.878,-3.2786 -5.148,2.0832 8.252,19.5844 0.321,14.463 11.171,15.383 -14.17,-12.46 -4.65,-15.699 -3.627,-16.6839 -1.291,-10.914 3.165,-24.6322 8.603,-17.3318 -0.808,21.9158 -4.179,7.8849 z" />
        <path
           style="fill:#c89347"
           inkscape:connector-curvature="0"
           id="path68"
           d="m 296.416,85.4466 6.11,-5.5193 13.685,0.9242 4.762,6.792 -11.983,6.8322 -5.434,-3.4357 -4.723,-0.6963 -0.87,5.0996 -1.547,-9.9967 z" />
        <path
           style="fill:#c89347"
           inkscape:connector-curvature="0"
           id="path70"
           d="m 293.238,77.3647 -0.125,5.3404 -0.862,-5.4637 -16.581,-4.9929 -1.663,-0.9887 1.264,-0.5043 9.318,3.7179 7.834,1.0907 8.206,-0.953 7.38,-3.5282 2.656,0.144 -2.325,1.2065 -15.102,4.9313 z" />
        <path
           style="fill:#2f1f18"
           inkscape:connector-curvature="0"
           id="path72"
           d="m 287.504,80.5549 -5.519,2.795 -3.236,-2.1951 -3.545,0.6561 -5.452,0.2646 -5.112,-0.445 -0.859,-1.6708 1.679,-2.0387 1.45,-1.0123 2.719,-0.2171 2.444,-0.6434 3.677,0.3129 3.211,-1.6517 3.899,1.6967 3.372,1.5196 1.272,2.6292 z" />
        <path
           style="fill:#2f1f18"
           inkscape:connector-curvature="0"
           id="path74"
           d="m 297.744,80.2963 3.329,2.2573 5.422,-1.6037 3.541,0.6777 5.45,0.298 5.114,-0.4136 1.762,-2.0745 -2.559,-1.64 -1.178,-2.2071 -2.983,0.9522 -2.733,-0.8423 -2.98,1.2777 -3.606,-2.4747 -3.91,1.6728 -3.023,1.5027 -1.646,2.6175 z" />
        <path
           style="fill:#c89347"
           inkscape:connector-curvature="0"
           id="path76"
           d="m 288.414,129.323 9.183,0.255 1.02,3.826 -5.484,-1.148 -5.867,1.148 1.148,-4.081 z" />
        <path
           style="fill:#c89347"
           inkscape:connector-curvature="0"
           id="path78"
           d="m 328.582,85.2697 2.001,-4.2894 2.383,3.4315 -2.711,11.3319 -1.371,1.1428 2.286,-10.8187 -0.679,-2.317 -1.15,1.9361 0.533,3.0475 -0.99,3.7332 -1.752,-3.1237 1.45,-4.0742 z" />
      </g>
      <g
         transform="translate(-135.573,-23.6305)"
         id="Layer 2">
        <path
           style="fill:#ddb396"
           inkscape:connector-curvature="0"
           id="path81"
           d="m 281.418,124.328 23.212,0.183 -4.204,4.386 -6.038,1.206 -9.863,-1.937 -3.107,-3.838 z" />
      </g>
      <g
         transform="translate(-135.573,-23.6305)"
         id="l eye">
        <path
           style="fill:#ffffff"
           inkscape:connector-curvature="0"
           id="path84"
           d="m 268.134,89.1036 2.832,-4.0082 6.561,-1.6894 4.851,4.0807 -6.083,2.9258 -8.161,-1.3089 z" />
        <path
           style="fill:#607f84"
           inkscape:connector-curvature="0"
           id="path86"
           d="m 271.183,87.4484 c 0,-2.2493 1.824,-4.0728 4.073,-4.0728 2.25,0 4.073,1.8235 4.073,4.0728 0,2.2494 -1.823,4.0729 -4.073,4.0729 -2.249,0 -4.073,-1.8235 -4.073,-4.0729 z" />
        <path
           style="fill:#000000"
           inkscape:connector-curvature="0"
           id="path88"
           d="m 272.577,87.4484 c 0,-1.4794 1.2,-2.6787 2.679,-2.6787 1.48,0 2.679,1.1993 2.679,2.6787 0,1.4795 -1.199,2.6788 -2.679,2.6788 -1.479,0 -2.679,-1.1993 -2.679,-2.6788 z" />
        <path
           style="fill:#ecbb73"
           inkscape:connector-curvature="0"
           id="path90"
           d="m 268.091,88.9517 7.765,1.5531 6.298,-2.9766 -6.985,6.0224 -5.907,-3.3136 -1.171,-1.2853 z" />
        <path
           style="fill:#ecbb73"
           inkscape:connector-curvature="0"
           id="path92"
           d="m 279.699,85.2256 -8.678,0.4125 -2.93,3.3999 3.611,-5.9126 6.273,-0.0548 1.724,2.155 z" />
      </g>
      <g
         transform="translate(-135.573,-23.6305)"
         id="r eye">
        <path
           style="fill:#ffffff"
           inkscape:connector-curvature="0"
           id="path95"
           d="m 316.12,88.646 -3.116,-4.0222 -6.277,-1.6754 -4.851,4.0807 6.083,2.9258 8.161,-1.3089 z" />
        <path
           style="fill:#607f84"
           inkscape:connector-curvature="0"
           id="path97"
           d="m 313.071,86.9909 c 0,-2.2494 -1.824,-4.0729 -4.073,-4.0729 -2.25,0 -4.073,1.8235 -4.073,4.0729 0,2.2493 1.823,4.0728 4.073,4.0728 2.249,0 4.073,-1.8235 4.073,-4.0728 z" />
        <path
           style="fill:#000000"
           inkscape:connector-curvature="0"
           id="path99"
           d="m 311.677,86.9909 c 0,-1.4795 -1.2,-2.6788 -2.679,-2.6788 -1.48,0 -2.679,1.1993 -2.679,2.6788 0,1.4794 1.199,2.6787 2.679,2.6787 1.479,0 2.679,-1.1993 2.679,-2.6787 z" />
        <path
           style="fill:#ecbb73"
           inkscape:connector-curvature="0"
           id="path101"
           d="m 316.163,88.4942 -7.765,1.553 -6.298,-2.9766 6.985,6.0224 5.907,-3.3136 1.171,-1.2852 z" />
        <path
           style="fill:#ecbb73"
           inkscape:connector-curvature="0"
           id="path103"
           d="m 304.486,84.8224 8.507,0.2518 3.17,3.5062 -3.476,-6.0766 -6.369,0.3238 -1.832,1.9948 z" />
      </g>
      <g
         transform="translate(-135.573,-23.6305)"
         id="hair">
        <path
           style="fill:#2f1f18"
           inkscape:connector-curvature="0"
           id="path106"
           d="m 273.485,36.581 -9.146,6.9333 -5.754,7.9659 -1.77,9.7361 1.18,24.4878 2.066,2.3603 0.737,-24.6353 5.311,-10.3262 9.736,-6.6383 19.819,0.9055 12.809,-1.0855 8.054,6.2858 6.908,8.6407 1.538,28.6816 2.161,-4.1251 1.179,-22.7862 L 325.17,47.856 310.184,33.567 285.331,31.6305 273.485,36.581 z" />
        <path
           style="fill:#ba8764"
           inkscape:connector-curvature="0"
           id="path108"
           d="m 279.65,124.417 27.311,0.165 -5.61,-1.98 -6.601,-1.651 -1.815,1.156 -2.063,-0.991 -7.261,1.651 -3.961,1.65 z" />
        <path
           style="fill:#424242"
           inkscape:connector-curvature="0"
           id="path110"
           d="m 263.833,57.7741 -6.895,2.925 0.836,24.6542 3.538,4.725 -0.718,-27.0809 3.239,-5.2233 z" />
        <path
           style="fill:#87867c"
           inkscape:connector-curvature="0"
           id="path112"
           d="m 320.871,56.9662 6.44,-0.339 1.694,6.6093 -2.033,22.2004 -1.864,4.9145 -1.356,-24.9118 -2.881,-8.4734 z" />
        <path
           style="fill:#c89347"
           inkscape:connector-curvature="0"
           id="path114"
           d="m 309.918,159.71 3.882,-3.614 -0.804,-7.362 -3.078,10.976 z" />
      </g>
    </g>
    <g
       id="g3262"
       transform="matrix(0.55294935,0,0,0.55294935,324.22959,590.03123)">
      <g
         transform="translate(-206.58,128.8186)"
         id="legs-7">
        <path
           style="fill:#ffd79d"
           inkscape:connector-curvature="0"
           id="path10"
           d="m 267.294,490.269 0,26.182 -6.461,34.684 12.583,107.711 -3.386,9.407 -7.045,11.496 -13.073,6.544 -4.65,6.819 8.072,2.774 17.243,0.345 16.899,0 9.311,-2.069 -1.379,-14.83 -2.236,-17.928 -0.523,-70.679 4.568,-27.689 -1.36,-43.864 1.36,-30.943 -29.923,2.04 z" />
        <path
           style="fill:#ffd79d"
           inkscape:connector-curvature="0"
           id="path12"
           d="m 359.229,491.06 0,26.183 6.461,34.683 -12.583,107.712 3.386,9.407 7.046,11.496 13.072,6.543 4.65,6.82 -8.071,2.774 -17.244,0.344 -16.898,0 -9.312,-2.069 1.38,-14.829 2.235,-17.929 0.524,-70.678 -4.569,-27.69 1.36,-43.864 -1.36,-30.943 29.923,2.04 z" />
        <path
           style="fill:#ecbb73"
           inkscape:connector-curvature="0"
           id="path14"
           d="m 352.594,517.108 -13.452,1.261 7.417,6.775 5.433,-1.207 0.602,-6.829 z" />
        <path
           style="fill:#ecbb73"
           inkscape:connector-curvature="0"
           id="path16"
           d="m 359.254,498.764 -29.495,0.857 1.173,15.466 5.162,-1.534 3.348,-4.883 11.022,0.279 4.717,2.649 3.654,-0.975 0.419,-11.859 z" />
      </g>
      <g
         transform="translate(-206.58,128.8186)"
         id="Layer 3">
        <path
           style="fill:#a84f4c"
           inkscape:connector-curvature="0"
           id="path19-4"
           d="m 257.288,387.248 0.443,109.695 115.445,7.078 -4.423,-119.87 -111.465,3.097 z" />
        <path
           style="fill:#803c3a"
           inkscape:connector-curvature="0"
           id="path21-9"
           d="m 257.288,387.248 -0.19,13.8 59.514,13.68 52.659,-8.257 -0.518,-22.32 -111.465,3.097 z" />
        <path
           style="fill:#ecbb73"
           inkscape:connector-curvature="0"
           id="path23"
           d="m 273.929,516.316 13.453,1.261 -7.418,6.775 -5.433,-1.207 -0.602,-6.829 z" />
        <path
           style="fill:#ecbb73"
           inkscape:connector-curvature="0"
           id="path25"
           d="m 267.27,497.972 29.494,0.857 -1.172,15.467 -5.162,-1.535 -3.349,-4.883 -11.022,0.279 -4.717,2.65 -3.654,-0.976 -0.418,-11.859 z" />
      </g>
      <g
         transform="translate(-206.58,128.8186)"
         id="necks">
        <path
           style="fill:#ffd79d"
           inkscape:connector-curvature="0"
           id="path28"
           d="m 251.707,224.708 40.203,-19.422 0.062,-18.066 36.099,-4.86 0.694,21.521 35.406,13.884 -1.389,28.463 -106.215,0.695 -4.86,-22.215 z" />
        <path
           style="fill:#ecbb73"
           inkscape:connector-curvature="0"
           id="path30"
           d="m 290.425,183.048 37.204,-2.485 1.304,25.004 -23.548,24.953 -42.211,-10.855 28.377,-14.324 -1.126,-22.293 z" />
        <path
           style="fill:#ffd79d"
           inkscape:connector-curvature="0"
           id="path32"
           d="m 247.376,228.921 -11.445,13.659 -12.201,72.531 -8.131,27.289 -1.019,80.47 0,0 4.075,29.54 11.798,13.896 15.11,-0.646 -1.42,-4.649 -6.562,-2.148 -7.1,-19.886 7.193,7.739 4.104,-0.93 -3.067,-6.943 -2.184,-12.872 -5.341,-12.571 8.812,-73.208 13.558,-60.33 14.267,45.39 -20.447,-96.331 z" />
        <path
           style="fill:#e4b26a"
           inkscape:connector-curvature="0"
           id="path34"
           d="m 290.898,184.799 36.746,1.042 1.003,11.369 -22.738,8.026 -14.486,-3.456 -0.525,-16.981 z" />
        <path
           style="fill:#e4b26a"
           inkscape:connector-curvature="0"
           id="path36"
           d="M 270.129,185.507" />
      </g>
      <g
         transform="translate(-206.58,128.8186)"
         id="Layer 7">
        <path
           style="fill:#ffd79d"
           inkscape:connector-curvature="0"
           id="path39-6"
           d="m 372.744,226.166 11.445,13.66 12.201,72.531 8.131,27.289 1.019,80.47 0,0 -4.074,29.54 -11.799,13.895 -15.11,-0.645 1.421,-4.65 6.562,-2.147 7.099,-19.886 -7.193,7.739 -4.104,-0.931 3.067,-6.942 2.185,-12.873 5.34,-12.57 -8.812,-73.209 -13.557,-60.329 -14.268,45.39 20.447,-96.332 z" />
      </g>
      <g
         transform="translate(-206.58,128.8186)"
         id="Layer 2-5">
        <path
           style="fill:#a84f4c"
           inkscape:connector-curvature="0"
           id="path42"
           d="m 245.303,228.301 14.405,-9.845 48.581,10.859 49.152,-14.86 14.86,8.002 -3.99,74.557 4.423,48.656 7.519,34.058 -3.633,16.754 -60.579,1.817 -64.502,-5.875 -8.142,-18.319 10.177,-30.533 2.036,-50.888 -10.307,-64.383 z" />
        <path
           style="fill:#803c3a"
           inkscape:connector-curvature="0"
           id="path44-5"
           d="m 304.979,265.681 -4.168,10.838 6.878,8.753 5.192,-1.556 6.951,-10.686 -14.853,-7.349 z" />
        <path
           style="fill:#803c3a"
           inkscape:connector-curvature="0"
           id="path46-7"
           d="m 306.825,229.684 -36.66,11.426 -18.569,-16.187 9.999,-9.046 45.23,13.807 z" />
        <path
           style="fill:#976f35"
           inkscape:connector-curvature="0"
           id="path48-4"
           d="m 313.286,255.399 7.706,17.007 -10.363,10.363 -6.909,-6.643 1.063,-11.958 8.503,-8.769 z" />
        <path
           style="fill:none;stroke:#c89347;stroke-width:1;stroke-linecap:round;stroke-linejoin:round"
           inkscape:connector-curvature="0"
           id="path50-5"
           d="m 288.189,207.033 -6.259,16.212 c 0,0 6.066,10.553 13.972,18.591 7.905,8.039 17.65,13.563 17.65,13.563 0,0 7.876,-8.745 14.187,-17.913 6.311,-9.168 11.057,-18.758 11.057,-18.758 l -7.102,-14.068" />
      </g>
      <g
         transform="translate(-206.58,128.8186)"
         id="Layer 1-9">
        <path
           style="fill:#ffd79d"
           inkscape:connector-curvature="0"
           id="path53-6"
           d="m 261.989,126.456 c 0,-38.532 17.996,-53.8323 48.093,-53.8323 30.098,0 43.971,18.7526 43.971,57.2853 0,21 -5.677,40.528 -5.677,40.528 0,0 -26.11,21.07 -39.805,21.07 -11.437,0 -38.562,-19.494 -38.562,-19.494 0,0 -8.02,-21.667 -8.02,-45.557 z" />
        <path
           style="fill:#ecbb73"
           inkscape:connector-curvature="0"
           id="path55-6"
           d="m 299.611,158.115 1.724,-8.597 6.774,1.954 7.035,-2.345 -4.044,7.849 -11.489,1.139 z" />
        <path
           style="fill:#424242"
           inkscape:connector-curvature="0"
           id="path57"
           d="m 303.57,151.16 c 0,-0.229 0.824,-0.415 1.842,-0.415 1.017,0 1.841,0.186 1.841,0.415 0,0.228 -0.824,0.414 -1.841,0.414 -1.018,0 -1.842,-0.186 -1.842,-0.414 z" />
        <path
           style="fill:#ecbb73"
           inkscape:connector-curvature="0"
           id="path59"
           d="m 273.121,133.09 29.775,-1.127 -2.219,-10.327 -15.467,-3.314 -12.465,8.381 0.376,6.387 z" />
        <path
           style="fill:#ecbb73"
           inkscape:connector-curvature="0"
           id="path61"
           d="m 341.993,133.2 -29.775,-1.127 2.176,-9.783 15.309,-2.811 12.666,7.334 -0.376,6.387 z" />
        <path
           style="fill:#ecbb73"
           inkscape:connector-curvature="0"
           id="path63"
           d="m 285.971,157.31 -3.849,3.462 -0.982,4.963 -2.022,-6.515 6.853,-1.91 z" />
        <path
           style="fill:#ffd79d"
           inkscape:connector-curvature="0"
           id="path65"
           d="m 261.331,120.395 -8.994,2.748 0.499,14.491 8.245,12.242 3.498,-1 -3.248,-28.481 z" />
        <path
           style="fill:#ffd79d"
           inkscape:connector-curvature="0"
           id="path67"
           d="m 355.521,119.645 8.994,2.748 -0.5,14.491 -8.245,12.242 -3.497,-0.999 3.248,-28.482 z" />
        <path
           style="fill:#ecbb73"
           inkscape:connector-curvature="0"
           id="path69"
           d="m 328.931,154.65 3.848,3.462 0.982,4.964 2.022,-6.516 -6.852,-1.91 z" />
        <path
           style="fill:#ecbb73"
           inkscape:connector-curvature="0"
           id="path71"
           d="m 259.79,126.719 -5.111,-0.692 1.314,9.704 3.133,7.481 -1.314,-7.986 -1.314,-6.47 2.527,1.517 0.101,3.639 1.517,-2.527 -0.853,-4.666 z" />
        <path
           style="fill:#ecbb73"
           inkscape:connector-curvature="0"
           id="path73"
           d="m 356.79,126.482 5.111,-0.692 -1.314,9.705 -3.134,7.48 1.315,-7.986 1.314,-6.469 -2.527,1.516 -0.102,3.639 -1.516,-2.527 0.853,-4.666 z" />
        <path
           style="fill:#2f1f18"
           inkscape:connector-curvature="0"
           id="path75"
           d="m 272.564,127.078 11.768,-8.084 13.924,2.015 -5.203,-3.839 -12.842,0.577 -7.647,9.331 z" />
        <path
           style="fill:#2f1f18"
           inkscape:connector-curvature="0"
           id="path77"
           d="m 342.553,127.222 -11.769,-8.084 -13.923,2.016 5.202,-3.839 12.842,0.577 7.648,9.33 z" />
        <path
           style="fill:#d2b68e"
           inkscape:connector-curvature="0"
           id="path79"
           d="m 313.445,257.653 7.413,13.686 -7.555,4.704 -6.273,-2.708 0.285,-8.411 6.13,-7.271 z" />
        <path
           style="fill:#ecbb73"
           inkscape:connector-curvature="0"
           id="path81-6"
           d="m 302.575,174.415 11.841,-0.114 -2.277,3.53 -7.059,0.114 -2.505,-3.53 z" />
      </g>
      <g
         transform="translate(-206.58,128.8186)"
         id="mouth">
        <path
           style="fill:#7b2725"
           inkscape:connector-curvature="0"
           id="path84-2"
           d="m 289.854,161.308 35.277,-1.47 -5.109,11.469 -22.719,0 -7.449,-9.999 z" />
        <path
           style="fill:#e48f6a"
           inkscape:connector-curvature="0"
           id="path86-7"
           d="m 297.125,170.967 22.861,-0.84 4.704,-9.995 -4.367,11.377 -0.48,2.046 -10.983,0.97 -10.601,-0.172 -1.206,-2.413 -6.611,-9.897 6.683,8.924 z" />
        <path
           style="fill:#fffaf2"
           inkscape:connector-curvature="0"
           id="path88-2"
           d="m 289.854,161.308 35.277,-1.47 -2.029,4.658 -31.188,0.364 -2.06,-3.552 z" />
        <path
           style="fill:#e48f6a"
           inkscape:connector-curvature="0"
           id="path90-6"
           d="m 290.118,161.033 34.704,-1.075 -2.618,-0.706 -14.719,-0.113 -15.007,1.016 -2.36,0.878 z" />
        <path
           style="fill:#dbd9ca"
           inkscape:connector-curvature="0"
           id="path92-8"
           d="m 289.854,161.308 7.528,-0.249 0.209,3.563 -5.677,0.238 -2.06,-3.552 z" />
        <path
           style="fill:#dbd9ca"
           inkscape:connector-curvature="0"
           id="path94"
           d="m 325.072,160.066 -7.934,0.051 0.401,4.422 5.65,-0.157 1.883,-4.316 z" />
        <path
           style="fill:#c8c5b8"
           inkscape:connector-curvature="0"
           id="path96"
           d="m 289.854,161.308 2.628,0.004 0.91,3.236 -1.478,0.312 -2.06,-3.552 z" />
        <path
           style="fill:#c8c5b8"
           inkscape:connector-curvature="0"
           id="path98"
           d="m 325.072,160.066 -4.079,0.337 -0.202,3.74 2.398,0.239 1.883,-4.316 z" />
        <path
           style="fill:#ecbb73"
           inkscape:connector-curvature="0"
           id="path100"
           d="m 245.199,233.034 -1.483,1.609 2.792,36.137 -7.097,45.609 -4.921,5.5 -2.052,19.44 -1.421,65.362 1.955,-10.956 7.886,-58.217 13.024,-57.597 -8.683,-46.887 z" />
        <path
           style="fill:#f1eede"
           inkscape:connector-curvature="0"
           id="path102"
           d="m 296.968,161.152 5.1,-0.093 0.21,3.563 -4.93,0.203 -0.38,-3.673 z" />
        <path
           style="fill:#f1eede"
           inkscape:connector-curvature="0"
           id="path104"
           d="m 312.443,160.372 4.691,-0.084 0.335,4.272 -4.775,-0.083 -0.251,-4.105 z" />
        <path
           style="fill:#ecbb73"
           inkscape:connector-curvature="0"
           id="path106-7"
           d="m 371.506,243.232 0.594,11.88 2.655,13.486 7.097,45.61 4.921,5.499 2.052,19.44 1.421,65.362 -1.955,-10.956 -7.886,-58.217 -11.275,-48.345 2.376,-43.759 z" />
      </g>
      <g
         transform="translate(-206.58,128.8186)"
         id="Layer 5">
        <path
           style="fill:#ffffff"
           inkscape:connector-curvature="0"
           id="path109"
           d="m 276.013,131.745 3.826,-4.385 13.714,-1.586 2.985,4.945 -3.452,3.638 -11.848,0.747 -5.225,-3.359 z" />
        <path
           style="fill:#a1b4b4"
           inkscape:connector-curvature="0"
           id="path111"
           d="m 280.67,130.717 c 0,-3.123 2.531,-5.654 5.654,-5.654 3.122,0 5.654,2.531 5.654,5.654 0,3.122 -2.532,5.654 -5.654,5.654 -3.123,0 -5.654,-2.532 -5.654,-5.654 z" />
        <path
           style="fill:#cad2dd"
           inkscape:connector-curvature="0"
           id="path113"
           d="m 276.013,131.745 2.529,-5.548 15.011,-0.423 2.985,4.945 -1.272,1.208 c 0,0 -4.938,-0.231 -9.231,0 -4.292,0.231 -7.939,0.923 -7.939,0.923 l -2.083,-1.105 z" />
        <path
           style="fill:#708e8e"
           inkscape:connector-curvature="0"
           id="path115"
           d="m 286.317,125.068 c -3.122,0 -5.635,2.513 -5.635,5.635 0,0.581 0.093,1.165 0.256,1.692 0,0 2.114,-0.319 4.85,-0.466 2.737,-0.147 6.096,-0.122 6.096,-0.122 0.084,-0.388 0.112,-0.69 0.112,-1.104 0,-3.122 -2.556,-5.635 -5.679,-5.635 z" />
        <path
           style="fill:#555555"
           inkscape:connector-curvature="0"
           id="path117"
           d="m 282.733,130.637 c 0,-1.926 1.562,-3.488 3.488,-3.488 1.926,0 3.488,1.562 3.488,3.488 0,1.926 -1.562,3.487 -3.488,3.487 -1.926,0 -3.488,-1.561 -3.488,-3.487 z" />
        <path
           style="fill:#000000"
           inkscape:connector-curvature="0"
           id="path119"
           d="m 286.231,127.133 c -1.926,0 -3.484,1.558 -3.484,3.484 0,0.573 0.061,1.051 0.305,1.528 0,0 1.774,-0.188 3.382,-0.264 1.608,-0.076 3.052,-0.04 3.052,-0.04 0.157,-0.397 0.23,-0.77 0.23,-1.224 0,-1.926 -1.559,-3.484 -3.485,-3.484 z" />
        <path
           style="fill:#ffd79d"
           inkscape:connector-curvature="0"
           id="path121"
           d="m 280.263,135.287 15.28,-1.052 -1.377,4.353 -13.602,1.1 -0.301,-4.401 z" />
        <path
           style="opacity:0.459677;fill:#ffffff"
           inkscape:connector-curvature="0"
           id="path123"
           d="m 287.779,133.346 c 0,-0.608 0.493,-1.1 1.1,-1.1 0.608,0 1.1,0.492 1.1,1.1 0,0.607 -0.492,1.1 -1.1,1.1 -0.607,0 -1.1,-0.493 -1.1,-1.1 z" />
        <path
           style="fill:#ecbb73"
           inkscape:connector-curvature="0"
           id="path125"
           d="m 292.661,123.073 -11.373,-0.666 -2.746,3.883 15.102,-0.447 -0.983,-2.77 z" />
        <path
           style="fill:#ecbb73"
           inkscape:connector-curvature="0"
           id="path127"
           d="m 264.336,147.766 0.223,4.698 5.171,19.191 14.901,9.818 15.443,8.196 -26.683,-20.229 -1.944,-11.653 -7.111,-10.021 z" />
        <path
           style="fill:#ecbb73"
           inkscape:connector-curvature="0"
           id="path129"
           d="m 300.496,148.98 1.998,-4.605 -3.649,1.651 -1.564,3.475 3.475,2.173 -0.26,-2.694 z" />
        <path
           style="fill:#ecbb73"
           inkscape:connector-curvature="0"
           id="path131"
           d="m 302.755,132.036 1.129,6.343 -3.388,-2.867 -2.781,-3.65 5.04,0.174 z" />
      </g>
      <g
         transform="translate(-206.58,128.8186)"
         id="Layer 6">
        <path
           style="fill:#ffffff"
           inkscape:connector-curvature="0"
           id="path134"
           d="m 338.445,131.883 -3.825,-4.384 -13.714,-1.586 -2.986,4.944 3.452,3.639 11.849,0.746 5.224,-3.359 z" />
        <path
           style="fill:#a1b4b4"
           inkscape:connector-curvature="0"
           id="path136"
           d="m 333.789,130.855 c 0,-3.123 -2.532,-5.654 -5.654,-5.654 -3.123,0 -5.654,2.531 -5.654,5.654 0,3.123 2.531,5.654 5.654,5.654 3.122,0 5.654,-2.531 5.654,-5.654 z" />
        <path
           style="fill:#cad2dd"
           inkscape:connector-curvature="0"
           id="path138"
           d="m 338.445,131.883 -2.761,-5.984 -14.778,0.014 -2.986,4.944 1.272,1.208 c 0,0 4.939,-0.231 9.231,0 4.293,0.231 7.939,0.923 7.939,0.923 l 2.083,-1.105 z" />
        <path
           style="fill:#708e8e"
           inkscape:connector-curvature="0"
           id="path140"
           d="m 328.141,125.206 c 3.123,0 5.636,2.513 5.636,5.636 0,0.58 -0.094,1.165 -0.256,1.692 0,0 -2.114,-0.32 -4.851,-0.467 -2.736,-0.147 -6.095,-0.121 -6.095,-0.121 -0.085,-0.389 -0.113,-0.69 -0.113,-1.104 0,-3.123 2.556,-5.636 5.679,-5.636 z" />
        <path
           style="fill:#555555"
           inkscape:connector-curvature="0"
           id="path142"
           d="m 331.725,130.775 c 0,-1.926 -1.561,-3.487 -3.488,-3.487 -1.926,0 -3.487,1.561 -3.487,3.487 0,1.926 1.561,3.488 3.487,3.488 1.927,0 3.488,-1.562 3.488,-3.488 z" />
        <path
           style="fill:#000000"
           inkscape:connector-curvature="0"
           id="path144"
           d="m 328.227,127.271 c 1.926,0 3.485,1.559 3.485,3.485 0,0.572 -0.061,1.051 -0.306,1.528 0,0 -1.773,-0.189 -3.382,-0.265 -1.608,-0.076 -3.051,-0.039 -3.051,-0.039 -0.158,-0.398 -0.23,-0.77 -0.23,-1.224 0,-1.926 1.558,-3.485 3.484,-3.485 z" />
        <path
           style="fill:#ffd79d"
           inkscape:connector-curvature="0"
           id="path146"
           d="m 334.195,135.426 -15.28,-1.053 1.378,4.353 13.602,1.101 0.3,-4.401 z" />
        <path
           style="opacity:0.459677;fill:#ffffff"
           inkscape:connector-curvature="0"
           id="path148"
           d="m 326.679,133.484 c 0,-0.607 -0.492,-1.1 -1.1,-1.1 -0.607,0 -1.1,0.493 -1.1,1.1 0,0.608 0.493,1.1 1.1,1.1 0.608,0 1.1,-0.492 1.1,-1.1 z" />
        <path
           style="fill:#ecbb73"
           inkscape:connector-curvature="0"
           id="path150"
           d="m 322.052,123.036 12.779,0 1.341,3.217 -15.103,-0.447 0.983,-2.77 z" />
      </g>
      <g
         transform="translate(-206.58,128.8186)"
         id="Layer 4">
        <path
           style="fill:#2f1f18"
           inkscape:connector-curvature="0"
           id="path153"
           d="m 256.584,110.151 2.998,-18.7377 6.204,-9.1062 4.656,-8.3923 13.125,-5.7366 13.102,-2.91 21.126,-2.0868 12.242,3.7476 7.53,4.9158 15.205,7.0765 5.497,25.9837 -5.497,33.478 -2.498,-8.744 1.749,-14.241 -7.787,-11.792 -9.23,-10.6497 -10.294,6.0346 -6.035,9.5841 -10.294,-13.8438 -13.134,12.0688 -12.424,-7.0991 7.454,-8.8744 -11.714,2.4848 1.065,13.1337 -9.229,5.68 -5.323,1.716 2.483,11.418 -3.195,11.004 -7.782,-26.112 z" />
      </g>
    </g>
  </g>
</svg>
