<?xml version="1.0" encoding="UTF-8" standalone="no"?>
<svg
   xmlns:dc="http://purl.org/dc/elements/1.1/"
   xmlns:cc="http://creativecommons.org/ns#"
   xmlns:rdf="http://www.w3.org/1999/02/22-rdf-syntax-ns#"
   xmlns:svg="http://www.w3.org/2000/svg"
   xmlns="http://www.w3.org/2000/svg"
   xmlns:sodipodi="http://sodipodi.sourceforge.net/DTD/sodipodi-0.dtd"
   xmlns:inkscape="http://www.inkscape.org/namespaces/inkscape"
   width="500"
   viewBox="0 0 400 736"
   version="1.1"
   height="920"
   id="svg2"
   inkscape:version="0.92.2 (5c3e80d, 2017-08-06)"
   sodipodi:docname="people_alexander.svg"
   inkscape:export-filename="C:\Users\scott\Dropbox\pictures\Sketchbook\Paideia images\people_alexander.png"
   inkscape:export-xdpi="96"
   inkscape:export-ydpi="96">
  <metadata
     id="metadata176">
    <rdf:RDF>
      <cc:Work
         rdf:about="">
        <dc:format>image/svg+xml</dc:format>
        <dc:type
           rdf:resource="http://purl.org/dc/dcmitype/StillImage" />
        <dc:title></dc:title>
      </cc:Work>
    </rdf:RDF>
  </metadata>
  <sodipodi:namedview
     pagecolor="#ffffff"
     bordercolor="#666666"
     borderopacity="1"
     objecttolerance="10"
     gridtolerance="10"
     guidetolerance="10"
     inkscape:pageopacity="0"
     inkscape:pageshadow="2"
     inkscape:window-width="2157"
     inkscape:window-height="1466"
     id="namedview174"
     showgrid="false"
     inkscape:zoom="1.0656599"
     inkscape:cx="98.79985"
     inkscape:cy="428.94744"
     inkscape:window-x="2965"
     inkscape:window-y="160"
     inkscape:window-maximized="0"
     inkscape:current-layer="svg2"
     units="in" />
  <defs
     id="defs4" />
  <g
     id="Layer 3"
     transform="translate(-83.227307,-15.345882)">
    <path
       d="m 221.76,489.849 -9.411,52.705 -8.873,28.252 -1.794,32.61 c 0,0 0.506,15.792 1.883,32 1.376,16.207 7.329,65.735 7.329,65.735 l -5.302,22.914 -4.344,15.332 0.997,9.967 13.937,2.11 30.523,1.869 11.761,-9.939 -17.162,-22.568 -1.493,-19.396 7.047,-76.691 13.984,-47.639 6.934,-22.064 5.68,-36.662 z"
       id="path7"
       inkscape:connector-curvature="0"
       style="fill:#c89347" />
    <path
       d="m 377.514,504.078 3.994,48.199 -4.182,20.313 3.495,63.906 17.415,66.333 56.549,32.901 -14.183,12.481 -77.722,-9.077 1.702,-18.722 -2.837,-23.827 -22.654,-67.837 -8.364,-29.274 2.987,-27.482 -10.537,-43.261 z"
       id="path9"
       inkscape:connector-curvature="0"
       style="fill:#c89347" />
  </g>
  <g
     id="Layer 7"
     transform="translate(-83.227307,-15.345882)">
    <path
       d="m 438.601,211.41 20.398,24.61 10.153,18.526 -7.927,18.527 -58.015,54.472 -17.981,15.983 -20.828,5.604 -0.383,-17.467 -9.768,-14.28 26.909,-18.196 11.795,-1.495 22.79,-42.638 -7.405,-3.214 z"
       id="path12"
       inkscape:connector-curvature="0"
       style="fill:#c89347" />
    <path
       d="m 427.682,236.13 10.773,-22.711 19.509,23.585 10.191,17.179 -6.988,17.179 -51.829,45.423 -21.156,21.13 -10.033,-24.68 23.619,-11.009 25.332,-46.296 17.47,-2.912 -13.976,-11.938 z"
       id="path14"
       inkscape:connector-curvature="0"
       style="fill:#ecbb73" />
    <path
       d="m 417.782,251.271 7.28,-3.203 9.026,2.621 -9.9,-6.988 z"
       id="path16"
       inkscape:connector-curvature="0"
       style="fill:#976f35" />
  </g>
  <g
     id="Layer 6"
     transform="translate(-83.227307,-15.345882)">
    <path
       d="m 228.047,552.083 24.339,4.122 -15.273,8.33 z"
       id="path19"
       inkscape:connector-curvature="0"
       style="fill:#976f35" />
  </g>
  <g
     id="Layer 4"
     transform="translate(-83.227307,-15.345882)">
    <path
       d="m 200.223,151.353 -21.989,14.706 -51.58,43.945 48.953,64.565 25.634,-36.57 4.705,58.67 -10.912,31.022 14.982,34.091 116.048,10.001 57.395,-9.739 7.5,-45.003 -9.47,-61.275 11.054,17.545 47.567,-64.015 -70.028,-59.738 -32.556,-6.212 -65.408,-7.72 z"
       id="path22"
       inkscape:connector-curvature="0"
       style="fill:#825d6f" />
    <path
       d="m 216.743,346.474 -6.983,90.216 1.564,84.128 118.934,13.757 60.982,-7.72 -6.109,-90.287 -6.789,-80.104 z"
       id="path24"
       inkscape:connector-curvature="0"
       style="fill:#825d6f" />
    <path
       d="m 373.021,198.044 11.365,75.77 2.288,29.253 -0.106,14.929 -11.77,29.449 -58.072,10.14 -78.851,-16.233 -6.518,-19.553 4.601,-14.953 -10.735,-16.869 3.019,-41.339 -8.561,-31.129 100.25,19.648 z"
       id="path26"
       inkscape:connector-curvature="0"
       style="fill:#c3a6b4" />
    <path
       d="m 248.606,382.114 -10.747,140.192 75.587,10.911 71.629,-5.852 -7.674,-88.094 -8.682,-57.518 -54.427,10.703 z"
       id="path28"
       inkscape:connector-curvature="0"
       style="fill:#cdafbe" />
    <path
       d="m 369.523,149.558 23.344,15.964 45.848,46.77 -19.636,9.818 -46.231,-56.336 z"
       id="path30"
       inkscape:connector-curvature="0"
       style="fill:#c3a6b4" />
    <path
       d="m 345.018,148.919 -36.846,21.167 -26.655,-3.528 -18.548,-0.319 48.326,19.211 z"
       id="path32"
       inkscape:connector-curvature="0"
       style="fill:#c3a6b4" />
    <path
       d="m 351.766,145.925 -41.016,48.798 -54.468,-17.727 -14.82,-7.928 48.253,46.875 34.126,-2.129 15.272,-31.091 z"
       id="path34"
       inkscape:connector-curvature="0"
       style="fill:#c3a6b4" />
    <path
       d="m 282.683,221.398 -39.57,-16.311 -17.454,-34.364 z"
       id="path36"
       inkscape:connector-curvature="0"
       style="fill:#c3a6b4" />
    <path
       d="m 397.188,205.726 -24.032,-38.004 4.191,23.194 13.413,26.547 z"
       id="path38"
       inkscape:connector-curvature="0"
       style="fill:#c3a6b4" />
    <path
       d="m 354.618,148.052 16.716,1.557 0.403,35.775 -3.774,-23.724 -10.789,29.938 5.012,-31.799 -35.388,68.866 -35.455,-2.182 37.091,-8.182 z"
       id="path40"
       inkscape:connector-curvature="0"
       style="fill:#c3a6b4" />
  </g>
  <g
     id="Layer 5"
     transform="translate(-83.227307,-15.345882)">
    <path
       d="m 231.356,145.255 22.076,-7.797 2.887,-14.975 67.407,17.114 20.939,6.98 -34.264,20.622 -33.629,-0.635 z"
       id="path43"
       inkscape:connector-curvature="0"
       style="fill:#84612f" />
    <path
       d="m 310.623,157.712 -14.379,-4.575 27.482,-13.54 20.939,6.98 -34.264,20.622 -5.987,2.278 z"
       id="path45"
       inkscape:connector-curvature="0"
       style="fill:#c89347" />
  </g>
  <g
     id="Layer 1"
     transform="translate(-83.227307,-15.345882)">
    <path
       d="m 130.095,213.502 -21.47,25.904 -10.6875,19.5 8.3435,19.5 85.875,54.375 h 0.032 l 5.593,5.157 24.907,10.343 8.564,-14.982 -1.713,-12.184 1.773,-9.959 1.532,-5.059 -14.75,-5.628 -15.156,4.937 -49.813,-48.406 8.823,-0.94 z"
       id="path48"
       inkscape:connector-curvature="0"
       style="fill:#c89347" />
    <path
       d="m 252.592,52.5276 c 0,0 6.144,-23.5121 40.344,-22.1331 34.2,1.379 38.753,23.3907 38.753,23.3907 l 3.25,17.3389 0.037,2.5766 -1.496,10.3324 3.098,24.0839 c 0,0 -3.385,17.859 -8.067,24.548 -4.682,6.688 -10.122,12.853 -10.122,12.853 0,0 -8.48,5.555 -21.075,2.261 -13.079,-3.421 -33.608,-10.746 -39.723,-17.052 -6.115,-6.306 -8.4,-31.2474 -8.4,-31.2474 l 6.224,-15.7862 z"
       id="path50"
       inkscape:connector-curvature="0"
       style="fill:#c89347" />
    <path
       d="m 265.281,71.3438 -1.843,15.4687 7.687,-0.4687 12.844,3.4374 7.781,-4.8124 1.969,5.75 -3.219,6.3124 -4.125,4.8128 4.802,1.118 -0.502,6.029 c -0.047,-0.012 4.16,5.546 4.16,5.546 0,0 13.975,-0.608 13.975,-0.608 l 10.862,-9.029 -10.703,2.444 -14.29,-2.246 -1.109,-6.3505 5.469,-2.4851 -2.148,-5.7583 3.366,-10.4804 -9.788,-7.2425 -16.281,-0.2187 z"
       id="path52"
       inkscape:connector-curvature="0"
       style="fill:#976f35" />
    <path
       d="m 310.202,79.0431 15.23,-11.7063 8.315,7.6874 -1.477,9.5695 -8.595,-1.3419 -10.702,0.8918 z"
       id="path54"
       inkscape:connector-curvature="0"
       style="fill:#976f35" />
    <path
       d="m 266.699,78.4417 c 0,0 -0.859,4.7241 -4.008,9.5914 -3.15,4.8672 -3.07,23.3419 -3.07,23.3419 l 5.847,18.072 19.998,8.928 c 0,0 6.849,2.95 8.232,4.399 1.384,1.45 12.204,1.555 15.088,1.375 3.107,-0.193 10.49,-2.731 10.49,-2.731 l 7.364,-5.426 -8.182,11.091 -17.007,3.057 -26.742,-9.303 c 0,0 -15.53,-5.05 -20.54,-12.208 -5.01,-7.158 -5.979,-27.072 -5.979,-27.072 l 0.322,-12.5547 2.006,-36.114 10.865,-12.7482 3.355,8.6727 -1.483,10.8749 z"
       id="path56"
       inkscape:connector-curvature="0"
       style="fill:#976f35" />
    <path
       d="m 278.458,103.898 -5.275,5.16 0.229,-3.784 z"
       id="path58"
       inkscape:connector-curvature="0"
       style="fill:#976f35" />
    <path
       d="m 270.66,74.313 3.44,-1.4907 13.99,0.5734 7.454,3.2108 4.816,-2.9815 -0.23,-5.0455 -7.568,-1.1467 -7.109,-2.8667 -6.307,2.8667 -5.963,1.6054 -6.422,2.8668 z"
       id="path60"
       inkscape:connector-curvature="0"
       style="fill:#2f1f18" />
    <path
       d="m 313.505,77.0185 -3.272,-4.6489 1.475,-3.8986 6.764,-1.3263 6.991,-1.9976 4.772,3.5596 3.677,1.7939 2.184,1.8292 -2.557,2.2378 -2.025,-1.3853 -13.213,0.4262 z"
       id="path62"
       inkscape:connector-curvature="0"
       style="fill:#2f1f18" />
    <path
       d="m 250.607,99.0765 2.094,5.1865 -0.498,2.893 h -1.896 l -1.557,-5.278 z"
       id="path64"
       inkscape:connector-curvature="0"
       style="fill:#7d6138" />
    <path
       d="m 298.811,97.2355 -0.302,4.6365 -2.218,0.302 -0.806,-3.5273 z"
       id="path66"
       inkscape:connector-curvature="0"
       style="fill:#ecbb73" />
    <path
       d="m 311.21,68.001 -0.714,5.2312 -1.189,2.3778 -5.282,0.8832 -2.501,-2.1257 -0.625,-6.127 z"
       id="path68"
       inkscape:connector-curvature="0"
       style="fill:#e4b26a" />
    <path
       d="m 316.202,97.1187 2.992,1.8753 0.044,4.108 -2.723,-0.447 0.625,-2.5 z"
       id="path70"
       inkscape:connector-curvature="0"
       style="fill:#ecbb73" />
    <path
       d="m 294.422,106.68 6.442,0.554 -2.685,0.588 z"
       id="path72"
       inkscape:connector-curvature="0"
       style="fill:#7d6138" />
    <path
       d="m 309.802,107.58 3.469,0.254 2.37,-1.269 z"
       id="path74"
       inkscape:connector-curvature="0"
       style="fill:#7d6138" />
    <path
       d="m 157.568,264.323 47.196,42.999 10.875,-4.818 13.407,9.089 -2.839,9.732 1.014,11.354 -4.055,6.083 -23.926,-9.732 -66.3,-43.056 -0.541,-10.736 4.581,-7.5 z"
       id="path76"
       inkscape:connector-curvature="0"
       style="fill:#ecbb73" />
    <path
       d="m 280.716,115.348 24.533,0.203 17.234,-1.622 -10.949,12.368 -11.962,0.608 z"
       id="path78"
       inkscape:connector-curvature="0"
       style="fill:#7b2725" />
    <path
       d="m 286.54,115.861 18.909,0.087 13.911,-1.533 -1.446,3.436 -11.879,1.865 -18.41,-0.78 z"
       id="path80"
       inkscape:connector-curvature="0"
       style="fill:#dbd9ca" />
    <path
       d="m 280.256,115.601 25.321,0.954 16.951,-2.861 -13.455,0.212 c 0,0 -1.92,0.954 -3.827,1.033 -1.907,0.08 -3.801,-0.715 -3.801,-0.715 z"
       id="path82"
       inkscape:connector-curvature="0"
       style="fill:#976f35" />
    <path
       d="m 281.17,115.614 c 0,0 8.156,9.545 12.623,10.943 4.466,1.398 19.195,0.366 21.76,-0.953 2.564,-1.32 6.782,-11.73 6.782,-11.73 0,0 -5.386,6.096 -8.688,7.283 -3.303,1.186 -12.708,1.137 -15.725,0.635 -3.016,-0.503 -16.752,-6.178 -16.752,-6.178 z"
       id="path84"
       inkscape:connector-curvature="0"
       style="fill:#af813f" />
    <path
       d="m 370.491,154.281 15.483,70.337 -11.579,-25.475 z"
       id="path86"
       inkscape:connector-curvature="0"
       style="fill:#c3a6b4" />
    <path
       d="m 315.912,90.662 4.042,7.8496 2.973,2.9744 -3.474,3.13 -0.019,-5.5906 -4.67,-2.9655 z"
       id="path88"
       inkscape:connector-curvature="0"
       style="fill:#976f35" />
    <path
       d="m 323.607,101.113 5.398,2.297 0.574,6.547 z"
       id="path90"
       inkscape:connector-curvature="0"
       style="fill:#976f35" />
    <path
       d="m 295.469,127.299 19.524,-0.804 -3.216,5.283 -5.168,-1.723 -7.12,1.723 z"
       id="path92"
       inkscape:connector-curvature="0"
       style="fill:#976f35" />
    <path
       d="m 317.436,90.3143 7.009,0.3689 8.669,-2.9511 2.435,2.3344 -3.04,10.0855 -6.98,-1.4189 z"
       id="path94"
       inkscape:connector-curvature="0"
       style="fill:#e4b26a" />
    <path
       d="m 283.243,91.3037 8.837,-0.9491 -4.998,8.9382 -12.112,1.5022 -3.664,-2.3068 -2.849,-9.2276 4.777,-1.3645 z"
       id="path96"
       inkscape:connector-curvature="0"
       style="fill:#e4b26a" />
    <path
       d="m 315.773,33.2676 14.902,18.7631 2.929,13.8132 1.481,5.4085 -10.071,-6.3819 -21.039,4.4504 -17.312,-4.9673 -14.641,2.2182 1.585,-15.2248 -0.236,-17.001 17.371,-4.152 z"
       id="path98"
       inkscape:connector-curvature="0"
       style="fill:#e4b26a" />
    <path
       d="m 310.768,77.5153 3.643,9.2504 -2.212,7.4712 4.185,5.0797 -0.9,5.3054 -4.98,1.164 -5.732,-0.572 -2.196,-6.0603 3.282,-4.5205 -3.431,-5.5854 1.392,-11.5965 z"
       id="path100"
       inkscape:connector-curvature="0"
       style="fill:#e4b26a" />
    <path
       d="m 293.937,135.588 12.734,-2.967 14.263,2.444 -3.453,5.546 -19.777,1.151 z"
       id="path102"
       inkscape:connector-curvature="0"
       style="fill:#e4b26a" />
    <path
       d="m 334.794,104.762 -1.79,19.711 -12.001,15.074 0.586,-4.537 9.366,-20.928 0.293,-9.659 z"
       id="path104"
       inkscape:connector-curvature="0"
       style="fill:#e4b26a" />
    <path
       d="m 273.44,104.715 v 14.343 l 6.439,9.512 -6.647,-0.736 -5.207,-13.46 z"
       id="path106"
       inkscape:connector-curvature="0"
       style="fill:#e4b26a" />
    <path
       d="m 323.052,101.642 4.459,10.657 -2.747,6.963 -5.919,3.458 4.319,-8.837 -2.892,0.052 -10.715,-0.173 2.594,-1.807 5.618,-3.338 z"
       id="path108"
       inkscape:connector-curvature="0"
       style="fill:#e4b26a" />
    <path
       d="m 130.661,214.255 31.247,41.663 -8.185,0.078 5.403,7.204 -10.356,-2.702 -1.801,-18.009 z"
       id="path110"
       inkscape:connector-curvature="0"
       style="fill:#976f35" />
    <path
       d="m 223.514,555.548 11.012,10.553 21.565,-6.423 v 16.977 l -13.306,50.473 -2.475,74.286 -19.613,-6.537 -6.372,-62.498 -1.718,-35.651 z"
       id="path112"
       inkscape:connector-curvature="0"
       style="fill:#ecbb73" />
    <path
       d="m 229.329,539.169 23.844,1.3 -2.601,11.272 -22.977,-3.035 z"
       id="path114"
       inkscape:connector-curvature="0"
       style="fill:#ecbb73" />
    <path
       d="m 362.038,577.075 -20.727,-2.727 -2.182,28.363 7.091,27.273 7.636,16.364 15.273,-14.182 -1.636,-28.364 z"
       id="path116"
       inkscape:connector-curvature="0"
       style="fill:#ecbb73" />
  </g>
  <g
     id="Layer 8"
     transform="translate(-83.227307,-15.345882)">
    <path
       d="m 249.188,71.8989 -4.809,3.6023 -0.785,17.0058 3.521,9.88 4.278,1.033 -1.297,-10.8965 2.655,-12.0514 z"
       id="path119"
       inkscape:connector-curvature="0"
       style="fill:#976f35" />
    <path
       d="m 250.461,82.6091 -2.881,-5.4413 -2.24,12.323 1.92,-4.161 z"
       id="path121"
       inkscape:connector-curvature="0"
       style="fill:#7d6138" />
    <path
       d="m 246.081,91.4132 1.957,5.2191 1.755,-2.4721 -1.195,-2.4697 z"
       id="path123"
       inkscape:connector-curvature="0"
       style="fill:#7d6138" />
    <path
       d="m 250.313,82.627 -0.656,6.2536 -1.35,1.7999 0.718,-4.3977 -1.526,-1.7621 0.053,4.3922 -0.724,0.9962 0.04,-4.5205 1.503,-3.1932 z"
       id="path125"
       inkscape:connector-curvature="0"
       style="fill:#7d6138" />
    <path
       d="M 346.78,84.0865"
       id="path127"
       inkscape:connector-curvature="0"
       style="fill:#ecbb73" />
  </g>
  <g
     id="eyes"
     transform="translate(-83.227307,-15.345882)">
    <path
       d="m 315.355,81.9243 7.094,-2.8806 8.001,1.7444 -1.366,3.1627 -6.313,-0.1533 -5.483,0.6629 z"
       id="path130"
       inkscape:connector-curvature="0"
       style="fill:#fffef7" />
    <path
       d="m 274.965,81.3584 10.545,-1.9452 8.572,2.2486 -3.919,3.1629 -5.73,-0.3841 -6.51,0.2693 z"
       id="path132"
       inkscape:connector-curvature="0"
       style="fill:#fffef7" />
    <path
       d="m 274.965,81.3584 10.545,-1.9452 8.572,2.2486 -1.864,1.465 -8.536,-1.0071 -7.482,0.6714 z"
       id="path134"
       inkscape:connector-curvature="0"
       style="fill:#cad2dd" />
    <path
       d="m 279.744,80.3471 5.821,-1.0649 3.276,1.0649 0.505,2.2548 -0.463,2.1432 -3.852,-0.1693 -5.399,0.0568 -0.471,-2.2639 z"
       id="path136"
       inkscape:connector-curvature="0"
       style="fill:#a85f5d" />
    <path
       d="m 284.151,80.1256 c -1.518,0 -2.75,1.2323 -2.75,2.75 0,0.6833 0.306,1.2693 0.719,1.75 l 4.031,0.0938 c 0.457,-0.4907 0.75,-1.1208 0.75,-1.8438 0,-1.5177 -1.232,-2.75 -2.75,-2.75 z"
       id="path138"
       inkscape:connector-curvature="0"
       style="fill:#424242" />
    <path
       d="m 279.744,80.3471 5.821,-1.0649 3.276,1.0649 0.505,2.2548 -10.185,-0.2332 z"
       id="path140"
       inkscape:connector-curvature="0"
       style="fill:#7b2725" />
    <path
       d="m 281.449,82.4246 c 0.493,-1.6564 1.219,-2.343 2.737,-2.343 1.517,0 2.678,1.1572 2.716,2.4904 0.002,0.0657 -5.48,-0.0547 -5.453,-0.1474 z"
       id="path142"
       inkscape:connector-curvature="0"
       style="fill:#000000" />
    <path
       d="m 315.355,81.9243 7.094,-2.8806 8.135,1.7646 -1.482,1.2106 -6.141,0.3443 -6.031,1.443 z"
       id="path144"
       inkscape:connector-curvature="0"
       style="fill:#cad2dd" />
    <path
       d="m 318.077,82.7029 0.498,-1.991 3.852,-1.6471 4.419,0.7727 1.578,2.4664 -0.785,1.6882 h -4.666 l -4.418,0.2891 z"
       id="path146"
       inkscape:connector-curvature="0"
       style="fill:#7b2725" />
    <path
       d="m 318.077,82.7029 10.347,-0.399 -0.991,1.7295 -4.519,-0.2179 -4.141,0.4946 z"
       id="path148"
       inkscape:connector-curvature="0"
       style="fill:#a84f4c" />
    <path
       d="m 322.963,79.6256 c -1.526,0 -2.781,1.2548 -2.781,2.7813 0,0.6619 0.3,1.2116 0.688,1.6875 l 2.219,-0.0828 1.968,-0.0735 c 0.33,-0.4552 0.656,-0.926 0.656,-1.5312 0,-1.5265 -1.223,-2.7813 -2.75,-2.7813 z"
       id="path150"
       inkscape:connector-curvature="0"
       style="fill:#424242" />
    <path
       d="m 320.176,82.5073 c -0.055,-1.5255 1.137,-2.8069 2.662,-2.862 1.526,-0.0552 2.807,1.1368 2.862,2.6623 z"
       id="path152"
       inkscape:connector-curvature="0"
       style="fill:#000000" />
    <path
       d="m 278.618,77.7899 5.375,-0.5484 5.156,1.6454 -6.911,-2.9617 z"
       id="path154"
       inkscape:connector-curvature="0"
       style="fill:#7d6138" />
    <path
       d="m 285.643,83.7412 c 0,-0.5025 0.408,-0.9098 0.91,-0.9098 0.503,0 0.91,0.4073 0.91,0.9098 0,0.5025 -0.407,0.9098 -0.91,0.9098 -0.502,0 -0.91,-0.4073 -0.91,-0.9098 z"
       id="path156"
       inkscape:connector-curvature="0"
       style="opacity:0.46774202;fill:#ffffff" />
    <path
       d="m 324.425,83.3044 c 0,-0.5025 0.407,-0.9098 0.91,-0.9098 0.502,0 0.91,0.4073 0.91,0.9098 0,0.5024 -0.408,0.9098 -0.91,0.9098 -0.503,0 -0.91,-0.4074 -0.91,-0.9098 z"
       id="path158"
       inkscape:connector-curvature="0"
       style="opacity:0.46774202;fill:#ffffff" />
    <path
       d="m 286.54,115.861 18.909,0.087 13.911,-1.533 -0.721,1.491 -13.248,1.749 -18.411,-0.78 z"
       id="path160"
       inkscape:connector-curvature="0"
       style="fill:#a4b2b1" />
    <path
       d="m 269.213,66.424 10.499,-4.7323 27.144,3.1172 14.072,-4.1776 5.497,-1.5391 -19.349,2.6385 -30.174,-1.37 -9.316,-2.514 z"
       id="path162"
       inkscape:connector-curvature="0"
       style="fill:#c89347" />
  </g>
  <g
     id="hairs"
     transform="translate(-83.227307,-15.345882)">
    <path
       d="m 250.444,49.5743 -4.685,9.3949 -5.664,9.8351 3.617,10.5061 5.484,7.9484 5.194,-0.5424 4.306,-17.9121 z"
       id="path165"
       inkscape:connector-curvature="0"
       style="fill:#2f1f18" />
  </g>
</svg>
