<?xml version="1.0" encoding="UTF-8" standalone="no"?>
<svg
   xmlns:dc="http://purl.org/dc/elements/1.1/"
   xmlns:cc="http://creativecommons.org/ns#"
   xmlns:rdf="http://www.w3.org/1999/02/22-rdf-syntax-ns#"
   xmlns:svg="http://www.w3.org/2000/svg"
   xmlns="http://www.w3.org/2000/svg"
   xmlns:sodipodi="http://sodipodi.sourceforge.net/DTD/sodipodi-0.dtd"
   xmlns:inkscape="http://www.inkscape.org/namespaces/inkscape"
   width="500"
   viewBox="0 0 400 736"
   version="1.1"
   height="920"
   id="svg2"
   inkscape:version="0.92.2 (5c3e80d, 2017-08-06)"
   sodipodi:docname="people_georgios.svg"
   inkscape:export-filename="C:\Users\scott\Dropbox\pictures\Sketchbook\Paideia images\people_georgios.png"
   inkscape:export-xdpi="96"
   inkscape:export-ydpi="96">
  <metadata
     id="metadata157">
    <rdf:RDF>
      <cc:Work
         rdf:about="">
        <dc:format>image/svg+xml</dc:format>
        <dc:type
           rdf:resource="http://purl.org/dc/dcmitype/StillImage" />
        <dc:title></dc:title>
      </cc:Work>
    </rdf:RDF>
  </metadata>
  <sodipodi:namedview
     pagecolor="#ffffff"
     bordercolor="#666666"
     borderopacity="1"
     objecttolerance="10"
     gridtolerance="10"
     guidetolerance="10"
     inkscape:pageopacity="0"
     inkscape:pageshadow="2"
     inkscape:window-width="1706"
     inkscape:window-height="1331"
     id="namedview155"
     showgrid="false"
     fit-margin-top="240"
     fit-margin-left="10"
     fit-margin-right="10"
     fit-margin-bottom="10"
     inkscape:zoom="0.87777778"
     inkscape:cx="-22.827632"
     inkscape:cy="565.83581"
     inkscape:window-x="2782"
     inkscape:window-y="169"
     inkscape:window-maximized="0"
     inkscape:current-layer="mouth" />
  <defs
     id="defs4" />
  <g
     id="legs"
     transform="translate(-120.90911,39.180507)">
    <path
       d="m 267.294,490.269 v 26.182 l -6.461,34.684 12.583,107.711 -3.386,9.407 -7.045,11.496 -13.073,6.544 -4.65,6.819 8.072,2.774 17.243,0.345 h 16.899 l 9.311,-2.069 -1.379,-14.83 -2.236,-17.928 -0.523,-70.679 4.568,-27.689 -1.36,-43.864 1.36,-30.943 z"
       id="path10"
       inkscape:connector-curvature="0"
       style="fill:#ffd79d" />
    <path
       d="m 359.229,491.06 v 26.183 l 6.461,34.683 -12.583,107.712 3.386,9.407 7.046,11.496 13.072,6.543 4.65,6.82 -8.071,2.774 -17.244,0.344 h -16.898 l -9.312,-2.069 1.38,-14.829 2.235,-17.929 0.524,-70.678 -4.569,-27.69 1.36,-43.864 -1.36,-30.943 z"
       id="path12"
       inkscape:connector-curvature="0"
       style="fill:#ffd79d" />
    <path
       d="m 352.594,517.108 -13.452,1.261 7.417,6.775 5.433,-1.207 z"
       id="path14"
       inkscape:connector-curvature="0"
       style="fill:#ecbb73" />
    <path
       d="m 359.254,498.764 -29.495,0.857 1.173,15.466 5.162,-1.534 3.348,-4.883 11.022,0.279 4.717,2.649 3.654,-0.975 z"
       id="path16"
       inkscape:connector-curvature="0"
       style="fill:#ecbb73" />
  </g>
  <g
     id="Layer 3"
     transform="translate(-120.90911,39.180507)">
    <path
       d="m 257.288,387.248 0.443,109.695 115.445,7.078 -4.423,-119.87 z"
       id="path19"
       inkscape:connector-curvature="0"
       style="fill:#a84f4c" />
    <path
       d="m 257.288,387.248 -0.19,13.8 59.514,13.68 52.659,-8.257 -0.518,-22.32 z"
       id="path21"
       inkscape:connector-curvature="0"
       style="fill:#803c3a" />
    <path
       d="m 273.929,516.316 13.453,1.261 -7.418,6.775 -5.433,-1.207 z"
       id="path23"
       inkscape:connector-curvature="0"
       style="fill:#ecbb73" />
    <path
       d="m 267.27,497.972 29.494,0.857 -1.172,15.467 -5.162,-1.535 -3.349,-4.883 -11.022,0.279 -4.717,2.65 -3.654,-0.976 z"
       id="path25"
       inkscape:connector-curvature="0"
       style="fill:#ecbb73" />
  </g>
  <g
     id="necks"
     transform="translate(-120.90911,39.180507)">
    <path
       d="m 251.707,224.708 40.203,-19.422 0.062,-18.066 36.099,-4.86 0.694,21.521 35.406,13.884 -1.389,28.463 -106.215,0.695 z"
       id="path28"
       inkscape:connector-curvature="0"
       style="fill:#ffd79d" />
    <path
       d="m 290.425,183.048 37.204,-2.485 1.304,25.004 -23.548,24.953 -42.211,-10.855 28.377,-14.324 z"
       id="path30"
       inkscape:connector-curvature="0"
       style="fill:#ecbb73" />
    <path
       d="m 247.376,228.921 -11.445,13.659 -12.201,72.531 -8.131,27.289 -1.019,80.47 v 0 l 4.075,29.54 11.798,13.896 15.11,-0.646 -1.42,-4.649 -6.562,-2.148 -7.1,-19.886 7.193,7.739 4.104,-0.93 -3.067,-6.943 -2.184,-12.872 -5.341,-12.571 8.812,-73.208 13.558,-60.33 14.267,45.39 z"
       id="path32"
       inkscape:connector-curvature="0"
       style="fill:#ffd79d" />
    <path
       d="m 290.898,184.799 36.746,1.042 1.003,11.369 -22.738,8.026 -14.486,-3.456 z"
       id="path34"
       inkscape:connector-curvature="0"
       style="fill:#d8a865;fill-opacity:1" />
    <path
       d="M 270.129,185.507"
       id="path36"
       inkscape:connector-curvature="0"
       style="fill:#e4b26a" />
  </g>
  <g
     id="Layer 7"
     transform="translate(-120.90911,39.180507)">
    <path
       d="m 372.744,226.166 11.445,13.66 12.201,72.531 8.131,27.289 1.019,80.47 v 0 l -4.074,29.54 -11.799,13.895 -15.11,-0.645 1.421,-4.65 6.562,-2.147 7.099,-19.886 -7.193,7.739 -4.104,-0.931 3.067,-6.942 2.185,-12.873 5.34,-12.57 -8.812,-73.209 -13.557,-60.329 -14.268,45.39 z"
       id="path39"
       inkscape:connector-curvature="0"
       style="fill:#ffd79d" />
  </g>
  <g
     id="Layer 2"
     transform="translate(-120.90911,39.180507)">
    <path
       d="m 245.303,228.301 14.405,-9.845 48.581,10.859 49.152,-14.86 14.86,8.002 -3.99,74.557 4.423,48.656 7.519,34.058 -3.633,16.754 -60.579,1.817 -64.502,-5.875 -8.142,-18.319 10.177,-30.533 2.036,-50.888 z"
       id="path42"
       inkscape:connector-curvature="0"
       style="fill:#a84f4c" />
    <path
       d="m 304.979,265.681 -4.168,10.838 6.878,8.753 5.192,-1.556 6.951,-10.686 z"
       id="path44"
       inkscape:connector-curvature="0"
       style="fill:#803c3a" />
    <path
       d="m 306.825,229.684 -36.66,11.426 -18.569,-16.187 9.999,-9.046 z"
       id="path46"
       inkscape:connector-curvature="0"
       style="fill:#803c3a" />
    <path
       d="m 313.286,255.399 7.706,17.007 -10.363,10.363 -6.909,-6.643 1.063,-11.958 z"
       id="path48"
       inkscape:connector-curvature="0"
       style="fill:#976f35" />
    <path
       d="m 288.189,207.033 -6.259,16.212 c 0,0 6.066,10.553 13.972,18.591 7.905,8.039 17.65,13.563 17.65,13.563 0,0 7.876,-8.745 14.187,-17.913 6.311,-9.168 11.057,-18.758 11.057,-18.758 l -7.102,-14.068"
       id="path50"
       inkscape:connector-curvature="0"
       style="fill:none;stroke:#c89347;stroke-width:1;stroke-linecap:round;stroke-linejoin:round" />
  </g>
  <g
     id="Layer 1"
     transform="translate(-120.90911,39.180507)">
    <path
       d="m 261.989,126.456 c 0,-38.532 17.996,-53.8323 48.093,-53.8323 30.098,0 43.971,18.7526 43.971,57.2853 0,21 -5.677,40.528 -5.677,40.528 0,0 -26.11,21.07 -39.805,21.07 -11.437,0 -38.562,-19.494 -38.562,-19.494 0,0 -8.02,-21.667 -8.02,-45.557 z"
       id="path53"
       inkscape:connector-curvature="0"
       style="fill:#ffd79d" />
    <path
       d="m 299.611,158.115 1.724,-8.597 6.774,1.954 7.035,-2.345 -4.044,7.849 z"
       id="path55"
       inkscape:connector-curvature="0"
       style="fill:#bb9051;fill-opacity:1" />
    <path
       d="m 302.36165,151.24056 c 0,-0.229 0.824,-0.415 1.842,-0.415 1.017,0 1.841,0.186 1.841,0.415 0,0.228 -0.824,0.414 -1.841,0.414 -1.018,0 -1.842,-0.186 -1.842,-0.414 z"
       id="path57"
       inkscape:connector-curvature="0"
       style="fill:#424242" />
    <path
       d="m 273.121,133.09 29.775,-1.127 -2.219,-10.327 -15.467,-3.314 -12.465,8.381 z"
       id="path59"
       inkscape:connector-curvature="0"
       style="fill:#d4ac72;fill-opacity:1" />
    <path
       d="m 341.993,133.2 -29.775,-1.127 2.176,-9.783 15.309,-2.811 12.666,7.334 z"
       id="path61"
       inkscape:connector-curvature="0"
       style="fill:#d4ac72;fill-opacity:1" />
    <path
       d="m 285.971,157.31 -3.849,3.462 -0.982,4.963 -2.022,-6.515 z"
       id="path63"
       inkscape:connector-curvature="0"
       style="fill:#ecbb73" />
    <path
       d="m 261.331,120.395 -8.994,2.748 0.499,14.491 8.245,12.242 3.498,-1 z"
       id="path65"
       inkscape:connector-curvature="0"
       style="fill:#ffd79d" />
    <path
       d="m 355.521,119.645 8.994,2.748 -0.5,14.491 -8.245,12.242 -3.497,-0.999 z"
       id="path67"
       inkscape:connector-curvature="0"
       style="fill:#ffd79d" />
    <path
       d="m 328.931,154.65 3.848,3.462 0.982,4.964 2.022,-6.516 z"
       id="path69"
       inkscape:connector-curvature="0"
       style="fill:#ecbb73" />
    <path
       d="m 259.79,126.719 -5.111,-0.692 1.314,9.704 3.133,7.481 -1.314,-7.986 -1.314,-6.47 2.527,1.517 0.101,3.639 1.517,-2.527 z"
       id="path71"
       inkscape:connector-curvature="0"
       style="fill:#d09d51;fill-opacity:1" />
    <path
       d="m 356.79,126.482 5.111,-0.692 -1.314,9.705 -3.134,7.48 1.315,-7.986 1.314,-6.469 -2.527,1.516 -0.102,3.639 -1.516,-2.527 z"
       id="path73"
       inkscape:connector-curvature="0"
       style="fill:#d09d51;fill-opacity:1" />
    <path
       d="m 272.564,127.078 11.768,-8.084 13.924,2.015 -5.203,-3.839 -12.842,0.577 z"
       id="path75"
       inkscape:connector-curvature="0"
       style="fill:#2f1f18" />
    <path
       d="m 342.553,127.222 -11.769,-8.084 -13.923,2.016 5.202,-3.839 12.842,0.577 z"
       id="path77"
       inkscape:connector-curvature="0"
       style="fill:#2f1f18" />
    <path
       d="m 313.445,257.653 7.413,13.686 -7.555,4.704 -6.273,-2.708 0.285,-8.411 z"
       id="path79"
       inkscape:connector-curvature="0"
       style="fill:#d2b68e" />
    <path
       d="m 302.575,174.415 11.841,-0.114 -2.277,3.53 -7.059,0.114 z"
       id="path81"
       inkscape:connector-curvature="0"
       style="fill:#cd9a4f;fill-opacity:1" />
    <path
       style="fill:#424242"
       inkscape:connector-curvature="0"
       id="path4581"
       d="m 310.4173,151.07944 c 0,-0.229 0.824,-0.415 1.842,-0.415 1.017,0 1.841,0.186 1.841,0.415 0,0.228 -0.824,0.414 -1.841,0.414 -1.018,0 -1.842,-0.186 -1.842,-0.414 z" />
  </g>
  <g
     id="mouth"
     transform="translate(-120.90911,39.180507)">
    <path
       d="m 289.854,161.308 35.277,-1.47 -5.60547,8.8229 h -22.719 z"
       id="path84"
       inkscape:connector-curvature="0"
       style="fill:#7b2725"
       sodipodi:nodetypes="ccccc" />
    <path
       d="m 296.32753,168.1189 22.861,-0.84 5.50147,-7.1469 -3.39223,7.15944 -2.25224,3.41546 -10.983,0.97 -10.601,-0.172 -3.21991,-3.78246 -3.79962,-5.67944 z"
       id="path86"
       inkscape:connector-curvature="0"
       style="fill:#e48f6a"
       sodipodi:nodetypes="cccccccccc" />
    <path
       d="m 289.854,161.308 35.277,-1.47 -2.029,4.658 -31.188,0.364 z"
       id="path88"
       inkscape:connector-curvature="0"
       style="fill:#fffaf2" />
    <path
       d="m 290.118,161.033 34.704,-1.075 -2.618,-0.706 -14.719,-0.113 -15.007,1.016 z"
       id="path90"
       inkscape:connector-curvature="0"
       style="fill:#e48f6a" />
    <path
       d="m 289.854,161.308 2.628,0.004 0.91,3.236 -1.478,0.312 z"
       id="path96"
       inkscape:connector-curvature="0"
       style="fill:#c8c5b8" />
    <path
       d="m 325.072,160.066 -4.079,0.337 -0.202,3.74 2.398,0.239 z"
       id="path98"
       inkscape:connector-curvature="0"
       style="fill:#c8c5b8" />
    <path
       d="m 245.199,233.034 -1.483,1.609 2.792,36.137 -7.097,45.609 -4.921,5.5 -2.052,19.44 -1.421,65.362 1.955,-10.956 7.886,-58.217 13.024,-57.597 z"
       id="path100"
       inkscape:connector-curvature="0"
       style="fill:#ecbb73" />
    <path
       d="m 371.506,243.232 0.594,11.88 2.655,13.486 7.097,45.61 4.921,5.499 2.052,19.44 1.421,65.362 -1.955,-10.956 -7.886,-58.217 -11.275,-48.345 z"
       id="path106"
       inkscape:connector-curvature="0"
       style="fill:#ecbb73" />
  </g>
  <g
     id="Layer 5"
     transform="translate(-120.90911,39.180507)">
    <path
       d="m 276.013,131.745 3.826,-4.385 13.714,-1.586 2.985,4.945 -3.452,3.638 -11.848,0.747 z"
       id="path109"
       inkscape:connector-curvature="0"
       style="fill:#ffffff" />
    <path
       d="m 280.67,130.717 c 0,-3.123 2.531,-5.654 5.654,-5.654 3.122,0 5.654,2.531 5.654,5.654 0,3.122 -2.532,5.654 -5.654,5.654 -3.123,0 -5.654,-2.532 -5.654,-5.654 z"
       id="path111"
       inkscape:connector-curvature="0"
       style="fill:#a1b4b4" />
    <path
       d="m 276.013,131.745 2.529,-5.548 15.011,-0.423 2.985,4.945 -1.272,1.208 c 0,0 -4.938,-0.231 -9.231,0 -4.292,0.231 -7.939,0.923 -7.939,0.923 z"
       id="path113"
       inkscape:connector-curvature="0"
       style="fill:#cad2dd" />
    <path
       d="m 286.317,125.068 c -3.122,0 -5.635,2.513 -5.635,5.635 0,0.581 0.093,1.165 0.256,1.692 0,0 2.114,-0.319 4.85,-0.466 2.737,-0.147 6.096,-0.122 6.096,-0.122 0.084,-0.388 0.112,-0.69 0.112,-1.104 0,-3.122 -2.556,-5.635 -5.679,-5.635 z"
       id="path115"
       inkscape:connector-curvature="0"
       style="fill:#708e8e" />
    <path
       d="m 282.733,130.637 c 0,-1.926 1.562,-3.488 3.488,-3.488 1.926,0 3.488,1.562 3.488,3.488 0,1.926 -1.562,3.487 -3.488,3.487 -1.926,0 -3.488,-1.561 -3.488,-3.487 z"
       id="path117"
       inkscape:connector-curvature="0"
       style="fill:#555555" />
    <path
       d="m 286.231,127.133 c -1.926,0 -3.484,1.558 -3.484,3.484 0,0.573 0.061,1.051 0.305,1.528 0,0 1.774,-0.188 3.382,-0.264 1.608,-0.076 3.052,-0.04 3.052,-0.04 0.157,-0.397 0.23,-0.77 0.23,-1.224 0,-1.926 -1.559,-3.484 -3.485,-3.484 z"
       id="path119"
       inkscape:connector-curvature="0"
       style="fill:#000000" />
    <path
       d="m 280.263,135.287 15.28,-1.052 -1.377,4.353 -13.602,1.1 z"
       id="path121"
       inkscape:connector-curvature="0"
       style="fill:#ffd79d" />
    <path
       d="m 287.779,133.346 c 0,-0.608 0.493,-1.1 1.1,-1.1 0.608,0 1.1,0.492 1.1,1.1 0,0.607 -0.492,1.1 -1.1,1.1 -0.607,0 -1.1,-0.493 -1.1,-1.1 z"
       id="path123"
       inkscape:connector-curvature="0"
       style="opacity:0.459677;fill:#ffffff" />
    <path
       d="m 292.661,123.073 -11.373,-0.666 -2.746,3.883 15.102,-0.447 z"
       id="path125"
       inkscape:connector-curvature="0"
       style="fill:#ecbb73" />
    <path
       d="m 264.336,147.766 0.223,4.698 5.171,19.191 14.901,9.818 15.443,8.196 -26.683,-20.229 -1.944,-11.653 z"
       id="path127"
       inkscape:connector-curvature="0"
       style="fill:#dda95d;fill-opacity:1" />
    <path
       d="m 300.496,148.98 1.998,-4.605 -3.649,1.651 -1.564,3.475 3.475,2.173 z"
       id="path129"
       inkscape:connector-curvature="0"
       style="fill:#d8a459;fill-opacity:1" />
    <path
       d="m 302.755,132.036 1.129,6.343 -3.388,-2.867 -2.781,-3.65 z"
       id="path131"
       inkscape:connector-curvature="0"
       style="fill:#ecbb73" />
  </g>
  <g
     id="Layer 6"
     transform="translate(-120.90911,39.180507)">
    <path
       d="m 338.445,131.883 -3.825,-4.384 -13.714,-1.586 -2.986,4.944 3.452,3.639 11.849,0.746 z"
       id="path134"
       inkscape:connector-curvature="0"
       style="fill:#ffffff" />
    <path
       d="m 333.789,130.855 c 0,-3.123 -2.532,-5.654 -5.654,-5.654 -3.123,0 -5.654,2.531 -5.654,5.654 0,3.123 2.531,5.654 5.654,5.654 3.122,0 5.654,-2.531 5.654,-5.654 z"
       id="path136"
       inkscape:connector-curvature="0"
       style="fill:#a1b4b4" />
    <path
       d="m 338.445,131.883 -2.761,-5.984 -14.778,0.014 -2.986,4.944 1.272,1.208 c 0,0 4.939,-0.231 9.231,0 4.293,0.231 7.939,0.923 7.939,0.923 z"
       id="path138"
       inkscape:connector-curvature="0"
       style="fill:#cad2dd" />
    <path
       d="m 328.141,125.206 c 3.123,0 5.636,2.513 5.636,5.636 0,0.58 -0.094,1.165 -0.256,1.692 0,0 -2.114,-0.32 -4.851,-0.467 -2.736,-0.147 -6.095,-0.121 -6.095,-0.121 -0.085,-0.389 -0.113,-0.69 -0.113,-1.104 0,-3.123 2.556,-5.636 5.679,-5.636 z"
       id="path140"
       inkscape:connector-curvature="0"
       style="fill:#708e8e" />
    <path
       d="m 331.725,130.775 c 0,-1.926 -1.561,-3.487 -3.488,-3.487 -1.926,0 -3.487,1.561 -3.487,3.487 0,1.926 1.561,3.488 3.487,3.488 1.927,0 3.488,-1.562 3.488,-3.488 z"
       id="path142"
       inkscape:connector-curvature="0"
       style="fill:#555555" />
    <path
       d="m 328.227,127.271 c 1.926,0 3.485,1.559 3.485,3.485 0,0.572 -0.061,1.051 -0.306,1.528 0,0 -1.773,-0.189 -3.382,-0.265 -1.608,-0.076 -3.051,-0.039 -3.051,-0.039 -0.158,-0.398 -0.23,-0.77 -0.23,-1.224 0,-1.926 1.558,-3.485 3.484,-3.485 z"
       id="path144"
       inkscape:connector-curvature="0"
       style="fill:#000000" />
    <path
       d="m 334.195,135.426 -15.28,-1.053 1.378,4.353 13.602,1.101 z"
       id="path146"
       inkscape:connector-curvature="0"
       style="fill:#ffd79d" />
    <path
       d="m 326.679,133.484 c 0,-0.607 -0.492,-1.1 -1.1,-1.1 -0.607,0 -1.1,0.493 -1.1,1.1 0,0.608 0.493,1.1 1.1,1.1 0.608,0 1.1,-0.492 1.1,-1.1 z"
       id="path148"
       inkscape:connector-curvature="0"
       style="opacity:0.459677;fill:#ffffff" />
    <path
       d="m 322.052,123.036 h 12.779 l 1.341,3.217 -15.103,-0.447 z"
       id="path150"
       inkscape:connector-curvature="0"
       style="fill:#ecbb73" />
  </g>
  <g
     id="Layer 4"
     transform="translate(-120.90911,39.180507)">
    <path
       d="m 256.584,110.151 2.998,-18.7377 6.204,-9.1062 4.656,-8.3923 13.125,-5.7366 13.102,-2.91 21.126,-2.0868 12.242,3.7476 7.53,4.9158 15.205,7.0765 5.497,25.9837 -5.497,33.478 -2.498,-8.744 1.749,-14.241 -7.787,-11.792 -9.23,-10.6497 -10.294,6.0346 -6.035,9.5841 -10.294,-13.8438 -13.134,12.0688 -12.424,-7.0991 7.454,-8.8744 -11.714,2.4848 1.065,13.1337 -9.229,5.68 -5.323,1.716 2.483,11.418 -3.195,11.004 z"
       id="path153"
       inkscape:connector-curvature="0"
       style="fill:#2f1f18" />
  </g>
</svg>
