<?xml version="1.0" encoding="UTF-8"?>
<!DOCTYPE svg PUBLIC "-//W3C//DTD SVG 1.1//EN"
  "http://www.w3.org/Graphics/SVG/1.1/DTD/svg11.dtd">
<svg xmlns:xlink="http://www.w3.org/1999/xlink" width="612pt" viewBox="0,0,612,792" xmlns="http://www.w3.org/2000/svg" version="1.1" height="792pt">
<defs/>
<g id="back cloak">
<path fill="#c89347" d="M232.668 150.623 L257.063 141.314 L257.655 131.753 L253.406 106.259 L305.359 109.736 L302.462 129.628 L303.225 141.039 L335.838 152.765 L291.142 214.689 L219.448 180.114 L232.668 150.623 Z" opacity="1"/>
<path fill="#ecbb73" d="M252.56 161.448 L271.714 159.895 L284.656 161.103 L292.766 159.377 L316.406 159.55 L289.688 191.6 L237.375 174.217 L252.56 161.448 Z" opacity="1"/>
<path fill="#c89347" d="M298.633 141.431 L302.774 146.263 L311.23 150.577 L298.633 151.957 L298.633 141.431 Z" opacity="1"/>
</g>
<g id="legs">
<path fill="#ecbb73" d="M280.529 473.619 L225.849 466.379 L229.104 505.898 L229.706 529.246 L236.98 539.103 L238.662 561.82 L247.917 630.814 L244.552 685.503 L231.09 702.331 L191.545 726.731 L200.8 734.303 L275.494 724.206 L270.398 699.997 L275.743 633.872 L279.03 609.766 L282.318 585.113 L272.521 522.039 L277.155 499.714 L280.529 473.619 Z" opacity="1"/>
<path fill="#ecbb73" d="M351.131 495.896 L350.976 516.24 L356.814 538.56 L359.017 577.991 L353.833 623.989 L349.758 682.845 L352.749 691.207 L349.247 697.394 L354.36 712.238 L358.648 720.814 L358.978 727.412 L333.896 729.482 L311.715 727.709 L311.33 718.346 L317.141 715.823 L325.382 706.567 L329.412 696.357 L327.532 690.266 L329.282 683.526 L329.211 648.611 L324.502 596.07 L319.024 566.486 L315.265 522.421 L310.029 508.407 L306.606 478.968 L352.818 466.987 L351.131 495.896 Z" opacity="1"/>
<path fill="#c89347" d="M326.033 527.33 L340.311 526.811 L338.947 532.044 L329.611 532.464 L326.033 527.33 Z" opacity="1"/>
<path fill="#c89347" d="M251.64 698.592 L259.745 701.672 L265.419 698.754 L258.611 708.967 L251.64 698.592 Z" opacity="1"/>
<path fill="#c89347" d="M229.958 528.072 L236.769 538.109 L239.996 566.072 L248.6 630.601 L245.373 685.091 L231.552 701.723 L225.579 705.825 L191.718 726.629 L203.274 726.762 L227.423 710.97 L250.833 698.163 L251.826 690.827 L252.901 658.563 L255.052 621.638 L252.956 584.561 L245.624 547.869 L246.264 538.962 L246.92 536.942 L239.18 531.636 L240.667 527.422 L236.702 524.696 L236.153 519.941 L236.873 500.588 L275.085 502.809 L279.74 478.06 L226.732 474.298 L229.241 499.392 L229.958 528.072 Z" opacity="1"/>
<path fill="#c89347" d="M262.862 720.843 L249.497 714.161 L234.869 717.051 L221.505 725.358 L200.375 726.622 L191.484 726.086 L197.258 730.416 L222.949 730.957 L237.759 729.331 L265.39 727.887 L262.862 720.843 Z" opacity="1"/>
<path fill="#c89347" d="M307.303 487.542 L351.383 487.542 L350.693 498.521 L309.507 500.031 L307.303 487.542 Z" opacity="1"/>
<path fill="#c89347" d="M322.477 511.696 L325.763 518.384 L322.128 523.057 L323.943 528.358 L322.239 537.091 L327.564 559.882 L334.461 614.756 L333.731 656.376 L330.497 683.191 L328.551 692.369 L330.445 666.599 L326.407 603.88 L319.32 570.061 L316.158 525.653 L310.446 510.596 L309.758 502.557 L331.051 501.52 L322.477 511.696 Z" opacity="1"/>
<path stroke-linejoin="round" stroke-width="1.5" stroke="#976f35" d="M328.858 703.424 C334.254 699.105 341.778 698.655 346.201 703.815" fill="none" stroke-linecap="round" opacity="1"/>
<path stroke-linejoin="round" stroke-width="1.5" stroke="#976f35" d="M327.164 706.027 C332.623 705.7 340.748 701.629 345.683 705.667" fill="none" stroke-linecap="round" opacity="1"/>
<path stroke-linejoin="round" stroke-width="1.5" stroke="#976f35" d="M326.744 708.305 C334.681 705.026 340.35 706.567 347.541 709.443" fill="none" stroke-linecap="round" opacity="1"/>
<path stroke-linejoin="round" stroke-width="1.5" stroke="#976f35" d="M324.527 710.942 C330.577 709.859 340.803 707.062 346.402 711.061" fill="none" stroke-linecap="round" opacity="1"/>
<path stroke-linejoin="round" stroke-width="1.5" stroke="#976f35" d="M324.646 711.901 C330.75 710.774 338.501 709.267 344.604 711.301C346.768 712.022 348.503 713.764 350.178 714.538" fill="none" stroke-linecap="round" opacity="1"/>
<path stroke-linejoin="round" stroke-width="1.5" stroke="#976f35" d="M325.126 714.058 C333.321 713.016 342.603 711.567 350.178 714.358" fill="none" stroke-linecap="round" opacity="1"/>
<path stroke-linejoin="round" stroke-width="1.5" stroke="#976f35" d="M322.309 714.957 C331.61 712.937 341.021 713.834 349.339 718.313" fill="none" stroke-linecap="round" opacity="1"/>
<path stroke-linejoin="round" stroke-width="1.5" stroke="#976f35" d="M324.347 717.594 C331.89 717.186 339.418 718.761 346.822 719.632" fill="none" stroke-linecap="round" opacity="1"/>
</g>
<g id="clothing">
<path fill="#5c7c4d" d="M214.942 458.396 L218.981 528.064 L261.943 534.232 L316.256 530.164 L359.328 531.094 L358.013 403.957 L358.29 348.476 L217.972 380.649 L214.942 458.396 Z" opacity="1"/>
<path fill="#465f3b" d="M217.801 413.185 L249.794 413.125 L290.206 420.302 L337.484 412.96 L357.679 412.921 L356.785 367.316 L217.801 362.044 L217.801 413.185 Z" opacity="1"/>
<path fill="#5c7c4d" d="M218.108 393.247 L250.545 402.821 L319.323 402.821 L359.02 392.361 L366.174 380.282 L362.15 355.691 L360.572 309.657 L351.781 229.854 L356.819 161.615 L332.957 147.848 L291.656 187.313 L228.521 146.933 L209.674 159.296 L212.217 207.571 L214.661 256.101 L212.217 309.518 L210.122 346.177 L210.131 371.34 L218.108 393.247 Z" opacity="1"/>
<path fill="#465f3b" d="M210.353 157.669 L228.723 148.884 L249.888 162.062 L235.512 176.838 L211.551 183.227 L210.353 157.669 Z" opacity="1"/>
<path fill="#465f3b" d="M335.348 159.267 L306.995 203.993 L288.625 209.185 L245.895 180.033 L230.32 171.247 L256.278 199.601 L293.017 225.159 L317.378 202.396 L335.348 159.267 Z" opacity="1"/>
<path fill="#465f3b" d="M344.932 163.26 L334.76 234.283 L313.955 304.728 L260.665 282.463 L235.48 240.853 L223.132 178.036 L246.065 235.743 L281.105 282.463 L312.495 281.368 L344.932 163.26 Z" opacity="1"/>
<path fill="#465f3b" d="M230.421 413.185 L233.268 468.699 L232.794 526.111 L218.559 526.586 L216.187 458.735 L218.559 410.338 L230.421 413.185 Z" opacity="1"/>
<path fill="#465f3b" d="M342.682 344.173 L269.34 357.115 L238.062 324.759 L255.858 365.205 L338.907 371.676 L342.682 344.173 Z" opacity="1"/>
<path fill="#465f3b" d="M210.708 178.985 L215.913 255.122 L210.201 343.436 L211.519 373.313 L218.648 392.708 L247.453 402.973 L312.23 403.825 L245.612 384.079 L222.423 329.612 L220.805 292.941 L219.726 228.228 L210.708 178.985 Z" opacity="1"/>
<path fill="#465f3b" d="M331.799 412.41 L328.35 426.785 L309.927 436.611 L298.874 412.047 L331.799 412.41 Z" opacity="1"/>
<path fill="#465f3b" d="M225.753 178.985 L242.97 206.762 L241.593 198.498 L225.753 178.985 Z" opacity="1"/>
<path fill="#465f3b" d="M246.643 164.752 L273.732 185.642 L238.379 170.262 L246.643 164.752 Z" opacity="1"/>
<path fill="#465f3b" d="M267.074 241.655 L292.556 267.596 L290.949 256.577 L267.074 241.655 Z" opacity="1"/>
<path fill="#465f3b" d="M213.586 179.214 L221.162 210.894 L219.785 178.985 " opacity="1"/>
</g>
<g id="arm">
<path fill="#ecbb73" d="M363.663 167.058 L370.621 195.508 L371.476 214.324 L380.457 238.701 L386.872 276.335 L407.102 286.01 L442.895 299.856 L454.949 300.527 L468.029 286.534 L482.783 282.484 L489.219 279.495 L486.461 289.61 L491.211 284.76 L500.777 291.901 L498.363 308.345 L485.97 324.225 L450.852 322.163 L366.472 307.063 L355.105 257.523 L355.539 175.08 L357.275 162.496 L363.663 167.058 Z" opacity="1"/>
<path fill="#c89347" d="M357.186 163.781 L351.624 231.272 L356.643 276.277 L366.429 306.719 L386.67 310.85 L450.142 322.251 L448.073 317.193 L423.937 313.286 L371.528 301.333 L366.241 287.541 L377.504 276.507 L370.378 273.059 L356.816 245.245 L355.026 214.062 L357.186 163.781 Z" opacity="1"/>
<path fill="#c89347" d="M445.707 317.368 L469.631 318.052 L483.985 323.862 L449.088 322.189 L445.707 317.368 Z" opacity="1"/>
<path fill="#c89347" d="M480.712 306.752 L473.193 315.345 L464.833 318.794 L476.893 322.148 L485.486 324.297 L485.008 313.794 L480.712 306.752 Z" opacity="1"/>
<path fill="#ecbb73" d="M197.602 171.584 L190.216 210.514 L181.751 246.742 L173.625 286.356 L168.87 317.777 L173.285 361.289 L179.007 414.412 L184 452.837 L195.538 470.75 L205.612 477.844 L213.975 475.041 L212.503 469.688 L207.685 471.427 L202.342 467.997 L198.725 448.611 L204.243 436.092 L211.601 446.701 L219.443 446.163 L214.196 437.918 L206.639 417.098 L199.281 405.804 L195.364 384.567 L199.753 340.675 L199.753 297.881 L214.787 253.522 L212.191 205.314 L209.966 162.297 L197.602 171.584 Z" opacity="1"/>
<path fill="#c89347" d="M209.508 164.481 L196.632 171.236 L190.545 211.52 L183.438 241.671 L174.893 280.569 L187.118 278.803 L198.954 229.603 L198.356 204.096 L204.09 185.45 L210.705 181.193 L209.508 164.481 Z" opacity="1"/>
<path fill="#c89347" d="M178.061 273.58 L174.775 280.507 L169.119 301.129 L174.361 374.905 L179.744 425.427 L181.961 451.814 L184.397 455.902 L188.278 466.877 L205.409 477.45 L196.309 471.427 L190.623 455.845 L187.441 450.926 L187.585 444.271 L187.871 416.561 L182.805 382.751 L175.698 315.87 L186.941 268.607 L178.061 273.58 Z" opacity="1"/>
<path fill="#c89347" d="M214.133 230.597 L214.23 257.086 L200.254 295.389 L198.989 343.959 L195.726 388.353 L200.257 410.338 L185.16 401.281 L185.959 371.114 L196.354 313.143 L191.586 303.173 L194.403 289.735 L201.556 287.351 L212.517 254.49 L214.133 230.597 Z" opacity="1"/>
<path fill="#c89347" d="M204.42 436.068 L213.446 444.214 L218.307 445.931 L211.554 447.1 L204.42 436.068 Z" opacity="1"/>
<path fill="#c89347" d="M207.551 471.427 L212.637 467.278 L208.354 465.003 L202.197 468.751 L207.551 471.427 Z" opacity="1"/>
<path fill="#c89347" d="M205.409 466.877 L202.599 462.46 L201.302 462.974 L202.353 468.535 L205.409 466.877 Z" opacity="1"/>
<path fill="#c89347" d="M482.896 292.986 L480.723 299.65 L477.971 305.155 L480.144 308.631 L468.12 317.323 L467.396 306.458 L473.77 298.78 L474.494 293.42 L484.635 288.64 L482.896 292.986 Z" opacity="1"/>
</g>
<g id="shoes">
<path fill="#5e3e30" d="M189.917 729.607 L277.559 725.11 L276.617 730.763 L191.048 734.13 L189.917 729.607 Z" opacity="1"/>
<path fill="#5e3e30" d="M198.694 729.712 L196.226 721.74 L202.11 718.798 L211.126 729.427 L198.694 729.712 Z" opacity="1"/>
<path fill="#5e3e30" d="M211.505 728.763 L221.077 728.297 L211.316 713.389 L205.337 716.331 L211.505 728.763 Z" opacity="1"/>
<path fill="#5e3e30" d="M222.799 728.478 L234.092 727.529 L221.945 708.929 L215.396 712.155 L222.799 728.478 Z" opacity="1"/>
<path fill="#5e3e30" d="M237.129 727.814 L249.276 727.814 L233.414 704.158 L226.281 707.085 L237.129 727.814 Z" opacity="1"/>
<path fill="#5e3e30" d="M257.265 727.793 L272.079 704.102 L275.181 726.591 L257.265 727.793 Z" opacity="1"/>
<path fill="#5e3e30" d="M270.381 708.856 L265.567 719.162 L242.298 705.944 L244.702 700.7 L270.381 708.856 Z" opacity="1"/>
<path stroke-linejoin="round" stroke-width="1.5" stroke="#976f35" d="M229.271 708.604 C228.327 707.617 226.6 703.73 226.086 702.703" fill="#5e3e30" stroke-linecap="round" opacity="1"/>
<path stroke-linejoin="round" stroke-width="1.5" stroke="#976f35" d="M232.549 706.356 C231.109 704.343 230.134 702.063 228.428 700.736" fill="#5e3e30" stroke-linecap="round" opacity="1"/>
<path stroke-linejoin="round" stroke-width="1.5" stroke="#976f35" d="M217.657 712.444 C216.598 711.434 216.177 710.047 215.596 708.885" fill="#5e3e30" stroke-linecap="round" opacity="1"/>
<path stroke-linejoin="round" stroke-width="1.5" stroke="#976f35" d="M221.778 710.664 C221.535 709.292 221.247 707.593 220.935 706.449" fill="#5e3e30" stroke-linecap="round" opacity="1"/>
<path stroke-linejoin="round" stroke-width="1.5" stroke="#976f35" d="M210.538 715.067 C210.538 714.411 210.538 713.755 210.538 713.1" fill="#5e3e30" stroke-linecap="round" opacity="1"/>
<path stroke-linejoin="round" stroke-width="1.5" stroke="#976f35" d="M206.979 716.659 C206.261 716.474 205.658 715.849 205.199 715.441" fill="#5e3e30" stroke-linecap="round" opacity="1"/>
<path stroke-linejoin="round" stroke-width="1.5" stroke="#976f35" d="M201.184 721.031 C201.241 720.125 201.654 718.686 201.84 718.127" fill="#5e3e30" stroke-linecap="round" opacity="1"/>
<path stroke-linejoin="round" stroke-width="1.5" stroke="#976f35" d="M197.625 722.53 C196.987 722.445 195.627 722.436 195.283 722.436" fill="#5e3e30" stroke-linecap="round" opacity="1"/>
<path stroke-linejoin="round" stroke-width="1.5" stroke="#976f35" d="M244.351 704.482 C240.004 703.476 234.562 700.08 230.301 698.769" fill="#5e3e30" stroke-linecap="round" opacity="1"/>
<path stroke-linejoin="round" stroke-width="1.5" stroke="#976f35" d="M245.382 701.953 C240.926 700.939 237.679 696.978 233.954 695.116" fill="#5e3e30" stroke-linecap="round" opacity="1"/>
<path fill="#5e3e30" d="M310.93 732.385 L359.664 732.304 L360.214 726.944 L310.557 726.977 L310.93 732.385 Z" opacity="1"/>
<path fill="#5e3e30" d="M310.482 725.371 L312.46 727.435 L311.305 722.645 L313.828 718.06 L325.484 718.224 L322.989 713.759 L309.739 718.838 L310.482 725.371 Z" opacity="1"/>
<path fill="#5e3e30" d="M358.787 727.577 L360.199 726.548 L360.619 721.322 L347.528 717.514 L344.566 719.461 L357.198 722.349 L359.29 724.705 L358.787 727.577 Z" opacity="1"/>
<path fill="#5e3e30" d="M354.004 714.909 L345.432 705.284 L345.432 702.564 L354.318 709.998 L354.004 714.909 Z" opacity="1"/>
<path fill="#5e3e30" d="M322.986 705.864 L328.245 703.326 L327.52 706.046 L320.629 709.672 L322.986 705.864 Z" opacity="1"/>
<path fill="#5e3e30" d="M355.847 713.66 L347.025 707.892 L345.667 710.437 L356.356 716.036 L355.847 713.66 Z" opacity="1"/>
<path fill="#5e3e30" d="M358.5 716.192 L347.557 712.545 L348.491 714.496 L358.924 721.112 L358.5 716.192 Z" opacity="1"/>
<path fill="#5e3e30" d="M317.983 714.853 L325.023 714.514 L325.278 711.545 L317.389 712.309 L315.862 714.429 L317.983 714.853 Z" opacity="1"/>
<path fill="#5e3e30" d="M319.934 710.018 L327.144 707.982 L324.514 711.121 L317.983 713.072 L319.934 710.018 Z" opacity="1"/>
<path fill="#5e3e30" d="M353.296 704.949 L351.003 703.757 L351.92 708.159 L353.571 709.534 L353.296 704.949 Z" opacity="1"/>
</g>
<g id="Layer 1">
<path fill="#ecbb73" d="M240.931 72.702 C237.379 39.5233 248.466 11.6913 278.565 11.7448C308.665 11.7982 322.036 40.3393 318.341 71.8482C316.611 86.5974 314.827 105.053 314.827 105.053C314.827 105.053 298.969 124.849 281.651 125.296C264.333 125.743 245.554 106.841 245.554 106.841C245.554 106.841 243.056 92.5539 240.931 72.702Z" opacity="1"/>
<path fill="#c89347" d="M267.885 88.3922 L281.432 92.9079 L291.818 88.3922 L282.561 98.5525 L269.465 99.0041 L267.885 88.3922 Z" opacity="1"/>
<path fill="#c89347" d="M269.753 88.4716 L274.021 81.7139 L269.753 81.4768 L255.318 103.112 L269.753 88.4716 Z" opacity="1"/>
<path fill="#c89347" d="M290.461 87.6303 L292.121 82.651 L305.749 99.7057 L290.461 87.6303 Z" opacity="1"/>
<path fill="#c89347" d="M248.916 60.9045 L269.121 63.0596 L276.207 68.3752 L275.957 82.9745 L268.731 82.2972 L268.554 76.2492 L258.8 83.5361 L244.573 76.9787 L256.772 107.264 L264.811 114.26 L265.675 117.905 L273.482 124.526 L263.181 120.016 L255.219 115.124 L245.279 107.296 L240.077 69.856 L241.255 42.9912 L250.026 25.8558 L250.393 43.0667 L252.217 56.4477 L248.916 60.9045 Z" opacity="1"/>
<path fill="#c89347" d="M284.006 68.008 L290.885 61.7942 L298.872 60.9299 L315.18 68.3742 L298.162 78.1733 L292.045 74.3052 L285.747 79.2626 L284.006 68.008 Z" opacity="1"/>
<path fill="#c89347" d="M281.743 58.7799 L279.784 62.8853 L278.282 59.1148 L262.043 56.0757 L253.013 55.8914 L259.811 54.797 L270.691 55.6541 L280.114 52.8162 L288.218 54.4261 L297.776 53.6415 L307.02 56.1176 L293.925 56.2599 L281.743 58.7799 Z" opacity="1"/>
<path fill="#c89347" d="M266.458 47.1316 L279.042 50.3259 L292.497 46.5495 L278.17 48.2932 L266.458 47.1316 Z" opacity="1"/>
<path fill="#996a48" d="M266.058 106.913 L278.364 105.155 L283.287 104.921 L295.393 106.772 L266.058 106.913 Z" opacity="1"/>
<path fill="#ecbb73" d="M303.874 116.858 L302.552 129.839 L303.033 141.257 L330.848 150.558 L325.389 155.561 L293.297 156.161 L284.521 161.422 L272.984 156.041 L252.043 158.342 L256.702 152.303 L268.792 151.795 L267.985 144.778 L270.808 139.858 L274.787 150.993 L284.521 160.442 L291.915 149.875 L297.151 126.879 L303.874 116.858 Z" opacity="1"/>
<path fill="#c89347" d="M274.385 109.634 L270.233 112.13 L266.679 112.974 L273.751 115.191 L275.405 113.467 L279.44 111.942 L282.568 112.359 L286.182 113.54 L288 115.402 L295.071 113.186 L291.518 112.341 L286.745 110.096 L283.285 110.512 L277.691 110.125 L277.621 110.195 L274.385 109.634 Z" opacity="1"/>
<path fill="#b5856f" d="M268.576 71.2343 L268.733 76.2577 L258.969 82.9006 L249.893 78.1989 L251.969 72.4695 L260.204 76.5871 L268.576 71.2343 Z" opacity="1"/>
<path fill="#b5856f" d="M290.314 70.2585 L289.913 76.6114 L299.678 83.2542 L307.441 78.3257 L305.704 72.6166 L298.442 76.9407 L290.314 70.2585 Z" opacity="1"/>
<path fill="#c89347" d="M307.778 151.785 L300.186 147.644 L298.633 139.706 L294.664 153.51 L307.778 151.785 Z" opacity="1"/>
<path fill="#ecbb73" d="M280.169 146.608 L284.828 150.232 L289.832 144.537 L290.005 138.325 L283.62 143.33 L280.169 146.608 Z" opacity="1"/>
<path fill="#b68641" d="M293.479 22.2612 L300.342 24.6351 L302.481 30.9982 L295.657 28.8666 L293.479 22.2612 Z" opacity="1"/>
<path fill="#b68641" d="M279.638 18.439 L282.056 22.066 L286.288 21.3104 L279.638 18.439 Z" opacity="1"/>
<path fill="#b68641" d="M254.954 115.773 L271.811 125.286 L281.491 126.454 L290.336 123.951 L282.659 128.791 L271.978 129.625 L262.631 127.455 L260.295 132.796 L257.624 140.64 L254.954 115.773 Z" opacity="1"/>
<path fill="#b68641" d="M275.959 110.098 L285.66 110.314 L283.217 112.326 L278.762 112.254 L275.959 110.098 Z" opacity="1"/>
</g>
<g id="Layer 2">
<path fill="#c8875a" d="M269.338 107.03 L291.782 106.837 L290.427 109.739 L282.115 110.664 L271.08 109.287 L269.338 107.03 Z" opacity="1"/>
</g>
<g id="l eye">
<path fill="#ffffff" d="M252.165 72.1252 L262.74 65.7106 L268.201 70.3048 L261.353 73.5988 L252.165 72.1252 Z" opacity="1"/>
<path fill="#976f35" d="M255.598 70.2618 C255.598 67.7293 257.651 65.6764 260.184 65.6764C262.716 65.6764 264.769 67.7293 264.769 70.2618C264.769 72.7942 262.716 74.8471 260.184 74.8471C257.651 74.8471 255.598 72.7942 255.598 70.2618Z" opacity="1"/>
<path fill="#000000" d="M257.168 70.2618 C257.168 68.5962 258.518 67.2459 260.184 67.2459C261.849 67.2459 263.199 68.5962 263.199 70.2618C263.199 71.9273 261.849 73.2776 260.184 73.2776C258.518 73.2776 257.168 71.9273 257.168 70.2618Z" opacity="1"/>
<path fill="#ecbb73" d="M252.116 71.9542 L260.859 73.7026 L267.95 70.3515 L260.086 77.1317 L253.435 73.4012 L252.116 71.9542 Z" opacity="1"/>
<path fill="#ecbb73" d="M262.798 65.6724 L252.116 72.0513 L256.031 65.2101 L262.798 65.6724 Z" opacity="1"/>
</g>
<g id="r eye">
<path fill="#ffffff" d="M306.19 71.61 L295.614 65.1955 L290.153 69.7897 L297.001 73.0836 L306.19 71.61 Z" opacity="1"/>
<path fill="#976f35" d="M302.756 69.7466 C302.756 67.2142 300.703 65.1612 298.171 65.1612C295.639 65.1612 293.586 67.2142 293.586 69.7466C293.586 72.279 295.639 74.332 298.171 74.332C300.703 74.332 302.756 72.279 302.756 69.7466Z" opacity="1"/>
<path fill="#000000" d="M301.187 69.7466 C301.187 68.081 299.837 66.7308 298.171 66.7308C296.505 66.7308 295.155 68.081 295.155 69.7466C295.155 71.4122 296.505 72.7624 298.171 72.7624C299.837 72.7624 301.187 71.4122 301.187 69.7466Z" opacity="1"/>
<path fill="#ecbb73" d="M306.238 71.439 L297.496 73.1875 L290.405 69.8363 L298.269 76.6166 L304.919 72.886 L306.238 71.439 Z" opacity="1"/>
<path fill="#ecbb73" d="M295.556 65.1572 L306.238 71.5362 L302.324 64.695 L295.556 65.1572 Z" opacity="1"/>
</g>
<g id="ears">
<path fill="#c89347" d="M240.164 64.6726 L234.627 60.19 L228.562 67.5731 L231.99 83.6579 L236.473 91.3047 L243.328 86.031 L240.164 64.6726 Z" opacity="1"/>
<path fill="#ecbb73" d="M319.697 63.8134 L325.234 59.3308 L331.299 66.7139 L327.871 82.7987 L323.389 90.4455 L316.533 85.1719 L319.697 63.8134 Z" opacity="1"/>
<path fill="#b68641" d="M233.591 67.0382 L233.09 74.0479 L235.594 84.3956 L239.766 82.7266 L240.1 77.5528 L236.261 79.3887 L236.261 73.3803 L233.591 67.0382 Z" opacity="1"/>
<path fill="#b68641" d="M271.509 91.6027 L276.155 92.2802 L273.929 94.0223 L271.509 91.6027 Z" opacity="1"/>
<path fill="#b68641" d="M285.543 92.6673 L289.123 90.8285 L287.769 93.3448 L285.543 92.6673 Z" opacity="1"/>
<path fill="#c89347" d="M324.433 67.0565 L328.857 68.9797 L325.01 74.9415 L325.395 82.0572 L322.47 83.7001 L320.076 78.9133 L323.356 79.3565 L321.761 73.9491 L321.938 70.5806 L324.065 73.4173 L325.661 70.6692 L324.433 67.0565 Z" opacity="1"/>
<path fill="#ecbb73" d="M208.112 210.876 " opacity="1"/>
</g>
<g id="beard">
<path fill="#fff4e0" d="M271.17 60.569 L268.655 64.3344 L262.319 64.9599 L258.914 67.1674 L253.355 69.7883 L247.846 71.5244 L240.051 71.2704 L247.103 67.3124 L244.256 62.6289 L250.911 64.2397 L252.262 60.6761 L257.055 62.2725 L259.767 58.163 L264.554 58.2505 L267.915 55.2418 L271.17 60.569 Z" opacity="1"/>
<path fill="#fff4e0" d="M286.926 59.8539 L289.361 63.672 L295.682 64.4322 L299.04 66.7117 L304.541 69.4503 L310.012 71.3033 L317.811 71.2154 L310.845 67.1081 L313.791 62.4864 L307.103 63.9551 L305.828 60.3635 L301.002 61.8575 L298.378 57.6911 L293.59 57.6767 L290.294 54.5972 L286.926 59.8539 Z" opacity="1"/>
</g>
<g id="hair">
<path fill="#c8c5b8" d="M242.275 44.6232 L243.907 36.0554 L238.996 42.1825 L236.155 61.7587 L238.195 62.9826 L236.416 72.2862 L242.15 81.1739 L242.15 66.8388 L243.01 55.6575 L242.275 44.6232 Z" opacity="1"/>
<path fill="#c8c5b8" d="M314.792 54.9771 L315.695 66.0406 L315.695 80.0393 L321.34 73.2657 L320.2 64.4106 L322.444 62.3707 L319.792 42.7872 L314.081 35.4435 L317.344 46.8671 L314.792 54.9771 Z" opacity="1"/>
</g>
</svg>
