<?xml version="1.0" encoding="UTF-8"?>
<!DOCTYPE svg PUBLIC "-//W3C//DTD SVG 1.1//EN"
  "http://www.w3.org/Graphics/SVG/1.1/DTD/svg11.dtd">
<svg xmlns:xlink="http://www.w3.org/1999/xlink" width="612pt" viewBox="0,0,612,792" xmlns="http://www.w3.org/2000/svg" version="1.1" height="792pt">
<defs/>
<g id="back cloak">
<path fill="#572e2d" d="M383.263 185.66 L410.892 267.679 L441.162 289.106 L386.501 346.951 L392.613 651.279 L317.974 617.481 L335.155 157.025 L383.263 185.66 Z" opacity="1"/>
<path fill="#c89347" d="M248.305 157.091 L269.013 148.969 L267.838 101.027 L317.19 99.3824 L317.895 150.849 L343.322 158.113 L303.224 209.22 L239.544 178.509 L248.305 157.091 Z" opacity="1"/>
<path fill="#af813f" d="M246.727 158.608 L269.164 147.737 L268.687 129.032 L308.146 136.039 L303.106 146.365 L289.36 154.897 L286.588 162.197 L284.001 157.577 L280.767 160.349 L281.887 162.727 L256.091 165.69 L246.727 158.608 Z" opacity="1"/>
<path fill="#ecbb73" d="M306.605 129.691 L317.921 129.287 L317.921 151.111 L337.205 157.079 L335.885 167.608 L306.973 164.797 L292.785 168.812 L279.533 164.663 L257.983 165.868 L263.07 163.726 L283.549 161.852 L292.919 165.6 L299.567 163.997 L311.051 133.194 L306.605 129.691 Z" opacity="1"/>
<path fill="#ecbb73" d="M288.469 164.823 L283.262 156.838 L279.843 159.332 L280.337 162.12 L288.469 164.823 Z" opacity="1"/>
<path fill="#ecbb73" d="M298.692 152.68 L297.676 158.87 L293.241 161.18 L296.29 156.653 L298.692 152.68 Z" opacity="1"/>
<path fill="#ecbb73" d="M258.073 168.552 L279.593 168.237 L292.782 169.487 L306.526 167.821 L317.275 169.236 L303.798 186.73 L279.315 186.563 L258.073 168.552 Z" opacity="1"/>
<path fill="#572e2d" d="M211.512 625.779 L282.526 603.28 L321.899 528.751 L271.979 516.095 L211.512 625.779 Z" opacity="1"/>
</g>
<g id="legs">
<path fill="#ecbb73" d="M242.884 579.769 L244.494 601.508 L253.351 667.53 L250.13 719.865 L237.248 735.968 L199.406 759.317 L208.262 766.564 L289.582 758.512 L285.557 730.332 L285.557 695.711 L286.362 649.012 L296.024 622.442 L283.141 560.445 L243.689 558.835 " opacity="1"/>
<path fill="#ecbb73" d="M376.799 578.159 L375.189 599.898 L366.332 665.92 L369.553 718.255 L382.435 734.358 L420.277 757.707 L411.421 764.953 L330.101 756.902 L334.126 728.722 L334.126 694.1 L333.321 647.401 L323.659 620.832 L336.542 558.835 L375.994 557.225 " opacity="1"/>
</g>
<g id="arm">
<path fill="#ecbb73" d="M377.05 174.546 L393.977 187.789 L395.436 216.47 L421.2 277.72 L461.832 288.675 L477.321 265.849 L496.886 281.338 L478.951 313.946 L454.495 312.316 L402.241 309.318 L364.822 255.251 L350.148 192.48 L359.931 161.502 L377.05 174.546 Z" opacity="1"/>
<path fill="#803c3a" d="M407.726 240.025 L452.084 271.277 L442.506 301.521 L467.71 510.708 L480.311 565.147 L426.88 536.415 L417.735 378.961 L410.75 300.009 L407.726 240.025 Z" opacity="1"/>
<path fill="#fff4e0" d="M480.126 268.2 L507.587 222.935 L521.468 237.118 L490.688 276.347 L480.126 268.2 Z" opacity="1"/>
<path fill="#c89347" d="M370.888 198.492 L365.456 215.693 L364.324 253.901 L390.575 290.845 L399.555 309.843 L405.644 285.012 L390.575 271.887 L393.491 257.789 L377.449 226.192 L369.379 216.296 L370.888 198.492 Z" opacity="1"/>
<path fill="#c89347" d="M432.146 301.695 L454.174 299.281 L448.139 311.05 L432.146 311.955 L432.146 301.695 Z" opacity="1"/>
<path fill="#c89347" d="M464.587 296.573 L458.767 295.195 L469.416 307.722 L465.659 312.347 L478.677 313.879 L473.01 303.005 L464.587 296.573 Z" opacity="1"/>
<path fill="#fff4e0" d="M463.444 298.205 L472.799 307.258 L445.942 345.582 L432.362 333.209 L463.444 298.205 Z" opacity="1"/>
</g>
<g id="clothing">
<path fill="#5c7c4d" d="M228.896 460.824 L227.061 555.322 L384.5 567.99 L378.44 391.098 L375.688 364.492 L239.905 387.428 L228.896 460.824 Z" opacity="1"/>
<path fill="#5c7c4d" d="M212.378 396.282 L384.595 393.858 L389.928 381.288 L379.262 355.766 L375.34 284.124 L367.268 223.458 L361.561 162.317 L340.366 150.089 L295.243 177.631 L237.65 159.057 L212.378 396.282 Z" opacity="1"/>
<path fill="#803c3a" d="M249.183 147.695 L194.031 181.148 L143.573 316.784 L207.945 629.243 L243.701 596.136 L324.483 482.247 L368.185 352.466 L397.344 182.557 L367.722 159.048 L337.105 150.905 L303.796 207.764 L249.183 147.695 Z" opacity="1"/>
<path fill="#48623d" d="M379.874 393.121 L355.493 391.35 L351.408 401.789 L378.468 404.018 L379.874 393.121 Z" opacity="1"/>
</g>
<g id="ears">
<path fill="#c89347" d="M257.586 81.2332 L255.799 77.1531 L250.412 83.7111 L253.456 97.9982 L257.438 104.79 L260.396 100.205 L257.586 81.2332 Z" opacity="1"/>
<path fill="#ecbb73" d="M327.653 79.9158 L329.521 75.7548 L334.908 82.3128 L331.863 96.5999 L327.881 103.392 L324.842 98.8872 L327.653 79.9158 Z" opacity="1"/>
</g>
<g id="Layer 1">
<path fill="#ecbb73" d="M258.155 89.6159 C258.155 60.3036 264.848 35.4241 291.583 35.4716C318.319 35.5191 326.913 59.5453 326.913 88.8576C326.913 103.074 318.714 127.64 318.714 127.64C318.714 127.64 304.165 146.387 292.494 146.387C281.502 146.387 267.351 129.931 267.351 129.931C267.351 129.931 258.155 104.712 258.155 89.6159Z" opacity="1"/>
<path fill="#c89347" d="M283.596 107.624 L293.383 111.315 L302.656 106.571 L296.457 116.568 L290.837 118.591 L283.596 107.624 Z" opacity="1"/>
<path fill="#c89347" d="M282.753 107.835 L286.544 101.832 L282.753 101.622 L273.659 111.071 L282.753 107.835 Z" opacity="1"/>
<path fill="#c89347" d="M302.551 106.887 L304.025 102.464 L312.065 111.714 L302.551 106.887 Z" opacity="1"/>
<path fill="#c89347" d="M264.177 74.9248 L283.194 81.0512 L289.489 85.7727 L288.865 105.1 L283.254 101.484 L286.191 92.355 L284.646 91.1365 L275.416 94.61 L266.538 91.3314 L261.39 93.4146 L269.642 112.999 L269.963 127.462 L281.134 142.845 L266.964 130.385 L262.314 114.686 L258.687 98.0021 L257.396 87.0881 L260.561 62.4559 L269.164 45.1241 L268.356 67.0399 L264.177 74.9248 Z" opacity="1"/>
<path fill="#c89347" d="M296.416 85.4466 L302.526 79.9273 L316.211 80.8515 L320.973 87.6435 L308.99 94.4757 L303.556 91.04 L298.833 90.3437 L297.963 95.4433 L296.416 85.4466 Z" opacity="1"/>
<path fill="#c89347" d="M293.238 77.3647 L293.113 82.7051 L292.251 77.2414 L275.67 72.2485 L274.007 71.2598 L275.271 70.7555 L284.589 74.4734 L292.423 75.5641 L300.629 74.6111 L308.009 71.0829 L310.665 71.2269 L308.34 72.4334 L293.238 77.3647 Z" opacity="1"/>
<path fill="#2f1f18" d="M287.504 80.5549 L281.985 83.3499 L278.749 81.1548 L275.204 81.8109 L269.752 82.0755 L264.64 81.6305 L263.781 79.9597 L265.46 77.921 L266.91 76.9087 L269.629 76.6916 L272.073 76.0482 L275.75 76.3611 L278.961 74.7094 L282.86 76.4061 L286.232 77.9257 L287.504 80.5549 Z" opacity="1"/>
<path fill="#2f1f18" d="M297.744 80.2963 L301.073 82.5536 L306.495 80.9499 L310.036 81.6276 L315.486 81.9256 L320.6 81.512 L322.362 79.4375 L319.803 77.7975 L318.625 75.5904 L315.642 76.5426 L312.909 75.7003 L309.929 76.978 L306.323 74.5033 L302.413 76.1761 L299.39 77.6788 L297.744 80.2963 Z" opacity="1"/>
<path fill="#c89347" d="M288.414 129.323 L297.597 129.578 L298.617 133.404 L293.133 132.256 L287.266 133.404 L288.414 129.323 Z" opacity="1"/>
<path fill="#c89347" d="M328.582 85.2697 L330.583 80.9803 L332.966 84.4118 L330.255 95.7437 L328.884 96.8865 L331.17 86.0678 L330.491 83.7508 L329.341 85.6869 L329.874 88.7344 L328.884 92.4676 L327.132 89.3439 L328.582 85.2697 Z" opacity="1"/>
</g>
<g id="Layer 2">
<path fill="#ddb396" d="M281.418 124.328 L304.63 124.511 L300.426 128.897 L294.388 130.103 L284.525 128.166 L281.418 124.328 Z" opacity="1"/>
</g>
<g id="l eye">
<path fill="#ffffff" d="M268.134 89.1036 L270.966 85.0954 L277.527 83.406 L282.378 87.4867 L276.295 90.4125 L268.134 89.1036 Z" opacity="1"/>
<path fill="#607f84" d="M271.183 87.4484 C271.183 85.1991 273.007 83.3756 275.256 83.3756C277.506 83.3756 279.329 85.1991 279.329 87.4484C279.329 89.6978 277.506 91.5213 275.256 91.5213C273.007 91.5213 271.183 89.6978 271.183 87.4484Z" opacity="1"/>
<path fill="#000000" d="M272.577 87.4484 C272.577 85.969 273.777 84.7697 275.256 84.7697C276.736 84.7697 277.935 85.969 277.935 87.4484C277.935 88.9279 276.736 90.1272 275.256 90.1272C273.777 90.1272 272.577 88.9279 272.577 87.4484Z" opacity="1"/>
<path fill="#ecbb73" d="M268.091 88.9517 L275.856 90.5048 L282.154 87.5282 L275.169 93.5506 L269.262 90.237 L268.091 88.9517 Z" opacity="1"/>
<path fill="#ecbb73" d="M279.699 85.2256 L271.021 85.6381 L268.091 89.038 L271.702 83.1254 L277.975 83.0706 L279.699 85.2256 Z" opacity="1"/>
</g>
<g id="r eye">
<path fill="#ffffff" d="M316.12 88.646 L313.004 84.6238 L306.727 82.9484 L301.876 87.0291 L307.959 89.9549 L316.12 88.646 Z" opacity="1"/>
<path fill="#607f84" d="M313.071 86.9909 C313.071 84.7415 311.247 82.918 308.998 82.918C306.748 82.918 304.925 84.7415 304.925 86.9909C304.925 89.2402 306.748 91.0637 308.998 91.0637C311.247 91.0637 313.071 89.2402 313.071 86.9909Z" opacity="1"/>
<path fill="#000000" d="M311.677 86.9909 C311.677 85.5114 310.477 84.3121 308.998 84.3121C307.518 84.3121 306.319 85.5114 306.319 86.9909C306.319 88.4703 307.518 89.6696 308.998 89.6696C310.477 89.6696 311.677 88.4703 311.677 86.9909Z" opacity="1"/>
<path fill="#ecbb73" d="M316.163 88.4942 L308.398 90.0472 L302.1 87.0706 L309.085 93.093 L314.992 89.7794 L316.163 88.4942 Z" opacity="1"/>
<path fill="#ecbb73" d="M304.486 84.8224 L312.993 85.0742 L316.163 88.5804 L312.687 82.5038 L306.318 82.8276 L304.486 84.8224 Z" opacity="1"/>
</g>
<g id="hair">
<path fill="#2f1f18" d="M273.485 36.581 L264.339 43.5143 L258.585 51.4802 L256.815 61.2163 L257.995 85.7041 L260.061 88.0644 L260.798 63.4291 L266.109 53.1029 L275.845 46.4646 L295.664 47.3701 L308.473 46.2846 L316.527 52.5704 L323.435 61.2111 L324.973 89.8927 L327.134 85.7676 L328.313 62.9814 L325.17 47.856 L310.184 33.567 L285.331 31.6305 L273.485 36.581 Z" opacity="1"/>
<path fill="#ba8764" d="M279.65 124.417 L306.961 124.582 L301.351 122.602 L294.75 120.951 L292.935 122.107 L290.872 121.116 L283.611 122.767 L279.65 124.417 Z" opacity="1"/>
<path fill="#424242" d="M263.833 57.7741 L256.938 60.6991 L257.774 85.3533 L261.312 90.0783 L260.594 62.9974 L263.833 57.7741 Z" opacity="1"/>
<path fill="#87867c" d="M320.871 56.9662 L327.311 56.6272 L329.005 63.2365 L326.972 85.4369 L325.108 90.3514 L323.752 65.4396 L320.871 56.9662 Z" opacity="1"/>
<path fill="#c89347" d="M309.918 159.71 L313.8 156.096 L312.996 148.734 L309.918 159.71 Z" opacity="1"/>
</g>
</svg>
