<?xml version="1.0" encoding="UTF-8" standalone="no"?>
<!-- Created with Inkscape (http://www.inkscape.org/) -->

<svg
   xmlns:dc="http://purl.org/dc/elements/1.1/"
   xmlns:cc="http://creativecommons.org/ns#"
   xmlns:rdf="http://www.w3.org/1999/02/22-rdf-syntax-ns#"
   xmlns:svg="http://www.w3.org/2000/svg"
   xmlns="http://www.w3.org/2000/svg"
   xmlns:sodipodi="http://sodipodi.sourceforge.net/DTD/sodipodi-0.dtd"
   xmlns:inkscape="http://www.inkscape.org/namespaces/inkscape"
   width="253.34363"
   height="181.21155"
   id="svg3460"
   version="1.1"
   inkscape:version="0.48.4 r9939"
   sodipodi:docname="New document 16">
  <defs
     id="defs3462" />
  <sodipodi:namedview
     id="base"
     pagecolor="#ffffff"
     bordercolor="#666666"
     borderopacity="1.0"
     inkscape:pageopacity="0.0"
     inkscape:pageshadow="2"
     inkscape:zoom="4.7844633"
     inkscape:cx="126.67181"
     inkscape:cy="90.605774"
     inkscape:document-units="px"
     inkscape:current-layer="layer1"
     showgrid="false"
     fit-margin-top="10"
     fit-margin-left="10"
     fit-margin-right="10"
     fit-margin-bottom="10"
     inkscape:window-width="1680"
     inkscape:window-height="1026"
     inkscape:window-x="0"
     inkscape:window-y="24"
     inkscape:window-maximized="1" />
  <metadata
     id="metadata3465">
    <rdf:RDF>
      <cc:Work
         rdf:about="">
        <dc:format>image/svg+xml</dc:format>
        <dc:type
           rdf:resource="http://purl.org/dc/dcmitype/StillImage" />
        <dc:title></dc:title>
      </cc:Work>
    </rdf:RDF>
  </metadata>
  <g
     inkscape:label="Layer 1"
     inkscape:groupmode="layer"
     id="layer1"
     transform="translate(9.5289579,115.38645)">
    <path
       d="m 16.231092,33.07909 c 0,0 -11.3729695,9.27805 -11.8219095,9.4278 C 3.9602325,42.65636 16.380732,53.73 16.380732,53.73 l 97.418558,-0.14946 92.48073,0.29922 22.74601,1.94534 4.78864,-13.91693 -11.2234,-11.67238 -206.360178,2.8433 z"
       id="path11"
       inkscape:connector-curvature="0"
       style="fill:#b1b1b1" />
    <path
       d="m 217.61738,11.40792 6.82616,-0.13365 7.89683,18.06895 c -0.40154,-0.53548 -3.41308,19.13992 -3.41308,19.13992 -1.03487,0.0647 -11.24309,-0.0671 -11.24309,-0.0671 0,0 1.38868,-35.33333 -0.0668,-37.0081 z"
       id="path13"
       inkscape:connector-curvature="0"
       style="fill:#d9d6b9" />
    <path
       d="m 17.092142,-82.00865 -2.06596,94.93143 202.278258,-2.05959 -3.20157,-81.44438 3.62936,-27.72338 1.687,0.88348 -0.11217,-7.96536 -207.680528,14.86821 5.46561,8.50959 z"
       id="path15"
       inkscape:connector-curvature="0"
       style="fill:#f5f2d3" />
    <path
       d="M 17.529032,13.67486 7.6367725,11.66805 c 0,0 -6.94798997,11.97487 -7.16180997,13.7275 -0.21384,1.75263 8.38720997,17.475 9.42198997,17.54003 1.0348495,0.0651 8.3698795,4.17946 8.3698795,4.17946 0,0 -2.1934,-31.76542 -0.7378,-33.44018 z"
       id="path17"
       inkscape:connector-curvature="0"
       style="fill:#d9d6b9" />
    <path
       d="M 11.563792,8.0774705 220.4899,9.4255805 232.22313,30.62719 225.53628,50.45563 131.21253,47.80476 18.765392,49.46045 3.7642425,33.22586 11.563792,8.0774705 z"
       id="path21"
       inkscape:connector-curvature="0"
       style="fill:#f5f2d3" />
    <path
       d="m 16.302282,-84.00262 1.5952,4.06312 195.369788,6.93177 1.53665,-12.67771 2.32003,-9.00053 -34.26743,-3.18627 -170.277848,10.27665 3.72361,3.59297 z"
       id="path23"
       inkscape:connector-curvature="0"
       style="fill:#e7e5c5" />
    <path
       d="M 12.844382,10.02431 216.62188,9.1985605 229.31898,24.35411 208.2191,24.20436 128.30898,22.10926 24.455512,22.40878 7.3960225,22.85745 12.844382,10.02431 z"
       id="path25"
       inkscape:connector-curvature="0"
       style="fill:#fffde4" />
    <path
       d="m 19.816092,50.07737 205.031368,0.0468 5.22896,-13.36295 -11.73621,1.97547 L 110.27523,34.55336 29.452852,36.36028 6.7935325,36.53389 19.816092,50.07734 z"
       id="path27"
       inkscape:connector-curvature="0"
       style="fill:#e7e5c5" />
    <path
       d="m 12.905642,-87.55621 182.657528,-7.53927 21.02709,4.0352 1.00116,-5.25804 -11.78156,-4.65442 -19.52773,-0.39539 -61.77881,5.6253 -112.540188,5.22459 0.94251,2.96203 z"
       id="path31"
       inkscape:connector-curvature="0"
       style="fill:#c9c7ac" />
    <path
       d="m 17.488512,49.8229 207.750048,0.67838 0.42003,-3.52853 -13.39665,-0.59903 -88.73294,-0.15602 -90.853388,-0.0214 -19.00888,-0.42451 3.82178,4.05118 z"
       id="path33"
       inkscape:connector-curvature="0"
       style="fill:#c9c7ac" />
    <text
       xml:space="preserve"
       style="font-size:25.29487801px;font-style:normal;font-variant:normal;font-weight:normal;font-stretch:normal;line-height:125%;letter-spacing:0px;word-spacing:0px;fill:#000000;fill-opacity:1;stroke:none;font-family:SBL Greek;-inkscape-font-specification:SBL Greek"
       x="23.105928"
       y="-34.037868"
       id="text3012"
       sodipodi:linespacing="125%"><tspan
         sodipodi:role="line"
         id="tspan3014"
         x="23.105928"
         y="-34.037868">Φιλιππος Γεωργιῳ. </tspan><tspan
         sodipodi:role="line"
         x="23.105928"
         y="-2.4192691"
         id="tspan3016">Χαιρειν.</tspan></text>
  </g>
</svg>
