<?xml version="1.0" encoding="UTF-8" standalone="no"?>
<svg
   xmlns:dc="http://purl.org/dc/elements/1.1/"
   xmlns:cc="http://creativecommons.org/ns#"
   xmlns:rdf="http://www.w3.org/1999/02/22-rdf-syntax-ns#"
   xmlns:svg="http://www.w3.org/2000/svg"
   xmlns="http://www.w3.org/2000/svg"
   xmlns:sodipodi="http://sodipodi.sourceforge.net/DTD/sodipodi-0.dtd"
   xmlns:inkscape="http://www.inkscape.org/namespaces/inkscape"
   width="492.36874"
   viewBox="0 0 393.895 750.9335"
   version="1.1"
   height="938.66687"
   id="svg2"
   inkscape:version="0.48.3.1 r9886"
   sodipodi:docname="images.image.81526df5c2fcb480.44726177696e672032322e737667.svg">
  <metadata
     id="metadata118">
    <rdf:RDF>
      <cc:Work
         rdf:about="">
        <dc:format>image/svg+xml</dc:format>
        <dc:type
           rdf:resource="http://purl.org/dc/dcmitype/StillImage" />
      </cc:Work>
    </rdf:RDF>
  </metadata>
  <sodipodi:namedview
     pagecolor="#ffffff"
     bordercolor="#666666"
     borderopacity="1"
     objecttolerance="10"
     gridtolerance="10"
     guidetolerance="10"
     inkscape:pageopacity="0"
     inkscape:pageshadow="2"
     inkscape:window-width="1627"
     inkscape:window-height="1026"
     id="namedview116"
     showgrid="false"
     fit-margin-top="10"
     fit-margin-left="10"
     fit-margin-right="10"
     fit-margin-bottom="10"
     inkscape:zoom="0.87777778"
     inkscape:cx="213.03375"
     inkscape:cy="473.205"
     inkscape:window-x="53"
     inkscape:window-y="24"
     inkscape:window-maximized="1"
     inkscape:current-layer="svg2" />
  <defs
     id="defs4" />
  <g
     id="back cloak"
     transform="translate(-135.573,-23.6305)">
    <path
       d="m 383.263,185.66 27.629,82.019 30.27,21.427 -54.661,57.845 6.112,304.328 -74.639,-33.798 17.181,-460.456 48.108,28.635 z"
       id="path7"
       inkscape:connector-curvature="0"
       style="fill:#572e2d" />
    <path
       d="m 248.305,157.091 20.708,-8.122 -1.175,-47.942 49.352,-1.6446 0.705,51.4666 25.427,7.264 -40.098,51.107 -63.68,-30.711 8.761,-21.418 z"
       id="path9"
       inkscape:connector-curvature="0"
       style="fill:#c89347" />
    <path
       d="m 246.727,158.608 22.437,-10.871 -0.477,-18.705 39.459,7.007 -5.04,10.326 -13.746,8.532 -2.772,7.3 -2.587,-4.62 -3.234,2.772 1.12,2.378 -25.796,2.963 -9.364,-7.082 z"
       id="path11"
       inkscape:connector-curvature="0"
       style="fill:#af813f" />
    <path
       d="m 306.605,129.691 11.316,-0.404 0,21.824 19.284,5.968 -1.32,10.529 -28.912,-2.811 -14.188,4.015 -13.252,-4.149 -21.55,1.205 5.087,-2.142 20.479,-1.874 9.37,3.748 6.648,-1.603 11.484,-30.803 -4.446,-3.503 z"
       id="path13"
       inkscape:connector-curvature="0"
       style="fill:#ecbb73" />
    <path
       d="m 288.469,164.823 -5.207,-7.985 -3.419,2.494 0.494,2.788 8.132,2.703 z"
       id="path15"
       inkscape:connector-curvature="0"
       style="fill:#ecbb73" />
    <path
       d="m 298.692,152.68 -1.016,6.19 -4.435,2.31 3.049,-4.527 2.402,-3.973 z"
       id="path17"
       inkscape:connector-curvature="0"
       style="fill:#ecbb73" />
    <path
       d="m 258.073,168.552 21.52,-0.315 13.189,1.25 13.744,-1.666 10.749,1.415 -13.477,17.494 -24.483,-0.167 -21.242,-18.011 z"
       id="path19"
       inkscape:connector-curvature="0"
       style="fill:#ecbb73" />
    <path
       d="m 211.512,625.779 71.014,-22.499 39.373,-74.529 -49.92,-12.656 -60.467,109.684 z"
       id="path21"
       inkscape:connector-curvature="0"
       style="fill:#572e2d" />
  </g>
  <g
     id="legs"
     transform="translate(-135.573,-23.6305)">
    <path
       d="m 242.884,579.769 1.61,21.739 8.857,66.022 -3.221,52.335 -12.882,16.103 -37.842,23.349 8.856,7.247 81.32,-8.052 -4.025,-28.18 0,-34.621 0.805,-46.699 9.662,-26.57 -12.883,-61.997 -39.452,-1.61"
       id="path24"
       inkscape:connector-curvature="0"
       style="fill:#ecbb73" />
    <path
       d="m 376.799,578.159 -1.61,21.739 -8.857,66.022 3.221,52.335 12.882,16.103 37.842,23.349 -8.856,7.246 -81.32,-8.051 4.025,-28.18 0,-34.622 -0.805,-46.699 -9.662,-26.569 12.883,-61.997 39.452,-1.61"
       id="path26"
       inkscape:connector-curvature="0"
       style="fill:#ecbb73" />
  </g>
  <g
     id="arm"
     transform="translate(-135.573,-23.6305)">
    <path
       d="m 377.05,174.546 16.927,13.243 1.459,28.681 25.764,61.25 40.632,10.955 15.489,-22.826 19.565,15.489 -17.935,32.608 -24.456,-1.63 -52.254,-2.998 -37.419,-54.067 -14.674,-62.771 9.783,-30.978 17.119,13.044 z"
       id="path29"
       inkscape:connector-curvature="0"
       style="fill:#ecbb73" />
    <path
       d="m 407.726,240.025 44.358,31.252 -9.578,30.244 25.204,209.187 12.601,54.439 -53.431,-28.732 -9.145,-157.454 -6.985,-78.952 -3.024,-59.984 z"
       id="path31"
       inkscape:connector-curvature="0"
       style="fill:#803c3a" />
    <path
       d="m 480.126,268.2 27.461,-45.265 13.881,14.183 -30.78,39.229 -10.562,-8.147 z"
       id="path33"
       inkscape:connector-curvature="0"
       style="fill:#fff4e0" />
    <path
       d="m 370.888,198.492 -5.432,17.201 -1.132,38.208 26.251,36.944 8.98,18.998 6.089,-24.831 -15.069,-13.125 2.916,-14.098 -16.042,-31.597 -8.07,-9.896 1.509,-17.804 z"
       id="path35"
       inkscape:connector-curvature="0"
       style="fill:#c89347" />
    <path
       d="m 432.146,301.695 22.028,-2.414 -6.035,11.769 -15.993,0.905 0,-10.26 z"
       id="path37"
       inkscape:connector-curvature="0"
       style="fill:#c89347" />
    <path
       d="m 464.587,296.573 -5.82,-1.378 10.649,12.527 -3.757,4.625 13.018,1.532 -5.667,-10.874 -8.423,-6.432 z"
       id="path39"
       inkscape:connector-curvature="0"
       style="fill:#c89347" />
    <path
       d="m 463.444,298.205 9.355,9.053 -26.857,38.324 -13.58,-12.373 31.082,-35.004 z"
       id="path41"
       inkscape:connector-curvature="0"
       style="fill:#fff4e0" />
  </g>
  <g
     id="clothing"
     transform="translate(-135.573,-23.6305)">
    <path
       d="m 228.896,460.824 -1.835,94.498 157.439,12.668 -6.06,-176.892 -2.752,-26.606 -135.783,22.936 -11.009,73.396 z"
       id="path44"
       inkscape:connector-curvature="0"
       style="fill:#5c7c4d" />
    <path
       d="m 212.378,396.282 172.217,-2.424 5.333,-12.57 -10.666,-25.522 -3.922,-71.642 -8.072,-60.666 -5.707,-61.141 -21.195,-12.228 -45.123,27.542 -57.593,-18.574 -25.272,237.225 z"
       id="path46"
       inkscape:connector-curvature="0"
       style="fill:#5c7c4d" />
    <path
       d="m 249.183,147.695 -55.152,33.453 -50.458,135.636 64.372,312.459 35.756,-33.107 80.782,-113.889 43.702,-129.781 29.159,-169.909 -29.622,-23.509 -30.617,-8.143 -33.309,56.859 -54.613,-60.069 z"
       id="path48"
       inkscape:connector-curvature="0"
       style="fill:#803c3a" />
    <path
       d="m 379.874,393.121 -24.381,-1.771 -4.085,10.439 27.06,2.229 1.406,-10.897 z"
       id="path50"
       inkscape:connector-curvature="0"
       style="fill:#48623d" />
  </g>
  <g
     id="ears"
     transform="translate(-135.573,-23.6305)">
    <path
       d="m 257.586,81.2332 -1.787,-4.0801 -5.387,6.558 3.044,14.2871 3.982,6.7918 2.958,-4.585 -2.81,-18.9718 z"
       id="path53"
       inkscape:connector-curvature="0"
       style="fill:#c89347" />
    <path
       d="m 327.653,79.9158 1.868,-4.161 5.387,6.558 -3.045,14.2871 -3.982,6.7921 -3.039,-4.5048 2.811,-18.9714 z"
       id="path55"
       inkscape:connector-curvature="0"
       style="fill:#ecbb73" />
  </g>
  <g
     id="Layer 1"
     transform="translate(-135.573,-23.6305)">
    <path
       d="m 258.155,89.6159 c 0,-29.3123 6.693,-54.1918 33.428,-54.1443 26.736,0.0475 35.33,24.0737 35.33,53.386 0,14.2164 -8.199,38.7824 -8.199,38.7824 0,0 -14.549,18.747 -26.22,18.747 -10.992,0 -25.143,-16.456 -25.143,-16.456 0,0 -9.196,-25.219 -9.196,-40.3151 z"
       id="path58"
       inkscape:connector-curvature="0"
       style="fill:#ecbb73" />
    <path
       d="m 283.596,107.624 9.787,3.691 9.273,-4.744 -6.199,9.997 -5.62,2.023 -7.241,-10.967 z"
       id="path60"
       inkscape:connector-curvature="0"
       style="fill:#c89347" />
    <path
       d="m 282.753,107.835 3.791,-6.003 -3.791,-0.21 -9.094,9.449 9.094,-3.236 z"
       id="path62"
       inkscape:connector-curvature="0"
       style="fill:#c89347" />
    <path
       d="m 302.551,106.887 1.474,-4.423 8.04,9.25 -9.514,-4.827 z"
       id="path64"
       inkscape:connector-curvature="0"
       style="fill:#c89347" />
    <path
       d="m 264.177,74.9248 19.017,6.1264 6.295,4.7215 -0.624,19.3273 -5.611,-3.616 2.937,-9.129 -1.545,-1.2185 -9.23,3.4735 -8.878,-3.2786 -5.148,2.0832 8.252,19.5844 0.321,14.463 11.171,15.383 -14.17,-12.46 -4.65,-15.699 -3.627,-16.6839 -1.291,-10.914 3.165,-24.6322 8.603,-17.3318 -0.808,21.9158 -4.179,7.8849 z"
       id="path66"
       inkscape:connector-curvature="0"
       style="fill:#c89347" />
    <path
       d="m 296.416,85.4466 6.11,-5.5193 13.685,0.9242 4.762,6.792 -11.983,6.8322 -5.434,-3.4357 -4.723,-0.6963 -0.87,5.0996 -1.547,-9.9967 z"
       id="path68"
       inkscape:connector-curvature="0"
       style="fill:#c89347" />
    <path
       d="m 293.238,77.3647 -0.125,5.3404 -0.862,-5.4637 -16.581,-4.9929 -1.663,-0.9887 1.264,-0.5043 9.318,3.7179 7.834,1.0907 8.206,-0.953 7.38,-3.5282 2.656,0.144 -2.325,1.2065 -15.102,4.9313 z"
       id="path70"
       inkscape:connector-curvature="0"
       style="fill:#c89347" />
    <path
       d="m 287.504,80.5549 -5.519,2.795 -3.236,-2.1951 -3.545,0.6561 -5.452,0.2646 -5.112,-0.445 -0.859,-1.6708 1.679,-2.0387 1.45,-1.0123 2.719,-0.2171 2.444,-0.6434 3.677,0.3129 3.211,-1.6517 3.899,1.6967 3.372,1.5196 1.272,2.6292 z"
       id="path72"
       inkscape:connector-curvature="0"
       style="fill:#2f1f18" />
    <path
       d="m 297.744,80.2963 3.329,2.2573 5.422,-1.6037 3.541,0.6777 5.45,0.298 5.114,-0.4136 1.762,-2.0745 -2.559,-1.64 -1.178,-2.2071 -2.983,0.9522 -2.733,-0.8423 -2.98,1.2777 -3.606,-2.4747 -3.91,1.6728 -3.023,1.5027 -1.646,2.6175 z"
       id="path74"
       inkscape:connector-curvature="0"
       style="fill:#2f1f18" />
    <path
       d="m 288.414,129.323 9.183,0.255 1.02,3.826 -5.484,-1.148 -5.867,1.148 1.148,-4.081 z"
       id="path76"
       inkscape:connector-curvature="0"
       style="fill:#c89347" />
    <path
       d="m 328.582,85.2697 2.001,-4.2894 2.383,3.4315 -2.711,11.3319 -1.371,1.1428 2.286,-10.8187 -0.679,-2.317 -1.15,1.9361 0.533,3.0475 -0.99,3.7332 -1.752,-3.1237 1.45,-4.0742 z"
       id="path78"
       inkscape:connector-curvature="0"
       style="fill:#c89347" />
  </g>
  <g
     id="Layer 2"
     transform="translate(-135.573,-23.6305)">
    <path
       d="m 281.418,124.328 23.212,0.183 -4.204,4.386 -6.038,1.206 -9.863,-1.937 -3.107,-3.838 z"
       id="path81"
       inkscape:connector-curvature="0"
       style="fill:#ddb396" />
  </g>
  <g
     id="l eye"
     transform="translate(-135.573,-23.6305)">
    <path
       d="m 268.134,89.1036 2.832,-4.0082 6.561,-1.6894 4.851,4.0807 -6.083,2.9258 -8.161,-1.3089 z"
       id="path84"
       inkscape:connector-curvature="0"
       style="fill:#ffffff" />
    <path
       d="m 271.183,87.4484 c 0,-2.2493 1.824,-4.0728 4.073,-4.0728 2.25,0 4.073,1.8235 4.073,4.0728 0,2.2494 -1.823,4.0729 -4.073,4.0729 -2.249,0 -4.073,-1.8235 -4.073,-4.0729 z"
       id="path86"
       inkscape:connector-curvature="0"
       style="fill:#607f84" />
    <path
       d="m 272.577,87.4484 c 0,-1.4794 1.2,-2.6787 2.679,-2.6787 1.48,0 2.679,1.1993 2.679,2.6787 0,1.4795 -1.199,2.6788 -2.679,2.6788 -1.479,0 -2.679,-1.1993 -2.679,-2.6788 z"
       id="path88"
       inkscape:connector-curvature="0"
       style="fill:#000000" />
    <path
       d="m 268.091,88.9517 7.765,1.5531 6.298,-2.9766 -6.985,6.0224 -5.907,-3.3136 -1.171,-1.2853 z"
       id="path90"
       inkscape:connector-curvature="0"
       style="fill:#ecbb73" />
    <path
       d="m 279.699,85.2256 -8.678,0.4125 -2.93,3.3999 3.611,-5.9126 6.273,-0.0548 1.724,2.155 z"
       id="path92"
       inkscape:connector-curvature="0"
       style="fill:#ecbb73" />
  </g>
  <g
     id="r eye"
     transform="translate(-135.573,-23.6305)">
    <path
       d="m 316.12,88.646 -3.116,-4.0222 -6.277,-1.6754 -4.851,4.0807 6.083,2.9258 8.161,-1.3089 z"
       id="path95"
       inkscape:connector-curvature="0"
       style="fill:#ffffff" />
    <path
       d="m 313.071,86.9909 c 0,-2.2494 -1.824,-4.0729 -4.073,-4.0729 -2.25,0 -4.073,1.8235 -4.073,4.0729 0,2.2493 1.823,4.0728 4.073,4.0728 2.249,0 4.073,-1.8235 4.073,-4.0728 z"
       id="path97"
       inkscape:connector-curvature="0"
       style="fill:#607f84" />
    <path
       d="m 311.677,86.9909 c 0,-1.4795 -1.2,-2.6788 -2.679,-2.6788 -1.48,0 -2.679,1.1993 -2.679,2.6788 0,1.4794 1.199,2.6787 2.679,2.6787 1.479,0 2.679,-1.1993 2.679,-2.6787 z"
       id="path99"
       inkscape:connector-curvature="0"
       style="fill:#000000" />
    <path
       d="m 316.163,88.4942 -7.765,1.553 -6.298,-2.9766 6.985,6.0224 5.907,-3.3136 1.171,-1.2852 z"
       id="path101"
       inkscape:connector-curvature="0"
       style="fill:#ecbb73" />
    <path
       d="m 304.486,84.8224 8.507,0.2518 3.17,3.5062 -3.476,-6.0766 -6.369,0.3238 -1.832,1.9948 z"
       id="path103"
       inkscape:connector-curvature="0"
       style="fill:#ecbb73" />
  </g>
  <g
     id="hair"
     transform="translate(-135.573,-23.6305)">
    <path
       d="m 273.485,36.581 -9.146,6.9333 -5.754,7.9659 -1.77,9.7361 1.18,24.4878 2.066,2.3603 0.737,-24.6353 5.311,-10.3262 9.736,-6.6383 19.819,0.9055 12.809,-1.0855 8.054,6.2858 6.908,8.6407 1.538,28.6816 2.161,-4.1251 1.179,-22.7862 L 325.17,47.856 310.184,33.567 285.331,31.6305 273.485,36.581 z"
       id="path106"
       inkscape:connector-curvature="0"
       style="fill:#2f1f18" />
    <path
       d="m 279.65,124.417 27.311,0.165 -5.61,-1.98 -6.601,-1.651 -1.815,1.156 -2.063,-0.991 -7.261,1.651 -3.961,1.65 z"
       id="path108"
       inkscape:connector-curvature="0"
       style="fill:#ba8764" />
    <path
       d="m 263.833,57.7741 -6.895,2.925 0.836,24.6542 3.538,4.725 -0.718,-27.0809 3.239,-5.2233 z"
       id="path110"
       inkscape:connector-curvature="0"
       style="fill:#424242" />
    <path
       d="m 320.871,56.9662 6.44,-0.339 1.694,6.6093 -2.033,22.2004 -1.864,4.9145 -1.356,-24.9118 -2.881,-8.4734 z"
       id="path112"
       inkscape:connector-curvature="0"
       style="fill:#87867c" />
    <path
       d="m 309.918,159.71 3.882,-3.614 -0.804,-7.362 -3.078,10.976 z"
       id="path114"
       inkscape:connector-curvature="0"
       style="fill:#c89347" />
  </g>
</svg>
