<?xml version="1.0" encoding="UTF-8" standalone="no"?>
<!-- Created with Inkscape (http://www.inkscape.org/) -->

<svg
   xmlns:dc="http://purl.org/dc/elements/1.1/"
   xmlns:cc="http://creativecommons.org/ns#"
   xmlns:rdf="http://www.w3.org/1999/02/22-rdf-syntax-ns#"
   xmlns:svg="http://www.w3.org/2000/svg"
   xmlns="http://www.w3.org/2000/svg"
   xmlns:sodipodi="http://sodipodi.sourceforge.net/DTD/sodipodi-0.dtd"
   xmlns:inkscape="http://www.inkscape.org/namespaces/inkscape"
   width="500"
   height="920"
   viewBox="0 0 132.29166 243.41667"
   version="1.1"
   id="svg8"
   inkscape:version="0.92.2 (5c3e80d, 2017-08-06)"
   sodipodi:docname="people_pheobe.svg">
  <defs
     id="defs2" />
  <sodipodi:namedview
     id="base"
     pagecolor="#ffffff"
     bordercolor="#666666"
     borderopacity="1.0"
     inkscape:pageopacity="0.0"
     inkscape:pageshadow="2"
     inkscape:zoom="1.4"
     inkscape:cx="392.09602"
     inkscape:cy="458.1038"
     inkscape:document-units="px"
     inkscape:current-layer="layer1"
     showgrid="false"
     units="px"
     inkscape:object-nodes="false"
     inkscape:snap-nodes="false"
     inkscape:snap-others="false"
     inkscape:window-width="2047"
     inkscape:window-height="2055"
     inkscape:window-x="2762"
     inkscape:window-y="0"
     inkscape:window-maximized="0" />
  <metadata
     id="metadata5">
    <rdf:RDF>
      <cc:Work
         rdf:about="">
        <dc:format>image/svg+xml</dc:format>
        <dc:type
           rdf:resource="http://purl.org/dc/dcmitype/StillImage" />
        <dc:title></dc:title>
      </cc:Work>
    </rdf:RDF>
  </metadata>
  <g
     inkscape:label="Layer 1"
     inkscape:groupmode="layer"
     id="layer1"
     transform="translate(0,-53.583317)">
    <path
       style="opacity:1;fill:#fa9419;fill-opacity:0.92156863;stroke:#f7931c;stroke-width:0.26458332px;stroke-linecap:butt;stroke-linejoin:miter;stroke-opacity:0.99607843"
       d="m 47.808762,102.74118 4.183924,-1.87842 18.121896,4.50329 6.21368,-6.669932 -4.705253,-2.576632 2.225479,-1.680348 8.739309,-3.058203 5.45871,1.556777 5.691586,20.365838 5.669645,11.90626 -5.669645,14.36309 2.078871,9.26042 -1.322917,3.21279 -3.023809,-0.18899 4.535712,4.72471 -1.700892,7.37053 13.229162,19.27679 6.04762,37.41964 -0.94494,18.14286 3.02381,50.64881 -21.166663,5.48065 -48.56994,-2.45684 -1.322917,-4.34673 3.779761,-6.80357 -3.212796,-84.66667 h -2.078871 l 0.18899,-10.39434 -1.700893,-16.63095 1.840092,-10.49684 25.757808,-26.71603 c 0,0 -3.038008,-4.15982 -7.408536,-13.88646 -4.370528,-9.72664 -13.957983,-15.7815 -13.957983,-15.7815 z"
       id="path4515"
       inkscape:connector-curvature="0"
       sodipodi:nodetypes="cccccccccccccccccccccccccccccczc" />
    <path
       style="fill:#c16f0b;fill-opacity:0.92156863;stroke:none;stroke-width:0.26458332px;stroke-linecap:butt;stroke-linejoin:miter;stroke-opacity:1"
       d="m 72.964581,146.66087 22.852383,2.17245 -1.322917,3.21279 -3.023809,-0.18899 4.535712,4.72471 -21.571389,-5.24374 12.695304,7.88445 7.175193,4.72982 v 0 l -22.275921,-10.87702 9.220797,11.22532 20.312486,10.82442 -20.312486,-7.61718 -11.091685,-9.88898 c 0,0 -2.806329,4.40995 -2.806329,3.87541 0,-0.53454 10.958052,21.9161 10.958052,21.9161 l 5.078118,1.87089 7.082645,-4.40995 -8.953529,5.87993 -8.819896,-7.75081 -7.483546,-14.43256 -4.944486,4.14268 3.34087,13.49711 -5.879931,-15.63527 3.073599,24.72243 10.690783,-0.26726 c 0,0 12.027127,4.00904 11.626223,2.93996 -0.400905,-1.06908 24.455158,-6.01357 24.455158,-6.01357 l 1.06908,2.80633 -28.865108,5.47903 -8.819894,-3.20723 -17.639789,1.06907 -10.230985,2.54609 v 0 l 0.742919,-13.90504 -2.254822,-13.12025 2.388455,-9.46402 -0.334087,-0.86863 20.780205,-10.3567 3.875411,1.33635 z"
       id="path4517"
       inkscape:connector-curvature="0"
       sodipodi:nodetypes="ccccccccccccccscccccccccccscccccccccccccc" />
    <path
       style="fill:#c16f0b;fill-opacity:0.92156863;stroke:none;stroke-width:0.26458332px;stroke-linecap:butt;stroke-linejoin:miter;stroke-opacity:1"
       d="m 54.657514,106.14968 c 0.944941,0.94494 15.457068,-0.78363 15.457068,-0.78363 l -13.590115,2.55609 z"
       id="path4519"
       inkscape:connector-curvature="0"
       sodipodi:nodetypes="cccc" />
    <path
       style="fill:#c16f0b;fill-opacity:0.92156863;stroke:none;stroke-width:0.26458332px;stroke-linecap:butt;stroke-linejoin:miter;stroke-opacity:1"
       d="m 57.183957,108.94339 14.159049,4.64365 6.425594,-2.26786 2.362351,-9.07143 -2.267858,10.86682 -6.236605,3.30729 -11.555135,-4.71521 z"
       id="path4521"
       inkscape:connector-curvature="0"
       sodipodi:nodetypes="cccccccc" />
    <path
       style="fill:#c16f0b;fill-opacity:0.92156863;stroke:none;stroke-width:0.26458332px;stroke-linecap:butt;stroke-linejoin:miter;stroke-opacity:1"
       d="m 76.459928,120.58631 6.222363,-6.24332 1.795385,-5.66965 1.228424,7.84301 -6.614584,8.40997 -13.021185,-5.54944 -2.313711,-2.63437 z"
       id="path4523"
       inkscape:connector-curvature="0"
       sodipodi:nodetypes="cccccccc" />
    <path
       style="fill:#c16f0b;stroke:none;stroke-width:0.26458332px;stroke-linecap:butt;stroke-linejoin:miter;stroke-opacity:1;fill-opacity:0.92156863"
       d="m 92.320683,199.76561 -20.505208,12.6622 -6.709077,-19.27679 c 0,0 2.267858,19.93825 2.929316,20.31622 0.661459,0.37798 6.047618,4.34673 6.047618,4.34673 l 18.615327,-15.30804 c 0,0 7.370541,-4.15773 6.992559,-4.15773 -0.377976,0 -7.370535,1.41741 -7.370535,1.41741 z"
       id="path4525"
       inkscape:connector-curvature="0" />
    <path
       style="fill:#c16f0b;stroke:none;stroke-width:0.26458332px;stroke-linecap:butt;stroke-linejoin:miter;stroke-opacity:1;fill-opacity:0.92156863"
       d="m 60.003718,194.09596 5.197174,28.6317 11.717263,1.5119 -12.378722,3.11831 -3.401785,-6.3311 -2.834822,-27.0253 z"
       id="path4527"
       inkscape:connector-curvature="0" />
    <path
       style="fill:#c16f0b;stroke:none;stroke-width:0.26458332px;stroke-linecap:butt;stroke-linejoin:miter;stroke-opacity:1;fill-opacity:0.92156863"
       d="m 53.320269,194.10121 5.266039,45.2574 15.591518,9.07143 10.016371,-7.9375 17.386903,-18.61533 -15.402529,20.97768 -12.000745,9.92188 -11.150296,-5.00819 -9.165923,-11.0558 -3.118305,-37.23066 -1.606397,3.11831 2.929313,41.57738 18.142858,34.8683 5.008184,-1.32291 24.001489,-39.49852 -20.410715,41.57738 -6.614583,4.25224 -7.748511,-5.29167 -10.583333,-20.50521 -4.252233,-16.81994 2.929316,32.97842 12.851191,10.48884 c 0,0 8.787945,2.45685 8.315476,2.07887 -0.472472,-0.37797 -20.788691,-3.87425 -20.788691,-3.87425 l -2.267857,3.21279 16.630951,2.07887 -11.150296,0.85045 16.063987,0.66146 1.889881,3.68527 14.079614,-0.85045 14.552084,-1.98438 12.94568,-1.32291 -24.001485,5.57515 -30.143601,-1.32292 -15.591517,-1.22842 -1.322917,-4.34673 3.779761,-6.80357 -3.212796,-84.66667 z"
       id="path4529"
       inkscape:connector-curvature="0" />
    <path
       style="opacity:1;fill:#f0b696;fill-opacity:1;stroke:none;stroke-width:0.26458332px;stroke-linecap:butt;stroke-linejoin:miter;stroke-opacity:1"
       d="m 52.727677,101.3973 3.401787,-2.92931 -0.661458,-10.205358 -0.0945,-3.874256 -2.456844,-2.267858 -0.850448,-4.157737 3.685271,-3.212798 1.322916,2.362351 -0.850447,4.630208 0.755951,3.212799 0.755955,-4.252233 -0.283483,-5.291667 2.362351,-6.520089 3.118302,-1.984375 7.370538,0.661458 0.377975,-1.41741 3.02381,2.834821 1.984375,2.504088 2.929315,1.086682 -0.661458,3.874256 0.188987,3.023809 -0.283483,0.661458 -0.377976,2.740327 -2.36235,6.331103 -3.655625,6.936221 1.19878,0.623301 2.362351,-0.377976 1.228424,2.55134 -6.142115,6.425595 z"
       id="path4531"
       inkscape:connector-curvature="0"
       sodipodi:nodetypes="cccccccccccccccccccccccccccccc" />
    <path
       style="opacity:1;fill:#d2865c;fill-opacity:0.6;stroke:none;stroke-width:0.26458332px;stroke-linecap:butt;stroke-linejoin:miter;stroke-opacity:1"
       d="m 62.933032,66.906977 -1.511901,3.96875 -0.283483,2.693081 1.511905,0.283482 -2.693081,1.181176 -0.141737,2.834821 3.685267,-1.228423 4.819198,1.889881 1.22842,1.606398 -0.661458,1.795389 0.566965,4.346725 -0.283482,1.039435 1.795388,0.377975 0.661458,-0.755951 1.322917,-0.472472 -0.850448,1.228423 -2.034979,1.212211 -0.156296,0.768399 -0.568417,-0.06218 0.04125,-0.792793 -0.553704,-0.146202 -0.41605,0.821297 -1.22549,-0.0053 -1.677269,-2.716703 2.551338,-3.685268 -0.118118,-2.102492 -7.866629,-0.448728 -0.377978,4.181243 2.805872,8.927716 4.304805,2.647801 3.620244,0.405649 -1.612245,0.940891 -2.474738,-0.284465 -3.706413,-1.168413 -6.504675,-6.224763 -0.755957,-5.575149 -2.456844,-2.267858 -0.85045,-4.157737 3.685273,-3.212798 c 0,0 1.37576,1.986908 1.417409,2.48047 l -0.992186,4.370348 0.826822,3.260045 0.453932,-9.491595 2.357266,-6.477899 z"
       id="path4533"
       inkscape:connector-curvature="0"
       sodipodi:nodetypes="ccccccccccccccccccccccccccccccccccccccccccccc" />
    <path
       style="fill:#b77755;fill-opacity:1;stroke:none;stroke-width:0.26458332px;stroke-linecap:butt;stroke-linejoin:miter;stroke-opacity:1"
       d="m 61.25336,78.956974 -1.981969,-0.4981 0.992189,-1.700892 2.905693,-0.590588 4.086865,1.582775 1.488281,1.937128 -0.803198,1.299294 -0.938209,-0.303829 -1.52198,-1.641079 -2.939962,-0.701582 z"
       id="path4547"
       inkscape:connector-curvature="0"
       sodipodi:nodetypes="ccccccccccc" />
    <path
       style="fill:#b77755;fill-opacity:1;stroke:none;stroke-width:0.26458332px;stroke-linecap:butt;stroke-linejoin:miter;stroke-opacity:1"
       d="m 71.966856,81.452366 c -0.529357,-0.253164 -0.269499,-1.646952 -0.269499,-1.646952 l 1.689227,-1.598785 3.141231,0.254616 1.145595,1.74507 -0.523481,1.311938 -0.611239,-0.141923 -0.720416,-1.173314 -2.735006,0.104452 -0.643346,0.564104 -0.473066,0.580791 v 0"
       id="path4549"
       inkscape:connector-curvature="0"
       sodipodi:nodetypes="cccccccccccc" />
    <path
       style="fill:#b77755;fill-opacity:1;stroke:none;stroke-width:0.26458332px;stroke-linecap:butt;stroke-linejoin:miter;stroke-opacity:1"
       d="m 68.342819,84.246636 0.472471,1.653646 -0.519718,0.04725 -0.921316,-0.637836 -0.921319,0.992187 0.685083,0.543341 1.393788,0.59059 1.039434,0.661458 1.299292,0.07087 0.685083,-0.755951 -0.566965,0.779576 -0.540471,0.164873 -1.086682,-0.07746 -2.554208,-0.89061 -0.826823,-1.27567 1.157552,-1.606399 z"
       id="path4551"
       inkscape:connector-curvature="0"
       sodipodi:nodetypes="ccccccccccccccccc" />
    <path
       style="fill:#643f2a;stroke:none;stroke-width:0.26458332px;stroke-linecap:butt;stroke-linejoin:miter;stroke-opacity:1;fill-opacity:1"
       d="m 67.019902,86.963338 1.441035,0.661458 h -0.472469 l -0.755955,-0.307104 z"
       id="path4553"
       inkscape:connector-curvature="0" />
    <path
       style="fill:#643f2a;fill-opacity:1;stroke:none;stroke-width:0.26458332px;stroke-linecap:butt;stroke-linejoin:miter;stroke-opacity:1"
       d="m 71.17764,87.837408 0.826823,-0.661458 -0.377976,0.519718 z"
       id="path4555"
       inkscape:connector-curvature="0" />
    <path
       style="fill:#3f3935;fill-opacity:0.99607843;stroke:none;stroke-width:0.26458332px;stroke-linecap:butt;stroke-linejoin:miter;stroke-opacity:1"
       d="m 67.669303,77.096365 -4.426653,-2.154861 -3.92552,2.204974 0.65147,0.300678 0.88533,-0.668174 2.639286,-0.300678 3.758477,1.436574 0.968854,-0.06682 z"
       id="path4565"
       inkscape:connector-curvature="0"
       sodipodi:nodetypes="ccccccccc" />
    <path
       style="fill:#3f3935;fill-opacity:0.99607843;stroke:none;stroke-width:0.26458332px;stroke-linecap:butt;stroke-linejoin:miter;stroke-opacity:1"
       d="m 72.597085,78.189761 c 0,0 3.376771,-0.877293 3.27405,-0.968852 l 1.102489,0.30068 0.768398,1.804069 -0.100226,0.50113 -0.06682,0.250565 -1.135895,-1.536799 -2.871342,-0.145611 -1.237927,0.730264 z"
       id="path4567"
       inkscape:connector-curvature="0"
       sodipodi:nodetypes="cccccccccc" />
    <path
       style="fill:#844740;fill-opacity:1;stroke:none;stroke-width:0.26458332px;stroke-linecap:butt;stroke-linejoin:miter;stroke-opacity:1"
       d="m 64.629604,90.420701 0.11169,-0.29544 3.345617,-0.259161 0.618061,0.551243 0.751695,0.0167 0.501131,-0.250566 1.286235,0.484426 c 0,0 0.676279,0.723323 0.576055,0.689916 -0.100227,-0.03341 -0.74883,0.245529 -0.74883,0.245529 l -1.080051,-0.534541 -0.818512,0.03341 -0.384202,0.334087 -0.634764,-0.551244 -1.870887,-0.06682 -0.417608,0.08352 z"
       id="path4569"
       inkscape:connector-curvature="0"
       sodipodi:nodetypes="cccccccccccccccc" />
    <path
       style="fill:#b36b63;fill-opacity:1;stroke:none;stroke-width:0.26499999;stroke-linecap:butt;stroke-linejoin:miter;stroke-miterlimit:4;stroke-dasharray:none;stroke-opacity:1"
       d="m 71.143806,91.670169 -0.183748,0.58465 -1.336346,0.734991 -2.405425,-0.116929 -1.770661,-1.603616 0.068,-0.474644 0.858842,-0.01669 1.745849,0.05703 0.675094,0.455562 0.393984,-0.256299 0.851921,0.0012 z"
       id="path4571"
       inkscape:connector-curvature="0"
       sodipodi:nodetypes="cccccccccccc" />
    <path
       style="fill:#cf8f6f;fill-opacity:1;stroke:none;stroke-width:0.26458332px;stroke-linecap:butt;stroke-linejoin:miter;stroke-opacity:1"
       d="m 69.783853,97.097824 -0.236236,2.929316 -4.118817,1.1523 -1.361836,-1.435781 -1.089256,-1.476365 -1.03686,0.531423 2.952938,4.086873 2.291485,0.42522 1.960753,-0.0945 0.732327,-1.72451 0.141742,1.60639 -1.039434,1.15756 -6.142114,-1.11031 -1.181176,-0.2126 -1.464657,0.16536 -7.252417,-1.91351 3.307291,-2.7167 -1.015812,-13.937874 0.968563,5.551527 6.636409,6.168687 3.545326,1.674317 2.574962,-0.354351 z"
       id="path4573"
       inkscape:connector-curvature="0"
       sodipodi:nodetypes="ccccccccccccccccccccccc" />
    <path
       style="fill:#403a36;fill-opacity:1;stroke:none;stroke-width:0.26458332px;stroke-linecap:butt;stroke-linejoin:miter;stroke-opacity:1"
       d="m 57.027158,85.120704 0.826821,-4.393974 -0.377975,-5.008183 2.409598,-6.7327 3.638022,1.204798 7.063429,-1.866258 0.141741,-2.173362 2.716705,2.834821 2.078869,2.62221 2.551339,1.228422 -0.118117,3.260045 2.598586,-2.976563 -0.401601,-2.834821 -1.878012,-3.805124 -3.908986,-4.703502 -4.837547,-2.462577 -2.010657,1.08529 -4.74502,-0.810897 -8.628363,3.430613 -4.099773,8.90669 -0.567946,5.61266 0.367495,3.274052 3.57473,5.712886 c 0,0 0.06682,1.870887 0.133636,1.737252 0.06681,-0.133636 -0.835218,1.202713 -0.835218,1.202713 l -0.467723,4.877668 3.10701,4.510175 0.971227,-0.294948 -0.919927,-14.190587 -2.456727,-2.28563 -0.768401,-3.942224 3.649656,-3.366172 1.261424,2.464137 -1.071453,4.818958 z"
       id="path4575"
       inkscape:connector-curvature="0"
       sodipodi:nodetypes="ccccccccccccccccccccccccccccccccccc" />
    <path
       style="fill:#b77755;stroke:none;stroke-width:0.26458332px;stroke-linecap:butt;stroke-linejoin:miter;stroke-opacity:1;fill-opacity:1"
       d="m 56.260235,79.342362 -1.503392,-1.837478 -1.069078,0.567947 -0.06682,2.138158 1.102487,1.169302 0.367496,1.069078 0.701582,0.701582 -0.03341,-1.202711 -0.668176,-1.369756 0.902036,-0.30068 z"
       id="path4577"
       inkscape:connector-curvature="0" />
    <path
       style="fill:#dc9571;fill-opacity:1;stroke:none;stroke-width:0.26458332px;stroke-linecap:butt;stroke-linejoin:miter;stroke-opacity:1"
       d="m 71.69505,86.75909 -0.434314,-0.567947 0.400905,-3.574729 -0.497077,-2.34434 1.14904,-1.12779 -0.618554,1.066705 0.300678,1.302938 -0.200451,0.935442 0.06682,2.772923 0.801807,1.23612 -0.968851,-0.868624 v 0.634764 z"
       id="path4579"
       inkscape:connector-curvature="0"
       sodipodi:nodetypes="ccccccccccccc" />
    <path
       style="fill:#b77755;fill-opacity:1;stroke:none;stroke-width:0.26458332px;stroke-linecap:butt;stroke-linejoin:miter;stroke-opacity:1"
       d="m 55.358201,84.854796 1.670434,5.512432 5.779703,5.779703 3.507913,1.269533 2.839738,0.167042 0.501132,-0.200451 -0.08639,0.918534 -3.073599,1.418395 -2.989297,-0.664815 -0.770081,-0.794686 -1.44734,0.726596 -0.121766,0.861796 -3.204572,-0.995837 -1.449019,-0.14932 z"
       id="path4581"
       inkscape:connector-curvature="0"
       sodipodi:nodetypes="ccccccccccccccc" />
    <path
       style="fill:#cf8f6f;fill-opacity:1;stroke:none;stroke-width:0.26458332px;stroke-linecap:butt;stroke-linejoin:miter;stroke-opacity:1"
       d="m 71.591465,98.454506 -0.12356,3.535594 2.866432,-2.301847 -2.467208,1.143717 z"
       id="path4583"
       inkscape:connector-curvature="0"
       sodipodi:nodetypes="ccccc" />
    <g
       id="g4605"
       transform="rotate(-3.3273349,62.270001,70.665265)">
      <path
         sodipodi:nodetypes="cccccccc"
         inkscape:connector-curvature="0"
         id="path4535"
         d="m 61.286074,78.815929 1.703843,-0.334087 2.85644,0.734991 1.085785,1.536799 -2.104749,0.167044 -2.405425,-0.601355 -1.102487,-0.668175 c 1.129659,0.686882 -0.0206,-0.555398 -0.03341,-0.835217 z"
         style="fill:#f8f8f8;fill-opacity:1;stroke:none;stroke-width:0.26458332px;stroke-linecap:butt;stroke-linejoin:miter;stroke-opacity:1" />
      <circle
         r="1.5200951"
         cy="79.701263"
         cx="64.075699"
         id="path4537"
         style="opacity:0.68800001;fill:#2b5c1d;fill-opacity:1;stroke:none;stroke-width:0.56499994;stroke-miterlimit:4;stroke-dasharray:none;stroke-opacity:0.99607843" />
      <circle
         style="opacity:1;fill:#000000;fill-opacity:1;stroke:none;stroke-width:0.31664827;stroke-miterlimit:4;stroke-dasharray:none;stroke-opacity:0.99607843"
         id="circle4539"
         cx="64.075699"
         cy="79.728935"
         r="0.85192132" />
      <path
         sodipodi:nodetypes="ccccccc"
         inkscape:connector-curvature="0"
         id="path4557"
         d="m 60.972284,79.191203 1.735058,-1.525355 2.68654,0.430313 1.437033,2.347085 -1.370165,-1.086681 -2.433222,-0.519717 z"
         style="fill:#caa28d;fill-opacity:1;stroke:none;stroke-width:0.26458332px;stroke-linecap:butt;stroke-linejoin:miter;stroke-opacity:1" />
      <path
         sodipodi:nodetypes="ccccccc"
         inkscape:connector-curvature="0"
         id="path4561"
         d="m 62.342447,80.25426 2.716705,0.685083 0.94494,-0.07087 -1.604024,0.555994 -2.199361,-0.674112 -0.921319,-1.15755 z"
         style="fill:#b77755;fill-opacity:1;stroke:none;stroke-width:0.26499999;stroke-linecap:butt;stroke-linejoin:miter;stroke-miterlimit:4;stroke-dasharray:none;stroke-opacity:1" />
      <path
         sodipodi:nodetypes="ccccccccc"
         inkscape:connector-curvature="0"
         id="path4585"
         d="m 61.326635,79.073085 1.771765,-0.212611 2.504092,0.47247 -3.236422,-1.157552 0.118117,0.377976 -1.55915,-0.425219 0.401598,0.496094 -1.653646,0.09449 z"
         style="fill:#403a36;fill-opacity:1;stroke:none;stroke-width:0.26458332px;stroke-linecap:butt;stroke-linejoin:miter;stroke-opacity:1" />
    </g>
    <g
       id="g4613"
       transform="matrix(1.031799,0.08879904,-0.08879904,1.031799,4.9607508,-9.3682513)">
      <path
         sodipodi:nodetypes="ccccccccc"
         style="fill:#f8f8f8;fill-opacity:1;stroke:none;stroke-width:0.26458332px;stroke-linecap:butt;stroke-linejoin:miter;stroke-opacity:1"
         d="m 76.405054,81.376332 -0.720415,-1.139905 -3.018981,-0.146113 -0.259145,0.864784 -0.573291,0.530676 1.406721,0.580323 2.477699,0.0933 0.473613,-0.349735 z"
         id="path4541"
         inkscape:connector-curvature="0" />
      <circle
         transform="matrix(-0.96032925,-0.27886865,-0.27886865,0.96032925,0,0)"
         style="opacity:0.68800001;fill:#2b5c1d;fill-opacity:1;stroke:none;stroke-width:0.52902824;stroke-miterlimit:4;stroke-dasharray:none;stroke-opacity:0.99607843"
         id="circle4543"
         cx="-93.846672"
         cy="57.111313"
         r="1.4233156" />
      <circle
         transform="matrix(-0.96032925,-0.27886865,-0.27886865,0.96032925,0,0)"
         r="0.79768229"
         cy="57.146049"
         cx="-93.828865"
         id="circle4545"
         style="opacity:1;fill:#000000;fill-opacity:1;stroke:none;stroke-width:0.29648831;stroke-miterlimit:4;stroke-dasharray:none;stroke-opacity:0.99607843" />
      <path
         style="fill:#caa28d;fill-opacity:1;stroke:none;stroke-width:0.26458332px;stroke-linecap:butt;stroke-linejoin:miter;stroke-opacity:1"
         d="m 75.712169,79.796122 -2.379056,-0.433822 -0.900068,1.062568 -0.633087,1.185719 0.708707,-0.566964 0.897694,-0.614211 1.978231,0.142188 1.049034,0.888428 z"
         id="path4559"
         inkscape:connector-curvature="0"
         sodipodi:nodetypes="ccccccccc" />
      <path
         sodipodi:nodetypes="ccccccc"
         inkscape:connector-curvature="0"
         id="path4563"
         d="m 73.357285,82.02726 1.830187,0.03173 1.296223,-0.399227 -1.036977,0.80942 -1.987034,0.140354 -1.051749,-0.959245 z"
         style="fill:#b77755;fill-opacity:1;stroke:none;stroke-width:0.26458332px;stroke-linecap:butt;stroke-linejoin:miter;stroke-opacity:1" />
      <path
         inkscape:connector-curvature="0"
         id="path4587"
         d="m 73.469121,80.325133 2.173364,0.448844 0.708705,0.543343 0.755952,0.07087 -0.543341,-0.283483 0.354354,-0.09449 -0.897694,-0.472469 0.448847,-0.141743 z"
         style="fill:#403a36;fill-opacity:1;stroke:none;stroke-width:0.26458332px;stroke-linecap:butt;stroke-linejoin:miter;stroke-opacity:1" />
    </g>
    <path
       style="opacity:1;fill:#bd444c;fill-opacity:0.99607843;stroke:none;stroke-width:0.26458332px;stroke-linecap:butt;stroke-linejoin:miter;stroke-opacity:1"
       d="m 45.43582,159.08891 c -19.452059,1.02584 -26.420117,-12.37126 -25.925144,-27.19468 0.494973,-14.82342 14.669688,-26.49148 14.76664,-33.609141 0.09695,-7.11766 -0.601356,-7.884451 -0.601356,-7.884451 0,0 -2.63272,-0.298412 -2.00452,-2.405425 0.6282,-2.107013 3.308783,-2.620632 9.621702,-2.939966 6.312919,-0.319334 9.217925,1.164317 9.621701,2.739513 0.403776,1.575196 -1.069076,2.405426 -1.069076,2.405426 0,0 -0.10836,0.30266 -0.200453,7.349913 -0.09209,7.047251 19.553758,17.693001 19.243406,31.203721 -0.310352,13.51071 -4.000842,29.30925 -23.4529,30.33509 z"
       id="path4593"
       inkscape:connector-curvature="0"
       sodipodi:nodetypes="zzzczzzczzz" />
    <path
       style="fill:#9a242b;fill-opacity:1;stroke:none;stroke-width:0.26458332px;stroke-linecap:butt;stroke-linejoin:miter;stroke-opacity:1"
       d="M 46.872393,90.701315 C 44.751677,91.41259 39.889977,91.4029 39.889977,91.4029 l -0.133632,5.679478 c -2.318657,9.946702 -12.042053,18.907732 -12.227582,30.936442 -0.185529,12.02871 9.475362,23.28538 20.245667,23.58654 10.770305,0.30115 21.114293,-16.9048 21.114293,-16.9048 0,0 -1.175101,20.92787 -18.441597,24.12108 -17.266497,3.1932 -33.970535,-8.94318 -31.136901,-28.13012 2.833634,-19.18694 15.306357,-28.4313 15.234363,-33.876411 -0.07199,-5.445112 -1.135895,-6.548102 -1.135895,-6.548102 0,0 -1.378185,-0.261764 -1.670921,-0.787465 -0.292736,-0.525702 0.20094,-1.751598 0.20094,-1.751598 0,0 -0.407582,2.449521 6.949004,2.739515 7.356587,0.289994 11.559408,-1.403166 11.559408,-1.403166 0,0 -1.454015,0.925747 -3.574731,1.637022 z"
       id="path4597"
       inkscape:connector-curvature="0"
       sodipodi:nodetypes="zcczzczzzczczcz" />
    <path
       style="opacity:1;fill:#f0b696;fill-opacity:1;stroke:none;stroke-width:0.26458332px;stroke-linecap:butt;stroke-linejoin:miter;stroke-opacity:1"
       d="m 88.332579,93.607872 9.220798,9.488068 0.801809,2.93997 c 0,0 8.686254,11.22531 7.884454,10.82441 -0.80181,-0.4009 6.949,7.21628 6.949,7.21628 l 1.46999,7.75082 -3.60814,0.93544 -5.66802,4.5584 -18.65351,1.32153 -10.400583,2.82925 -7.940786,8.32925 -6.915599,0.73499 -3.741775,-2.73951 -3.207234,0.20045 0.400905,-2.53906 6.681737,-2.40543 5.746295,-5.87992 -5.612659,-4.94449 -0.768402,-3.54132 0.896741,-0.83005 0.940737,0.32892 0.935444,2.17156 4.543584,1.60362 3.474503,2.67269 17.372517,-4.27631 10.690783,-4.94448 -6.41447,-13.63075 z"
       id="path4591"
       inkscape:connector-curvature="0"
       sodipodi:nodetypes="cccccccccccccccccccccccccccc" />
    <path
       style="fill:#cf8f6f;fill-opacity:1;stroke:none;stroke-width:0.26458332px;stroke-linecap:butt;stroke-linejoin:miter;stroke-opacity:1"
       d="m 21.715649,144.8568 4.877669,6.88219 2.004521,-4.54357 2.204973,0.73498 -1.737251,5.87993 2.204974,-4.34313 1.670434,0.13364 0.267268,1.33634 -1.737251,4.81086 0.935445,0.60135 1.603616,-4.00904 1.403164,-0.80181 0.601359,0.93545 -0.734992,3.20723 -0.734991,1.26953 1.069078,0.73499 1.670434,-2.87315 1.737251,-0.13363 0.267269,1.26953 -2.204971,3.27405 -1.80407,0.46772 -1.002263,-1.00226 -2.204971,0.46772 -1.670436,-1.87088 -1.269529,0.0668 -1.403165,-1.60361 -0.334087,-0.0668 -1.670435,-0.73499 -0.06682,-2.20498 -1.069078,-2.73951 -2.405426,-1.73725 -0.868625,-1.80407 z"
       id="path4595"
       inkscape:connector-curvature="0"
       sodipodi:nodetypes="ccccccccccccccccccccccccccccccccc" />
    <path
       style="opacity:1;fill:#de9973;fill-opacity:1;stroke:none;stroke-width:0.26458332px;stroke-linecap:butt;stroke-linejoin:miter;stroke-opacity:1"
       d="m 93.343882,110.2454 5.545842,7.21628 4.476766,4.54358 -0.13364,1.9377 -3.674952,1.57021 -2.505651,-5.14493 -3.908818,-8.18514 z"
       id="path4615"
       inkscape:connector-curvature="0"
       sodipodi:nodetypes="cccccccc" />
    <path
       style="fill:#de9973;stroke:none;stroke-width:0.26458332px;stroke-linecap:butt;stroke-linejoin:miter;stroke-opacity:1;fill-opacity:1"
       d="m 107.04144,129.62244 4.47677,-2.33861 -1.00226,1.67044 z"
       id="path4617"
       inkscape:connector-curvature="0" />
    <path
       style="fill:#de9973;fill-opacity:1;stroke:none;stroke-width:0.26458332px;stroke-linecap:butt;stroke-linejoin:miter;stroke-opacity:1"
       d="m 61.872894,127.88519 1.469982,3.94223 5.14494,3.60813 -0.467723,1.80407 -6.34765,6.01357 1.269529,2.07134 4.543583,-2.87315 3.207235,-2.00452 -3.006784,2.53906 1.469983,1.73725 2.472243,-1.73725 -2.271789,2.47224 0.868624,1.40317 1.937705,-1.5368 3.875408,-3.67496 10.757598,-4.34313 17.305702,-1.60362 6.99626,-3.13706 3.32129,-0.70732 -0.76266,1.2385 -2.07134,0.66818 -6.01357,3.54132 -18.976133,1.5368 -10.156243,2.87315 -7.88445,8.41899 -6.882191,0.53454 -4.009044,-2.73952 -3.173823,-0.0668 0.43431,-2.33861 6.681737,-2.53906 5.746295,-5.7463 -5.545841,-4.67721 -0.868628,-3.87541 z"
       id="path4619"
       inkscape:connector-curvature="0"
       sodipodi:nodetypes="cccccccccccccccccccccccccccccccccc" />
    <path
       style="fill:#c28461;stroke:none;stroke-width:0.26458332px;stroke-linecap:butt;stroke-linejoin:miter;stroke-opacity:1;fill-opacity:1"
       d="m 55.458425,146.92814 4.877671,-0.46772 2.806329,-1.00226 4.142677,-2.93996 -0.267269,0.73499 -3.474503,3.00678 -4.476766,1.13589 -4.142676,0.20046 z"
       id="path4621"
       inkscape:connector-curvature="0" />
    <path
       style="fill:#c28461;stroke:none;stroke-width:0.26499999;stroke-linecap:butt;stroke-linejoin:miter;stroke-opacity:1;fill-opacity:1;stroke-miterlimit:4;stroke-dasharray:none;opacity:1"
       d="m 63.443103,146.25997 1.870887,0.90203 3.608139,-2.07133 -0.935445,1.20271 -2.23838,1.67043 1.670434,1.20271 2.639287,-1.87088 -1.236123,1.30294 1.80407,-0.90204 -2.271792,2.3052 -6.815373,0.53454 -3.80859,-2.50565 -2.77292,-0.16704 0.100224,-0.43432 4.10927,-0.13363 z"
       id="path4623"
       inkscape:connector-curvature="0" />
    <path
       style="fill:#ffffff;fill-opacity:0.656;stroke:none;stroke-width:0.26458332px;stroke-linecap:butt;stroke-linejoin:miter;stroke-opacity:1"
       d="m 65.013583,79.72308 0.944941,0.07087 -0.236236,0.661457 -0.590587,-0.354352 z"
       id="path4625"
       inkscape:connector-curvature="0" />
    <path
       inkscape:connector-curvature="0"
       id="path4627"
       d="m 74.624995,81.104012 0.944941,0.07087 -0.401601,0.448845 -0.425222,-0.14174 z"
       style="fill:#ffffff;fill-opacity:0.656;stroke:none;stroke-width:0.26458332px;stroke-linecap:butt;stroke-linejoin:miter;stroke-opacity:1"
       sodipodi:nodetypes="ccccc" />
    <ellipse
       style="opacity:1;fill:#751b21;fill-opacity:1;stroke:none;stroke-width:0.26499999;stroke-miterlimit:4;stroke-dasharray:none;stroke-opacity:1"
       id="path4629"
       cx="41.493595"
       cy="87.661125"
       rx="7.91786"
       ry="1.9042953" />
  </g>
</svg>
