<?xml version="1.0" encoding="UTF-8" standalone="no"?>
<svg
   xmlns:dc="http://purl.org/dc/elements/1.1/"
   xmlns:cc="http://creativecommons.org/ns#"
   xmlns:rdf="http://www.w3.org/1999/02/22-rdf-syntax-ns#"
   xmlns:svg="http://www.w3.org/2000/svg"
   xmlns="http://www.w3.org/2000/svg"
   xmlns:sodipodi="http://sodipodi.sourceforge.net/DTD/sodipodi-0.dtd"
   xmlns:inkscape="http://www.inkscape.org/namespaces/inkscape"
   width="258.70001"
   viewBox="0 0 206.96001 833.84063"
   version="1.1"
   height="1042.3008"
   id="svg2"
   inkscape:version="0.48.3.1 r9886"
   sodipodi:docname="images.image.a59978facee731f0.44726177696e672031382e737667.svg">
  <metadata
     id="metadata154">
    <rdf:RDF>
      <cc:Work
         rdf:about="">
        <dc:format>image/svg+xml</dc:format>
        <dc:type
           rdf:resource="http://purl.org/dc/dcmitype/StillImage" />
      </cc:Work>
    </rdf:RDF>
  </metadata>
  <sodipodi:namedview
     pagecolor="#ffffff"
     bordercolor="#666666"
     borderopacity="1"
     objecttolerance="10"
     gridtolerance="10"
     guidetolerance="10"
     inkscape:pageopacity="0"
     inkscape:pageshadow="2"
     inkscape:window-width="1627"
     inkscape:window-height="1026"
     id="namedview152"
     showgrid="false"
     fit-margin-top="240"
     fit-margin-left="10"
     fit-margin-right="10"
     fit-margin-bottom="10"
     inkscape:zoom="0.87777778"
     inkscape:cx="124.275"
     inkscape:cy="614.1256"
     inkscape:window-x="53"
     inkscape:window-y="24"
     inkscape:window-maximized="1"
     inkscape:current-layer="svg2" />
  <defs
     id="defs4" />
  <g
     id="legs"
     transform="translate(-206.58,128.8186)">
    <path
       d="m 267.294,490.269 0,26.182 -6.461,34.684 12.583,107.711 -3.386,9.407 -7.045,11.496 -13.073,6.544 -4.65,6.819 8.072,2.774 17.243,0.345 16.899,0 9.311,-2.069 -1.379,-14.83 -2.236,-17.928 -0.523,-70.679 4.568,-27.689 -1.36,-43.864 1.36,-30.943 -29.923,2.04 z"
       id="path10"
       inkscape:connector-curvature="0"
       style="fill:#ffd79d" />
    <path
       d="m 359.229,491.06 0,26.183 6.461,34.683 -12.583,107.712 3.386,9.407 7.046,11.496 13.072,6.543 4.65,6.82 -8.071,2.774 -17.244,0.344 -16.898,0 -9.312,-2.069 1.38,-14.829 2.235,-17.929 0.524,-70.678 -4.569,-27.69 1.36,-43.864 -1.36,-30.943 29.923,2.04 z"
       id="path12"
       inkscape:connector-curvature="0"
       style="fill:#ffd79d" />
    <path
       d="m 352.594,517.108 -13.452,1.261 7.417,6.775 5.433,-1.207 0.602,-6.829 z"
       id="path14"
       inkscape:connector-curvature="0"
       style="fill:#ecbb73" />
    <path
       d="m 359.254,498.764 -29.495,0.857 1.173,15.466 5.162,-1.534 3.348,-4.883 11.022,0.279 4.717,2.649 3.654,-0.975 0.419,-11.859 z"
       id="path16"
       inkscape:connector-curvature="0"
       style="fill:#ecbb73" />
  </g>
  <g
     id="Layer 3"
     transform="translate(-206.58,128.8186)">
    <path
       d="m 257.855,346.656 0.033,307.484 115.654,8.327 -4.222,-318.907 -111.465,3.096 z"
       id="path19"
       inkscape:connector-curvature="0"
       style="fill:#a84f4c" />
    <path
       d="m 259.184,350.287 -0.191,13.8 59.514,13.68 52.659,-8.257 -0.517,-22.32 -111.465,3.097 z"
       id="path21"
       inkscape:connector-curvature="0"
       style="fill:#803c3a" />
  </g>
  <g
     id="Layer 9"
     transform="translate(-206.58,128.8186)">
    <path
       d="m 271.969,155.393 -1.031,63.3 81.857,-1.958 -8.305,-61.042 -72.521,-0.3 z"
       id="path24"
       inkscape:connector-curvature="0"
       style="fill:#2f1f18" />
  </g>
  <g
     id="necks"
     transform="translate(-206.58,128.8186)">
    <path
       d="m 251.707,224.708 40.203,-19.422 0.062,-18.066 36.099,-4.86 0.694,21.521 35.406,13.884 -1.389,28.463 -106.215,0.695 -4.86,-22.215 z"
       id="path27"
       inkscape:connector-curvature="0"
       style="fill:#ffd79d" />
    <path
       d="m 290.246,175.91 37.198,0.91 1.489,28.747 -23.548,24.953 -42.211,-10.855 28.377,-14.324 -1.305,-29.431 z"
       id="path29"
       inkscape:connector-curvature="0"
       style="fill:#ecbb73" />
    <path
       d="m 247.376,228.921 -11.445,13.659 -12.201,72.531 -8.131,27.289 -1.019,80.47 0,0 4.075,29.54 11.798,13.896 15.11,-0.646 -1.42,-4.649 -6.562,-2.148 -7.1,-19.886 7.193,7.739 4.104,-0.93 -3.067,-6.943 -2.184,-12.872 -5.341,-12.571 8.812,-73.208 13.558,-60.33 14.267,45.39 -20.447,-96.331 z"
       id="path31"
       inkscape:connector-curvature="0"
       style="fill:#ffd79d" />
    <path
       d="m 290.246,176.3 37.328,-0.781 1.073,21.691 -22.738,8.026 -14.486,-3.456 -1.177,-25.48 z"
       id="path33"
       inkscape:connector-curvature="0"
       style="fill:#e4b26a" />
    <path
       d="M 270.129,185.507"
       id="path35"
       inkscape:connector-curvature="0"
       style="fill:#e4b26a" />
  </g>
  <g
     id="Layer 7"
     transform="translate(-206.58,128.8186)">
    <path
       d="m 372.744,226.166 11.445,13.66 12.201,72.531 8.131,27.289 1.019,80.47 0,0 -4.074,29.54 -11.799,13.895 -15.11,-0.645 1.421,-4.65 6.562,-2.147 7.099,-19.886 -7.193,7.739 -4.104,-0.931 3.067,-6.942 2.185,-12.873 5.34,-12.57 -8.812,-73.209 -13.557,-60.329 -14.268,45.39 20.447,-96.332 z"
       id="path38"
       inkscape:connector-curvature="0"
       style="fill:#ffd79d" />
  </g>
  <g
     id="Layer 2"
     transform="translate(-206.58,128.8186)">
    <path
       d="m 245.303,228.301 14.405,-9.845 48.581,10.859 49.152,-14.86 14.86,8.002 -3.99,74.557 1.302,20.692 6,16.909 -5.455,18.545 -53.554,2.566 -64.502,-5.875 -1.399,-19.055 3.435,-29.797 1.472,-8.315 -10.307,-64.383 z"
       id="path41"
       inkscape:connector-curvature="0"
       style="fill:#a84f4c" />
    <path
       d="m 304.979,265.681 -4.168,10.838 6.878,8.753 5.192,-1.556 6.951,-10.686 -14.853,-7.349 z"
       id="path43"
       inkscape:connector-curvature="0"
       style="fill:#803c3a" />
    <path
       d="m 306.825,229.684 -36.66,11.426 -18.569,-16.187 9.999,-9.046 45.23,13.807 z"
       id="path45"
       inkscape:connector-curvature="0"
       style="fill:#803c3a" />
    <path
       d="m 313.286,255.399 7.706,17.007 -10.363,10.363 -6.909,-6.643 1.063,-11.958 8.503,-8.769 z"
       id="path47"
       inkscape:connector-curvature="0"
       style="fill:#976f35" />
    <path
       d="m 288.189,207.033 -6.259,16.212 c 0,0 6.066,10.553 13.972,18.591 7.905,8.039 17.65,13.563 17.65,13.563 0,0 7.876,-8.745 14.187,-17.913 6.311,-9.168 11.057,-18.758 11.057,-18.758 l -7.102,-14.068"
       id="path49"
       inkscape:connector-curvature="0"
       style="fill:none;stroke:#c89347;stroke-width:1;stroke-linecap:round;stroke-linejoin:round" />
  </g>
  <g
     id="Layer 1"
     transform="translate(-206.58,128.8186)">
    <path
       d="m 261.989,126.456 c 0,-38.532 17.996,-53.8323 48.093,-53.8323 30.098,0 43.971,18.7526 43.971,57.2853 0,21 -14.636,39.644 -14.636,39.644 0,0 -17.496,18.051 -31.191,18.051 -11.437,0 -32.494,-17.079 -32.494,-17.079 0,0 -13.743,-20.179 -13.743,-44.069 z"
       id="path52"
       inkscape:connector-curvature="0"
       style="fill:#ffd79d" />
    <path
       d="m 301.308,158.556 -2.888,-5.625 0.152,-4.56 9.537,3.101 8.657,-2.089 -0.467,2.428 -5.199,5.165 -9.792,1.58 z"
       id="path54"
       inkscape:connector-curvature="0"
       style="fill:#ecbb73" />
    <path
       d="m 301.979,151.235 c 0,-0.228 0.825,-0.414 1.842,-0.414 1.017,0 1.841,0.186 1.841,0.414 0,0.229 -0.824,0.415 -1.841,0.415 -1.017,0 -1.842,-0.186 -1.842,-0.415 z"
       id="path56"
       inkscape:connector-curvature="0"
       style="fill:#424242" />
    <path
       d="m 273.121,133.09 29.775,-1.127 -2.219,-10.327 -15.467,-3.314 -12.465,8.381 0.376,6.387 z"
       id="path58"
       inkscape:connector-curvature="0"
       style="fill:#ecbb73" />
    <path
       d="m 341.993,133.2 -29.775,-1.127 2.176,-9.783 15.309,-2.811 12.666,7.334 -0.376,6.387 z"
       id="path60"
       inkscape:connector-curvature="0"
       style="fill:#ecbb73" />
    <path
       d="m 286.587,155.77 -3.849,3.461 -0.982,4.964 -2.022,-6.515 6.853,-1.91 z"
       id="path62"
       inkscape:connector-curvature="0"
       style="fill:#ecbb73" />
    <path
       d="m 261.331,120.395 -8.994,2.748 0.499,14.491 8.245,12.242 3.498,-1 -3.248,-28.481 z"
       id="path64"
       inkscape:connector-curvature="0"
       style="fill:#ffd79d" />
    <path
       d="m 355.521,119.645 8.994,2.748 -0.5,14.491 -8.245,12.242 -3.497,-0.999 3.248,-28.482 z"
       id="path66"
       inkscape:connector-curvature="0"
       style="fill:#ffd79d" />
    <path
       d="m 328.931,154.65 3.848,3.462 0.982,4.964 2.022,-6.516 -6.852,-1.91 z"
       id="path68"
       inkscape:connector-curvature="0"
       style="fill:#ecbb73" />
    <path
       d="m 259.79,126.719 -5.111,-0.692 1.314,9.704 3.133,7.481 -1.314,-7.986 -1.314,-6.47 2.527,1.517 0.101,3.639 1.517,-2.527 -0.853,-4.666 z"
       id="path70"
       inkscape:connector-curvature="0"
       style="fill:#ecbb73" />
    <path
       d="m 356.79,126.482 5.111,-0.692 -1.314,9.705 -3.134,7.48 1.315,-7.986 1.314,-6.469 -2.527,1.516 -0.102,3.639 -1.516,-2.527 0.853,-4.666 z"
       id="path72"
       inkscape:connector-curvature="0"
       style="fill:#ecbb73" />
    <path
       d="m 272.564,127.078 11.768,-8.084 13.924,2.015 -5.203,-3.839 -12.842,0.577 -7.647,9.331 z"
       id="path74"
       inkscape:connector-curvature="0"
       style="fill:#2f1f18" />
    <path
       d="m 342.553,127.222 -11.769,-8.084 -13.923,2.016 5.202,-3.839 12.842,0.577 7.648,9.33 z"
       id="path76"
       inkscape:connector-curvature="0"
       style="fill:#2f1f18" />
    <path
       d="m 313.445,257.653 7.413,13.686 -7.555,4.704 -6.273,-2.708 0.285,-8.411 6.13,-7.271 z"
       id="path78"
       inkscape:connector-curvature="0"
       style="fill:#d2b68e" />
    <path
       d="m 302.488,172.133 11.841,-0.113 -2.277,3.529 -7.059,0.114 -2.505,-3.53 z"
       id="path80"
       inkscape:connector-curvature="0"
       style="fill:#ecbb73" />
    <path
       d="m 310.401,151.037 c 0,-0.229 0.824,-0.414 1.842,-0.414 1.017,0 1.841,0.185 1.841,0.414 0,0.229 -0.824,0.415 -1.841,0.415 -1.018,0 -1.842,-0.186 -1.842,-0.415 z"
       id="path82"
       inkscape:connector-curvature="0"
       style="fill:#424242" />
    <path
       d="m 316.346,148.649 -1.999,-4.605 3.65,1.651 1.564,3.475 -3.476,2.173 0.261,-2.694 z"
       id="path84"
       inkscape:connector-curvature="0"
       style="fill:#ecbb73" />
  </g>
  <g
     id="mouth"
     transform="translate(-206.58,128.8186)">
    <path
       d="m 297.255,164.519 20.504,-0.654 5.214,-1.171 -6.597,6.704 -7.942,1.773 -7.918,-1.368 -8.02,-7.069 4.759,1.785 z"
       id="path87"
       inkscape:connector-curvature="0"
       style="fill:#e48f6a" />
    <path
       d="m 287.682,161.838 c 0,0 9.711,4.139 20.27,3.96 10.558,-0.178 21.965,-4.674 21.965,-4.674 l -11.711,0.801 -6.067,-0.294 -4.113,1.635 -4.198,-1.226 -6.138,0.481 -10.008,-0.683 z"
       id="path89"
       inkscape:connector-curvature="0"
       style="fill:#b37053" />
    <path
       d="m 245.199,233.034 -1.483,1.609 2.792,36.137 -7.097,45.609 -4.921,5.5 -2.052,19.44 -1.421,65.362 1.955,-10.956 7.886,-58.217 13.024,-57.597 -8.683,-46.887 z"
       id="path91"
       inkscape:connector-curvature="0"
       style="fill:#ecbb73" />
    <path
       d="m 371.506,243.232 0.594,11.88 2.655,13.486 7.097,45.61 4.921,5.499 2.052,19.44 1.421,65.362 -1.955,-10.956 -7.886,-58.217 -11.275,-48.345 2.376,-43.759 z"
       id="path93"
       inkscape:connector-curvature="0"
       style="fill:#ecbb73" />
  </g>
  <g
     id="Layer 5"
     transform="translate(-206.58,128.8186)">
    <path
       d="m 276.013,131.745 3.826,-4.385 13.714,-1.586 2.985,4.945 -3.452,3.638 -11.848,0.747 -5.225,-3.359 z"
       id="path96"
       inkscape:connector-curvature="0"
       style="fill:#ffffff" />
    <path
       d="m 280.67,130.717 c 0,-3.123 2.531,-5.654 5.654,-5.654 3.122,0 5.654,2.531 5.654,5.654 0,3.122 -2.532,5.654 -5.654,5.654 -3.123,0 -5.654,-2.532 -5.654,-5.654 z"
       id="path98"
       inkscape:connector-curvature="0"
       style="fill:#a1b4b4" />
    <path
       d="m 276.013,131.745 2.529,-5.548 15.011,-0.423 2.985,4.945 -1.272,1.208 c 0,0 -4.938,-0.231 -9.231,0 -4.292,0.231 -7.939,0.923 -7.939,0.923 l -2.083,-1.105 z"
       id="path100"
       inkscape:connector-curvature="0"
       style="fill:#cad2dd" />
    <path
       d="m 286.317,125.068 c -3.122,0 -5.635,2.513 -5.635,5.635 0,0.581 0.093,1.165 0.256,1.692 0,0 2.114,-0.319 4.85,-0.466 2.737,-0.147 6.096,-0.122 6.096,-0.122 0.084,-0.388 0.112,-0.69 0.112,-1.104 0,-3.122 -2.556,-5.635 -5.679,-5.635 z"
       id="path102"
       inkscape:connector-curvature="0"
       style="fill:#708e8e" />
    <path
       d="m 282.733,130.637 c 0,-1.926 1.562,-3.488 3.488,-3.488 1.926,0 3.488,1.562 3.488,3.488 0,1.926 -1.562,3.487 -3.488,3.487 -1.926,0 -3.488,-1.561 -3.488,-3.487 z"
       id="path104"
       inkscape:connector-curvature="0"
       style="fill:#555555" />
    <path
       d="m 286.231,127.133 c -1.926,0 -3.484,1.558 -3.484,3.484 0,0.573 0.061,1.051 0.305,1.528 0,0 1.774,-0.188 3.382,-0.264 1.608,-0.076 3.052,-0.04 3.052,-0.04 0.157,-0.397 0.23,-0.77 0.23,-1.224 0,-1.926 -1.559,-3.484 -3.485,-3.484 z"
       id="path106"
       inkscape:connector-curvature="0"
       style="fill:#000000" />
    <path
       d="m 276.742,133.608 18.707,-0.431 -1.283,5.411 -13.602,1.1 -3.822,-6.08 z"
       id="path108"
       inkscape:connector-curvature="0"
       style="fill:#ffd79d" />
    <path
       d="m 287.779,133.346 c 0,-0.608 0.493,-1.1 1.1,-1.1 0.608,0 1.1,0.492 1.1,1.1 0,0.607 -0.492,1.1 -1.1,1.1 -0.607,0 -1.1,-0.493 -1.1,-1.1 z"
       id="path110"
       inkscape:connector-curvature="0"
       style="opacity:0.459677;fill:#ffffff" />
    <path
       d="m 292.661,123.073 -11.373,-0.666 -4.45,5.868 18.402,-1.197 -2.579,-4.005 z"
       id="path112"
       inkscape:connector-curvature="0"
       style="fill:#ecbb73" />
    <path
       d="m 264.336,147.766 0.223,4.698 11.25,17.723 11.185,8.714 15.088,7.283 -24.062,-17.818 -6.573,-10.579 -7.111,-10.021 z"
       id="path114"
       inkscape:connector-curvature="0"
       style="fill:#ecbb73" />
    <path
       d="m 300.496,148.98 1.998,-4.605 -3.649,1.651 -1.564,3.475 3.475,2.173 -0.26,-2.694 z"
       id="path116"
       inkscape:connector-curvature="0"
       style="fill:#ecbb73" />
    <path
       d="m 302.755,132.036 1.129,6.343 -3.388,-2.867 -2.781,-3.65 5.04,0.174 z"
       id="path118"
       inkscape:connector-curvature="0"
       style="fill:#ecbb73" />
    <path
       d="m 289.653,127.493 -11.641,0.73 -1.837,3.528 -2.121,-1.656 1.862,-0.155 -0.517,-1.345 2.274,-0.372 -0.287,-1.931 2.714,1.201 0.183,-1.305 1.957,1.357 7.413,-0.052 z"
       id="path120"
       inkscape:connector-curvature="0"
       style="fill:#2f1f18" />
  </g>
  <g
     id="Layer 6"
     transform="translate(-206.58,128.8186)">
    <path
       d="m 338.445,131.883 -3.825,-4.384 -13.714,-1.586 -2.986,4.944 3.452,3.639 11.849,0.746 5.224,-3.359 z"
       id="path123"
       inkscape:connector-curvature="0"
       style="fill:#ffffff" />
    <path
       d="m 333.789,130.855 c 0,-3.123 -2.532,-5.654 -5.654,-5.654 -3.123,0 -5.654,2.531 -5.654,5.654 0,3.123 2.531,5.654 5.654,5.654 3.122,0 5.654,-2.531 5.654,-5.654 z"
       id="path125"
       inkscape:connector-curvature="0"
       style="fill:#a1b4b4" />
    <path
       d="m 338.445,131.883 -2.761,-5.984 -14.778,0.014 -2.986,4.944 1.272,1.208 c 0,0 4.939,-0.231 9.231,0 4.293,0.231 7.939,0.923 7.939,0.923 l 2.083,-1.105 z"
       id="path127"
       inkscape:connector-curvature="0"
       style="fill:#cad2dd" />
    <path
       d="m 328.141,125.206 c 3.123,0 5.636,2.513 5.636,5.636 0,0.58 -0.094,1.165 -0.256,1.692 0,0 -2.114,-0.32 -4.851,-0.467 -2.736,-0.147 -6.095,-0.121 -6.095,-0.121 -0.085,-0.389 -0.113,-0.69 -0.113,-1.104 0,-3.123 2.556,-5.636 5.679,-5.636 z"
       id="path129"
       inkscape:connector-curvature="0"
       style="fill:#708e8e" />
    <path
       d="m 331.725,130.775 c 0,-1.926 -1.561,-3.487 -3.488,-3.487 -1.926,0 -3.487,1.561 -3.487,3.487 0,1.926 1.561,3.488 3.487,3.488 1.927,0 3.488,-1.562 3.488,-3.488 z"
       id="path131"
       inkscape:connector-curvature="0"
       style="fill:#555555" />
    <path
       d="m 328.227,127.271 c 1.926,0 3.485,1.559 3.485,3.485 0,0.572 -0.061,1.051 -0.306,1.528 0,0 -1.773,-0.189 -3.382,-0.265 -1.608,-0.076 -3.051,-0.039 -3.051,-0.039 -0.158,-0.398 -0.23,-0.77 -0.23,-1.224 0,-1.926 1.558,-3.485 3.484,-3.485 z"
       id="path133"
       inkscape:connector-curvature="0"
       style="fill:#000000" />
    <path
       d="m 338.075,134.026 -19.37,-0.577 1.588,5.277 13.602,1.101 4.18,-5.801 z"
       id="path135"
       inkscape:connector-curvature="0"
       style="fill:#ffd79d" />
    <path
       d="m 331.806,133.701 c 0,-0.608 -0.492,-1.1 -1.1,-1.1 -0.607,0 -1.1,0.492 -1.1,1.1 0,0.607 0.493,1.1 1.1,1.1 0.608,0 1.1,-0.493 1.1,-1.1 z"
       id="path137"
       inkscape:connector-curvature="0"
       style="opacity:0.459677;fill:#ffffff" />
    <path
       d="m 322.052,123.036 12.779,0 2.303,5.343 -18.056,-0.986 2.974,-4.357 z"
       id="path139"
       inkscape:connector-curvature="0"
       style="fill:#ecbb73" />
    <path
       d="m 325.085,127.661 11.64,0.731 1.838,3.527 2.12,-1.655 -1.862,-0.155 0.518,-1.345 -2.274,-0.372 0.287,-1.932 -2.715,1.201 -0.182,-1.305 -1.958,1.357 -7.412,-0.052 z"
       id="path141"
       inkscape:connector-curvature="0"
       style="fill:#2f1f18" />
  </g>
  <g
     id="Layer 4"
     transform="translate(-206.58,128.8186)">
    <path
       d="m 256.584,110.151 2.998,-18.7377 6.204,-9.1062 4.656,-8.3923 13.125,-5.7366 13.102,-2.91 21.126,-2.0868 12.242,3.7476 7.53,4.9158 15.205,7.0765 5.497,25.9837 -5.497,33.478 -5.185,-9.371 0,-13.044 1.234,-16.1768 -13.204,-10.5621 -17.382,-2.2092 6.921,2.189 -15.594,0.1541 -11.754,-2.519 -14.983,12.8569 7.454,-8.8744 -11.714,2.4848 -7.956,4.9463 -3.067,7.6674 1.323,7.754 -1.304,11.58 -3.195,11.004 -7.782,-26.112 z"
       id="path144"
       inkscape:connector-curvature="0"
       style="fill:#2f1f18" />
    <path
       d="m 354.947,123.15 -6.677,3.484 0,13.065 -1.161,8.709 -1.742,7.548 2.613,10.742 -1.452,11.613 0.29,11.613 1.452,10.451 4.645,-12.193 0.29,-12.484 0.871,-9.871 -2.613,-10.742 1.162,-9.29 2.613,-9.58 -0.291,-13.065 z"
       id="path146"
       inkscape:connector-curvature="0"
       style="fill:#2f1f18" />
    <path
       d="m 261.408,120.181 6.677,3.483 0,13.065 1.162,8.709 1.741,7.549 -2.612,10.741 1.451,11.613 -0.29,11.613 -1.452,10.451 -4.645,-12.193 -0.29,-12.484 -0.871,-9.871 2.613,-10.741 -1.162,-9.291 -2.612,-9.58 0.29,-13.064 z"
       id="path148"
       inkscape:connector-curvature="0"
       style="fill:#2f1f18" />
    <path
       d="m 260.856,115.968 -2.06,-13.731 6.408,-13.0437 19.909,-10.9843 24.715,-1.6019 24.257,2.2884 16.248,10.5267 5.034,17.8498 0,10.755 2.06,-15.561 -6.179,-17.8495 -21.74,-10.5267 -19.909,-2.5172 -16.705,-2.2884 -13.96,6.4075 -12.815,7.3229 -7.552,11.4421 -0.228,12.5863 2.517,8.925 z"
       id="path150"
       inkscape:connector-curvature="0"
       style="fill:#d8ac31" />
  </g>
</svg>
