<?xml version="1.0" encoding="UTF-8" standalone="no"?>
<svg
   xmlns:dc="http://purl.org/dc/elements/1.1/"
   xmlns:cc="http://creativecommons.org/ns#"
   xmlns:rdf="http://www.w3.org/1999/02/22-rdf-syntax-ns#"
   xmlns:svg="http://www.w3.org/2000/svg"
   xmlns="http://www.w3.org/2000/svg"
   xmlns:sodipodi="http://sodipodi.sourceforge.net/DTD/sodipodi-0.dtd"
   xmlns:inkscape="http://www.inkscape.org/namespaces/inkscape"
   width="500"
   viewBox="0 0 400 736"
   version="1.1"
   height="920"
   id="svg2"
   inkscape:version="0.92.2 (5c3e80d, 2017-08-06)"
   sodipodi:docname="people_diodoros.svg"
   inkscape:export-filename="C:\Users\scott\Dropbox\pictures\Sketchbook\Paideia images\people_diodoros.png"
   inkscape:export-xdpi="96"
   inkscape:export-ydpi="96">
  <metadata
     id="metadata102">
    <rdf:RDF>
      <cc:Work
         rdf:about="">
        <dc:format>image/svg+xml</dc:format>
        <dc:type
           rdf:resource="http://purl.org/dc/dcmitype/StillImage" />
        <dc:title></dc:title>
      </cc:Work>
    </rdf:RDF>
  </metadata>
  <sodipodi:namedview
     pagecolor="#ffffff"
     bordercolor="#666666"
     borderopacity="1"
     objecttolerance="10"
     gridtolerance="10"
     guidetolerance="10"
     inkscape:pageopacity="0"
     inkscape:pageshadow="2"
     inkscape:window-width="3035"
     inkscape:window-height="2055"
     id="namedview100"
     showgrid="false"
     fit-margin-top="10"
     fit-margin-right="10"
     fit-margin-bottom="10"
     fit-margin-left="10"
     inkscape:zoom="1.1927963"
     inkscape:cx="120.09663"
     inkscape:cy="728.32234"
     inkscape:window-x="2851"
     inkscape:window-y="0"
     inkscape:window-maximized="0"
     inkscape:current-layer="svg2" />
  <defs
     id="defs4" />
  <g
     id="back cloak"
     transform="translate(-120.21591,-13.083446)">
    <path
       d="M 396.36,195.016 467.376,663.49 331.072,626.837 348.253,166.381 Z"
       id="path7"
       inkscape:connector-curvature="0"
       style="fill:#607f84" />
    <path
       d="m 264.384,161.909 13.736,-2.305 56.92,0.328 20.983,3.88 -39.701,55.003 -63.681,-30.711 z"
       id="path9"
       inkscape:connector-curvature="0"
       style="fill:#c89347" />
  </g>
  <g
     id="legs"
     transform="translate(-120.21591,-13.083446)">
    <path
       d="m 257.853,570.413 1.61,21.739 8.856,66.023 -3.22,52.334 -12.883,16.103 -37.842,23.35 8.857,7.246 81.32,-8.051 -4.026,-28.181 v -34.621 l 0.806,-46.699 9.661,-26.57 -12.882,-61.996 -39.452,-1.61"
       id="path12"
       inkscape:connector-curvature="0"
       style="fill:#ecbb73" />
    <path
       d="m 389.897,568.803 -1.61,21.739 -8.857,66.022 3.221,52.335 12.882,16.103 37.842,23.349 -8.856,7.247 -81.321,-8.052 4.026,-28.18 v -34.621 l -0.805,-46.699 -9.662,-26.57 12.883,-61.997 39.452,-1.61"
       id="path14"
       inkscape:connector-curvature="0"
       style="fill:#ecbb73" />
  </g>
  <g
     id="arm"
     transform="translate(-120.21591,-13.083446)">
    <path
       d="m 390.148,183.901 18.75,24.456 -1.631,33.424 15.489,50.543 52.173,5.706 15.489,-22.826 19.565,15.489 -17.934,32.609 -24.456,-1.631 -71.739,-0.815 -17.934,-56.249 -14.674,-62.771 9.783,-30.978 z"
       id="path17"
       inkscape:connector-curvature="0"
       style="fill:#ecbb73" />
    <path
       d="m 408.671,243.062 44.358,31.252 -9.578,30.243 25.204,209.187 12.601,54.439 -53.431,-28.732 -9.145,-157.454 -6.985,-78.952 z"
       id="path19"
       inkscape:connector-curvature="0"
       style="fill:#82acb3" />
    <path
       d="m 496.24212,280.35719 11.49816,-23.25056 10.72909,12.22395 -14.06412,18.04915 z"
       id="path21"
       inkscape:connector-curvature="0"
       style="fill:#fff4e0;stroke-width:0.81616324"
       sodipodi:nodetypes="ccccc" />
    <path
       d="m 383.985,207.848 -5.431,17.2 3.621,50.697 12.976,43.755 17.502,-0.301 -0.905,-14.787 -12.071,-11.467 -5.733,-24.443 -2.716,-25.65 -8.751,-17.2 z"
       id="path23"
       inkscape:connector-curvature="0"
       style="fill:#c89347" />
    <path
       d="m 445.243,311.051 22.029,-2.414 -6.035,11.769 -15.994,0.905 z"
       id="path25"
       inkscape:connector-curvature="0"
       style="fill:#c89347" />
    <path
       d="m 477.685,305.928 -5.82,-1.378 10.649,12.527 -3.757,4.626 13.018,1.531 -5.667,-10.873 z"
       id="path27"
       inkscape:connector-curvature="0"
       style="fill:#c89347" />
    <path
       d="m 479.10198,307.56 6.79402,8.47629 -16.48872,28.16962 -9.86273,-11.58385 z"
       id="path29"
       inkscape:connector-curvature="0"
       style="fill:#fff4e0;stroke-width:0.82465291"
       sodipodi:nodetypes="ccccc" />
  </g>
  <g
     id="clothing"
     transform="translate(-120.21591,-13.083446)">
    <path
       d="m 241.994,470.18 -1.835,94.497 178.903,-5.505 -27.524,-158.719 -2.752,-26.606 -135.783,22.937 z"
       id="path32"
       inkscape:connector-curvature="0"
       style="fill:#f4f1e1" />
    <path
       d="m 225.476,405.638 174.454,-3.261 6.522,-27.717 -12.228,-32.609 -12.228,-40.76 -1.631,-68.477 -5.706,-61.141 -21.195,-12.228 -36.685,35.054 -66.032,-26.087 z"
       id="path34"
       inkscape:connector-curvature="0"
       style="fill:#f4f1e1" />
    <path
       d="m 262.281,157.051 -55.152,33.453 -50.458,135.636 74.313,144.04 31.991,13.718 56.25,-63.587 34.239,-97.009 L 391.778,174.119 350.203,160.26 299,229.378 Z"
       id="path36"
       inkscape:connector-curvature="0"
       style="fill:#607f84" />
  </g>
  <g
     id="hair"
     transform="translate(-120.21591,-13.083446)">
    <path
       d="m 281.084,71.1676 -16.388,15.4431 -5.91,10.8351 3.546,4.1372 -6.107,7.88 1.182,12.017 0.197,12.411 5.319,3.94 2.758,8.668 9.456,-1.97 70.921,-0.591 10.047,-3.94 -3.152,-14.381 6.698,-7.092 -5.713,-15.957 0.985,-12.8053 -11.229,-6.895 -2.955,-7.0921 -11.992,-5.9776 z"
       id="path39"
       inkscape:connector-curvature="0"
       style="fill:#c8c5b8" />
  </g>
  <g
     id="ears"
     transform="translate(-120.21591,-13.083446)">
    <path
       d="m 268.435,106.68 -4.919,-3.981 -5.386,6.558 3.044,14.287 3.982,6.792 6.089,-4.684 z"
       id="path42"
       inkscape:connector-curvature="0"
       style="fill:#c89347" />
    <path
       d="m 343.09,104.513 4.918,-3.981 5.387,6.558 -3.045,14.287 -3.981,6.792 -6.09,-4.684 z"
       id="path44"
       inkscape:connector-curvature="0"
       style="fill:#ecbb73" />
  </g>
  <g
     id="Layer 1"
     transform="translate(-120.21591,-13.083446)">
    <path
       d="m 271.723,114.213 c 0,-29.3119 6.693,-54.1914 33.428,-54.1439 26.736,0.0475 35.33,24.0737 35.33,53.3859 0,29.312 -12.667,52.763 -35.33,52.763 -22.663,0 -33.428,-22.692 -33.428,-52.005 z"
       id="path47"
       inkscape:connector-curvature="0"
       style="fill:#ecbb73" />
    <path
       d="m 297.164,132.221 10.613,5.348 8.447,-6.401 -6.199,9.997 -5.62,2.024 z"
       id="path49"
       inkscape:connector-curvature="0"
       style="fill:#ae7f3a;fill-opacity:1" />
    <path
       d="m 296.321,132.432 3.791,-6.002 -3.791,-0.211 -12.821,19.217 z"
       id="path51"
       inkscape:connector-curvature="0"
       style="fill:#aa7d3c;fill-opacity:1" />
    <path
       d="m 316.119,131.484 1.474,-4.422 12.105,15.148 z"
       id="path53"
       inkscape:connector-curvature="0"
       style="fill:#aa7d3c;fill-opacity:1" />
    <path
       d="m 277.745,99.5223 19.017,6.1267 6.294,4.721 -0.623,19.327 -5.611,-3.616 -0.563,-8.717 -8.664,6.473 -12.637,-5.825 0.899,25.401 22.928,19.782 -28.548,-19.782 0.727,-31.727 3.165,-24.6326 8.603,-17.3318 -2.604,18.1688 z"
       id="path55"
       inkscape:connector-curvature="0"
       style="fill:#c89347" />
    <path
       d="m 309.984,110.044 6.11,-5.519 14.716,-3.764 6.864,9.608 -15.116,8.704 -5.434,-3.436 -5.593,4.404 z"
       id="path57"
       inkscape:connector-curvature="0"
       style="fill:#c89347" />
    <path
       d="m 307.974,101.847 -1.293,5.456 -1.781,-5.158 -14.424,-2.6996 -8.021,-0.1637 6.384,-3.9287 9.318,3.7179 7.834,1.0911 7.734,-2.1819 7.852,-2.2997 8.021,1.6369 -10.803,2.2917 z"
       id="path59"
       inkscape:connector-curvature="0"
       style="fill:#c89347" />
    <path
       d="m 297.36,106.422 -3.896,1.002 -4.563,-3.339 -3.562,-0.556 -5.231,-1.559 -4.675,-2.1144 -5.009,-4.7861 7.012,1.5583 0.891,-4.7861 3.45,5.0087 3.005,-1.5583 2.226,3.8957 4.23,-1.1131 3.116,2.8943 h 4.007 z"
       id="path61"
       inkscape:connector-curvature="0"
       style="fill:#fff4e0" />
    <path
       d="m 313.721,106.089 3.896,1.001 4.563,-3.339 3.562,-0.556 5.231,-1.559 4.675,-2.1143 5.009,-4.7861 -7.012,1.5583 -0.891,-4.7861 -3.45,5.0087 -3.005,-1.5583 -2.227,3.8956 -4.229,-1.113 -3.117,2.8942 h -4.007 z"
       id="path63"
       inkscape:connector-curvature="0"
       style="fill:#fff4e0" />
    <path
       d="m 294.397,91.501 11.177,2.8372 11.952,-3.3543 -12.725,1.5488 z"
       id="path65"
       inkscape:connector-curvature="0"
       style="fill:#c89347" />
  </g>
  <g
     id="beard"
     transform="translate(-120.21591,-13.083446)">
    <path
       d="m 268.178,133.181 -0.7,-9.847 3.296,-14.786 5.432,18.001 7.426,3.368 0.079,18.273 10.155,9.493 3.818,-4.935 18.625,-1.397 5.121,4.47 10.67,-9.937 -1.837,-21.337 8.62,-0.424 2.287,-19.346 5.381,11.04 -0.187,9.511 5.759,12.74 -5.41,11.693 1.745,9.249 -8.726,7.505 -4.887,9.424 -16.928,0.349 -6.283,12.74 -14.834,-10.82 -12.217,4.363 -6.108,-11.344 -7.155,-4.538 1.57,-8.726 -7.33,-6.283 1.571,-8.202 z"
       id="path68"
       inkscape:connector-curvature="0"
       style="fill:#dbd9ca" />
  </g>
  <g
     id="Layer 2"
     transform="translate(-120.21591,-13.083446)">
    <path
       d="m 294.323,148.424 25.952,-1.749 -0.729,5.394 -11.227,2.187 -12.538,-0.874 z"
       id="path71"
       inkscape:connector-curvature="0"
       style="fill:#ddb396" />
    <path
       d="m 302.157,137.344 -15.285,7.868 -2.698,16.409 4.945,-4.496 4.496,-5.17 8.767,-0.674 6.968,-0.225 8.093,-1.349 6.744,2.248 4.046,3.147 4.945,5.171 -4.496,-15.511 -14.161,-6.968 z"
       id="path73"
       inkscape:connector-curvature="0"
       style="fill:#fff4e0" />
  </g>
  <g
     id="nose"
     transform="translate(-120.21591,-13.083446)">
    <path
       d="m 298.217,132.116 9.582,9.794 6.845,-10.426 z"
       id="path76"
       inkscape:connector-curvature="0"
       style="fill:#ecbb73" />
  </g>
  <path
     style="fill:#8e6832;fill-opacity:1;stroke:none;stroke-width:0.80000001px;stroke-linecap:butt;stroke-linejoin:miter;stroke-opacity:1"
     d="m 158.93353,100.56227 3.02336,-9.129337 6.7282,-0.431379 4.563,3.339 2.51942,-0.771033 3.14387,5.273591 z"
     id="path864"
     inkscape:connector-curvature="0"
     sodipodi:nodetypes="ccccccc" />
  <g
     id="l eye"
     transform="translate(-120.21591,-13.083446)">
    <path
       d="m 281.702,113.701 9.393,-5.698 4.851,4.081 -6.083,2.926 z"
       id="path79"
       inkscape:connector-curvature="0"
       style="fill:#ffffff" />
    <path
       d="m 284.751,112.046 c 0,-2.249 1.824,-4.073 4.073,-4.073 2.249,0 4.073,1.824 4.073,4.073 0,2.249 -1.824,4.073 -4.073,4.073 -2.249,0 -4.073,-1.824 -4.073,-4.073 z"
       id="path81"
       inkscape:connector-curvature="0"
       style="fill:#976f35" />
    <path
       d="m 286.145,112.046 c 0,-1.479 1.2,-2.679 2.679,-2.679 1.479,0 2.679,1.2 2.679,2.679 0,1.479 -1.2,2.679 -2.679,2.679 -1.479,0 -2.679,-1.2 -2.679,-2.679 z"
       id="path83"
       inkscape:connector-curvature="0"
       style="fill:#000000" />
    <path
       d="m 281.659,113.549 7.765,1.553 6.298,-2.976 -6.985,6.022 -5.907,-3.314 z"
       id="path85"
       inkscape:connector-curvature="0"
       style="fill:#ecbb73" />
    <path
       d="m 291.146,107.969 -9.487,5.667 3.476,-6.077 z"
       id="path87"
       inkscape:connector-curvature="0"
       style="fill:#ecbb73" />
  </g>
  <path
     sodipodi:nodetypes="ccccccc"
     inkscape:connector-curvature="0"
     id="path866"
     d="m 212.7018,100.08802 -3.02336,-9.129339 -6.7282,-0.431379 -4.563,3.339 -2.51942,-0.771033 -3.14387,5.273591 z"
     style="fill:#8e6832;fill-opacity:1;stroke:none;stroke-width:0.80000001px;stroke-linecap:butt;stroke-linejoin:miter;stroke-opacity:1" />
  <g
     id="r eye"
     transform="translate(-120.21591,-13.083446)">
    <path
       d="m 329.688,113.244 -9.393,-5.698 -4.851,4.081 6.083,2.925 z"
       id="path90"
       inkscape:connector-curvature="0"
       style="fill:#ffffff" />
    <path
       d="m 326.639,111.588 c 0,-2.249 -1.824,-4.073 -4.073,-4.073 -2.25,0 -4.073,1.824 -4.073,4.073 0,2.25 1.823,4.073 4.073,4.073 2.249,0 4.073,-1.823 4.073,-4.073 z"
       id="path92"
       inkscape:connector-curvature="0"
       style="fill:#976f35" />
    <path
       d="m 325.244,111.588 c 0,-1.479 -1.199,-2.678 -2.678,-2.678 -1.48,0 -2.679,1.199 -2.679,2.678 0,1.48 1.199,2.679 2.679,2.679 1.479,0 2.678,-1.199 2.678,-2.679 z"
       id="path94"
       inkscape:connector-curvature="0"
       style="fill:#000000" />
    <path
       d="m 329.731,113.092 -7.765,1.553 -6.298,-2.977 6.985,6.023 5.907,-3.314 z"
       id="path96"
       inkscape:connector-curvature="0"
       style="fill:#ecbb73" />
    <path
       d="m 320.243,107.512 9.488,5.666 -3.476,-6.077 z"
       id="path98"
       inkscape:connector-curvature="0"
       style="fill:#ecbb73" />
  </g>
  <path
     inkscape:connector-curvature="0"
     id="path870"
     d="m 202.92037,98.072448 1.897,-0.711377 0.95846,0.465264 0.16789,1.846713 -2.37126,-0.592816 z"
     style="fill:#ffffff;fill-opacity:0.656;stroke:none;stroke-width:0.80000001px;stroke-linecap:butt;stroke-linejoin:miter;stroke-opacity:1"
     sodipodi:nodetypes="cccccc" />
  <path
     style="fill:#ffffff;stroke:none;stroke-width:0.80000001px;stroke-linecap:butt;stroke-linejoin:miter;stroke-opacity:1;fill-opacity:0.65600002"
     d="m 168.83354,98.072448 2.78622,-1.007784 0.23713,2.608384 -2.37126,-0.592816 z"
     id="path868"
     inkscape:connector-curvature="0" />
  <path
     style="fill:#a17639;stroke:none;stroke-width:0.80000001px;stroke-linecap:butt;stroke-linejoin:miter;stroke-opacity:1;fill-opacity:1"
     d="m 182.59614,99.805864 -0.75452,16.138546 -4.73677,-2.80852 3.31154,-11.73713 1.97016,-3.94032 z"
     id="path872"
     inkscape:connector-curvature="0" />
</svg>
