<?xml version="1.0" encoding="UTF-8" standalone="no"?>
<!-- Created with Inkscape (http://www.inkscape.org/) -->

<svg
   xmlns:dc="http://purl.org/dc/elements/1.1/"
   xmlns:cc="http://creativecommons.org/ns#"
   xmlns:rdf="http://www.w3.org/1999/02/22-rdf-syntax-ns#"
   xmlns:svg="http://www.w3.org/2000/svg"
   xmlns="http://www.w3.org/2000/svg"
   xmlns:sodipodi="http://sodipodi.sourceforge.net/DTD/sodipodi-0.dtd"
   xmlns:inkscape="http://www.inkscape.org/namespaces/inkscape"
   width="253.34363"
   height="181.21153"
   id="svg3123"
   version="1.1"
   inkscape:version="0.48.4 r9939"
   sodipodi:docname="New document 7">
  <defs
     id="defs3125" />
  <sodipodi:namedview
     id="base"
     pagecolor="#ffffff"
     bordercolor="#666666"
     borderopacity="1.0"
     inkscape:pageopacity="0.0"
     inkscape:pageshadow="2"
     inkscape:zoom="4.7844637"
     inkscape:cx="118.0219"
     inkscape:cy="84.858876"
     inkscape:document-units="px"
     inkscape:current-layer="layer1"
     showgrid="false"
     fit-margin-top="10"
     fit-margin-left="10"
     fit-margin-right="10"
     fit-margin-bottom="10"
     inkscape:window-width="1680"
     inkscape:window-height="1026"
     inkscape:window-x="0"
     inkscape:window-y="24"
     inkscape:window-maximized="1" />
  <metadata
     id="metadata3128">
    <rdf:RDF>
      <cc:Work
         rdf:about="">
        <dc:format>image/svg+xml</dc:format>
        <dc:type
           rdf:resource="http://purl.org/dc/dcmitype/StillImage" />
        <dc:title></dc:title>
      </cc:Work>
    </rdf:RDF>
  </metadata>
  <g
     inkscape:label="Layer 1"
     inkscape:groupmode="layer"
     id="layer1"
     transform="translate(261.72718,-441.75641)">
    <path
       d="m -235.96713,590.22194 c 0,0 -11.37297,9.27805 -11.82191,9.4278 -0.44895,0.14947 11.97155,11.22311 11.97155,11.22311 l 97.41856,-0.14946 92.480725,0.29922 22.746017,1.94534 4.788635,-13.91693 -11.223399,-11.67238 -206.360178,2.8433 z"
       id="path11"
       inkscape:connector-curvature="0"
       style="fill:#b1b1b1" />
    <path
       d="m -34.580844,568.55077 6.826162,-0.13365 7.896831,18.06895 c -0.401541,-0.53548 -3.413084,19.13992 -3.413084,19.13992 -1.03487,0.0647 -11.243085,-0.0671 -11.243085,-0.0671 0,0 1.388677,-35.33333 -0.06683,-37.0081 z"
       id="path13"
       inkscape:connector-curvature="0"
       style="fill:#d9d6b9" />
    <path
       d="m -235.10608,475.13421 -2.06596,94.93142 202.278259,-2.05959 -3.201573,-81.44438 3.629361,-27.72337 1.687001,0.88348 -0.112168,-7.96536 -207.68053,14.86821 5.46561,8.50959 z"
       id="path15"
       inkscape:connector-curvature="0"
       style="fill:#f5f2d3" />
    <path
       d="m -234.66919,570.81771 -9.89226,-2.00681 c 0,0 -6.94799,11.97487 -7.16181,13.7275 -0.21384,1.75263 8.38721,17.475 9.42199,17.54003 1.03485,0.0651 8.36988,4.17946 8.36988,4.17946 0,0 -2.1934,-31.76542 -0.7378,-33.44018 z"
       id="path17"
       inkscape:connector-curvature="0"
       style="fill:#d9d6b9" />
    <path
       d="m -240.63443,565.22032 208.926111,1.34811 11.733227,21.20161 -6.686845,19.82844 -94.323753,-2.65087 -112.44714,1.65569 -15.00115,-16.23459 7.79955,-25.14839 z"
       id="path21"
       inkscape:connector-curvature="0"
       style="fill:#f5f2d3" />
    <path
       d="m -235.89594,473.14024 1.5952,4.06312 195.369791,6.93176 1.536644,-12.6777 2.320039,-9.00053 -34.267436,-3.18627 -170.277848,10.27665 3.72361,3.59297 z"
       id="path23"
       inkscape:connector-curvature="0"
       style="fill:#e7e5c5" />
    <path
       d="m -239.35384,567.16716 203.777499,-0.82575 12.697101,15.15555 -21.099883,-0.14975 -79.910117,-2.0951 -103.85347,0.29952 -17.05949,0.44867 5.44836,-12.83314 z"
       id="path25"
       inkscape:connector-curvature="0"
       style="fill:#fffde4" />
    <path
       d="m -232.38213,607.22022 205.031373,0.0468 5.228954,-13.36295 -11.736211,1.97547 -108.064976,-4.18333 -80.82238,1.80692 -22.65932,0.17361 13.02256,13.54345 z"
       id="path27"
       inkscape:connector-curvature="0"
       style="fill:#e7e5c5" />
    <path
       d="m -239.29258,469.58665 182.657525,-7.53927 21.027092,4.0352 1.001166,-5.25804 -11.781561,-4.65442 -19.527735,-0.39539 -61.778807,5.6253 -112.54019,5.22459 0.94251,2.96203 z"
       id="path31"
       inkscape:connector-curvature="0"
       style="fill:#c9c7ac" />
    <path
       d="m -234.70971,606.96575 207.750046,0.67838 0.420036,-3.52853 -13.396657,-0.59903 -88.732935,-0.15602 -90.85339,-0.0214 -19.00888,-0.42451 3.82178,4.05118 z"
       id="path33"
       inkscape:connector-curvature="0"
       style="fill:#c9c7ac" />
    <text
       xml:space="preserve"
       style="font-size:26.14352417px;font-style:normal;font-variant:normal;font-weight:normal;font-stretch:normal;line-height:125%;letter-spacing:0px;word-spacing:0px;fill:#000000;fill-opacity:1;stroke:none;font-family:SBL Greek;-inkscape-font-specification:SBL Greek"
       x="-226.36771"
       y="522.45819"
       id="text3012"
       sodipodi:linespacing="125%"><tspan
         sodipodi:role="line"
         id="tspan3014"
         x="-226.36771"
         y="522.45819">Φιλιππος Σιμωνι. </tspan><tspan
         sodipodi:role="line"
         x="-226.36771"
         y="555.13757"
         id="tspan3016">Χαιρε.</tspan></text>
  </g>
</svg>
