<?xml version="1.0" encoding="UTF-8" standalone="no"?>
<svg
   xmlns:dc="http://purl.org/dc/elements/1.1/"
   xmlns:cc="http://creativecommons.org/ns#"
   xmlns:rdf="http://www.w3.org/1999/02/22-rdf-syntax-ns#"
   xmlns:svg="http://www.w3.org/2000/svg"
   xmlns="http://www.w3.org/2000/svg"
   xmlns:sodipodi="http://sodipodi.sourceforge.net/DTD/sodipodi-0.dtd"
   xmlns:inkscape="http://www.inkscape.org/namespaces/inkscape"
   width="612pt"
   viewBox="0,0,612,792"
   version="1.1"
   height="792pt"
   id="svg2"
   inkscape:version="0.48.2 r9819"
   sodipodi:docname="mail">
  <metadata
     id="metadata113">
    <rdf:RDF>
      <cc:Work
         rdf:about="">
        <dc:format>image/svg+xml</dc:format>
        <dc:type
           rdf:resource="http://purl.org/dc/dcmitype/StillImage" />
        <dc:title></dc:title>
      </cc:Work>
    </rdf:RDF>
  </metadata>
  <sodipodi:namedview
     pagecolor="#ffffff"
     bordercolor="#666666"
     borderopacity="1"
     objecttolerance="10"
     gridtolerance="10"
     guidetolerance="10"
     inkscape:pageopacity="0"
     inkscape:pageshadow="2"
     inkscape:window-width="1366"
     inkscape:window-height="744"
     id="namedview111"
     showgrid="false"
     inkscape:zoom="0.23838384"
     inkscape:cx="382.5"
     inkscape:cy="495"
     inkscape:window-x="0"
     inkscape:window-y="24"
     inkscape:window-maximized="1"
     inkscape:current-layer="svg2" />
  <defs
     id="defs4" />
  <g
     id="Layer 3">
    <path
       fill="#c89347"
       d="M221.76 465.439 L212.349 518.144 L203.476 546.395 L201.682 579.005 C201.682 579.005 202.188 594.798 203.565 611.005C204.941 627.212 207.382 673.726 207.382 673.726L201.733 688.313 L181.167 719.504 L187.786 729.102 L215.226 731.941 L248.351 731.088 L255.302 717.849 L239.743 697.39 L241.286 679.971 L246.858 600.339 L260.842 552.699 L267.776 530.636 L273.456 493.973 L221.76 465.439 Z"
       opacity="1"
       id="path7" />
    <path
       fill="#c89347"
       d="M395.094 478.742 L399.088 526.941 L394.906 547.254 L398.4 611.16 L415.816 677.493 L472.364 710.394 L458.182 722.875 L380.46 713.798 L382.162 695.076 L379.325 671.249 L356.67 603.412 L348.306 574.138 L351.293 546.656 L340.756 503.395 L395.094 478.742 Z"
       opacity="1"
       id="path9" />
  </g>
  <g
     id="Layer 7">
    <path
       fill="#c89347"
       d="M389.132 169.138 L453.724 239.651 L379.394 335.353 L369.454 305.585 L402.809 248.935 L366.348 216.651 L389.132 169.138 Z"
       opacity="1"
       id="path12" />
  </g>
  <g
     id="Layer 4">
    <path
       fill="#825d6f"
       d="M200.223 151.353 L176.099 168.6 L158.896 191.507 L201.241 237.999 L203.551 350.343 L326.064 371.783 L383.459 362.044 L390.959 317.041 L385.644 227.307 L407.071 185.837 L370.082 149.558 L337.526 143.346 L272.118 135.626 L200.223 151.353 Z"
       opacity="1"
       id="path15" />
    <path
       fill="#825d6f"
       d="M222.937 345.592 L212.49 499.95 L330.699 511.971 L402.486 503.324 L378.866 354.109 L222.937 345.592 Z"
       opacity="1"
       id="path17" />
    <path
       fill="#c3a6b4"
       d="M373.021 198.044 L384.84 233.339 L389.75 309.157 L374.798 347.445 L316.726 357.585 L262.341 339.149 L249.436 285.686 L261.022 244.248 L249.436 223.927 L319.931 237.157 L373.021 198.044 Z"
       opacity="1"
       id="path19" />
    <path
       fill="#cdafbe"
       d="M269.715 371.411 L259.718 501.821 L330.031 511.971 L401.484 503.825 L381.447 371.076 L269.715 371.411 Z"
       opacity="1"
       id="path21" />
    <path
       fill="#c3a6b4"
       d="M369.523 149.558 L392.867 165.522 L408.122 186.085 L399.503 200.269 L372.848 165.774 L369.523 149.558 Z"
       opacity="1"
       id="path23" />
    <path
       fill="#c3a6b4"
       d="M345.018 148.919 L308.172 170.086 L281.517 166.558 L262.969 166.239 L324.306 195.977 L345.018 148.919 Z"
       opacity="1"
       id="path25" />
    <path
       fill="#c3a6b4"
       d="M351.766 145.925 L322.812 207.028 L256.282 176.996 L241.462 169.068 L289.715 215.943 L320.735 222.836 L370.456 187.792 L351.766 145.925 Z"
       opacity="1"
       id="path27" />
    <path
       fill="#c3a6b4"
       d="M282.683 221.398 L259.314 208.585 L245.909 185.736 L282.683 221.398 Z"
       opacity="1"
       id="path29" />
    <path
       fill="#c3a6b4"
       d="M397.188 205.726 L373.156 167.722 L377.347 190.916 L390.76 217.463 L397.188 205.726 Z"
       opacity="1"
       id="path31" />
  </g>
  <g
     id="Layer 6">
    <path
       fill="#c89347"
       d="M161.085 191.742 L108.891 261.334 L199.934 340.542 L215.395 317.449 L163.023 257.277 L197.736 234.147 L161.085 191.742 Z"
       opacity="1"
       id="path34" />
  </g>
  <g
     id="Layer 5">
    <path
       fill="#84612f"
       d="M231.356 145.255 L253.432 137.458 L256.319 122.483 L323.726 139.597 L344.665 146.577 L310.401 167.199 L276.772 166.564 L231.356 145.255 Z"
       opacity="1"
       id="path37" />
    <path
       fill="#c89347"
       d="M310.623 157.712 L296.244 153.137 L323.726 139.597 L344.665 146.577 L310.401 167.199 L304.414 169.477 L310.623 157.712 Z"
       opacity="1"
       id="path39" />
  </g>
  <g
     id="Layer 1">
    <path
       fill="#c89347"
       d="M251.539 58.369 C251.539 58.369 273.439 37.1071 293.317 37.3197C313.195 37.5323 331.05 59.2194 331.05 59.2194L336.578 108.117 C336.578 108.117 333.193 125.976 328.511 132.665C323.829 139.353 318.389 145.518 318.389 145.518C318.389 145.518 309.909 151.073 297.314 147.779C284.235 144.358 263.706 137.033 257.591 130.727C251.476 124.421 249.191 99.4796 249.191 99.4796L255.415 83.6934 L251.539 58.369 Z"
       opacity="1"
       id="path42" />
    <path
       fill="#976f35"
       d="M290.455 105.324 C290.455 105.324 300.823 108.055 308.96 107.33C317.098 106.606 320.331 102.871 320.331 102.871C320.331 102.871 315.983 110.173 307.845 110.898C299.708 111.622 290.455 105.324 290.455 105.324Z"
       opacity="1"
       id="path44" />
    <path
       fill="#976f35"
       d="M271.119 86.3534 L283.962 89.7935 L291.76 84.9774 L293.709 90.7109 L290.498 97.0177 L286.37 101.834 L289.925 105.159 L297.378 106.994 L296.232 100.802 L298.704 98.1895 L296.921 91.7239 L302.718 80.1305 L290.455 72.7731 L274.18 72.5502 L265.271 71.3316 L263.436 86.8121 L271.119 86.3534 Z"
       opacity="1"
       id="path46" />
    <path
       fill="#976f35"
       d="M309.183 79.0157 L316.095 68.3141 L329.918 76.5633 L323.675 83.2518 L312.973 84.1436 L309.183 79.0157 Z"
       opacity="1"
       id="path48" />
    <path
       fill="#976f35"
       d="M266.699 78.4417 C266.699 78.4417 265.84 83.1658 262.691 88.0331C259.541 92.9003 259.828 107.216 262.977 112.083C266.126 116.95 272.771 128.823 272.771 128.823L287.304 135.217 C287.304 135.217 292.315 141.325 293.698 142.774C295.082 144.224 305.902 144.329 308.786 144.149C311.893 143.956 319.276 141.418 319.276 141.418L326.64 135.992 L318.458 147.083 L301.451 150.14 L274.709 140.837 C274.709 140.837 259.179 135.787 254.169 128.629C249.159 121.471 248.253 102.711 248.253 102.711L253.303 83.3197 L252.061 57.7469 L270.136 42.7416 L286.311 38.3586 L269.992 47.6636 C269.992 47.6636 266.866 53.9743 266.043 61.6688C265.22 69.3633 266.699 78.4417 266.699 78.4417Z"
       opacity="1"
       id="path50" />
    <path
       fill="#fffef7"
       d="M273.189 81.389 L283.734 79.4438 L292.306 81.6924 L285.595 86.3152 L276.147 84.7405 L273.189 81.389 Z"
       opacity="1"
       id="path52" />
    <path
       fill="#fffef7"
       d="M313.579 81.9549 L320.673 79.0743 L328.014 80.1199 L326.416 84.7857 L316.876 86.0392 L313.579 81.9549 Z"
       opacity="1"
       id="path54" />
    <path
       fill="#976f35"
       d="M278.458 103.898 L273.183 109.058 L273.412 105.274 L278.458 103.898 Z"
       opacity="1"
       id="path56" />
    <path
       fill="#7b2725"
       d="M277.968 80.3777 L283.789 79.3128 L287.065 80.3777 L287.57 82.6326 L287.104 85.315 L285.379 86.3699 L277.77 84.9774 L277.385 82.3993 L277.968 80.3777 Z"
       opacity="1"
       id="path58" />
    <path
       fill="#7b2725"
       d="M316.301 82.7335 L316.799 80.7425 L320.651 79.0954 L325.154 79.6403 L326.648 82.3345 L325.438 84.9023 L318.378 86.1922 L317.012 84.9023 L316.301 82.7335 Z"
       opacity="1"
       id="path60" />
    <path
       fill="#000000"
       d="M279.159 82.856 C279.159 81.0583 280.616 79.601 282.414 79.601C284.212 79.601 285.669 81.0583 285.669 82.856C285.669 84.6537 284.212 86.1111 282.414 86.1111C280.616 86.1111 279.159 84.6537 279.159 82.856Z"
       opacity="1"
       id="path62" />
    <path
       fill="#000000"
       d="M317.93 82.4328 C317.93 80.6351 319.387 79.1777 321.185 79.1777C322.983 79.1777 324.44 80.6351 324.44 82.4328C324.44 84.2305 322.983 85.6878 321.185 85.6878C319.387 85.6878 317.93 84.2305 317.93 82.4328Z"
       opacity="1"
       id="path64" />
    <path
       fill="#ffd79d"
       d="M309.763 79.4732 L315.726 89.5642 L314.579 96.1004 L319.166 98.5085 L318.707 101.49 L317.675 98.8524 L313.318 96.3297 L314.005 89.5642 L309.763 79.4732 Z"
       opacity="1"
       id="path66" />
    <path
       fill="#2f1f18"
       d="M270.66 74.313 L274.1 72.8223 L288.09 73.3957 L295.544 76.6065 L300.36 73.625 L300.13 68.5795 L292.562 67.4328 L285.453 64.5661 L279.146 67.4328 L273.183 69.0382 L266.761 71.905 L270.66 74.313 Z"
       opacity="1"
       id="path68" />
    <path
       fill="#2f1f18"
       d="M312.4 75.6891 L308.845 73.0517 L309.648 67.8915 L315.84 67.2035 L322.032 64.4514 L328.454 68.3502 L334.646 70.9876 L330.862 75.1157 L327.193 73.5103 L317.79 72.1343 L312.4 75.6891 Z"
       opacity="1"
       id="path70" />
    <path
       fill="#000000"
       d="M277.279 40.4654 L257.645 48.0168 L244.053 70.4823 L247.365 83.6259 L248.919 102.045 L254.058 82.9421 L254.058 63.8748 L268.783 43.4859 L277.279 40.4654 Z"
       opacity="1"
       id="path72" />
  </g>
  <g
     id="Layer 8">
    <path
       fill="#976f35"
       d="M250.169 77.6845 L245.36 81.2868 L244.575 98.2925 L248.096 108.173 L252.374 109.205 L251.077 98.3091 L253.732 86.2577 L250.169 77.6845 Z"
       opacity="1"
       id="path75" />
  </g>
  <g
     id="mouth">
    <path
       fill="#7b2725"
       d="M280.716 115.348 L305.249 115.551 L322.483 113.929 L311.534 126.297 L299.572 126.905 L280.716 115.348 Z"
       opacity="1"
       id="path78" />
    <path
       fill="#fffef7"
       d="M282.342 115.53 L305.449 115.948 L322.075 113.744 L314.91 118.376 L306.035 119.716 L289.263 118.996 L282.342 115.53 Z"
       opacity="1"
       id="path80" />
    <path
       fill="#976f35"
       d="M280.256 115.601 L305.577 116.555 L322.528 113.694 L309.073 113.906 C309.073 113.906 307.153 114.86 305.246 114.939C303.339 115.019 301.445 114.224 301.445 114.224L280.256 115.601 Z"
       opacity="1"
       id="path82" />
    <path
       fill="#af813f"
       d="M281.17 115.614 C281.17 115.614 289.326 125.159 293.793 126.557C298.259 127.955 312.988 126.923 315.553 125.604C318.117 124.284 322.335 113.874 322.335 113.874C322.335 113.874 316.949 119.97 313.647 121.157C310.344 122.343 300.939 122.294 297.922 121.792C294.906 121.289 281.17 115.614 281.17 115.614Z"
       opacity="1"
       id="path84" />
    <path
       fill="#c3a6b4"
       d="M370.491 154.281 L385.974 224.618 L374.395 199.143 L370.491 154.281 Z"
       opacity="1"
       id="path86" />
    <path
       fill="#976f35"
       d="M315.912 90.662 L321.425 96.4045 L319.817 99.6202 L314.764 96.0599 L315.912 90.662 Z"
       opacity="1"
       id="path88" />
    <path
       fill="#976f35"
       d="M323.607 101.113 L329.005 103.41 L329.579 109.957 L323.607 101.113 Z"
       opacity="1"
       id="path90" />
    <path
       fill="#976f35"
       d="M295.469 127.299 L314.993 126.495 L311.777 131.778 L306.609 130.055 L299.489 131.778 L295.469 127.299 Z"
       opacity="1"
       id="path92" />
    <path
       fill="#e4b26a"
       d="M316.855 87.8012 L331.233 88.633 L334.204 101.11 L325.529 98.7331 L316.855 87.8012 Z"
       opacity="1"
       id="path94" />
    <path
       fill="#e4b26a"
       d="M283.243 91.3037 L292.08 90.3546 L287.082 99.2928 L274.97 100.795 L271.306 98.4882 L268.457 89.2606 L273.234 87.8961 L283.243 91.3037 Z"
       opacity="1"
       id="path96" />
    <path
       fill="#e4b26a"
       d="M305.18 42.5324 L324.561 55.5239 L329.246 63.404 L303.975 69.3209 L288.317 65.2879 L286.012 55.7369 L292.188 42.3194 L305.18 42.5324 Z"
       opacity="1"
       id="path98" />
    <path
       fill="#e4b26a"
       d="M309.25 78.1763 L313.273 88.748 L313.699 97.267 L317.745 103.017 L310.504 105.786 L304.754 102.165 L304.967 95.7762 L305.804 77.4634 L309.25 78.1763 Z"
       opacity="1"
       id="path100" />
    <path
       fill="#e4b26a"
       d="M293.937 135.588 L306.671 132.621 L320.934 135.065 L317.481 140.611 L297.704 141.762 L293.937 135.588 Z"
       opacity="1"
       id="path102" />
  </g>
  <g
     id="Layer 2"
     visibility="hidden">
    <path
       stroke-linejoin="round"
       stroke-width="13"
       stroke="#2761ba"
       d="M285.275 323.999 L208.928 254.503 L265.699 185.986 L328.343 178.156 L337.153 250.588 L338.131 316.169 L298.979 323.999 L284.297 459.076 L270.593 570.661 L287.233 597.089 "
       fill="none"
       stroke-linecap="round"
       opacity="1"
       id="path105" />
    <path
       stroke-linejoin="round"
       stroke-width="13"
       stroke="#2761ba"
       d="M337.153 319.105 L377.284 320.084 L405.67 464.949 L423.288 561.851 L445.801 577.512 "
       fill="none"
       stroke-linecap="round"
       opacity="1"
       id="path107" />
    <path
       stroke-linejoin="round"
       stroke-width="13"
       stroke="#2761ba"
       d="M333.237 178.156 L388.051 178.156 L447.759 236.885 L382.178 319.105 "
       fill="none"
       stroke-linecap="round"
       opacity="1"
       id="path109" />
  </g>
</svg>
