<?xml version="1.0" encoding="UTF-8" standalone="no"?>
<svg
   xmlns:dc="http://purl.org/dc/elements/1.1/"
   xmlns:cc="http://creativecommons.org/ns#"
   xmlns:rdf="http://www.w3.org/1999/02/22-rdf-syntax-ns#"
   xmlns:svg="http://www.w3.org/2000/svg"
   xmlns="http://www.w3.org/2000/svg"
   xmlns:sodipodi="http://sodipodi.sourceforge.net/DTD/sodipodi-0.dtd"
   xmlns:inkscape="http://www.inkscape.org/namespaces/inkscape"
   width="303.4725"
   viewBox="0 0 242.778 155.954"
   version="1.1"
   height="194.9425"
   id="svg2"
   inkscape:version="0.48.2 r9819"
   sodipodi:docname="mosaic_texture.svg"
   inkscape:export-filename="/home/ian/web2py/applications/paideia/static/images/mosaic_texture1.png"
   inkscape:export-xdpi="35.59"
   inkscape:export-ydpi="35.59">
  <metadata
     id="metadata17">
    <rdf:RDF>
      <cc:Work
         rdf:about="">
        <dc:format>image/svg+xml</dc:format>
        <dc:type
           rdf:resource="http://purl.org/dc/dcmitype/StillImage" />
        <dc:title></dc:title>
      </cc:Work>
    </rdf:RDF>
  </metadata>
  <sodipodi:namedview
     pagecolor="#ffffff"
     bordercolor="#666666"
     borderopacity="1"
     objecttolerance="10"
     gridtolerance="10"
     guidetolerance="10"
     inkscape:pageopacity="0"
     inkscape:pageshadow="2"
     inkscape:window-width="1366"
     inkscape:window-height="744"
     id="namedview15"
     showgrid="false"
     fit-margin-top="0"
     fit-margin-left="0"
     fit-margin-right="0"
     fit-margin-bottom="0"
     inkscape:zoom="0.95353535"
     inkscape:cx="-82.077162"
     inkscape:cy="83.624513"
     inkscape:window-x="0"
     inkscape:window-y="24"
     inkscape:window-maximized="1"
     inkscape:current-layer="svg2" />
  <defs
     id="defs4" />
  <g 
     id="Layer 1" 
     transform="translate(-209.738,-139.149)" 
     style="fill:#f4e8d8;fill-opacity:1" >
    <path
       d="m 331.082,216.884 0,3.188 -9.75,0 0,16.875 9.75,0 0,21.781 -9.125,0 0,14.937 9.125,0 0,21.438 -121.344,0 0,-21.469 11.188,0 0,-14.937 -11.188,0 0,-21.907 14.375,0 0,-16.906 -14.375,0 0,-3 121.344,0 z m -38.156,2.906 -20.188,0.532 -0.187,15.187 19.843,-0.156 0.532,-15.563 z m 2.312,0.188 0,15.187 24.688,-0.375 -0.625,-14.468 -24.063,-0.344 z m -47.469,0.094 -20,0.562 0.563,14.844 20,-0.156 -0.563,-15.25 z m 21.375,0.625 -18.937,0.156 0.719,14.656 18.781,-0.344 -0.563,-14.468 z m -8.562,17.875 0,15.531 21.969,-0.719 -0.719,-14.469 -21.25,-0.343 z m 47.125,0.187 -23.219,0.344 0,14.844 23.063,-0.563 0.156,-14.625 z m -50.813,0.719 -23.593,0.344 0.531,13.75 23.594,-0.719 -0.532,-13.375 z m -26,0.062 -18.375,0 0,14.938 18.375,0 0,-14.938 z m 96.875,0.157 -17.625,0 0,15.593 17.625,0 0,-15.593 z m -85.062,17.812 -18.594,0 0,17.875 18.594,0 0,-17.875 z m 75.406,1.063 -21.25,0 0,14.843 21.25,0 0,-14.843 z m -50.906,0 -19.313,0 0,14.656 19.313,0 0,-14.656 z m 24.812,0.718 -21.593,0 0,14.125 21.593,0 0,-14.125 z m 35.75,17.157 -21.437,0 0,15.531 21.437,0 0,-15.531 z m -24.312,0.875 -21.594,0 0,15.375 21.594,0 0,-15.375 z m -23.406,1.25 -20.375,0 0,14.5 20.375,0 0,-14.5 z m -24.469,0 -16.813,0 0,14.5 16.813,0 0,-14.5 z m -19.469,0.562 -24.312,0 0,14.469 24.312,0 0,-14.469 z"
       id="path7"
       inkscape:connector-curvature="0"
       style="fill:#f4e8d8;fill-opacity:1" />
    <path
       d="m 451.986,216.846 0,3.188 -9.75,0 0,16.875 9.75,0 0,21.781 -9.125,0 0,14.937 9.125,0 0,21.438 -121.344,0 0,-21.469 11.188,0 0,-14.937 -11.188,0 0,-21.907 14.375,0 0,-16.906 -14.375,0 0,-3 121.344,0 z m -38.156,2.906 -20.188,0.532 -0.187,15.187 19.844,-0.156 0.531,-15.563 z m 2.312,0.188 0,15.187 24.688,-0.375 -0.625,-14.468 -24.063,-0.344 z m -47.468,0.094 -20,0.562 0.562,14.844 20,-0.156 -0.562,-15.25 z m 21.375,0.625 -18.938,0.156 0.719,14.656 18.781,-0.344 -0.562,-14.468 z m -8.563,17.875 0,15.531 21.969,-0.719 -0.719,-14.469 -21.25,-0.343 z m 47.125,0.187 -23.219,0.344 0,14.844 23.063,-0.563 0.156,-14.625 z m -50.812,0.719 -23.594,0.344 0.531,13.75 23.594,-0.719 -0.531,-13.375 z m -26,0.062 -18.375,0 0,14.938 18.375,0 0,-14.938 z m 96.875,0.157 -17.625,0 0,15.593 17.625,0 0,-15.593 z m -85.063,17.812 -18.594,0 0,17.875 18.594,0 0,-17.875 z m 75.406,1.063 -21.25,0 0,14.843 21.25,0 0,-14.843 z m -50.906,0 -19.312,0 0,14.656 19.312,0 0,-14.656 z m 24.813,0.718 -21.594,0 0,14.125 21.594,0 0,-14.125 z m 35.75,17.157 -21.438,0 0,15.531 21.438,0 0,-15.531 z m -24.313,0.875 -21.594,0 0,15.375 21.594,0 0,-15.375 z m -23.406,1.25 -20.375,0 0,14.5 20.375,0 0,-14.5 z m -24.469,0 -16.812,0 0,14.5 16.812,0 0,-14.5 z m -19.469,0.562 -24.312,0 0,14.469 24.312,0 0,-14.469 z"
       id="path9"
       inkscape:connector-curvature="0"
       style="fill:#f4e8d8;fill-opacity:1" />
    <path
       d="m 331.612,139.187 0,3.188 -9.75,0 0,16.875 9.75,0 0,21.781 -9.125,0 0,14.937 9.125,0 0,21.438 -121.344,0 0,-21.469 11.188,0 0,-14.937 -11.188,0 0,-21.907 14.375,0 0,-16.906 -14.375,0 0,-3 121.344,0 z m -38.156,2.906 -20.188,0.532 -0.187,15.187 19.843,-0.156 0.532,-15.563 z m 2.312,0.188 0,15.187 24.688,-0.375 -0.625,-14.468 -24.063,-0.344 z m -47.469,0.094 -20,0.562 0.563,14.844 20,-0.156 -0.563,-15.25 z m 21.375,0.625 -18.937,0.156 0.719,14.656 18.781,-0.344 L 269.674,143 z m -8.562,17.875 0,15.531 21.969,-0.719 -0.719,-14.469 -21.25,-0.343 z m 47.125,0.187 -23.219,0.344 0,14.844 23.063,-0.563 0.156,-14.625 z m -50.813,0.719 -23.593,0.344 0.531,13.75 23.594,-0.719 -0.532,-13.375 z m -26,0.062 -18.375,0 0,14.938 18.375,0 0,-14.938 z m 96.875,0.157 -17.625,0 0,15.593 17.625,0 0,-15.593 z m -85.062,17.812 -18.594,0 0,17.875 18.594,0 0,-17.875 z m 75.406,1.063 -21.25,0 0,14.843 21.25,0 0,-14.843 z m -50.906,0 -19.313,0 0,14.656 19.313,0 0,-14.656 z m 24.812,0.718 -21.593,0 0,14.125 21.593,0 0,-14.125 z m 35.75,17.157 -21.437,0 0,15.531 21.437,0 0,-15.531 z m -24.312,0.875 -21.594,0 0,15.375 21.594,0 0,-15.375 z m -23.406,1.25 -20.375,0 0,14.5 20.375,0 0,-14.5 z m -24.469,0 -16.813,0 0,14.5 16.813,0 0,-14.5 z m -19.469,0.562 -24.312,0 0,14.469 24.312,0 0,-14.469 z"
       id="path11"
       inkscape:connector-curvature="0"
       style="fill:#f4e8d8;fill-opacity:1" />
    <path
       d="m 452.516,139.149 0,3.188 -9.75,0 0,16.875 9.75,0 0,21.781 -9.125,0 0,14.937 9.125,0 0,21.438 -121.344,0 0,-21.469 11.188,0 0,-14.937 -11.188,0 0,-21.907 14.375,0 0,-16.906 -14.375,0 0,-3 121.344,0 z m -38.156,2.906 -20.188,0.532 -0.187,15.187 19.844,-0.156 0.531,-15.563 z m 2.312,0.188 0,15.187 24.688,-0.375 -0.625,-14.468 -24.063,-0.344 z m -47.468,0.094 -20,0.562 0.562,14.844 20,-0.156 -0.562,-15.25 z m 21.375,0.625 -18.938,0.156 0.719,14.656 18.781,-0.344 -0.562,-14.468 z m -8.563,17.875 0,15.531 21.969,-0.719 -0.719,-14.469 -21.25,-0.343 z m 47.125,0.187 -23.219,0.344 0,14.844 23.063,-0.563 0.156,-14.625 z m -50.812,0.719 -23.594,0.344 0.531,13.75 23.594,-0.719 -0.531,-13.375 z m -26,0.062 -18.375,0 0,14.938 18.375,0 0,-14.938 z m 96.875,0.157 -17.625,0 0,15.593 17.625,0 0,-15.593 z m -85.063,17.812 -18.594,0 0,17.875 18.594,0 0,-17.875 z m 75.406,1.063 -21.25,0 0,14.843 21.25,0 0,-14.843 z m -50.906,0 -19.312,0 0,14.656 19.312,0 0,-14.656 z m 24.813,0.718 -21.594,0 0,14.125 21.594,0 0,-14.125 z m 35.75,17.157 -21.438,0 0,15.531 21.438,0 0,-15.531 z m -24.313,0.875 -21.594,0 0,15.375 21.594,0 0,-15.375 z m -23.406,1.25 -20.375,0 0,14.5 20.375,0 0,-14.5 z m -24.469,0 -16.812,0 0,14.5 16.812,0 0,-14.5 z m -19.469,0.562 -24.312,0 0,14.469 24.312,0 0,-14.469 z"
       id="path13"
       inkscape:connector-curvature="0"
       style="fill:#f4e8d8;fill-opacity:1" />
  </g>
</svg>
