<?xml version="1.0" encoding="UTF-8" standalone="no"?>
<svg
   xmlns:dc="http://purl.org/dc/elements/1.1/"
   xmlns:cc="http://creativecommons.org/ns#"
   xmlns:rdf="http://www.w3.org/1999/02/22-rdf-syntax-ns#"
   xmlns:svg="http://www.w3.org/2000/svg"
   xmlns="http://www.w3.org/2000/svg"
   xmlns:sodipodi="http://sodipodi.sourceforge.net/DTD/sodipodi-0.dtd"
   xmlns:inkscape="http://www.inkscape.org/namespaces/inkscape"
   width="60.290913"
   viewBox="0 0 48.232731 95.406212"
   version="1.1"
   height="100%"
   id="svg2"
   inkscape:version="0.48.4 r9939"
   sodipodi:docname="page_border_top-bottom.svg">
  <sodipodi:namedview
     pagecolor="#ffffff"
     bordercolor="#666666"
     borderopacity="1"
     objecttolerance="10"
     gridtolerance="10"
     guidetolerance="10"
     inkscape:pageopacity="0"
     inkscape:pageshadow="2"
     inkscape:window-width="1627"
     inkscape:window-height="1026"
     id="namedview1698"
     showgrid="false"
     inkscape:zoom="8.34386"
     inkscape:cx="25.021201"
     inkscape:cy="72.780294"
     inkscape:window-x="53"
     inkscape:window-y="24"
     inkscape:window-maximized="1"
     inkscape:current-layer="layer1"
     fit-margin-top="0"
     fit-margin-left="0"
     fit-margin-right="0"
     fit-margin-bottom="0" />
  <metadata
     id="metadata1700">
    <rdf:RDF>
      <cc:Work
         rdf:about="">
        <dc:format>image/svg+xml</dc:format>
        <dc:type
           rdf:resource="http://purl.org/dc/dcmitype/StillImage" />
        <dc:title></dc:title>
      </cc:Work>
    </rdf:RDF>
  </metadata>
  <defs
     id="defs4" />
  <g
     inkscape:groupmode="layer"
     id="layer1"
     inkscape:label="bg"
     style="display:inline"
     transform="translate(-86.041168,-310.71253)">
    <path
       d="m 86.13989,310.71252 47.95581,0 0,95.40622 -47.95581,0 0,-95.40622 z"
       id="path7"
       inkscape:connector-curvature="0"
       style="fill:#f4f1e1" />
  </g>
  <g
     inkscape:groupmode="layer"
     id="layer2"
     inkscape:label="fg"
     transform="translate(-86.041168,-310.71253)">
    <path
       d="m 115.98343,340.78037 -1.52047,2.66259 -2.64863,-0.68683 1.22826,-2.63581 2.94084,0.66005 z"
       id="path282"
       inkscape:connector-curvature="0"
       style="fill:#fffef7" />
    <path
       d="m 112.61615,339.97772 -1.29955,2.63582 -2.55046,-1.70723 1.72203,-2.42585 2.12798,1.49726 z"
       id="path284"
       inkscape:connector-curvature="0"
       style="fill:#fffef7" />
    <path
       d="m 115.7498,340.19271 -2.20806,-0.48724 2.21532,-3.82209 1.54476,0.25839 -1.55202,4.05094 z"
       id="path286"
       inkscape:connector-curvature="0"
       style="fill:#fffef7" />
    <path
       d="m 115.24205,335.79724 -2.21299,3.47847 -2.48095,-1.63337 2.37424,-1.80311 2.3197,-0.0419 z"
       id="path288"
       inkscape:connector-curvature="0"
       style="fill:#fffef7" />
    <path
       d="m 113.22519,344.11312 -1.85708,-0.93243 -0.94291,1.79381 2.10382,0.10438 0.69617,-0.96576 z"
       id="path290"
       inkscape:connector-curvature="0"
       style="fill:#fffef7" />
    <path
       d="m 110.71396,342.97333 -1.73851,-1.20781 -1.34822,3.69063 2.03352,0.34588 1.05321,-2.8287 z"
       id="path292"
       inkscape:connector-curvature="0"
       style="fill:#fffef7" />
    <path
       d="m 109.5696,349.25225 -0.0849,-2.8981 -2.58565,-0.34613 0.18441,3.55375 2.48604,-0.30952 z"
       id="path294"
       inkscape:connector-curvature="0"
       style="fill:#fffef7" />
    <path
       d="m 110.83362,351.49548 -0.10768,-1.99764 -3.40323,0.40926 -0.25177,1.62144 3.76268,-0.033 z"
       id="path296"
       inkscape:connector-curvature="0"
       style="fill:#fffef7" />
    <path
       d="m 117.00536,332.54784 -0.26364,3.00636 0.98459,-0.31404 2.56253,-2.45055 -3.28348,-0.24177 z"
       id="path298"
       inkscape:connector-curvature="0"
       style="fill:#fffef7" />
    <path
       d="m 119.43679,332.09649 -2.34628,-0.30974 -0.70382,-2.72439 3.06746,0.32213 -0.0173,2.712 z"
       id="path300"
       inkscape:connector-curvature="0"
       style="fill:#fffef7" />
    <path
       d="m 116.05317,331.10529 -0.54829,-1.96321 -3.5287,0.55937 0.26747,2.00311 3.80952,-0.59927 z"
       id="path302"
       inkscape:connector-curvature="0"
       style="fill:#fffef7" />
    <path
       d="m 111.24162,331.78425 -0.10762,-1.96297 -3.12263,-0.32183 0.45829,3.48546 2.77196,-1.20066 z"
       id="path304"
       inkscape:connector-curvature="0"
       style="fill:#fffef7" />
    <path
       d="m 107.58373,333.70561 -0.37533,-3.92608 -1.76219,-0.0808 0.28997,4.76728 1.84755,-0.76037 z"
       id="path306"
       inkscape:connector-curvature="0"
       style="fill:#fffef7" />
    <path
       d="m 105.96606,335.44968 -1.17885,2.96343 -2.48638,-0.77426 0.83388,-2.7488 2.83135,0.55963 z"
       id="path308"
       inkscape:connector-curvature="0"
       style="fill:#fffef7" />
    <path
       d="m 104.7841,338.88561 -1.0548,3.73667 -3.01951,-1.34851 1.37294,-3.11954 2.70137,0.73138 z"
       id="path310"
       inkscape:connector-curvature="0"
       style="fill:#fffef7" />
    <path
       d="m 103.38148,343.26648 -2.55176,-1.30945 -1.619697,0.80648 0.916737,2.29815 3.25472,-1.79518 z"
       id="path312"
       inkscape:connector-curvature="0"
       style="fill:#fffef7" />
    <path
       d="m 101.28836,338.23106 -1.1566,2.71432 -1.958417,-1.163 2.024547,-2.71364 1.09047,1.16232 z"
       id="path314"
       inkscape:connector-curvature="0"
       style="fill:#fffef7" />
    <path
       d="m 101.74164,337.76749 -1.36775,-1.07445 0.73594,-0.90178 1.46387,-0.51485 -0.83206,2.49108 z"
       id="path316"
       inkscape:connector-curvature="0"
       style="fill:#fffef7" />
    <path
       d="m 99.729064,341.21914 -1.615311,-0.8849 -0.700231,1.96456 1.126014,0.56525 1.189528,-1.64491 z"
       id="path318"
       inkscape:connector-curvature="0"
       style="fill:#fffef7" />
    <path
       d="m 99.67412,345.32666 -0.761004,-1.89025 -1.895665,-0.64667 -0.874998,2.40661 3.531667,0.13031 z"
       id="path320"
       inkscape:connector-curvature="0"
       style="fill:#fffef7" />
    <path
       d="m 104.85242,331.22546 -2.97128,-0.0504 -0.69992,-1.91597 3.48516,0.36988 0.18604,1.59647 z"
       id="path322"
       inkscape:connector-curvature="0"
       style="fill:#fffef7" />
    <path
       d="m 101.36579,331.10118 -0.67578,-1.84228 -2.826205,0.26896 0.302234,2.67715 3.199751,-1.10383 z"
       id="path324"
       inkscape:connector-curvature="0"
       style="fill:#fffef7" />
    <path
       d="m 97.621993,332.76967 -0.471886,-2.99651 -2.357552,-0.0255 0.807938,4.22465 2.0215,-1.20259 z"
       id="path326"
       inkscape:connector-curvature="0"
       style="fill:#fffef7" />
    <path
       d="m 94.14371,331.34373 -0.185869,-1.67017 -2.923407,0.12158 0.03906,1.5964 3.07021,-0.0478 z"
       id="path328"
       inkscape:connector-curvature="0"
       style="fill:#fffef7" />
    <path
       d="m 95.155539,334.41415 -0.574779,-2.28432 -1.890775,-0.05 0.104638,2.82447 2.360916,-0.49021 z"
       id="path330"
       inkscape:connector-curvature="0"
       style="fill:#fffef7" />
    <path
       d="m 106.31813,347.63327 0.19614,3.5584 -2.35578,0.27267 -0.1514,-1.99818 2.31104,-1.83289 z"
       id="path332"
       inkscape:connector-curvature="0"
       style="fill:#fffef7" />
    <path
       d="m 103.32043,349.84891 -0.012,1.86129 -2.65493,-0.002 -0.17965,-1.88862 2.84656,0.0284 z"
       id="path334"
       inkscape:connector-curvature="0"
       style="fill:#fffef7" />
    <path
       d="m 98.280834,346.09707 -0.267639,3.31171 -2.517406,-0.11036 0.405661,-3.5035 2.379384,0.30215 z"
       id="path336"
       inkscape:connector-curvature="0"
       style="fill:#fffef7" />
    <path
       d="m 95.030049,349.38011 0.287353,-2.13478 -2.503042,1.91485 2.215689,0.21993 z"
       id="path338"
       inkscape:connector-curvature="0"
       style="fill:#fffef7" />
    <path
       d="m 99.869786,350.1486 -0.03769,1.58755 -2.929169,0.0808 0.150323,-2.10744 2.8165,0.43902 z"
       id="path340"
       inkscape:connector-curvature="0"
       style="fill:#fffef7" />
    <path
       d="m 96.382472,351.87166 0.149829,-2.02549 -2.7918,-0.002 -0.06809,2.10746 2.710069,-0.0808 z"
       id="path342"
       inkscape:connector-curvature="0"
       style="fill:#fffef7" />
    <path
       d="m 92.844426,351.84681 0.122849,-2.12604 -3.270014,-0.165 -0.287519,2.34403 3.434684,-0.053 z"
       id="path344"
       inkscape:connector-curvature="0"
       style="fill:#fffef7" />
    <path
       d="m 94.611498,335.52522 -1.267733,3.89096 -2.248936,-1.14552 1.29225,-2.64826 2.224419,-0.0972 z"
       id="path346"
       inkscape:connector-curvature="0"
       style="fill:#fffef7" />
    <path
       d="m 91.601599,335.72014 -1.092492,2.09246 -2.378814,-1.30906 1.906959,-1.60159 1.564347,0.81819 z"
       id="path348"
       inkscape:connector-curvature="0"
       style="fill:#fffef7" />
    <path
       d="m 93.07929,339.8739 -1.338419,-0.86229 -2.108959,2.98641 2.642692,0.94964 0.804686,-3.07376 z"
       id="path350"
       inkscape:connector-curvature="0"
       style="fill:#fffef7" />
    <path
       d="m 90.347263,330.94855 -0.204097,-1.27324 -3.113115,0.14014 -0.0131,2.05118 3.330324,-0.91808 z"
       id="path352"
       inkscape:connector-curvature="0"
       style="fill:#fffef7" />
    <path
       d="m 133.96747,331.76186 0.057,-2.58456 -3.61415,0.22998 0.80793,4.22462 2.7492,-1.87004 z"
       id="path354"
       inkscape:connector-curvature="0"
       style="fill:#fffef7" />
    <path
       d="m 130.21602,331.06045 -0.1856,-1.67014 -2.92339,0.12154 0.0388,1.59641 3.07021,-0.0478 z"
       id="path356"
       inkscape:connector-curvature="0"
       style="fill:#fffef7" />
    <path
       d="m 130.77331,334.0738 -0.57477,-2.28432 -1.89078,-0.0499 0.10464,2.82444 2.36091,-0.49021 z"
       id="path358"
       inkscape:connector-curvature="0"
       style="fill:#fffef7" />
    <path
       d="m 133.52819,351.72195 -0.20402,-2.65275 -3.9659,0.43548 -0.0681,2.10746 4.23802,0.10981 z"
       id="path360"
       inkscape:connector-curvature="0"
       style="fill:#fffef7" />
    <path
       d="m 128.46221,351.50639 0.12284,-2.12601 -3.27,-0.16502 -0.28754,2.34404 3.4347,-0.053 z"
       id="path362"
       inkscape:connector-curvature="0"
       style="fill:#fffef7" />
    <path
       d="m 130.22927,335.18487 -1.26774,3.89096 -2.24893,-1.14551 1.29225,-2.64827 2.22442,-0.0972 z"
       id="path364"
       inkscape:connector-curvature="0"
       style="fill:#fffef7" />
    <path
       d="m 127.47207,335.51945 -1.30847,2.34587 -2.37882,-1.30909 0.58262,-1.07741 3.10467,0.0407 z"
       id="path366"
       inkscape:connector-curvature="0"
       style="fill:#fffef7" />
    <path
       d="m 128.69707,339.53355 -2.11933,-0.98196 -1.32805,3.10602 2.6427,0.94964 0.80468,-3.0737 z"
       id="path368"
       inkscape:connector-curvature="0"
       style="fill:#fffef7" />
    <path
       d="m 126.11851,338.23092 -1.31689,3.06525 -3.55881,-2.02737 2.07695,-2.61527 2.79875,1.57739 z"
       id="path370"
       inkscape:connector-curvature="0"
       style="fill:#fffef7" />
    <path
       d="m 124.40497,341.88546 -2.17991,2.7899 -2.77453,-1.28704 1.52558,-3.33494 3.42886,1.83208 z"
       id="path372"
       inkscape:connector-curvature="0"
       style="fill:#fffef7" />
    <path
       d="m 125.03265,342.04309 -2.41659,2.98607 3.53854,-0.19507 1.50428,-1.65012 -2.62623,-1.14088 z"
       id="path374"
       inkscape:connector-curvature="0"
       style="fill:#fffef7" />
    <path
       d="m 121.59581,345.41681 -2.28152,-1.17829 -0.92893,2.05991 3.21045,-0.88162 z"
       id="path376"
       inkscape:connector-curvature="0"
       style="fill:#fffef7" />
    <path
       d="m 122.22889,348.68727 0.11622,-2.8451 -4.0948,1.11029 -0.0466,2.15827 4.02512,-0.42346 z"
       id="path378"
       inkscape:connector-curvature="0"
       style="fill:#fffef7" />
    <path
       d="m 124.4129,349.7675 -0.33959,1.96183 -3.46536,-0.16501 0.0797,-2.22356 3.72523,0.42674 z"
       id="path380"
       inkscape:connector-curvature="0"
       style="fill:#fffef7" />
    <path
       d="m 119.83565,349.60193 -0.11243,2.25636 -4.15096,-0.32074 -0.1108,-2.16155 4.37419,0.22593 z"
       id="path382"
       inkscape:connector-curvature="0"
       style="fill:#fffef7" />
    <path
       d="m 117.58571,348.67033 -0.0325,-1.41298 -1.79576,1.37064 1.82826,0.0423 z"
       id="path384"
       inkscape:connector-curvature="0"
       style="fill:#fffef7" />
    <path
       d="m 126.59065,330.60847 -0.20409,-1.27324 -3.11312,0.14012 -0.0132,2.05121 3.33033,-0.91809 z"
       id="path386"
       inkscape:connector-curvature="0"
       style="fill:#fffef7" />
    <path
       d="m 91.277005,338.82536 -1.972012,2.88279 -2.278384,-3.38774 0.675377,-1.32653 3.575019,1.83148 z"
       id="path388"
       inkscape:connector-curvature="0"
       style="fill:#fffef7" />
    <path
       d="m 88.883477,342.15975 -2.660495,2.84126 -0.02229,-6.81323 2.682766,3.97197 z"
       id="path390"
       inkscape:connector-curvature="0"
       style="fill:#fffef7" />
    <path
       d="m 89.486586,342.40618 -2.8789,2.81585 3.79021,0.11474 1.408015,-1.95309 -2.319325,-0.9775 z"
       id="path392"
       inkscape:connector-curvature="0"
       style="fill:#fffef7" />
    <path
       d="m 87.026635,349.02795 0.507005,-3.36499 -1.405732,-0.16063 -0.08674,3.53272 0.985466,-0.007 z"
       id="path394"
       inkscape:connector-curvature="0"
       style="fill:#fffef7" />
    <path
       d="m 89.268725,349.81093 -0.164285,2.06594 -2.770856,-0.0768 -0.03514,-2.34294 2.970279,0.35378 z"
       id="path396"
       inkscape:connector-curvature="0"
       style="fill:#fffef7" />
    <path
       d="m 133.9086,345.04745 -1.65772,-1.23731 1.71814,-5.65324 -0.0604,6.89055 z"
       id="path398"
       inkscape:connector-curvature="0"
       style="fill:#fffef7" />
    <path
       d="m 133.41524,348.82578 -0.37412,-2.80766 -2.01841,0.3221 -1.89491,2.69238 4.28744,-0.20682 z"
       id="path400"
       inkscape:connector-curvature="0"
       style="fill:#fffef7" />
    <path
       d="m 99.065683,323.90723 -3.975445,-0.11289 0.26398,-3.11087 3.842694,0.0626 -0.131229,3.16115 z"
       id="path402"
       inkscape:connector-curvature="0"
       style="fill:#fffef7" />
    <path
       d="m 94.662479,323.82844 0.110582,-2.90774 -3.825158,-0.29928 -0.01999,3.10427 3.734546,0.10275 z"
       id="path404"
       inkscape:connector-curvature="0"
       style="fill:#fffef7" />
    <path
       d="m 112.68073,323.91424 -3.59893,0.0621 0.0741,-3.01062 3.61309,-0.0531 -0.0882,3.00173 z"
       id="path406"
       inkscape:connector-curvature="0"
       style="fill:#fffef7" />
    <path
       d="m 108.55511,323.9717 0.15855,-3.34359 -4.02611,-0.002 -0.44629,2.98881 4.31385,0.35646 z"
       id="path408"
       inkscape:connector-curvature="0"
       style="fill:#fffef7" />
    <path
       d="m 103.93535,323.55868 -4.449985,0.34024 0.384354,-3.45756 4.208511,0.0628 -0.14288,3.05454 z"
       id="path410"
       inkscape:connector-curvature="0"
       style="fill:#fffef7" />
    <path
       d="m 125.44336,323.47634 -3.91116,0.32735 0.12635,-3.48544 3.74491,0.10565 0.0399,3.05244 z"
       id="path412"
       inkscape:connector-curvature="0"
       style="fill:#fffef7" />
    <path
       d="m 121.04199,323.91064 0.25055,-3.33245 -3.69367,0.0505 -0.27952,3.01717 3.72264,0.26481 z"
       id="path414"
       inkscape:connector-curvature="0"
       style="fill:#fffef7" />
    <path
       d="m 116.96037,323.82562 -3.96048,0.0785 0.22799,-3.12123 3.84931,0.0537 -0.11682,2.98909 z"
       id="path416"
       inkscape:connector-curvature="0"
       style="fill:#fffef7" />
    <path
       d="m 133.69431,323.36627 -0.0711,-2.99091 -3.64114,-0.0535 -0.45044,3.04275 4.1627,0.002 z"
       id="path418"
       inkscape:connector-curvature="0"
       style="fill:#fffef7" />
    <path
       d="m 129.1341,323.13626 -3.17806,0.35714 0.073,-3.27732 3.43233,0.15749 -0.32719,2.76269 z"
       id="path420"
       inkscape:connector-curvature="0"
       style="fill:#fffef7" />
    <path
       d="m 115.13344,349.04242 -0.34252,2.5861 -3.46535,-0.16501 -0.16463,-2.20608 3.9725,-0.21501 z"
       id="path422"
       inkscape:connector-curvature="0"
       style="fill:#fffef7" />
    <path
       d="m 90.452504,323.82663 0.110592,-2.9077 -4.0816,-0.0868 -0.01947,3.01924 3.990484,-0.0248 z"
       id="path424"
       inkscape:connector-curvature="0"
       style="fill:#fffef7" />
    <path
       d="m 133.41102,345.19854 -1.21562,-1.157 -0.62956,1.88398 1.84518,-0.72698 z"
       id="path426"
       inkscape:connector-curvature="0"
       style="fill:#fffef7" />
    <path
       d="m 122.79547,331.64291 -2.85281,0.46762 -0.0377,-2.95766 2.89815,0.39939 -0.007,2.09065 z"
       id="path428"
       inkscape:connector-curvature="0"
       style="fill:#fffef7" />
    <path
       d="m 104.32948,375.7825 1.52127,-2.66231 2.64809,0.68764 -1.22879,2.63554 -2.94057,-0.66087 z"
       id="path976"
       inkscape:connector-curvature="0"
       style="fill:#fffef7" />
    <path
       d="m 107.69647,376.58598 1.30037,-2.63527 2.5499,1.70804 -1.72285,2.42517 -2.12742,-1.49794 z"
       id="path978"
       inkscape:connector-curvature="0"
       style="fill:#fffef7" />
    <path
       d="m 104.56282,376.37014 2.20779,0.48795 -2.2164,3.82148 -1.5445,-0.25898 1.55311,-4.05045 z"
       id="path980"
       inkscape:connector-curvature="0"
       style="fill:#fffef7" />
    <path
       d="m 105.06921,380.76564 2.21408,-3.47782 2.4804,1.63427 -2.37478,1.8023 -2.3197,0.0413 z"
       id="path982"
       inkscape:connector-curvature="0"
       style="fill:#fffef7" />
    <path
       d="m 107.08853,372.45057 1.85679,0.93298 0.94345,-1.79354 -2.10381,-0.10517 -0.69643,0.96573 z"
       id="path984"
       inkscape:connector-curvature="0"
       style="fill:#fffef7" />
    <path
       d="m 109.5995,373.59091 1.73821,1.20864 1.34903,-3.69065 -2.03324,-0.34641 -1.054,2.82842 z"
       id="path986"
       inkscape:connector-curvature="0"
       style="fill:#fffef7" />
    <path
       d="m 110.74575,367.31227 0.084,2.89836 2.58539,0.34669 -0.18333,-3.55377 -2.48605,0.30872 z"
       id="path988"
       inkscape:connector-curvature="0"
       style="fill:#fffef7" />
    <path
       d="m 109.48228,365.06877 0.10686,1.99762 3.40349,-0.40815 0.2526,-1.62144 -3.76295,0.0319 z"
       id="path990"
       inkscape:connector-curvature="0"
       style="fill:#fffef7" />
    <path
       d="m 103.3051,384.0145 0.26443,-3.00599 -0.98484,0.31363 -2.56308,2.44977 3.28349,0.24259 z"
       id="path992"
       inkscape:connector-curvature="0"
       style="fill:#fffef7" />
    <path
       d="m 100.87366,384.46529 2.346,0.31035 0.70301,2.72461 -3.06717,-0.32293 0.0182,-2.71203 z"
       id="path994"
       inkscape:connector-curvature="0"
       style="fill:#fffef7" />
    <path
       d="m 104.25674,385.45755 0.54773,1.96319 3.52897,-0.55815 -0.26692,-2.00335 -3.80978,0.59831 z"
       id="path996"
       inkscape:connector-curvature="0"
       style="fill:#fffef7" />
    <path
       d="m 109.06854,384.78002 0.10707,1.96292 3.12236,0.32265 -0.45721,-3.48547 -2.77222,1.1999 z"
       id="path998"
       inkscape:connector-curvature="0"
       style="fill:#fffef7" />
    <path
       d="m 112.72697,382.8597 0.37423,3.92614 1.76191,0.0814 -0.28833,-4.76729 -1.84781,0.75976 z"
       id="path1000"
       inkscape:connector-curvature="0"
       style="fill:#fffef7" />
    <path
       d="m 114.34518,381.11615 1.17968,-2.96311 2.4861,0.77479 -0.83443,2.74864 -2.83135,-0.56032 z"
       id="path1002"
       inkscape:connector-curvature="0"
       style="fill:#fffef7" />
    <path
       d="m 115.52796,377.68041 1.05618,-3.73625 3.01894,1.34932 -1.37376,3.11911 -2.70136,-0.73218 z"
       id="path1004"
       inkscape:connector-curvature="0"
       style="fill:#fffef7" />
    <path
       d="m 116.93196,373.29996 2.55146,1.31025 1.61998,-0.80621 -0.91619,-2.29841 -3.25525,1.79437 z"
       id="path1006"
       inkscape:connector-curvature="0"
       style="fill:#fffef7" />
    <path
       d="m 119.02369,378.33609 1.15742,-2.71423 1.95814,1.16382 -2.02536,2.71314 -1.0902,-1.16273 z"
       id="path1008"
       inkscape:connector-curvature="0"
       style="fill:#fffef7" />
    <path
       d="m 118.57042,378.79942 1.36719,1.07504 -0.73621,0.90156 -1.46387,0.51444 0.83289,-2.49104 z"
       id="path1010"
       inkscape:connector-curvature="0"
       style="fill:#fffef7" />
    <path
       d="m 120.58381,375.34839 1.61502,0.88543 0.70079,-1.96429 -1.12601,-0.5658 -1.1898,1.64466 z"
       id="path1012"
       inkscape:connector-curvature="0"
       style="fill:#fffef7" />
    <path
       d="m 120.63984,371.24086 0.76074,1.89053 1.89538,0.64721 0.87582,-2.40633 -3.53194,-0.13141 z"
       id="path1014"
       inkscape:connector-curvature="0"
       style="fill:#fffef7" />
    <path
       d="m 115.45746,385.3406 2.97126,0.0514 0.69939,1.91594 -3.48488,-0.37074 -0.18577,-1.59657 z"
       id="path1016"
       inkscape:connector-curvature="0"
       style="fill:#fffef7" />
    <path
       d="m 118.94409,385.466 0.67523,1.84245 2.82619,-0.26828 -0.30113,-2.67706 -3.20029,1.10289 z"
       id="path1018"
       inkscape:connector-curvature="0"
       style="fill:#fffef7" />
    <path
       d="m 122.68841,383.7984 0.47108,2.99672 2.35753,0.0263 -0.80656,-4.22474 -2.02205,1.20181 z"
       id="path1020"
       inkscape:connector-curvature="0"
       style="fill:#fffef7" />
    <path
       d="m 126.16642,385.2256 0.18504,1.67006 2.92341,-0.12076 -0.0383,-1.5963 -3.07021,0.0471 z"
       id="path1022"
       inkscape:connector-curvature="0"
       style="fill:#fffef7" />
    <path
       d="m 125.15542,382.15485 0.57395,2.28448 1.89078,0.0503 -0.10382,-2.82431 -2.36091,0.48956 z"
       id="path1024"
       inkscape:connector-curvature="0"
       style="fill:#fffef7" />
    <path
       d="m 113.99667,368.93234 -0.19504,-3.55841 2.35577,-0.27211 0.15083,1.99845 -2.31156,1.83207 z"
       id="path1026"
       inkscape:connector-curvature="0"
       style="fill:#fffef7" />
    <path
       d="m 116.99518,366.71752 0.0123,-1.8613 2.6552,0.002 0.17882,1.88863 -2.84627,-0.0292 z"
       id="path1028"
       inkscape:connector-curvature="0"
       style="fill:#fffef7" />
    <path
       d="m 122.03339,370.47099 0.26874,-3.31171 2.51739,0.1112 -0.40673,3.50321 -2.3794,-0.3027 z"
       id="path1030"
       inkscape:connector-curvature="0"
       style="fill:#fffef7" />
    <path
       d="m 125.28527,367.18879 -0.28789,2.13477 2.50358,-1.9143 -2.21569,-0.22047 z"
       id="path1032"
       inkscape:connector-curvature="0"
       style="fill:#fffef7" />
    <path
       d="m 120.44582,366.41892 0.0379,-1.58757 2.92945,-0.0801 -0.15115,2.10743 -2.81622,-0.43983 z"
       id="path1034"
       inkscape:connector-curvature="0"
       style="fill:#fffef7" />
    <path
       d="m 123.9334,364.69694 -0.15037,2.0255 2.79179,0.002 0.0689,-2.10744 -2.71034,0.0801 z"
       id="path1036"
       inkscape:connector-curvature="0"
       style="fill:#fffef7" />
    <path
       d="m 127.47144,364.7229 -0.12312,2.12602 3.26974,0.16583 0.28834,-2.34403 -3.43496,0.0522 z"
       id="path1038"
       inkscape:connector-curvature="0"
       style="fill:#fffef7" />
    <path
       d="m 125.69974,381.04375 1.26882,-3.89061 2.24865,1.14633 -1.29307,2.64785 -2.2244,0.0964 z"
       id="path1040"
       inkscape:connector-curvature="0"
       style="fill:#fffef7" />
    <path
       d="m 128.70962,380.84978 1.09331,-2.09215 2.37827,1.30971 -1.90752,1.60122 -1.56406,-0.81878 z"
       id="path1042"
       inkscape:connector-curvature="0"
       style="fill:#fffef7" />
    <path
       d="m 127.2333,376.69553 1.33814,0.86277 2.10977,-2.98579 -2.64241,-0.95018 -0.8055,3.0732 z"
       id="path1044"
       inkscape:connector-curvature="0"
       style="fill:#fffef7" />
    <path
       d="m 129.96286,385.62174 0.20356,1.27337 3.1131,-0.13935 0.0137,-2.05116 -3.33033,0.91714 z"
       id="path1046"
       inkscape:connector-curvature="0"
       style="fill:#fffef7" />
    <path
       d="m 86.342458,384.79559 -0.05757,2.58472 3.614417,-0.22895 -0.806837,-4.22499 -2.750013,1.86922 z"
       id="path1048"
       inkscape:connector-curvature="0"
       style="fill:#fffef7" />
    <path
       d="m 90.093903,385.49825 0.18505,1.67006 2.923669,-0.12075 -0.03852,-1.59631 -3.070201,0.047 z"
       id="path1050"
       inkscape:connector-curvature="0"
       style="fill:#fffef7" />
    <path
       d="m 89.537429,382.4846 0.574226,2.28449 1.890776,0.0505 -0.103827,-2.82432 -2.361175,0.4893 z"
       id="path1052"
       inkscape:connector-curvature="0"
       style="fill:#fffef7" />
    <path
       d="m 86.788015,364.83573 0.20321,2.65275 3.965882,-0.43437 0.06865,-2.10747 -4.237731,-0.11091 z"
       id="path1054"
       inkscape:connector-curvature="0"
       style="fill:#fffef7" />
    <path
       d="m 91.853717,365.05265 -0.123387,2.12602 3.269741,0.1661 0.28833,-2.34402 -3.434684,0.0519 z"
       id="path1056"
       inkscape:connector-curvature="0"
       style="fill:#fffef7" />
    <path
       d="m 90.082014,381.37377 1.268547,-3.89061 2.248936,1.14607 -1.293349,2.6481 -2.224134,0.0964 z"
       id="path1058"
       inkscape:connector-curvature="0"
       style="fill:#fffef7" />
    <path
       d="m 92.838938,381.03993 1.309296,-2.34542 2.378528,1.30972 -0.582899,1.07723 -3.104925,-0.0415 z"
       id="path1060"
       inkscape:connector-curvature="0"
       style="fill:#fffef7" />
    <path
       d="m 91.615308,377.02556 2.119043,0.98241 1.328878,-3.10572 -2.642419,-0.95017 -0.805502,3.07348 z"
       id="path1062"
       inkscape:connector-curvature="0"
       style="fill:#fffef7" />
    <path
       d="m 94.193586,378.32899 1.317706,-3.06501 3.558264,2.02848 -2.077769,2.61478 -2.798201,-1.57825 z"
       id="path1064"
       inkscape:connector-curvature="0"
       style="fill:#fffef7" />
    <path
       d="m 95.908228,374.67468 2.180443,-2.78907 2.774539,1.28758 -1.526681,3.33466 -3.428301,-1.83317 z"
       id="path1066"
       inkscape:connector-curvature="0"
       style="fill:#fffef7" />
    <path
       d="m 95.280541,374.51705 2.417666,-2.98551 -3.538805,0.19398 -1.504829,1.64984 2.625968,1.14169 z"
       id="path1068"
       inkscape:connector-curvature="0"
       style="fill:#fffef7" />
    <path
       d="m 98.718461,371.14414 2.281249,1.17912 0.92947,-2.05963 -3.210719,0.88051 z"
       id="path1070"
       inkscape:connector-curvature="0"
       style="fill:#fffef7" />
    <path
       d="m 98.086224,367.8737 -0.117049,2.84481 4.095055,-1.10891 0.0473,-2.15827 -4.025369,0.42237 z"
       id="path1072"
       inkscape:connector-curvature="0"
       style="fill:#fffef7" />
    <path
       d="m 95.902473,366.79292 0.340132,-1.96184 3.465342,0.16584 -0.0803,2.22383 -3.725213,-0.42783 z"
       id="path1074"
       inkscape:connector-curvature="0"
       style="fill:#fffef7" />
    <path
       d="m 100.47972,366.95984 0.11325,-2.25661 4.15067,0.32211 0.10999,2.16153 -4.37391,-0.22703 z"
       id="path1076"
       inkscape:connector-curvature="0"
       style="fill:#fffef7" />
    <path
       d="m 102.72938,367.89172 0.032,1.41326 1.7963,-1.37036 -1.82826,-0.0428 z"
       id="path1078"
       inkscape:connector-curvature="0"
       style="fill:#fffef7" />
    <path
       d="m 93.71926,385.9512 0.203548,1.27338 3.1131,-0.13933 0.01393,-2.05117 -3.330589,0.91712 z"
       id="path1080"
       inkscape:connector-curvature="0"
       style="fill:#fffef7" />
    <path
       d="m 129.03531,377.74463 1.97283,-2.88226 2.27728,3.38848 -0.67564,1.32637 -3.57447,-1.83259 z"
       id="path1082"
       inkscape:connector-curvature="0"
       style="fill:#fffef7" />
    <path
       d="m 131.42965,374.41105 2.66131,-2.84045 0.0203,6.81303 -2.68168,-3.97258 z"
       id="path1084"
       inkscape:connector-curvature="0"
       style="fill:#fffef7" />
    <path
       d="m 130.82682,374.16463 2.87944,-2.81531 -3.79021,-0.11584 -1.40828,1.95255 2.31905,0.9786 z"
       id="path1086"
       inkscape:connector-curvature="0"
       style="fill:#fffef7" />
    <path
       d="m 133.28868,367.5434 -0.50811,3.3647 1.40573,0.16091 0.0876,-3.53244 -0.98519,0.007 z"
       id="path1088"
       inkscape:connector-curvature="0"
       style="fill:#fffef7" />
    <path
       d="m 131.0466,366.75959 0.1651,-2.06565 2.77057,0.0776 0.0346,2.34294 -2.97026,-0.35488 z"
       id="path1090"
       inkscape:connector-curvature="0"
       style="fill:#fffef7" />
    <path
       d="m 86.405423,371.50997 1.657446,1.23785 -1.719782,5.65274 0.06234,-6.89059 z"
       id="path1092"
       inkscape:connector-curvature="0"
       style="fill:#fffef7" />
    <path
       d="m 86.899879,367.7319 0.373572,2.80766 2.018401,-0.32155 1.895738,-2.69182 -4.287711,0.20571 z"
       id="path1094"
       inkscape:connector-curvature="0"
       style="fill:#fffef7" />
    <path
       d="m 121.24227,392.73463 3.97544,0.11392 -0.2648,3.1109 -3.84269,-0.0636 0.13205,-3.16117 z"
       id="path1096"
       inkscape:connector-curvature="0"
       style="fill:#fffef7" />
    <path
       d="m 125.64547,392.81468 -0.11141,2.90764 3.82515,0.30052 0.0208,-3.10435 -3.73453,-0.10381 z"
       id="path1098"
       inkscape:connector-curvature="0"
       style="fill:#fffef7" />
    <path
       d="m 107.62723,392.72371 3.59921,-0.0612 -0.0751,3.01065 -3.61307,0.0522 0.089,-3.00162 z"
       id="path1100"
       inkscape:connector-curvature="0"
       style="fill:#fffef7" />
    <path
       d="m 111.75286,392.66741 -0.15936,3.34341 4.0261,0.003 0.44683,-2.98878 -4.31357,-0.35763 z"
       id="path1102"
       inkscape:connector-curvature="0"
       style="fill:#fffef7" />
    <path
       d="m 116.37262,393.08186 4.44997,-0.33904 -0.38544,3.45733 -4.20851,-0.0639 0.14398,-3.05435 z"
       id="path1104"
       inkscape:connector-curvature="0"
       style="fill:#fffef7" />
    <path
       d="m 94.864645,393.15782 3.911147,-0.32621 -0.127444,3.48547 -3.744627,-0.10683 -0.03907,-3.05243 z"
       id="path1106"
       inkscape:connector-curvature="0"
       style="fill:#fffef7" />
    <path
       d="m 99.265999,392.72479 -0.251641,3.33247 3.693942,-0.0494 0.28034,-3.01719 -3.722641,-0.26582 z"
       id="path1108"
       inkscape:connector-curvature="0"
       style="fill:#fffef7" />
    <path
       d="m 103.34761,392.81112 3.96047,-0.0773 -0.22907,3.121 -3.84903,-0.0546 0.11763,-2.98905 z"
       id="path1110"
       inkscape:connector-curvature="0"
       style="fill:#fffef7" />
    <path
       d="m 86.613692,393.26545 0.07005,2.99097 3.641402,0.0546 0.450978,-3.04259 -4.162427,-0.003 z"
       id="path1112"
       inkscape:connector-curvature="0"
       style="fill:#fffef7" />
    <path
       d="m 91.173622,393.49686 3.178337,-0.35626 -0.07402,3.27728 -3.432334,-0.15845 0.328007,-2.76257 z"
       id="path1114"
       inkscape:connector-curvature="0"
       style="fill:#fffef7" />
    <path
       d="m 105.18165,367.52073 0.34334,-2.5861 3.46534,0.16584 0.16408,2.20634 -3.97276,0.21392 z"
       id="path1116"
       inkscape:connector-curvature="0"
       style="fill:#fffef7" />
    <path
       d="m 129.85543,392.81768 -0.1114,2.90764 4.08158,0.0879 0.0203,-3.0191 -3.99047,0.0236 z"
       id="path1118"
       inkscape:connector-curvature="0"
       style="fill:#fffef7" />
    <path
       d="m 86.903004,371.35915 1.215346,1.15726 0.630088,-1.88369 -1.845434,0.72643 z"
       id="path1120"
       inkscape:connector-curvature="0"
       style="fill:#fffef7" />
    <path
       d="m 97.514708,384.91796 2.852812,-0.46688 0.0372,2.95763 -2.898148,-0.40023 0.0081,-2.09052 z"
       id="path1122"
       inkscape:connector-curvature="0"
       style="fill:#fffef7" />
    <path
       style="fill:#d8d3b3;fill-opacity:1"
       d="m 104.50856,357.11989 -4.4497,0.34013 0.0515,-3.88979 4.53568,-0.0997 -0.13744,3.64938 z"
       id="path3964"
       inkscape:connector-curvature="0" />
    <path
       style="fill:#d8d3b3;fill-opacity:1"
       d="m 99.432286,357.34582 -0.196981,-3.46415 -3.542119,-0.30079 -0.423335,3.76302 4.162435,0.002 z"
       id="path3962"
       inkscape:connector-curvature="0" />
    <path
       style="fill:#d8d3b3;fill-opacity:1"
       d="m 94.72641,357.26059 -3.992143,-0.0159 -0.147395,-3.57834 4.276973,-0.0552 -0.137435,3.64938 z"
       id="path3960"
       inkscape:connector-curvature="0" />
    <path
       inkscape:connector-curvature="0"
       style="fill:#d8d3b3;fill-opacity:1"
       d="m 90.071811,346.04736 0.911737,3.54202 3.652084,-1.81841 -3.181079,-2.55933 -1.382742,0.83572 z"
       id="path3958" />
    <path
       inkscape:connector-curvature="0"
       style="fill:#d8d3b3;fill-opacity:1"
       d="m 94.935952,346.98388 -3.477587,-2.36261 1.238736,-1.37693 3.340037,0.78845 -1.101186,2.95109 z"
       id="path3956" />
    <path
       inkscape:connector-curvature="0"
       style="fill:#d8d3b3;fill-opacity:1"
       d="m 96.236494,343.59021 -3.010117,-0.72561 0.414932,-2.45169 3.760901,0.40079 -1.165716,2.77651 z"
       id="path3954" />
    <path
       inkscape:connector-curvature="0"
       style="fill:#d8d3b3;fill-opacity:1"
       d="m 97.470593,340.25338 -3.418938,-0.34341 2.042991,-4.87941 2.591856,2.41155 -1.215909,2.81127 z"
       id="path3952" />
    <path
       inkscape:connector-curvature="0"
       style="fill:#d8d3b3;fill-opacity:1"
       d="m 98.935607,336.95028 -2.444063,-2.41147 3.408863,-2.26146 1.408763,2.75543 -2.373563,1.9175 z"
       id="path3950" />
    <path
       inkscape:connector-curvature="0"
       style="fill:#d8d3b3;fill-opacity:1"
       d="m 101.80297,334.73781 -1.06365,-2.90284 4.31199,-0.0172 0.0996,2.47887 -3.34796,0.44129 z"
       id="path3948" />
    <path
       style="fill:#d8d3b3;fill-opacity:1"
       d="m 119.13591,356.8363 -4.44969,0.34041 0.31043,-3.93433 4.27671,-0.0552 -0.13745,3.64909 z"
       id="path3946"
       inkscape:connector-curvature="0" />
    <path
       style="fill:#d8d3b3;fill-opacity:1"
       d="m 114.05965,357.06224 0.24468,-3.72068 -3.98379,-0.0443 -0.42334,3.7633 4.16245,0.002 z"
       id="path3944"
       inkscape:connector-curvature="0" />
    <path
       style="fill:#d8d3b3;fill-opacity:1"
       d="m 109.49972,356.83221 -4.44999,0.34041 0.31043,-3.93433 4.27698,-0.0552 -0.13742,3.64911 z"
       id="path3942"
       inkscape:connector-curvature="0" />
    <path
       style="fill:#d8d3b3;fill-opacity:1"
       d="m 95.757121,327.73743 -4.449706,0.34021 0.310437,-3.93427 4.276972,-0.0553 -0.137703,3.64928 z"
       id="path3940"
       inkscape:connector-curvature="0" />
    <path
       style="fill:#d8d3b3;fill-opacity:1"
       d="m 90.960199,327.70158 0.228895,-3.72088 -4.11356,0.0289 0.01771,3.6902 3.866942,0.002 z"
       id="path3938"
       inkscape:connector-curvature="0" />
    <path
       inkscape:connector-curvature="0"
       style="fill:#d8d3b3;fill-opacity:1"
       d="m 110.02029,327.88979 -4.58717,0.11795 0.48429,-3.72328 4.22925,0.15846 -0.12637,3.44687 z"
       id="path3936" />
    <path
       inkscape:connector-curvature="0"
       style="fill:#d8d3b3;fill-opacity:1"
       d="m 104.88971,327.78489 0.24467,-3.72087 -3.98377,-0.0441 -0.21801,3.91827 3.95711,-0.15333 z"
       id="path3934" />
    <path
       inkscape:connector-curvature="0"
       style="fill:#d8d3b3;fill-opacity:1"
       d="m 100.48447,327.81609 -4.19911,-0.0365 0.05985,-3.5575 4.2767,-0.0553 -0.13743,3.64926 z"
       id="path3932" />
    <path
       inkscape:connector-curvature="0"
       style="fill:#d8d3b3;fill-opacity:1"
       d="m 123.9871,327.77866 -4.30335,-0.14589 0.16382,-3.44817 4.27697,-0.0553 -0.13744,3.64928 z"
       id="path3930" />
    <path
       inkscape:connector-curvature="0"
       style="fill:#d8d3b3;fill-opacity:1"
       d="m 119.10952,327.58029 0.35813,-3.13975 -3.98378,-0.0441 -0.23963,3.28667 3.86528,-0.10285 z"
       id="path3928" />
    <path
       inkscape:connector-curvature="0"
       style="fill:#d8d3b3;fill-opacity:1"
       d="m 114.77953,327.86734 -4.39152,-0.34294 0.25224,-3.25112 4.27671,-0.0553 -0.13743,3.64928 z"
       id="path3926" />
    <path
       inkscape:connector-curvature="0"
       style="fill:#d8d3b3;fill-opacity:1"
       d="m 133.53819,327.72118 0.24467,-3.72087 -3.98378,-0.0441 -0.42334,3.76319 4.16245,0.002 z"
       id="path3924" />
    <path
       inkscape:connector-curvature="0"
       style="fill:#d8d3b3;fill-opacity:1"
       d="m 128.97797,327.49115 -4.44971,0.34023 0.31043,-3.93427 4.27671,-0.0553 -0.13743,3.64923 z"
       id="path3922" />
    <path
       inkscape:connector-curvature="0"
       style="fill:#d8d3b3;fill-opacity:1"
       d="m 98.898891,345.85611 -0.251292,3.5923 3.763631,-0.0555 -0.77244,-3.99171 -2.739899,0.45488 z"
       id="path3920" />
    <path
       inkscape:connector-curvature="0"
       style="fill:#d8d3b3;fill-opacity:1"
       d="m 103.61167,348.93725 -1.11511,-3.93488 1.37686,-1.3108 2.37468,3.13714 -2.63643,2.10854 z"
       id="path3918" />
    <path
       inkscape:connector-curvature="0"
       style="fill:#d8d3b3;fill-opacity:1"
       d="m 106.99864,345.40343 -2.5524,-2.11073 0.41494,-2.45195 3.76063,0.40078 -1.62317,4.1619 z"
       id="path3916" />
    <path
       inkscape:connector-curvature="0"
       style="fill:#d8d3b3;fill-opacity:1"
       d="m 108.39769,340.89238 -3.28318,-0.56634 1.36653,-4.87806 3.18664,2.77198 -1.26999,2.67242 z"
       id="path3914" />
    <path
       inkscape:connector-curvature="0"
       style="fill:#d8d3b3;fill-opacity:1"
       d="m 110.01307,337.70692 -3.00563,-2.56719 2.69285,-1.99459 2.03263,3.137 -1.71985,1.42478 z"
       id="path3912" />
    <path
       inkscape:connector-curvature="0"
       style="fill:#d8d3b3;fill-opacity:1"
       d="m 111.76827,335.80969 -1.47086,-2.8765 3.25202,-0.71006 0.83822,2.68032 -2.61938,0.90624 z"
       id="path3910" />
    <path
       inkscape:connector-curvature="0"
       style="fill:#d8d3b3;fill-opacity:1"
       d="m 114.76216,335.14301 -0.66291,-3.30747 2.22285,0.11499 0.0359,3.3072 -1.59587,-0.11472 z"
       id="path3908" />
    <path
       inkscape:connector-curvature="0"
       style="fill:#d8d3b3;fill-opacity:1"
       d="m 110.42871,345.52937 -0.25101,3.59202 4.79083,-0.59722 -1.31604,-3.1844 -3.22378,0.1896 z"
       id="path3906" />
    <path
       inkscape:connector-curvature="0"
       style="fill:#d8d3b3;fill-opacity:1"
       d="m 115.75592,348.28868 -1.90343,-3.49913 1.55101,-1.425 2.8451,2.37028 -2.49268,2.55385 z"
       id="path3904" />
    <path
       inkscape:connector-curvature="0"
       style="fill:#d8d3b3;fill-opacity:1"
       d="m 118.52847,345.07641 -2.55241,-2.11072 0.41493,-2.45168 3.7609,0.40078 -1.62342,4.16162 z"
       id="path3902" />
    <path
       inkscape:connector-curvature="0"
       style="fill:#d8d3b3;fill-opacity:1"
       d="m 120.07193,340.49161 -3.41893,-0.34342 0.93469,-3.47789 3.41052,1.65503 -0.92628,2.16628 z"
       id="path3900" />
    <path
       inkscape:connector-curvature="0"
       style="fill:#d8d3b3;fill-opacity:1"
       d="m 122.43497,336.49993 -2.41886,-2.83099 2.96615,-1.32793 1.52636,2.50709 -2.07365,1.65183 z"
       id="path3898" />
    <path
       inkscape:connector-curvature="0"
       style="fill:#d8d3b3;fill-opacity:1"
       d="m 124.7584,334.78763 -1.52454,-2.76413 4.61836,-0.39984 0.0357,3.30719 -3.12945,-0.14322 z"
       id="path3896" />
    <path
       inkscape:connector-curvature="0"
       style="fill:#d8d3b3;fill-opacity:1"
       d="m 122.95987,345.42119 -0.25103,3.59228 3.01167,-0.0358 -0.64233,-3.22756 -2.11831,-0.32893 z"
       id="path3894" />
    <path
       inkscape:connector-curvature="0"
       style="fill:#d8d3b3;fill-opacity:1"
       d="m 129.97659,347.12266 -2.5459,-2.83059 0.90678,-1.83125 3.42058,2.12164 -1.78146,2.5402 z"
       id="path3892" />
    <path
       inkscape:connector-curvature="0"
       style="fill:#d8d3b3;fill-opacity:1"
       d="m 131.71469,343.79265 -2.93822,-1.55394 0.41493,-2.45169 3.7609,0.40078 -1.23761,3.60485 z"
       id="path3890" />
    <path
       inkscape:connector-curvature="0"
       style="fill:#d8d3b3;fill-opacity:1"
       d="m 132.84822,339.73036 -3.41919,-0.34357 0.93469,-3.47787 3.41051,1.65503 -0.92601,2.16641 z"
       id="path3888" />
    <path
       inkscape:connector-curvature="0"
       style="fill:#d8d3b3;fill-opacity:1"
       d="m 134.1249,337.35723 -3.05622,-2.65249 2.96657,-2.21893 0.0896,4.87142 z"
       id="path3886" />
    <path
       inkscape:connector-curvature="0"
       style="fill:#d8d3b3;fill-opacity:1"
       d="m 86.157322,337.40474 0.04995,-4.9173 1.669889,3.49252 -1.719851,1.42478 z"
       id="path3884" />
    <path
       inkscape:connector-curvature="0"
       style="fill:#d8d3b3;fill-opacity:1"
       d="m 88.342334,335.40288 -1.861621,-3.13695 2.681774,-0.28396 0.838228,2.68033 -1.658381,0.74058 z"
       id="path3882" />
    <path
       inkscape:connector-curvature="0"
       style="fill:#d8d3b3;fill-opacity:1"
       d="m 90.682751,335.00473 -0.663171,-3.30748 2.223142,0.11498 0.03592,3.3072 -1.595883,-0.1147 z"
       id="path3880" />
    <path
       style="fill:#d8d3b3;fill-opacity:1"
       d="m 128.99631,357.2248 -4.5593,-0.15299 0.41977,-3.44094 4.11447,0.11748 0.0252,3.47645 z"
       id="path3878"
       inkscape:connector-curvature="0" />
    <path
       style="fill:#d8d3b3;fill-opacity:1"
       d="m 123.92004,357.45072 0.24467,-3.72068 -3.98071,-0.1437 -0.4964,3.32509 4.23244,0.53929 z"
       id="path3876"
       inkscape:connector-curvature="0" />
    <path
       style="fill:#d8d3b3;fill-opacity:1"
       d="m 90.371966,357.13409 -3.322954,-0.0282 0.0822,-3.56607 3.35845,0.57536 -0.117694,3.01885 z"
       id="path3874"
       inkscape:connector-curvature="0" />
    <path
       inkscape:connector-curvature="0"
       style="fill:#d8d3b3;fill-opacity:1"
       d="m 96.045435,320.22195 -4.604001,-0.0792 0.023,-3.56799 4.718413,-0.002 -0.137435,3.64925 z"
       id="path3872" />
    <path
       style="fill:#d8d3b3;fill-opacity:1"
       d="m 90.991425,320.02878 0.222754,-3.31228 -4.249755,-0.0852 -0.07412,3.22824 4.101119,0.16931 z"
       id="path3870"
       inkscape:connector-curvature="0" />
    <path
       inkscape:connector-curvature="0"
       style="fill:#d8d3b3;fill-opacity:1"
       d="m 110.58234,320.0801 -4.47844,-0.15345 0.3389,-3.44058 4.27698,-0.0553 -0.13744,3.64925 z"
       id="path3868" />
    <path
       inkscape:connector-curvature="0"
       style="fill:#d8d3b3;fill-opacity:1"
       d="m 105.59679,320.16448 0.24468,-3.72089 -3.98405,-0.0441 -0.42307,3.76316 4.16244,0.002 z"
       id="path3866" />
    <path
       inkscape:connector-curvature="0"
       style="fill:#d8d3b3;fill-opacity:1"
       d="m 101.03658,319.93447 -4.449701,0.34023 0.310166,-3.93427 4.276965,-0.0553 -0.13743,3.64927 z"
       id="path3864" />
    <path
       inkscape:connector-curvature="0"
       style="fill:#d8d3b3;fill-opacity:1"
       d="m 124.5713,319.83075 -4.44998,0.34025 0.31044,-3.93431 4.27697,-0.0553 -0.13743,3.64927 z"
       id="path3862" />
    <path
       inkscape:connector-curvature="0"
       style="fill:#d8d3b3;fill-opacity:1"
       d="m 119.50819,320.1855 0.50936,-3.98806 -3.98405,-0.0441 -0.42307,3.7632 3.89776,0.26896 z"
       id="path3860" />
    <path
       inkscape:connector-curvature="0"
       style="fill:#d8d3b3;fill-opacity:1"
       d="m 115.24454,320.02087 -4.3867,0.0851 0.31017,-3.93427 4.27697,-0.0553 -0.20044,3.90436 z"
       id="path3858" />
    <path
       inkscape:connector-curvature="0"
       style="fill:#d8d3b3;fill-opacity:1"
       d="m 133.68893,319.84365 -0.1408,-3.99424 -3.59857,0.2293 -0.42334,3.76317 4.16271,0.002 z"
       id="path3856" />
    <path
       inkscape:connector-curvature="0"
       style="fill:#d8d3b3;fill-opacity:1"
       d="m 129.17938,319.82173 -4.18675,-0.23038 0.0473,-3.36364 4.44924,-0.17195 -0.30971,3.76597 z"
       id="path3854" />
    <path
       inkscape:connector-curvature="0"
       style="fill:#d8d3b3;fill-opacity:1"
       d="m 96.074221,315.73889 -4.449704,0.34025 0.310437,-3.93425 4.276708,-0.0553 -0.137441,3.64923 z"
       id="path3852" />
    <path
       inkscape:connector-curvature="0"
       style="fill:#d8d3b3;fill-opacity:1"
       d="m 90.997939,315.96487 0.244958,-3.72088 -4.605921,0.0589 0.198529,3.66024 4.162434,0.002 z"
       id="path3850" />
    <path
       inkscape:connector-curvature="0"
       style="fill:#d8d3b3;fill-opacity:1"
       d="m 110.54964,315.68912 -4.44996,0.34025 0.31043,-3.93426 4.27697,-0.0553 -0.13744,3.64926 z"
       id="path3848" />
    <path
       inkscape:connector-curvature="0"
       style="fill:#d8d3b3;fill-opacity:1"
       d="m 105.62557,315.68142 0.24468,-3.72085 -3.98405,-0.0441 -0.42306,3.76319 4.16243,0.002 z"
       id="path3846" />
    <path
       inkscape:connector-curvature="0"
       style="fill:#d8d3b3;fill-opacity:1"
       d="m 101.06536,315.45143 -4.449701,0.34022 0.310165,-3.93427 4.276976,-0.0552 -0.13744,3.64924 z"
       id="path3844" />
    <path
       inkscape:connector-curvature="0"
       style="fill:#d8d3b3;fill-opacity:1"
       d="m 124.87475,315.69411 -4.23083,0.19817 0.0913,-3.79222 4.27698,-0.0553 -0.13743,3.64924 z"
       id="path3842" />
    <path
       inkscape:connector-curvature="0"
       style="fill:#d8d3b3;fill-opacity:1"
       d="m 120.0072,315.78161 0.24469,-3.72085 -3.98405,-0.0441 0.15397,3.52753 3.58539,0.23739 z"
       id="path3840" />
    <path
       inkscape:connector-curvature="0"
       style="fill:#d8d3b3;fill-opacity:1"
       d="m 115.73137,315.60055 -4.44996,0.34028 -0.2638,-3.94122 4.85121,-0.0484 -0.13745,3.64924 z"
       id="path3838" />
    <path
       inkscape:connector-curvature="0"
       style="fill:#d8d3b3;fill-opacity:1"
       d="m 133.82153,315.36067 0.11362,-3.0486 -3.69207,-0.26169 -0.17762,3.38137 3.75607,-0.071 z"
       id="path3836" />
    <path
       inkscape:connector-curvature="0"
       style="fill:#d8d3b3;fill-opacity:1"
       d="m 129.57051,315.59896 -4.44971,0.34025 0.31044,-3.93427 4.2767,-0.0553 -0.13743,3.64924 z"
       id="path3834" />
    <path
       style="fill:#d8d3b3;fill-opacity:1"
       d="m 133.46121,357.31304 -3.84619,0.0167 0.31045,-3.93432 3.4015,0.19641 0.13424,3.72125 z"
       id="path3832"
       inkscape:connector-curvature="0" />
    <path
       inkscape:connector-curvature="0"
       style="fill:#d8d3b3;fill-opacity:1"
       d="m 125.37028,345.42337 1.18073,3.6524 3.15685,-1.42283 -2.41259,-2.91885 -1.92499,0.68928 z"
       id="path3830" />
    <path
       inkscape:connector-curvature="0"
       style="fill:#d8d3b3;fill-opacity:1"
       d="m 121.01007,338.03222 -3.05464,-1.73071 1.90072,-2.20025 2.30179,2.67367 -1.14787,1.25729 z"
       id="path3828" />
    <path
       inkscape:connector-curvature="0"
       style="fill:#d8d3b3;fill-opacity:1"
       d="m 87.762102,345.65258 -0.416864,3.64009 2.31148,0.0994 -0.124072,-3.64036 -1.770544,-0.0992 z"
       id="path430" />
    <path
       style="fill:#d8d3b3;fill-opacity:1"
       d="m 115.38959,359.52036 4.44969,-0.33904 -0.0526,3.88979 -4.53568,0.0984 0.13854,-3.6491 z"
       id="path4244"
       inkscape:connector-curvature="0" />
    <path
       style="fill:#d8d3b3;fill-opacity:1"
       d="m 120.46586,359.29578 0.19589,3.46443 3.54211,0.30161 0.42442,-3.76303 -4.16242,-0.003 z"
       id="path4242"
       inkscape:connector-curvature="0" />
    <path
       style="fill:#d8d3b3;fill-opacity:1"
       d="m 125.17172,359.38267 3.99187,0.0167 0.14657,3.57835 -4.27696,0.0541 0.13852,-3.64911 z"
       id="path4240"
       inkscape:connector-curvature="0" />
    <path
       inkscape:connector-curvature="0"
       style="fill:#d8d3b3;fill-opacity:1"
       d="m 130.24242,370.52317 -0.91065,-3.54257 -3.65263,1.8176 3.18026,2.56014 1.38302,-0.83517 z"
       id="path4238" />
    <path
       inkscape:connector-curvature="0"
       style="fill:#d8d3b3;fill-opacity:1"
       d="m 125.37882,369.58501 3.47676,2.36371 -1.23901,1.37664 -3.33976,-0.78955 1.10201,-2.9508 z"
       id="path4236" />
    <path
       inkscape:connector-curvature="0"
       style="fill:#d8d3b3;fill-opacity:1"
       d="m 124.07692,372.9784 3.00984,0.72644 -0.41548,2.45167 -3.76062,-0.40186 1.16626,-2.77625 z"
       id="path4234" />
    <path
       inkscape:connector-curvature="0"
       style="fill:#d8d3b3;fill-opacity:1"
       d="m 122.84201,376.31469 3.41892,0.3445 -2.04461,4.87877 -2.59104,-2.41234 1.21673,-2.81093 z"
       id="path4232" />
    <path
       inkscape:connector-curvature="0"
       style="fill:#d8d3b3;fill-opacity:1"
       d="m 121.37591,379.61739 2.4435,2.41233 -3.4094,2.26045 -1.40822,-2.75576 2.37412,-1.91702 z"
       id="path4230" />
    <path
       inkscape:connector-curvature="0"
       style="fill:#d8d3b3;fill-opacity:1"
       d="m 118.508,381.82919 1.06282,2.90301 -4.31198,0.0162 -0.0991,-2.47871 3.34822,-0.4404 z"
       id="path4228" />
    <path
       style="fill:#d8d3b3;fill-opacity:1"
       d="m 100.76198,359.79956 4.44997,-0.33903 -0.31153,3.93432 -4.27697,0.0538 0.13853,-3.6491 z"
       id="path4226"
       inkscape:connector-curvature="0" />
    <path
       style="fill:#d8d3b3;fill-opacity:1"
       d="m 105.83825,359.575 -0.24577,3.72095 3.98405,0.045 0.42415,-3.76302 -4.16243,-0.003 z"
       id="path4224"
       inkscape:connector-curvature="0" />
    <path
       style="fill:#d8d3b3;fill-opacity:1"
       d="m 110.39845,359.80639 4.4497,-0.33904 -0.31126,3.93433 -4.27697,0.0538 0.13853,-3.64909 z"
       id="path4222"
       inkscape:connector-curvature="0" />
    <path
       style="fill:#d8d3b3;fill-opacity:1"
       d="m 124.6567,388.9055 4.44998,-0.33904 -0.31154,3.93432 -4.27698,0.0538 0.13854,-3.64911 z"
       id="path4220"
       inkscape:connector-curvature="0" />
    <path
       style="fill:#d8d3b3;fill-opacity:1"
       d="m 129.74108,389.04743 -0.20348,3.72095 3.58968,-0.0275 -0.0117,-3.69037 -3.37444,-0.003 z"
       id="path4218"
       inkscape:connector-curvature="0" />
    <path
       style="fill:#d8d3b3;fill-opacity:1"
       d="m 110.2878,388.9585 4.58688,-0.11667 -0.48538,3.72316 -4.22925,-0.15982 0.12775,-3.44667 z"
       id="path4216"
       inkscape:connector-curvature="0" />
    <path
       inkscape:connector-curvature="0"
       style="fill:#d8d3b3;fill-opacity:1"
       d="m 115.41935,388.85522 -0.24577,3.72097 3.98377,0.045 0.21937,-3.9182 -3.95737,0.15216 z"
       id="path4214" />
    <path
       inkscape:connector-curvature="0"
       style="fill:#d8d3b3;fill-opacity:1"
       d="m 119.82458,388.82544 4.1991,0.0376 -0.0607,3.55758 -4.27696,0.0538 0.13853,-3.6491 z"
       id="path4212" />
    <path
       inkscape:connector-curvature="0"
       style="fill:#d8d3b3;fill-opacity:1"
       d="m 96.32226,388.85576 4.30308,0.14726 -0.16491,3.44803 -4.276699,0.0541 0.138529,-3.64939 z"
       id="path4210" />
    <path
       style="fill:#d8d3b3;fill-opacity:1"
       d="m 101.19767,389.37007 -0.35921,3.13959 3.98404,0.0454 0.24045,-3.28657 -3.86528,0.10163 z"
       id="path4208"
       inkscape:connector-curvature="0" />
    <path
       inkscape:connector-curvature="0"
       style="fill:#d8d3b3;fill-opacity:1"
       d="m 105.52955,388.76999 4.39151,0.34422 -0.25307,3.25106 -4.27696,0.0538 0.13852,-3.64911 z"
       id="path4206" />
    <path
       style="fill:#d8d3b3;fill-opacity:1"
       d="m 86.559493,389.22501 0.174564,3.51364 3.564961,0.0428 0.422904,-3.55363 -4.162429,-0.003 z"
       id="path4204"
       inkscape:connector-curvature="0"
       sodipodi:nodetypes="cccccc" />
    <path
       inkscape:connector-curvature="0"
       style="fill:#d8d3b3;fill-opacity:1"
       d="m 91.331129,389.14179 4.449699,-0.33875 -0.311265,3.93405 -4.276962,0.0541 0.138528,-3.64939 z"
       id="path4202" />
    <path
       inkscape:connector-curvature="0"
       style="fill:#d8d3b3;fill-opacity:1"
       d="m 121.41535,370.71168 0.25238,-3.59229 -3.7639,0.0544 0.77163,3.99198 2.73989,-0.45406 z"
       id="path4200" />
    <path
       inkscape:connector-curvature="0"
       style="fill:#d8d3b3;fill-opacity:1"
       d="m 116.7034,367.62918 1.11402,3.93515 -1.37713,1.31052 -2.37387,-3.13795 2.63698,-2.10772 z"
       id="path4198" />
    <path
       inkscape:connector-curvature="0"
       style="fill:#d8d3b3;fill-opacity:1"
       d="m 113.31561,371.1619 2.55157,2.11155 -0.41547,2.45168 -3.76062,-0.40187 1.62452,-4.16136 z"
       id="path4196" />
    <path
       inkscape:connector-curvature="0"
       style="fill:#d8d3b3;fill-opacity:1"
       d="m 111.9152,375.67268 3.2829,0.56715 -1.3679,4.87769 -3.18581,-2.77297 1.27081,-2.67187 z"
       id="path4194" />
    <path
       inkscape:connector-curvature="0"
       style="fill:#d8d3b3;fill-opacity:1"
       d="m 110.29872,378.85762 3.00509,2.56806 -2.6934,1.9938 -2.0318,-3.13768 1.72011,-1.42418 z"
       id="path4192" />
    <path
       inkscape:connector-curvature="0"
       style="fill:#d8d3b3;fill-opacity:1"
       d="m 108.54299,380.75444 1.47005,2.87677 -3.25231,0.70922 -0.8374,-2.68062 2.61966,-0.90537 z"
       id="path4190" />
    <path
       inkscape:connector-curvature="0"
       style="fill:#d8d3b3;fill-opacity:1"
       d="m 105.54884,381.42022 0.66209,3.30762 -2.22288,-0.11557 -0.0348,-3.30735 1.59561,0.1153 z"
       id="path4188" />
    <path
       inkscape:connector-curvature="0"
       style="fill:#d8d3b3;fill-opacity:1"
       d="m 109.88553,371.03514 0.25212,-3.592 -4.79109,0.59584 1.31494,3.18467 3.22403,-0.18851 z"
       id="path4186" />
    <path
       inkscape:connector-curvature="0"
       style="fill:#d8d3b3;fill-opacity:1"
       d="m 104.55889,368.27421 1.90261,3.49967 -1.55129,1.42444 -2.84453,-2.37109 2.49321,-2.55302 z"
       id="path4184" />
    <path
       inkscape:connector-curvature="0"
       style="fill:#d8d3b3;fill-opacity:1"
       d="m 101.78553,371.48536 2.55185,2.11183 -0.41574,2.4514 -3.76063,-0.40187 1.62452,-4.16136 z"
       id="path4182" />
    <path
       inkscape:connector-curvature="0"
       style="fill:#d8d3b3;fill-opacity:1"
       d="m 100.24071,376.0699 3.41892,0.34451 -0.93579,3.47753 -3.409962,-1.65583 0.926832,-2.16621 z"
       id="path4180" />
    <path
       inkscape:connector-curvature="0"
       style="fill:#d8d3b3;fill-opacity:1"
       d="m 97.876571,380.06105 2.418049,2.8317 -2.966419,1.32693 -1.525537,-2.50741 2.073907,-1.65122 z"
       id="path4178" />
    <path
       inkscape:connector-curvature="0"
       style="fill:#d8d3b3;fill-opacity:1"
       d="m 95.552599,381.77265 1.523721,2.76448 -4.618344,0.39859 -0.03481,-3.30733 3.129441,0.14426 z"
       id="path4176" />
    <path
       inkscape:connector-curvature="0"
       style="fill:#d8d3b3;fill-opacity:1"
       d="m 97.354139,371.1395 0.252385,-3.592 -3.011948,0.0347 0.641523,3.22784 2.11804,0.32947 z"
       id="path4174" />
    <path
       inkscape:connector-curvature="0"
       style="fill:#d8d3b3;fill-opacity:1"
       d="m 90.337972,369.43612 2.545086,2.83115 -0.907341,1.83097 -3.420011,-2.12249 1.782266,-2.53963 z"
       id="path4172" />
    <path
       inkscape:connector-curvature="0"
       style="fill:#d8d3b3;fill-opacity:1"
       d="m 88.599053,372.76558 2.937666,1.55477 -0.415748,2.45141 -3.76062,-0.40189 1.238702,-3.60429 z"
       id="path4170" />
    <path
       inkscape:connector-curvature="0"
       style="fill:#d8d3b3;fill-opacity:1"
       d="m 87.464432,376.82748 3.418921,0.34451 -0.935781,3.47754 -3.409971,-1.65585 0.926831,-2.1662 z"
       id="path4168" />
    <path
       inkscape:connector-curvature="0"
       style="fill:#d8d3b3;fill-opacity:1"
       d="m 86.186941,379.20022 3.055665,2.65329 -2.967389,2.21809 -0.08827,-4.87138 z"
       id="path4166" />
    <path
       inkscape:connector-curvature="0"
       style="fill:#d8d3b3;fill-opacity:1"
       d="m 134.15444,379.16689 -0.0517,4.91729 -1.66853,-3.49312 1.72013,-1.42417 z"
       id="path4164" />
    <path
       inkscape:connector-curvature="0"
       style="fill:#d8d3b3;fill-opacity:1"
       d="m 131.96888,381.16806 1.86051,3.1374 -2.68176,0.28331 -0.8374,-2.68062 1.65865,-0.74009 z"
       id="path4162" />
    <path
       inkscape:connector-curvature="0"
       style="fill:#d8d3b3;fill-opacity:1"
       d="m 129.62846,381.56556 0.66181,3.30761 -2.22286,-0.11557 -0.0348,-3.30733 1.59588,0.11529 z"
       id="path4160" />
    <path
       style="fill:#d8d3b3;fill-opacity:1"
       d="m 90.901875,359.40807 4.559029,0.15436 -0.420592,3.44092 -4.114469,-0.11883 -0.02393,-3.47645 z"
       id="path4158"
       inkscape:connector-curvature="0" />
    <path
       style="fill:#d8d3b3;fill-opacity:1"
       d="m 95.978142,359.18378 -0.245775,3.72068 3.98045,0.1448 0.497483,-3.3251 -4.232158,-0.54038 z"
       id="path4156"
       inkscape:connector-curvature="0" />
    <path
       style="fill:#d8d3b3;fill-opacity:1"
       d="m 129.52901,359.51024 3.42461,0.0292 -0.0848,3.56606 -3.4615,-0.57644 0.12163,-3.01884 z"
       id="path4154"
       inkscape:connector-curvature="0" />
    <path
       inkscape:connector-curvature="0"
       style="fill:#d8d3b3;fill-opacity:1"
       d="m 124.26141,396.42088 4.60401,0.0804 -0.0239,3.56797 -4.71868,0.002 0.13853,-3.64911 z"
       id="path4152" />
    <path
       style="fill:#d8d3b3;fill-opacity:1"
       d="m 129.70409,396.72021 -0.19316,3.21037 3.62908,0.0837 0.0663,-3.12884 -3.5023,-0.16522 z"
       id="path4150"
       inkscape:connector-curvature="0" />
    <path
       style="fill:#d8d3b3;fill-opacity:1"
       d="m 110.133,396.55831 4.06997,0.15491 -0.31087,3.44037 -3.88699,0.0542 0.12789,-3.64939 z"
       id="path4148"
       inkscape:connector-curvature="0" />
    <path
       inkscape:connector-curvature="0"
       style="fill:#d8d3b3;fill-opacity:1"
       d="m 114.71008,396.47552 -0.24577,3.7207 3.98405,0.0454 0.42415,-3.76302 -4.16243,-0.003 z"
       id="path4146" />
    <path
       inkscape:connector-curvature="0"
       style="fill:#d8d3b3;fill-opacity:1"
       d="m 119.27028,396.70693 4.44971,-0.33905 -0.31126,3.93433 -4.27697,0.0538 0.13852,-3.6491 z"
       id="path4144" />
    <path
       inkscape:connector-curvature="0"
       style="fill:#d8d3b3;fill-opacity:1"
       d="m 95.735604,396.80364 4.449976,-0.33904 -0.311533,3.93433 -4.276972,0.0538 0.138529,-3.6491 z"
       id="path4142" />
    <path
       inkscape:connector-curvature="0"
       style="fill:#d8d3b3;fill-opacity:1"
       d="m 100.79872,396.45039 -0.51047,3.98787 3.98378,0.0454 0.42442,-3.76303 -3.89773,-0.27019 z"
       id="path4140" />
    <path
       inkscape:connector-curvature="0"
       style="fill:#d8d3b3;fill-opacity:1"
       d="m 105.06235,396.61622 4.38669,-0.0839 -0.31125,3.93432 -4.27697,0.0538 0.20153,-3.90428 z"
       id="path4138" />
    <path
       style="fill:#d8d3b3;fill-opacity:1"
       d="m 86.617987,396.78807 0.03529,3.88938 3.702714,-0.12336 0.424433,-3.76301 z"
       id="path4136"
       inkscape:connector-curvature="0"
       sodipodi:nodetypes="ccccc" />
    <path
       inkscape:connector-curvature="0"
       style="fill:#d8d3b3;fill-opacity:1"
       d="m 91.127526,396.81129 4.186735,0.23168 -0.04857,3.36361 -4.449231,0.17047 0.311068,-3.76576 z"
       id="path4134" />
    <path
       inkscape:connector-curvature="0"
       style="fill:#d8d3b3;fill-opacity:1"
       d="m 124.23127,400.9038 4.44997,-0.33877 -0.31153,3.93406 -4.27697,0.0541 0.13853,-3.64939 z"
       id="path4132" />
    <path
       style="fill:#d8d3b3;fill-opacity:1"
       d="m 129.2872,400.6795 -0.22543,3.72068 4.18681,-0.0576 -0.17773,-3.66003 -3.78365,-0.003 z"
       id="path4130"
       inkscape:connector-curvature="0" />
    <path
       inkscape:connector-curvature="0"
       style="fill:#d8d3b3;fill-opacity:1"
       d="m 109.75615,400.94943 4.44969,-0.33905 -0.31154,3.93433 -4.27669,0.0538 0.13854,-3.64911 z"
       id="path4128" />
    <path
       inkscape:connector-curvature="0"
       style="fill:#d8d3b3;fill-opacity:1"
       d="m 114.68021,400.95844 -0.24605,3.72096 3.98406,0.0451 0.42442,-3.76304 -4.16243,-0.003 z"
       id="path4126" />
    <path
       inkscape:connector-curvature="0"
       style="fill:#d8d3b3;fill-opacity:1"
       d="m 119.24015,401.18984 4.44995,-0.33877 -0.31152,3.93405 -4.27697,0.0538 0.13854,-3.6491 z"
       id="path4124" />
    <path
       inkscape:connector-curvature="0"
       style="fill:#d8d3b3;fill-opacity:1"
       d="m 95.430782,400.94014 4.230835,-0.19698 -0.0924,3.79226 -4.276971,0.0541 0.138529,-3.64939 z"
       id="path4122" />
    <path
       inkscape:connector-curvature="0"
       style="fill:#d8d3b3;fill-opacity:1"
       d="m 100.2986,400.85407 -0.24578,3.72095 3.98378,0.0451 -0.15262,-3.52754 -3.58538,-0.23849 z"
       id="path4120" />
    <path
       style="fill:#d8d3b3;fill-opacity:1"
       d="m 104.57127,401.51568 4.4497,-0.29426 0.2658,3.42345 -4.85115,0.0408 0.13565,-3.16999 z"
       id="path4118"
       inkscape:connector-curvature="0" />
    <path
       style="fill:#d8d3b3;fill-opacity:1"
       d="m 86.483748,401.27098 -0.114165,3.04861 3.693672,-0.0516 0.176841,-3.06704 z"
       id="path4116"
       inkscape:connector-curvature="0"
       sodipodi:nodetypes="ccccc" />
    <path
       inkscape:connector-curvature="0"
       style="fill:#d8d3b3;fill-opacity:1"
       d="m 90.73504,401.03383 4.449695,-0.33876 -0.311259,3.93406 -4.276965,0.0542 0.138529,-3.64937 z"
       id="path4114" />
    <path
       style="fill:#d8d3b3;fill-opacity:1"
       d="m 86.436722,359.31848 3.846442,-0.0153 -0.311529,3.93405 -3.401496,-0.19753 -0.133417,-3.72122 z"
       id="path4112"
       inkscape:connector-curvature="0" />
    <path
       inkscape:connector-curvature="0"
       style="fill:#d8d3b3;fill-opacity:1"
       d="m 94.943734,371.1365 -1.179632,-3.65266 -3.157131,1.422 2.41178,2.91938 1.924983,-0.68872 z"
       id="path4110" />
    <path
       inkscape:connector-curvature="0"
       style="fill:#d8d3b3;fill-opacity:1"
       d="m 99.302017,378.52896 3.054083,1.73181 -1.90154,2.19952 -2.300953,-2.67435 1.14841,-1.25698 z"
       id="path4108" />
    <path
       inkscape:connector-curvature="0"
       style="fill:#d8d3b3;fill-opacity:1"
       d="m 132.55185,370.91821 0.41795,-3.63982 -2.3112,-0.1 0.12297,3.64038 1.77028,0.0994 z"
       id="path1124" />
  </g>
</svg>
