<?xml version="1.0" encoding="UTF-8" standalone="no"?>
<!-- Created with Inkscape (http://www.inkscape.org/) -->

<svg
   xmlns:dc="http://purl.org/dc/elements/1.1/"
   xmlns:cc="http://creativecommons.org/ns#"
   xmlns:rdf="http://www.w3.org/1999/02/22-rdf-syntax-ns#"
   xmlns:svg="http://www.w3.org/2000/svg"
   xmlns="http://www.w3.org/2000/svg"
   xmlns:sodipodi="http://sodipodi.sourceforge.net/DTD/sodipodi-0.dtd"
   xmlns:inkscape="http://www.inkscape.org/namespaces/inkscape"
   width="172.1337"
   height="165.81038"
   id="svg2"
   version="1.1"
   inkscape:version="0.48.2 r9819"
   sodipodi:docname="New document 1">
  <defs
     id="defs4" />
  <sodipodi:namedview
     id="base"
     pagecolor="#ffffff"
     bordercolor="#666666"
     borderopacity="1.0"
     inkscape:pageopacity="0.0"
     inkscape:pageshadow="2"
     inkscape:zoom="0.77159747"
     inkscape:cx="80.140638"
     inkscape:cy="79.719032"
     inkscape:document-units="px"
     inkscape:current-layer="layer1"
     showgrid="false"
     fit-margin-top="0.1"
     fit-margin-right="0.1"
     fit-margin-bottom="0.1"
     fit-margin-left="0.1"
     inkscape:window-width="1064"
     inkscape:window-height="780"
     inkscape:window-x="59"
     inkscape:window-y="63"
     inkscape:window-maximized="0" />
  <metadata
     id="metadata7">
    <rdf:RDF>
      <cc:Work
         rdf:about="">
        <dc:format>image/svg+xml</dc:format>
        <dc:type
           rdf:resource="http://purl.org/dc/dcmitype/StillImage" />
        <dc:title></dc:title>
      </cc:Work>
    </rdf:RDF>
  </metadata>
  <g
     inkscape:label="Layer 1"
     inkscape:groupmode="layer"
     id="layer1"
     transform="translate(-149.7125,-122.62547)">
    <path
       transform="matrix(1.1855777,0,0,1.1855777,-39.929106,-47.219687)"
       d="m 304.56294,213.19406 c 0,38.29359 -32.20357,69.33667 -71.92869,69.33667 -39.72512,0 -71.9287,-31.04308 -71.9287,-69.33667 0,-38.29358 32.20358,-69.33667 71.9287,-69.33667 39.72512,0 71.92869,31.04309 71.92869,69.33667 z"
       sodipodi:ry="69.33667"
       sodipodi:rx="71.928696"
       sodipodi:cy="213.19406"
       sodipodi:cx="232.63425"
       id="path3030"
       style="opacity:0.78423246;color:#000000;fill:#aca793;fill-opacity:1;fill-rule:nonzero;stroke:#ffffff;stroke-width:1;stroke-miterlimit:4;stroke-opacity:1;stroke-dasharray:none;marker:none;visibility:visible;display:inline;overflow:visible;enable-background:accumulate"
       sodipodi:type="arc" />
    <path
       sodipodi:type="arc"
       style="opacity:0.78423246;color:#000000;fill:#f4eed7;fill-opacity:1;fill-rule:nonzero;stroke:none;stroke-width:1;marker:none;visibility:visible;display:inline;overflow:visible;enable-background:accumulate"
       id="path3028"
       sodipodi:cx="232.63425"
       sodipodi:cy="213.19406"
       sodipodi:rx="71.928696"
       sodipodi:ry="69.33667"
       d="m 304.56294,213.19406 c 0,38.29359 -32.20357,69.33667 -71.92869,69.33667 -39.72512,0 -71.9287,-31.04308 -71.9287,-69.33667 0,-38.29358 32.20358,-69.33667 71.9287,-69.33667 39.72512,0 71.92869,31.04309 71.92869,69.33667 z"
       transform="translate(2.4741007,-7.4276874)" />
    <text
       xml:space="preserve"
       style="font-size:182.95101929px;font-style:normal;font-variant:normal;font-weight:normal;font-stretch:normal;line-height:125%;letter-spacing:0px;word-spacing:0px;fill:#550000;fill-opacity:1;stroke:none;font-family:Ubuntu;-inkscape-font-specification:Ubuntu"
       x="192.55431"
       y="249.59703"
       id="text2998"
       sodipodi:linespacing="125%"><tspan
         sodipodi:role="line"
         id="tspan3000"
         x="192.55431"
         y="249.59703"
         style="font-style:normal;font-variant:normal;font-weight:normal;font-stretch:normal;fill:#550000;font-family:SBL Greek;-inkscape-font-specification:SBL Greek">τ</tspan></text>
    <path
       id="path3826"
       style="fill:none;stroke:#837575;stroke-width:1px;stroke-linecap:butt;stroke-linejoin:miter;stroke-opacity:1"
       d="m 267.95059,130.24926 11.98812,5.83206 -7.12807,9.72009 -8.42408,-4.53604 z m -9.72009,-3.88804 9.72009,3.88804 -3.56403,11.34011 -9.7201,-3.56404 z m -12.63612,-2.59202 12.31212,2.91602 -3.56404,12.31212 -9.39609,-2.26802 z m -11.66412,0.324 11.98812,0.64801 -0.97201,11.66411 -11.34011,-0.97201 z m -13.28412,0.97201 12.31211,-1.29601 0.64801,12.31212 -11.98812,0.648 z m -12.63613,2.59202 12.31212,-2.59202 1.62002,11.66411 -9.39609,2.26802 z m -10.04409,4.21204 10.6921,-3.56403 4.21204,11.34011 -10.3681,3.56403 z m -11.66412,6.80407 11.66412,-6.15606 4.53604,11.01611 -8.42408,4.53604 z m -8.97467,7.80841 9.6224,-7.56046 7.33135,10.08061 -8.70598,6.18583 z m -8.93509,9.16419 8.93509,-8.93509 8.01866,8.24778 -7.56045,8.70598 z m -5.72762,8.01867 5.72762,-7.56046 9.16419,8.01867 -4.35299,5.72762 z m -5.49852,10.08061 5.04031,-9.16419 11.22613,5.49851 -4.8112,8.01867 z m -4.58209,11.68435 4.12388,-10.99704 12.82987,4.12389 -4.35299,10.53882 z m 0.45821,0.68731 12.14255,2.97836 -1.83284,10.30972 -12.37166,-0.91642 z"
       inkscape:connector-curvature="0" />
    <path
       d="m 202.82057,280.72975 -11.98812,-5.83206 7.12807,-9.72009 8.42408,4.53604 z m 9.72009,3.88804 -9.72009,-3.88804 3.56403,-11.34011 9.7201,3.56404 z m 12.63612,2.59202 -12.31212,-2.91602 3.56404,-12.31212 9.39609,2.26802 z m 11.66412,-0.324 -11.98812,-0.64801 0.97201,-11.66411 11.34011,0.97201 z m 13.28412,-0.97201 -12.31211,1.29601 -0.64801,-12.31212 11.98812,-0.648 z m 12.63613,-2.59202 -12.31212,2.59202 -1.62002,-11.66411 9.39609,-2.26802 z m 10.04409,-4.21204 -10.6921,3.56403 -4.21204,-11.34011 10.3681,-3.56403 z m 11.66412,-6.80407 -11.66412,6.15606 -4.53604,-11.01611 8.42408,-4.53604 z m 8.97467,-7.80841 -9.6224,7.56046 -7.33135,-10.08061 8.70598,-6.18583 z m 8.93509,-9.16419 -8.93509,8.93509 -8.01866,-8.24778 7.56045,-8.70598 z m 5.72762,-8.01867 -5.72762,7.56046 -9.16419,-8.01867 4.35299,-5.72762 z m 5.49852,-10.08061 -5.04031,9.16419 -11.22613,-5.49851 4.8112,-8.01867 z m 4.58209,-11.68435 -4.12388,10.99704 -12.82987,-4.12389 4.35299,-10.53882 z m -0.45821,-0.68731 -12.14255,-2.97836 1.83284,-10.30972 12.37166,0.91642 z"
       style="fill:none;stroke:#837575;stroke-width:1px;stroke-linecap:butt;stroke-linejoin:miter;stroke-opacity:1"
       id="path3829"
       inkscape:connector-curvature="0" />
    <path
       id="path3845"
       style="fill:none;stroke:#837575;stroke-width:1px;stroke-linecap:butt;stroke-linejoin:miter;stroke-opacity:1"
       d="m 307.47898,204.76998 0,6.48006 12.63612,1.29602 0,-8.10008 z m -0.64801,-8.74808 0.64801,8.10007 12.96012,0.32401 -0.64801,-8.74809 z m -2.26802,-9.7201 2.59202,9.39609 12.31212,-0.324 -1.62001,-10.3681 z m -2.91603,-8.42408 3.24003,8.74808 12.63612,-1.62001 -4.21204,-11.66411 z m -5.18405,-9.39609 4.86005,9.39609 11.98811,-4.21204 -5.83205,-11.98812 z m -6.48006,-8.42408 6.48006,7.77607 10.6921,-5.83205 -7.45207,-10.0441 z m -8.74809,-7.12807 9.07209,7.12807 9.07209,-7.45207 -9.39609,-9.7201 z m -8.74808,-7.12807 9.39609,6.80407 8.74808,-9.7201 -10.6921,-7.77607 z"
       inkscape:connector-curvature="0" />
    <path
       d="m 163.29757,205.742 0,-6.48006 -12.63612,-1.29602 0,8.10008 z m 0.64801,8.74808 -0.64801,-8.10007 -12.96012,-0.32401 0.64801,8.74809 z m 2.26802,9.7201 -2.59202,-9.39609 -12.31212,0.324 1.62001,10.3681 z m 2.91603,8.42408 -3.24003,-8.74808 -12.63612,1.62001 4.21204,11.66411 z m 5.18405,9.39609 -4.86005,-9.39609 -11.98811,4.21204 5.83205,11.98812 z m 6.48006,8.42408 -6.48006,-7.77607 -10.6921,5.83205 7.45207,10.0441 z m 8.74809,7.12807 -9.07209,-7.12807 -9.07209,7.45207 9.39609,9.7201 z m 8.74808,7.12807 -9.39609,-6.80407 -8.74808,9.7201 10.6921,7.77607 z"
       style="fill:none;stroke:#837575;stroke-width:1px;stroke-linecap:butt;stroke-linejoin:miter;stroke-opacity:1"
       id="path3848"
       inkscape:connector-curvature="0" />
    <path
       id="path3930"
       style="fill:none;stroke:#837575;stroke-width:1px;stroke-linecap:butt;stroke-linejoin:miter;stroke-opacity:1"
       d="m 237.12348,235.83262 6.64404,-3.89478 -5.72762,-0.2291 -2.97836,-2.97836 z m -2.29105,-7.33135 2.06195,7.10225 -3.89478,5.04031 -2.74926,-2.52016 -0.22911,-5.95672 z m -5.26941,-3.43657 5.04031,-0.45821 0,3.66568 -4.5821,4.12388 z m -7.10225,6.41493 0.68732,-5.49851 6.64404,-0.68732 0,7.33136 z m 8.24778,6.64404 -0.91642,-5.95672 -6.87315,-0.45821 -0.68731,7.33135 z m -4.12389,9.62241 -3.89478,-8.01867 8.01867,-1.37463 2.52015,2.97836 z m 7.10225,-7.33136 3.66568,-4.8112 4.35299,5.72762 -4.35299,2.29105 z m 0.22911,10.30972 -6.64404,-2.52016 5.72762,-7.10224 4.58209,1.60373 z m 3.66567,-7.78957 -2.74926,7.78957 6.41494,0 z m 3.43657,-1.14552 -2.74925,1.60373 3.20746,7.10225 6.18583,-4.58209 z m 0.45821,-1.14552 -3.43657,-4.353 6.41494,-4.8112 2.52015,4.5821 z m 4.81121,-4.353 -4.81121,4.81121 6.41494,4.58209 2.97836,-4.12388 0.45821,-6.64404 z m -1.37463,-4.58209 4.8112,-1.83284 1.60373,5.04031 -4.8112,1.14552 z m -20.84854,-10.53882 -0.68732,4.58209 10.76793,-1.14552 0.45821,-3.20747 z m 10.99703,-7.10225 -0.45821,7.10225 -10.53882,-0.91642 1.60373,-7.10225 z m -8.70598,-6.18583 -1.14553,5.0403 9.85151,1.14553 0.45821,-5.95673 z m 1.37463,-8.01867 -1.14553,7.78956 8.93509,0.45821 0.45821,-6.18583 z m 0.91641,-5.72762 -0.91641,5.49851 8.24777,1.83284 1.14552,-6.87314 z m 1.83284,-7.78957 -1.60373,8.01867 8.47688,0.22911 0.91642,-6.87315 z m 0.68732,-4.8112 -0.45821,4.5821 7.56046,1.37463 0.91642,-5.72762 z m 1.46749,-8.35511 -11.34011,0.16201 0.81001,-7.29007 11.34011,-0.16201 z m 7.29007,0.32401 -6.80406,-0.32401 0.81,-7.29007 5.83206,0.97201 z m 0.64801,-0.162 -0.48601,-6.04965 c 0,0 8.32918,-0.48601 8.00518,0.162 -0.324,0.64801 -0.3911,6.85966 -0.3911,6.85966 z m -10.3681,0 5.34605,0.162 0.486,8.10008 -7.29007,-0.32401 z m -7.61408,7.77607 6.31807,0 0.972,-7.77607 -8.26208,0.324 z m 22.03222,-6.96607 -9.07209,-0.81 0.486,7.61407 8.58609,1.13401 z m 6.15606,8.58609 -6.15606,-0.64801 0.81001,-8.10008 5.34605,0.32401 z m 4.69804,-8.58609 -8.42408,-0.162 0.81001,-6.96607 6.15606,0.48601 z m 7.93808,0.48601 1.45801,-7.29007 -10.2061,0.324 1.29602,6.15606 z m -0.81001,8.58608 -11.34011,-0.97201 -0.81001,-8.10008 13.12213,0.48601 z m 11.17811,-8.26208 -2.26802,7.93808 -8.58609,0 1.29602,-8.42408 z m -0.48601,-7.61407 0.16201,7.29007 -9.23409,-0.48601 0.81,-6.80406 z m -52.0025,6.31806 0.81001,7.45207 -6.31806,0 -0.324,-7.77607 z m -8.74808,-6.96607 8.74808,-0.648 0,7.12806 -5.99406,0.32401 z m 2.59202,7.12807 0.64801,7.29007 -3.72604,0.81001 -3.72603,-5.99406 z m -12.47412,-2.43002 10.2061,-4.05004 c 0,0 2.26802,6.48006 1.62002,6.48006 -0.64801,0 -6.96607,2.59203 -6.96607,2.59203 z m 5.83206,5.34605 3.56403,5.18405 -2.91603,1.62001 -4.37404,-1.78201 z m -11.82612,2.43002 5.99406,-7.12807 5.18405,4.69805 -2.91603,5.34605 z m -1.78201,10.0441 1.94401,-9.23409 11.50212,3.72604 -3.40204,3.40203 -0.648,2.91603 z m 0,8.42408 0.162,-7.93808 9.07209,0.81001 -1.62002,6.80407 z m 1.78201,5.67006 3.72604,0.486 2.43002,-1.62002 -0.486,-4.69804 -6.96607,0.81001 z"
       inkscape:connector-curvature="0" />
  </g>
</svg>
