<?xml version="1.0" encoding="UTF-8"?>
<!DOCTYPE svg PUBLIC "-//W3C//DTD SVG 1.1//EN"
  "http://www.w3.org/Graphics/SVG/1.1/DTD/svg11.dtd">
<svg xmlns:xlink="http://www.w3.org/1999/xlink" width="612pt" viewBox="0,0,612,792" xmlns="http://www.w3.org/2000/svg" version="1.1" height="792pt">
<defs/>
<g id="Layer 8">
<path fill="#abb1ba" d="M170.178 693.634 L379.856 695.897 L352.703 703.439 L203.364 699.668 L170.178 693.634 Z" opacity="1"/>
</g>
<g id="legs">
<path fill="#ffd79d" d="M267.294 490.269 L267.294 516.451 L260.833 551.135 L273.416 658.846 L270.03 668.253 L262.985 679.749 L249.912 686.293 L245.262 693.112 L253.334 695.886 L270.577 696.231 L287.476 696.231 L296.787 694.162 L295.408 679.332 L293.172 661.404 L292.649 590.725 L297.217 563.036 L295.857 519.172 L297.217 488.229 L267.294 490.269 Z" opacity="1"/>
<path fill="#ffd79d" d="M359.229 491.06 L359.229 517.243 L365.69 551.926 L353.107 659.638 L356.493 669.045 L363.539 680.541 L376.611 687.084 L381.261 693.904 L373.19 696.678 L355.946 697.022 L339.048 697.022 L329.736 694.953 L331.116 680.124 L333.351 662.195 L333.875 591.517 L329.306 563.827 L330.666 519.963 L329.306 489.02 L359.229 491.06 Z" opacity="1"/>
<path fill="#ecbb73" d="M352.594 517.108 L339.142 518.369 L346.559 525.144 L351.992 523.937 L352.594 517.108 Z" opacity="1"/>
<path fill="#ecbb73" d="M359.254 498.764 L329.759 499.621 L330.932 515.087 L336.094 513.553 L339.442 508.67 L350.464 508.949 L355.181 511.598 L358.835 510.623 L359.254 498.764 Z" opacity="1"/>
</g>
<g id="Layer 3">
<path fill="#a84f4c" d="M257.855 346.656 L257.888 654.14 L373.542 662.467 L369.32 343.56 L257.855 346.656 Z" opacity="1"/>
<path fill="#803c3a" d="M259.184 350.287 L258.993 364.087 L318.507 377.767 L371.166 369.51 L370.649 347.19 L259.184 350.287 Z" opacity="1"/>
</g>
<g id="Layer 9">
<path fill="#2f1f18" d="M271.969 155.393 L270.938 218.693 L352.795 216.735 L344.49 155.693 L271.969 155.393 Z" opacity="1"/>
</g>
<g id="necks">
<path fill="#ffd79d" d="M251.707 224.708 L291.91 205.286 L291.972 187.22 L328.071 182.36 L328.765 203.881 L364.171 217.765 L362.782 246.228 L256.567 246.923 L251.707 224.708 Z" opacity="1"/>
<path fill="#ecbb73" d="M290.246 175.91 L327.444 176.82 L328.933 205.567 L305.385 230.52 L263.174 219.665 L291.551 205.341 L290.246 175.91 Z" opacity="1"/>
<path fill="#ffd79d" d="M247.376 228.921 L235.931 242.58 L223.73 315.111 L215.599 342.4 L214.58 422.87 L214.58 422.87 L218.655 452.41 L230.453 466.306 L245.563 465.66 L244.143 461.011 L237.581 458.863 L230.481 438.977 L237.674 446.716 L241.778 445.786 L238.711 438.843 L236.527 425.971 L231.186 413.4 L239.998 340.192 L253.556 279.862 L267.823 325.252 L247.376 228.921 Z" opacity="1"/>
<path fill="#e4b26a" d="M290.246 176.3 L327.574 175.519 L328.647 197.21 L305.909 205.236 L291.423 201.78 L290.246 176.3 Z" opacity="1"/>
<path fill="#e4b26a" d="M270.129 185.507 " opacity="1"/>
</g>
<g id="Layer 7">
<path fill="#ffd79d" d="M372.744 226.166 L384.189 239.826 L396.39 312.357 L404.521 339.646 L405.54 420.116 L405.54 420.116 L401.466 449.656 L389.667 463.551 L374.557 462.906 L375.978 458.256 L382.54 456.109 L389.639 436.223 L382.446 443.962 L378.342 443.031 L381.409 436.089 L383.594 423.216 L388.934 410.646 L380.122 337.437 L366.565 277.108 L352.297 322.498 L372.744 226.166 Z" opacity="1"/>
</g>
<g id="Layer 2">
<path fill="#a84f4c" d="M245.303 228.301 L259.708 218.456 L308.289 229.315 L357.441 214.455 L372.301 222.457 L368.311 297.014 L369.613 317.706 L375.613 334.615 L370.158 353.16 L316.604 355.726 L252.102 349.851 L250.703 330.796 L254.138 300.999 L255.61 292.684 L245.303 228.301 Z" opacity="1"/>
<path fill="#803c3a" d="M304.979 265.681 L300.811 276.519 L307.689 285.272 L312.881 283.716 L319.832 273.03 L304.979 265.681 Z" opacity="1"/>
<path fill="#803c3a" d="M306.825 229.684 L270.165 241.11 L251.596 224.923 L261.595 215.877 L306.825 229.684 Z" opacity="1"/>
<path fill="#976f35" d="M313.286 255.399 L320.992 272.406 L310.629 282.769 L303.72 276.126 L304.783 264.168 L313.286 255.399 Z" opacity="1"/>
<path stroke-linejoin="round" stroke-width="1" stroke="#c89347" d="M288.189 207.033 L281.93 223.245 C281.93 223.245 287.996 233.798 295.902 241.836C303.807 249.875 313.552 255.399 313.552 255.399C313.552 255.399 321.428 246.654 327.739 237.486C334.05 228.318 338.796 218.728 338.796 218.728L331.694 204.66 " fill="none" stroke-linecap="round" opacity="1"/>
</g>
<g id="Layer 1">
<path fill="#ffd79d" d="M261.989 126.456 C261.989 87.924 279.985 72.6237 310.082 72.6237C340.18 72.6237 354.053 91.3763 354.053 129.909C354.053 150.909 339.417 169.553 339.417 169.553C339.417 169.553 321.921 187.604 308.226 187.604C296.789 187.604 275.732 170.525 275.732 170.525C275.732 170.525 261.989 150.346 261.989 126.456Z" opacity="1"/>
<path fill="#ecbb73" d="M301.308 158.556 L298.42 152.931 L298.572 148.371 L308.109 151.472 L316.766 149.383 L316.299 151.811 L311.1 156.976 L301.308 158.556 Z" opacity="1"/>
<path fill="#424242" d="M301.979 151.235 C301.979 151.007 302.804 150.821 303.821 150.821C304.838 150.821 305.662 151.007 305.662 151.235C305.662 151.464 304.838 151.65 303.821 151.65C302.804 151.65 301.979 151.464 301.979 151.235Z" opacity="1"/>
<path fill="#ecbb73" d="M273.121 133.09 L302.896 131.963 L300.677 121.636 L285.21 118.322 L272.745 126.703 L273.121 133.09 Z" opacity="1"/>
<path fill="#ecbb73" d="M341.993 133.2 L312.218 132.073 L314.394 122.29 L329.703 119.479 L342.369 126.813 L341.993 133.2 Z" opacity="1"/>
<path fill="#ecbb73" d="M286.587 155.77 L282.738 159.231 L281.756 164.195 L279.734 157.68 L286.587 155.77 Z" opacity="1"/>
<path fill="#ffd79d" d="M261.331 120.395 L252.337 123.143 L252.836 137.634 L261.081 149.876 L264.579 148.876 L261.331 120.395 Z" opacity="1"/>
<path fill="#ffd79d" d="M355.521 119.645 L364.515 122.393 L364.015 136.884 L355.77 149.126 L352.273 148.127 L355.521 119.645 Z" opacity="1"/>
<path fill="#ecbb73" d="M328.931 154.65 L332.779 158.112 L333.761 163.076 L335.783 156.56 L328.931 154.65 Z" opacity="1"/>
<path fill="#ecbb73" d="M259.79 126.719 L254.679 126.027 L255.993 135.731 L259.126 143.212 L257.812 135.226 L256.498 128.756 L259.025 130.273 L259.126 133.912 L260.643 131.385 L259.79 126.719 Z" opacity="1"/>
<path fill="#ecbb73" d="M356.79 126.482 L361.901 125.79 L360.587 135.495 L357.453 142.975 L358.768 134.989 L360.082 128.52 L357.555 130.036 L357.453 133.675 L355.937 131.148 L356.79 126.482 Z" opacity="1"/>
<path fill="#2f1f18" d="M272.564 127.078 L284.332 118.994 L298.256 121.009 L293.053 117.17 L280.211 117.747 L272.564 127.078 Z" opacity="1"/>
<path fill="#2f1f18" d="M342.553 127.222 L330.784 119.138 L316.861 121.154 L322.063 117.315 L334.905 117.892 L342.553 127.222 Z" opacity="1"/>
<path fill="#d2b68e" d="M313.445 257.653 L320.858 271.339 L313.303 276.043 L307.03 273.335 L307.315 264.924 L313.445 257.653 Z" opacity="1"/>
<path fill="#ecbb73" d="M302.488 172.133 L314.329 172.02 L312.052 175.549 L304.993 175.663 L302.488 172.133 Z" opacity="1"/>
<path fill="#424242" d="M310.401 151.037 C310.401 150.808 311.225 150.623 312.243 150.623C313.26 150.623 314.084 150.808 314.084 151.037C314.084 151.266 313.26 151.452 312.243 151.452C311.225 151.452 310.401 151.266 310.401 151.037Z" opacity="1"/>
<path fill="#ecbb73" d="M316.346 148.649 L314.347 144.044 L317.997 145.695 L319.561 149.17 L316.085 151.343 L316.346 148.649 Z" opacity="1"/>
</g>
<g id="mouth">
<path fill="#e48f6a" d="M297.255 164.519 L317.759 163.865 L322.973 162.694 L316.376 169.398 L308.434 171.171 L300.516 169.803 L292.496 162.734 L297.255 164.519 Z" opacity="1"/>
<path fill="#b37053" d="M287.682 161.838 C287.682 161.838 297.393 165.977 307.952 165.798C318.51 165.62 329.917 161.124 329.917 161.124L318.206 161.925 L312.139 161.631 L308.026 163.266 L303.828 162.04 L297.69 162.521 L287.682 161.838 Z" opacity="1"/>
<path fill="#ecbb73" d="M245.199 233.034 L243.716 234.643 L246.508 270.78 L239.411 316.389 L234.49 321.889 L232.438 341.329 L231.017 406.691 L232.972 395.735 L240.858 337.518 L253.882 279.921 L245.199 233.034 Z" opacity="1"/>
<path fill="#ecbb73" d="M371.506 243.232 L372.1 255.112 L374.755 268.598 L381.852 314.208 L386.773 319.707 L388.825 339.147 L390.246 404.509 L388.291 393.553 L380.405 335.336 L369.13 286.991 L371.506 243.232 Z" opacity="1"/>
</g>
<g id="Layer 5">
<path fill="#ffffff" d="M276.013 131.745 L279.839 127.36 L293.553 125.774 L296.538 130.719 L293.086 134.357 L281.238 135.104 L276.013 131.745 Z" opacity="1"/>
<path fill="#a1b4b4" d="M280.67 130.717 C280.67 127.594 283.201 125.063 286.324 125.063C289.446 125.063 291.978 127.594 291.978 130.717C291.978 133.839 289.446 136.371 286.324 136.371C283.201 136.371 280.67 133.839 280.67 130.717Z" opacity="1"/>
<path fill="#cad2dd" d="M276.013 131.745 L278.542 126.197 L293.553 125.774 L296.538 130.719 L295.266 131.927 C295.266 131.927 290.328 131.696 286.035 131.927C281.743 132.158 278.096 132.85 278.096 132.85L276.013 131.745 Z" opacity="1"/>
<path fill="#708e8e" d="M286.317 125.068 C283.195 125.068 280.682 127.581 280.682 130.703C280.682 131.284 280.775 131.868 280.938 132.395C280.938 132.395 283.052 132.076 285.788 131.929C288.525 131.782 291.884 131.807 291.884 131.807C291.968 131.419 291.996 131.117 291.996 130.703C291.996 127.581 289.44 125.068 286.317 125.068Z" opacity="1"/>
<path fill="#555555" d="M282.733 130.637 C282.733 128.711 284.295 127.149 286.221 127.149C288.147 127.149 289.709 128.711 289.709 130.637C289.709 132.563 288.147 134.124 286.221 134.124C284.295 134.124 282.733 132.563 282.733 130.637Z" opacity="1"/>
<path fill="#000000" d="M286.231 127.133 C284.305 127.133 282.747 128.691 282.747 130.617C282.747 131.19 282.808 131.668 283.052 132.145C283.052 132.145 284.826 131.957 286.434 131.881C288.042 131.805 289.486 131.841 289.486 131.841C289.643 131.444 289.716 131.071 289.716 130.617C289.716 128.691 288.157 127.133 286.231 127.133Z" opacity="1"/>
<path fill="#ffd79d" d="M276.742 133.608 L295.449 133.177 L294.166 138.588 L280.564 139.688 L276.742 133.608 Z" opacity="1"/>
<path fill="#ffffff" d="M287.779 133.346 C287.779 132.738 288.272 132.246 288.879 132.246C289.487 132.246 289.979 132.738 289.979 133.346C289.979 133.953 289.487 134.446 288.879 134.446C288.272 134.446 287.779 133.953 287.779 133.346Z" opacity="0.459677"/>
<path fill="#ecbb73" d="M292.661 123.073 L281.288 122.407 L276.838 128.275 L295.24 127.078 L292.661 123.073 Z" opacity="1"/>
<path fill="#ecbb73" d="M264.336 147.766 L264.559 152.464 L275.809 170.187 L286.994 178.901 L302.082 186.184 L278.02 168.366 L271.447 157.787 L264.336 147.766 Z" opacity="1"/>
<path fill="#ecbb73" d="M300.496 148.98 L302.494 144.375 L298.845 146.026 L297.281 149.501 L300.756 151.674 L300.496 148.98 Z" opacity="1"/>
<path fill="#ecbb73" d="M302.755 132.036 L303.884 138.379 L300.496 135.512 L297.715 131.862 L302.755 132.036 Z" opacity="1"/>
<path fill="#2f1f18" d="M289.653 127.493 L278.012 128.223 L276.175 131.751 L274.054 130.095 L275.916 129.94 L275.399 128.595 L277.673 128.223 L277.386 126.292 L280.1 127.493 L280.283 126.188 L282.24 127.545 L289.653 127.493 Z" opacity="1"/>
</g>
<g id="Layer 6">
<path fill="#ffffff" d="M338.445 131.883 L334.62 127.499 L320.906 125.913 L317.92 130.857 L321.372 134.496 L333.221 135.242 L338.445 131.883 Z" opacity="1"/>
<path fill="#a1b4b4" d="M333.789 130.855 C333.789 127.732 331.257 125.201 328.135 125.201C325.012 125.201 322.481 127.732 322.481 130.855C322.481 133.978 325.012 136.509 328.135 136.509C331.257 136.509 333.789 133.978 333.789 130.855Z" opacity="1"/>
<path fill="#cad2dd" d="M338.445 131.883 L335.684 125.899 L320.906 125.913 L317.92 130.857 L319.192 132.065 C319.192 132.065 324.131 131.834 328.423 132.065C332.716 132.296 336.362 132.988 336.362 132.988L338.445 131.883 Z" opacity="1"/>
<path fill="#708e8e" d="M328.141 125.206 C331.264 125.206 333.777 127.719 333.777 130.842C333.777 131.422 333.683 132.007 333.521 132.534C333.521 132.534 331.407 132.214 328.67 132.067C325.934 131.92 322.575 131.946 322.575 131.946C322.49 131.557 322.462 131.256 322.462 130.842C322.462 127.719 325.018 125.206 328.141 125.206Z" opacity="1"/>
<path fill="#555555" d="M331.725 130.775 C331.725 128.849 330.164 127.288 328.237 127.288C326.311 127.288 324.75 128.849 324.75 130.775C324.75 132.701 326.311 134.263 328.237 134.263C330.164 134.263 331.725 132.701 331.725 130.775Z" opacity="1"/>
<path fill="#000000" d="M328.227 127.271 C330.153 127.271 331.712 128.83 331.712 130.756C331.712 131.328 331.651 131.807 331.406 132.284C331.406 132.284 329.633 132.095 328.024 132.019C326.416 131.943 324.973 131.98 324.973 131.98C324.815 131.582 324.743 131.21 324.743 130.756C324.743 128.83 326.301 127.271 328.227 127.271Z" opacity="1"/>
<path fill="#ffd79d" d="M338.075 134.026 L318.705 133.449 L320.293 138.726 L333.895 139.827 L338.075 134.026 Z" opacity="1"/>
<path fill="#ffffff" d="M331.806 133.701 C331.806 133.093 331.314 132.601 330.706 132.601C330.099 132.601 329.606 133.093 329.606 133.701C329.606 134.308 330.099 134.801 330.706 134.801C331.314 134.801 331.806 134.308 331.806 133.701Z" opacity="0.459677"/>
<path fill="#ecbb73" d="M322.052 123.036 L334.831 123.036 L337.134 128.379 L319.078 127.393 L322.052 123.036 Z" opacity="1"/>
<path fill="#2f1f18" d="M325.085 127.661 L336.725 128.392 L338.563 131.919 L340.683 130.264 L338.821 130.109 L339.339 128.764 L337.065 128.392 L337.352 126.46 L334.637 127.661 L334.455 126.356 L332.497 127.713 L325.085 127.661 Z" opacity="1"/>
</g>
<g id="Layer 4">
<path fill="#2f1f18" d="M256.584 110.151 L259.582 91.4133 L265.786 82.3071 L270.442 73.9148 L283.567 68.1782 L296.669 65.2682 L317.795 63.1814 L330.037 66.929 L337.567 71.8448 L352.772 78.9213 L358.269 104.905 L352.772 138.383 L347.587 129.012 L347.587 115.968 L348.821 99.7912 L335.617 89.2291 L318.235 87.0199 L325.156 89.2089 L309.562 89.363 L297.808 86.844 L282.825 99.7009 L290.279 90.8265 L278.565 93.3113 L270.609 98.2576 L267.542 105.925 L268.865 113.679 L267.561 125.259 L264.366 136.263 L256.584 110.151 Z" opacity="1"/>
<path fill="#2f1f18" d="M354.947 123.15 L348.27 126.634 L348.27 139.699 L347.109 148.408 L345.367 155.956 L347.98 166.698 L346.528 178.311 L346.818 189.924 L348.27 200.375 L352.915 188.182 L353.205 175.698 L354.076 165.827 L351.463 155.085 L352.625 145.795 L355.238 136.215 L354.947 123.15 Z" opacity="1"/>
<path fill="#2f1f18" d="M261.408 120.181 L268.085 123.664 L268.085 136.729 L269.247 145.438 L270.988 152.987 L268.376 163.728 L269.827 175.341 L269.537 186.954 L268.085 197.405 L263.44 185.212 L263.15 172.728 L262.279 162.857 L264.892 152.116 L263.73 142.825 L261.118 133.245 L261.408 120.181 Z" opacity="1"/>
<path fill="#d8ac31" d="M260.856 115.968 L258.796 102.237 L265.204 89.1933 L285.113 78.209 L309.828 76.6071 L334.085 78.8955 L350.333 89.4222 L355.367 107.272 L355.367 118.027 L357.427 102.466 L351.248 84.6165 L329.508 74.0898 L309.599 71.5726 L292.894 69.2842 L278.934 75.6917 L266.119 83.0146 L258.567 94.4567 L258.339 107.043 L260.856 115.968 Z" opacity="1"/>
</g>
</svg>
