<?xml version="1.0" encoding="UTF-8"?>
<!DOCTYPE svg PUBLIC "-//W3C//DTD SVG 1.1//EN"
  "http://www.w3.org/Graphics/SVG/1.1/DTD/svg11.dtd">
<svg xmlns:xlink="http://www.w3.org/1999/xlink" width="612pt" viewBox="0,0,612,792" xmlns="http://www.w3.org/2000/svg" version="1.1" height="792pt">
<defs/>
<g id="Layer 3">
<path fill="#c89347" d="M221.76 489.849 L212.349 542.554 L203.476 570.806 L201.682 603.416 C201.682 603.416 202.188 619.208 203.565 635.416C204.941 651.623 210.894 701.151 210.894 701.151L205.592 724.065 L201.248 739.397 L202.245 749.364 L216.182 751.474 L246.705 753.343 L258.466 743.404 L241.304 720.836 L239.811 701.44 L246.858 624.749 L260.842 577.11 L267.776 555.046 L273.456 518.384 L221.76 489.849 Z" opacity="1"/>
<path fill="#c89347" d="M377.514 504.078 L381.508 552.277 L377.326 572.59 L380.821 636.496 L398.236 702.829 L454.785 735.73 L440.602 748.211 L362.88 739.134 L364.582 720.412 L361.745 696.585 L339.091 628.748 L330.727 599.474 L333.714 571.992 L323.177 528.731 L377.514 504.078 Z" opacity="1"/>
</g>
<g id="Layer 7">
<path fill="#c89347" d="M438.601 211.41 L458.999 236.02 L469.152 254.546 L461.225 273.073 L403.21 327.545 L385.229 343.528 L364.401 349.132 L364.018 331.665 L354.25 317.385 L381.159 299.189 L392.954 297.694 L415.744 255.056 L408.339 251.842 L438.601 211.41 Z" opacity="1"/>
<path fill="#ecbb73" d="M427.682 236.13 L438.455 213.419 L457.964 237.004 L468.155 254.183 L461.167 271.362 L409.338 316.785 L388.182 337.915 L378.149 313.235 L401.768 302.226 L427.1 255.93 L444.57 253.018 L430.594 241.08 L427.682 236.13 Z" opacity="1"/>
<path fill="#976f35" d="M417.782 251.271 L425.062 248.068 L434.088 250.689 L424.188 243.701 L417.782 251.271 Z" opacity="1"/>
</g>
<g id="Layer 6">
<path fill="#976f35" d="M228.047 552.083 L252.386 556.205 L237.113 564.535 L228.047 552.083 Z" opacity="1"/>
</g>
<g id="Layer 4">
<path fill="#825d6f" d="M200.223 151.353 L178.234 166.059 L126.654 210.004 L175.607 274.569 L201.241 237.999 L205.946 296.669 L195.034 327.691 L210.016 361.782 L326.064 371.783 L383.459 362.044 L390.959 317.041 L381.489 255.766 L392.543 273.311 L440.11 209.296 L370.082 149.558 L337.526 143.346 L272.118 135.626 L200.223 151.353 Z" opacity="1"/>
<path fill="#825d6f" d="M216.743 346.474 L209.76 436.69 L211.324 520.818 L330.258 534.575 L391.24 526.855 L385.131 436.568 L378.342 356.464 L216.743 346.474 Z" opacity="1"/>
<path fill="#c3a6b4" d="M373.021 198.044 L384.386 273.814 L386.674 303.067 L386.568 317.996 L374.798 347.445 L316.726 357.585 L237.875 341.352 L231.357 321.799 L235.958 306.846 L225.223 289.977 L228.242 248.638 L219.681 217.509 L319.931 237.157 L373.021 198.044 Z" opacity="1"/>
<path fill="#cdafbe" d="M248.606 382.114 L237.859 522.306 L313.446 533.217 L385.075 527.365 L377.401 439.271 L368.719 381.753 L314.292 392.456 L248.606 382.114 Z" opacity="1"/>
<path fill="#c3a6b4" d="M369.523 149.558 L392.867 165.522 L438.715 212.292 L419.079 222.11 L372.848 165.774 L369.523 149.558 Z" opacity="1"/>
<path fill="#c3a6b4" d="M345.018 148.919 L308.172 170.086 L281.517 166.558 L262.969 166.239 L311.295 185.45 L345.018 148.919 Z" opacity="1"/>
<path fill="#c3a6b4" d="M351.766 145.925 L310.75 194.723 L256.282 176.996 L241.462 169.068 L289.715 215.943 L323.841 213.814 L339.113 182.723 L351.766 145.925 Z" opacity="1"/>
<path fill="#c3a6b4" d="M282.683 221.398 L243.113 205.087 L225.659 170.723 L282.683 221.398 Z" opacity="1"/>
<path fill="#c3a6b4" d="M397.188 205.726 L373.156 167.722 L377.347 190.916 L390.76 217.463 L397.188 205.726 Z" opacity="1"/>
<path fill="#c3a6b4" d="M354.618 148.052 L371.334 149.609 L371.737 185.384 L367.963 161.66 L357.174 191.598 L362.186 159.799 L326.798 228.665 L291.343 226.483 L328.434 218.301 L354.618 148.052 Z" opacity="1"/>
</g>
<g id="Layer 5">
<path fill="#84612f" d="M231.356 145.255 L253.432 137.458 L256.319 122.483 L323.726 139.597 L344.665 146.577 L310.401 167.199 L276.772 166.564 L231.356 145.255 Z" opacity="1"/>
<path fill="#c89347" d="M310.623 157.712 L296.244 153.137 L323.726 139.597 L344.665 146.577 L310.401 167.199 L304.414 169.477 L310.623 157.712 Z" opacity="1"/>
</g>
<g id="Layer 1">
<path fill="#c89347" d="M130.095 213.502 L108.625 239.406 L97.9375 258.906 L106.281 278.406 L192.156 332.781 L192.188 332.781 L197.781 337.938 L222.688 348.281 L231.252 333.299 L229.539 321.115 L231.312 311.156 L232.844 306.097 L218.094 300.469 L202.938 305.406 L153.125 257 L161.948 256.06 L130.095 213.502 Z" opacity="1"/>
<path fill="#c89347" d="M252.592 52.5276 C252.592 52.5276 258.736 29.0155 292.936 30.3945C327.136 31.7735 331.689 53.7852 331.689 53.7852L334.939 71.1241 L334.976 73.7007 L333.48 84.0331 L336.578 108.117 C336.578 108.117 333.193 125.976 328.511 132.665C323.829 139.353 318.389 145.518 318.389 145.518C318.389 145.518 309.909 151.073 297.314 147.779C284.235 144.358 263.706 137.033 257.591 130.727C251.476 124.421 249.191 99.4796 249.191 99.4796L255.415 83.6934 L252.592 52.5276 Z" opacity="1"/>
<path fill="#976f35" d="M265.281 71.3438 L263.438 86.8125 L271.125 86.3438 L283.969 89.7812 L291.75 84.9688 L293.719 90.7188 L290.5 97.0312 L286.375 101.844 L291.177 102.962 L290.675 108.991 C290.628 108.979 294.835 114.537 294.835 114.537C294.835 114.537 308.81 113.929 308.81 113.929L319.672 104.9 L308.969 107.344 L294.679 105.098 L293.57 98.7475 L299.039 96.2624 L296.891 90.5041 L300.257 80.0237 L290.469 72.7812 L274.188 72.5625 L265.281 71.3438 Z" opacity="1"/>
<path fill="#976f35" d="M310.202 79.0431 L325.432 67.3368 L333.747 75.0242 L332.27 84.5937 L323.675 83.2518 L312.973 84.1436 L310.202 79.0431 Z" opacity="1"/>
<path fill="#976f35" d="M266.699 78.4417 C266.699 78.4417 265.84 83.1658 262.691 88.0331C259.541 92.9003 259.621 111.375 259.621 111.375L265.468 129.447 L285.466 138.375 C285.466 138.375 292.315 141.325 293.698 142.774C295.082 144.224 305.902 144.329 308.786 144.149C311.893 143.956 319.276 141.418 319.276 141.418L326.64 135.992 L318.458 147.083 L301.451 150.14 L274.709 140.837 C274.709 140.837 259.179 135.787 254.169 128.629C249.159 121.471 248.19 101.557 248.19 101.557L248.512 89.0023 L250.518 52.8883 L261.383 40.1401 L264.738 48.8128 L263.255 59.6877 L266.699 78.4417 Z" opacity="1"/>
<path fill="#976f35" d="M278.458 103.898 L273.183 109.058 L273.412 105.274 L278.458 103.898 Z" opacity="1"/>
<path fill="#2f1f18" d="M270.66 74.313 L274.1 72.8223 L288.09 73.3957 L295.544 76.6065 L300.36 73.625 L300.13 68.5795 L292.562 67.4328 L285.453 64.5661 L279.146 67.4328 L273.183 69.0382 L266.761 71.905 L270.66 74.313 Z" opacity="1"/>
<path fill="#2f1f18" d="M313.505 77.0185 L310.233 72.3696 L311.708 68.471 L318.472 67.1447 L325.463 65.1471 L330.235 68.7067 L333.912 70.5006 L336.096 72.3298 L333.539 74.5676 L331.514 73.1823 L318.301 73.6085 L313.505 77.0185 Z" opacity="1"/>
<path fill="#7d6138" d="M250.607 99.0765 L252.701 104.263 L252.203 107.156 L250.307 107.156 L248.75 101.878 L250.607 99.0765 Z" opacity="1"/>
<path fill="#ecbb73" d="M298.811 97.2355 L298.509 101.872 L296.291 102.174 L295.485 98.6467 L298.811 97.2355 Z" opacity="1"/>
<path fill="#e4b26a" d="M311.21 68.001 L310.496 73.2322 L309.307 75.61 L304.025 76.4932 L301.524 74.3675 L300.899 68.2405 L311.21 68.001 Z" opacity="1"/>
<path fill="#ecbb73" d="M316.202 97.1187 L319.194 98.994 L319.238 103.102 L316.515 102.655 L317.14 100.155 L316.202 97.1187 Z" opacity="1"/>
<path fill="#7d6138" d="M294.422 106.68 L300.864 107.234 L298.179 107.822 L294.422 106.68 Z" opacity="1"/>
<path fill="#7d6138" d="M309.802 107.58 L313.271 107.834 L315.641 106.565 L309.802 107.58 Z" opacity="1"/>
<path fill="#ecbb73" d="M157.568 264.323 L204.764 307.322 L215.639 302.504 L229.046 311.593 L226.207 321.325 L227.221 332.679 L223.166 338.762 L199.24 329.03 L132.94 285.974 L132.399 275.238 L136.98 267.738 L157.568 264.323 Z" opacity="1"/>
<path fill="#7b2725" d="M280.716 115.348 L305.249 115.551 L322.483 113.929 L311.534 126.297 L299.572 126.905 L280.716 115.348 Z" opacity="1"/>
<path fill="#dbd9ca" d="M286.54 115.861 L305.449 115.948 L319.36 114.415 L317.914 117.851 L306.035 119.716 L287.625 118.936 L286.54 115.861 Z" opacity="1"/>
<path fill="#976f35" d="M280.256 115.601 L305.577 116.555 L322.528 113.694 L309.073 113.906 C309.073 113.906 307.153 114.86 305.246 114.939C303.339 115.019 301.445 114.224 301.445 114.224L280.256 115.601 Z" opacity="1"/>
<path fill="#af813f" d="M281.17 115.614 C281.17 115.614 289.326 125.159 293.793 126.557C298.259 127.955 312.988 126.923 315.553 125.604C318.117 124.284 322.335 113.874 322.335 113.874C322.335 113.874 316.949 119.97 313.647 121.157C310.344 122.343 300.939 122.294 297.922 121.792C294.906 121.289 281.17 115.614 281.17 115.614Z" opacity="1"/>
<path fill="#c3a6b4" d="M370.491 154.281 L385.974 224.618 L374.395 199.143 L370.491 154.281 Z" opacity="1"/>
<path fill="#976f35" d="M315.912 90.662 L319.954 98.5116 L322.927 101.486 L319.453 104.616 L319.434 99.0254 L314.764 96.0599 L315.912 90.662 Z" opacity="1"/>
<path fill="#976f35" d="M323.607 101.113 L329.005 103.41 L329.579 109.957 L323.607 101.113 Z" opacity="1"/>
<path fill="#976f35" d="M295.469 127.299 L314.993 126.495 L311.777 131.778 L306.609 130.055 L299.489 131.778 L295.469 127.299 Z" opacity="1"/>
<path fill="#e4b26a" d="M317.436 90.3143 L324.445 90.6832 L333.114 87.7321 L335.549 90.0665 L332.509 100.152 L325.529 98.7331 L317.436 90.3143 Z" opacity="1"/>
<path fill="#e4b26a" d="M283.243 91.3037 L292.08 90.3546 L287.082 99.2928 L274.97 100.795 L271.306 98.4882 L268.457 89.2606 L273.234 87.8961 L283.243 91.3037 Z" opacity="1"/>
<path fill="#e4b26a" d="M315.773 33.2676 L330.675 52.0307 L333.604 65.8439 L335.085 71.2524 L325.014 64.8705 L303.975 69.3209 L286.663 64.3536 L272.022 66.5718 L273.607 51.347 L273.371 34.346 L290.742 30.194 L315.773 33.2676 Z" opacity="1"/>
<path fill="#e4b26a" d="M310.768 77.5153 L314.411 86.7657 L312.199 94.2369 L316.384 99.3166 L315.484 104.622 L310.504 105.786 L304.772 105.214 L302.576 99.1537 L305.858 94.6332 L302.427 89.0478 L303.819 77.4513 L310.768 77.5153 Z" opacity="1"/>
<path fill="#e4b26a" d="M293.937 135.588 L306.671 132.621 L320.934 135.065 L317.481 140.611 L297.704 141.762 L293.937 135.588 Z" opacity="1"/>
<path fill="#e4b26a" d="M334.794 104.762 L333.004 124.473 L321.003 139.547 L321.589 135.01 L330.955 114.082 L331.248 104.423 L334.794 104.762 Z" opacity="1"/>
<path fill="#e4b26a" d="M273.44 104.715 L273.44 119.058 L279.879 128.57 L273.232 127.834 L268.025 114.374 L273.44 104.715 Z" opacity="1"/>
<path fill="#e4b26a" d="M323.052 101.642 L327.511 112.299 L324.764 119.262 L318.845 122.72 L323.164 113.883 L320.272 113.935 L309.557 113.762 L312.151 111.955 L317.769 108.617 L323.052 101.642 Z" opacity="1"/>
<path fill="#976f35" d="M130.661 214.255 L161.908 255.918 L153.723 255.996 L159.126 263.2 L148.77 260.498 L146.969 242.489 L130.661 214.255 Z" opacity="1"/>
<path fill="#ecbb73" d="M223.514 555.548 L234.526 566.101 L256.091 559.678 L256.091 576.655 L242.785 627.128 L240.31 701.414 L220.697 694.877 L214.325 632.379 L212.607 596.728 L223.514 555.548 Z" opacity="1"/>
<path fill="#ecbb73" d="M229.329 539.169 L253.173 540.469 L250.572 551.741 L227.595 548.706 L229.329 539.169 Z" opacity="1"/>
<path fill="#ecbb73" d="M362.038 577.075 L341.311 574.348 L339.129 602.711 L346.22 629.984 L353.856 646.348 L369.129 632.166 L367.493 603.802 L362.038 577.075 Z" opacity="1"/>
</g>
<g id="Layer 8">
<path fill="#976f35" d="M249.188 71.8989 L244.379 75.5012 L243.594 92.507 L247.115 102.387 L251.393 103.42 L250.096 92.5235 L252.751 80.4721 L249.188 71.8989 Z" opacity="1"/>
<path fill="#7d6138" d="M250.461 82.6091 L247.58 77.1678 L245.34 89.4908 L247.26 85.3298 L250.461 82.6091 Z" opacity="1"/>
<path fill="#7d6138" d="M246.081 91.4132 L248.038 96.6323 L249.793 94.1602 L248.598 91.6905 L246.081 91.4132 Z" opacity="1"/>
<path fill="#7d6138" d="M250.313 82.627 L249.657 88.8806 L248.307 90.6805 L249.025 86.2828 L247.499 84.5207 L247.552 88.9129 L246.828 89.9091 L246.868 85.3886 L248.371 82.1954 L250.313 82.627 Z" opacity="1"/>
<path fill="#ecbb73" d="M346.78 84.0865 " opacity="1"/>
</g>
<g id="eyes">
<path fill="#fffef7" d="M315.355 81.9243 L322.449 79.0437 L330.45 80.7881 L329.084 83.9508 L322.771 83.7975 L317.288 84.4604 L315.355 81.9243 Z" opacity="1"/>
<path fill="#fffef7" d="M274.965 81.3584 L285.51 79.4132 L294.082 81.6618 L290.163 84.8247 L284.433 84.4406 L277.923 84.7099 L274.965 81.3584 Z" opacity="1"/>
<path fill="#cad2dd" d="M274.965 81.3584 L285.51 79.4132 L294.082 81.6618 L292.218 83.1268 L283.682 82.1197 L276.2 82.7911 L274.965 81.3584 Z" opacity="1"/>
<path fill="#a85f5d" d="M279.744 80.3471 L285.565 79.2822 L288.841 80.3471 L289.346 82.6019 L288.883 84.7451 L285.031 84.5758 L279.632 84.6326 L279.161 82.3687 L279.744 80.3471 Z" opacity="1"/>
<path fill="#424242" d="M284.151 80.1256 C282.633 80.1256 281.401 81.3579 281.401 82.8756C281.401 83.5589 281.707 84.1449 282.12 84.6256L286.151 84.7194 C286.608 84.2287 286.901 83.5986 286.901 82.8756C286.901 81.3579 285.669 80.1256 284.151 80.1256Z" opacity="1"/>
<path fill="#7b2725" d="M279.744 80.3471 L285.565 79.2822 L288.841 80.3471 L289.346 82.6019 L279.161 82.3687 L279.744 80.3471 Z" opacity="1"/>
<path fill="#000000" d="M281.449 82.4246 C281.942 80.7682 282.668 80.0816 284.186 80.0816C285.703 80.0816 286.864 81.2388 286.902 82.572C286.904 82.6377 281.422 82.5173 281.449 82.4246Z" opacity="1"/>
<path fill="#cad2dd" d="M315.355 81.9243 L322.449 79.0437 L330.584 80.8083 L329.102 82.0189 L322.961 82.3632 L316.93 83.8062 L315.355 81.9243 Z" opacity="1"/>
<path fill="#7b2725" d="M318.077 82.7029 L318.575 80.7119 L322.427 79.0648 L326.846 79.8375 L328.424 82.3039 L327.639 83.9921 L322.973 83.9921 L318.555 84.2812 L318.077 82.7029 Z" opacity="1"/>
<path fill="#a84f4c" d="M318.077 82.7029 L328.424 82.3039 L327.433 84.0334 L322.914 83.8155 L318.773 84.3101 L318.077 82.7029 Z" opacity="1"/>
<path fill="#424242" d="M322.963 79.6256 C321.437 79.6256 320.182 80.8804 320.182 82.4069C320.182 83.0688 320.482 83.6185 320.87 84.0944L323.089 84.0116 L325.057 83.9381 C325.387 83.4829 325.713 83.0121 325.713 82.4069C325.713 80.8804 324.49 79.6256 322.963 79.6256Z" opacity="1"/>
<path fill="#000000" d="M320.176 82.5073 C320.121 80.9818 321.313 79.7004 322.838 79.6453C324.364 79.5901 325.645 80.7821 325.7 82.3076L320.176 82.5073 Z" opacity="1"/>
<path fill="#7d6138" d="M278.618 77.7899 L283.993 77.2415 L289.149 78.8869 L282.238 75.9252 L278.618 77.7899 Z" opacity="1"/>
<path fill="#ffffff" d="M285.643 83.7412 C285.643 83.2387 286.051 82.8314 286.553 82.8314C287.056 82.8314 287.463 83.2387 287.463 83.7412C287.463 84.2437 287.056 84.651 286.553 84.651C286.051 84.651 285.643 84.2437 285.643 83.7412Z" opacity="0.467742"/>
<path fill="#ffffff" d="M324.425 83.3044 C324.425 82.8019 324.832 82.3946 325.335 82.3946C325.837 82.3946 326.245 82.8019 326.245 83.3044C326.245 83.8068 325.837 84.2142 325.335 84.2142C324.832 84.2142 324.425 83.8068 324.425 83.3044Z" opacity="0.467742"/>
<path fill="#a4b2b1" d="M286.54 115.861 L305.449 115.948 L319.36 114.415 L318.639 115.906 L305.391 117.655 L286.98 116.875 L286.54 115.861 Z" opacity="1"/>
<path fill="#c89347" d="M269.213 66.424 L279.712 61.6917 L306.856 64.8089 L320.928 60.6313 L326.425 59.0922 L307.076 61.7307 L276.902 60.3607 L267.586 57.8467 L269.213 66.424 Z" opacity="1"/>
</g>
<g id="hairs">
<path fill="#2f1f18" d="M250.444 49.5743 L245.759 58.9692 L240.095 68.8043 L243.712 79.3104 L249.196 87.2588 L254.39 86.7164 L258.696 68.8043 L250.444 49.5743 Z" opacity="1"/>
</g>
<g id="Layer 2" visibility="hidden">
<path stroke-linejoin="round" stroke-width="13" stroke="#2761ba" d="M285.275 323.999 L208.928 254.503 L265.699 185.986 L328.343 178.156 L337.153 250.588 L338.131 316.169 L298.979 323.999 L284.297 459.076 L270.593 570.661 L287.233 597.089 " fill="none" stroke-linecap="round" opacity="1"/>
<path stroke-linejoin="round" stroke-width="13" stroke="#2761ba" d="M337.153 319.105 L377.284 320.084 L405.67 464.949 L423.288 561.851 L445.801 577.512 " fill="none" stroke-linecap="round" opacity="1"/>
<path stroke-linejoin="round" stroke-width="13" stroke="#2761ba" d="M333.237 178.156 L388.051 178.156 L447.759 236.885 L382.178 319.105 " fill="none" stroke-linecap="round" opacity="1"/>
</g>
</svg>
