<?xml version="1.0" encoding="UTF-8" standalone="no"?>
<!-- Created with Inkscape (http://www.inkscape.org/) -->

<svg
   xmlns:dc="http://purl.org/dc/elements/1.1/"
   xmlns:cc="http://creativecommons.org/ns#"
   xmlns:rdf="http://www.w3.org/1999/02/22-rdf-syntax-ns#"
   xmlns:svg="http://www.w3.org/2000/svg"
   xmlns="http://www.w3.org/2000/svg"
   xmlns:sodipodi="http://sodipodi.sourceforge.net/DTD/sodipodi-0.dtd"
   xmlns:inkscape="http://www.inkscape.org/namespaces/inkscape"
   width="253.34363"
   height="181.21155"
   id="svg3262"
   version="1.1"
   inkscape:version="0.48.4 r9939"
   sodipodi:docname="New document 10">
  <defs
     id="defs3264" />
  <sodipodi:namedview
     id="base"
     pagecolor="#ffffff"
     bordercolor="#666666"
     borderopacity="1.0"
     inkscape:pageopacity="0.0"
     inkscape:pageshadow="2"
     inkscape:zoom="4.7844633"
     inkscape:cx="126.67181"
     inkscape:cy="90.605774"
     inkscape:document-units="px"
     inkscape:current-layer="layer1"
     showgrid="false"
     fit-margin-top="10"
     fit-margin-left="10"
     fit-margin-right="10"
     fit-margin-bottom="10"
     inkscape:window-width="1680"
     inkscape:window-height="1026"
     inkscape:window-x="0"
     inkscape:window-y="24"
     inkscape:window-maximized="1" />
  <metadata
     id="metadata3267">
    <rdf:RDF>
      <cc:Work
         rdf:about="">
        <dc:format>image/svg+xml</dc:format>
        <dc:type
           rdf:resource="http://purl.org/dc/dcmitype/StillImage" />
        <dc:title></dc:title>
      </cc:Work>
    </rdf:RDF>
  </metadata>
  <g
     inkscape:label="Layer 1"
     inkscape:groupmode="layer"
     id="layer1"
     transform="translate(243.81467,-70.327836)">
    <path
       d="m -218.05462,218.79338 c 0,0 -11.37297,9.27805 -11.82191,9.4278 -0.44895,0.14947 11.97155,11.22311 11.97155,11.22311 l 97.41856,-0.14946 92.480728,0.29922 22.7460099,1.94534 4.78863996,-13.91693 -11.22339986,-11.67238 -206.360178,2.8433 z"
       id="path11"
       inkscape:connector-curvature="0"
       style="fill:#b1b1b1" />
    <path
       d="m -16.668332,197.12221 6.8261599,-0.13365 7.89683,18.06895 c -0.40154,-0.53548 -3.41308,19.13992 -3.41308,19.13992 -1.03487,0.0647 -11.2430899,-0.0671 -11.2430899,-0.0671 0,0 1.38868,-35.33333 -0.0668,-37.0081 z"
       id="path13"
       inkscape:connector-curvature="0"
       style="fill:#d9d6b9" />
    <path
       d="m -217.19357,103.70564 -2.06596,94.93143 202.278258,-2.05959 -3.20157,-81.44438 3.62936,-27.723384 1.687,0.88348 -0.11217,-7.96536 -207.680528,14.86821 5.46561,8.509594 z"
       id="path15"
       inkscape:connector-curvature="0"
       style="fill:#f5f2d3" />
    <path
       d="m -216.75668,199.38915 -9.89226,-2.00681 c 0,0 -6.94799,11.97487 -7.16181,13.7275 -0.21384,1.75263 8.38721,17.475 9.42199,17.54003 1.03485,0.0651 8.36988,4.17946 8.36988,4.17946 0,0 -2.1934,-31.76542 -0.7378,-33.44018 z"
       id="path17"
       inkscape:connector-curvature="0"
       style="fill:#d9d6b9" />
    <path
       d="m -222.72192,193.79176 208.926108,1.34811 11.7332299,21.20161 -6.68685,19.82844 -94.3237479,-2.65087 -112.44714,1.65569 -15.00115,-16.23459 7.79955,-25.14839 z"
       id="path21"
       inkscape:connector-curvature="0"
       style="fill:#f5f2d3" />
    <path
       d="m -217.98343,101.71167 1.5952,4.06312 195.369788,6.93177 1.53665,-12.67771 2.32003,-9.000534 -34.26743,-3.18627 -170.277848,10.27665 3.72361,3.592974 z"
       id="path23"
       inkscape:connector-curvature="0"
       style="fill:#e7e5c5" />
    <path
       d="m -221.44133,195.7386 203.777498,-0.82575 12.6970999,15.15555 -21.0998799,-0.14975 -79.910118,-2.0951 -103.85347,0.29952 -17.05949,0.44867 5.44836,-12.83314 z"
       id="path25"
       inkscape:connector-curvature="0"
       style="fill:#fffde4" />
    <path
       d="m -214.46962,235.79166 205.0313679,0.0468 5.22896,-13.36295 -11.7362099,1.97547 -108.064978,-4.18333 -80.82238,1.80692 -22.65932,0.17361 13.02256,13.54345 z"
       id="path27"
       inkscape:connector-curvature="0"
       style="fill:#e7e5c5" />
    <path
       d="m -221.38007,98.158076 182.657528,-7.53927 21.02709,4.0352 1.00116,-5.25804 -11.78156,-4.65442 -19.52773,-0.39539 -61.778808,5.6253 -112.54019,5.22459 0.94251,2.96203 z"
       id="path31"
       inkscape:connector-curvature="0"
       style="fill:#c9c7ac" />
    <path
       d="m -216.7972,235.53719 207.7500479,0.67838 0.42003,-3.52853 -13.3966499,-0.59903 -88.732938,-0.15602 -90.85339,-0.0214 -19.00888,-0.42451 3.82178,4.05118 z"
       id="path33"
       inkscape:connector-curvature="0"
       style="fill:#c9c7ac" />
    <text
       xml:space="preserve"
       style="font-size:26.97791481px;font-style:normal;font-variant:normal;font-weight:normal;font-stretch:normal;line-height:125%;letter-spacing:0px;word-spacing:0px;fill:#000000;fill-opacity:1;stroke:none;font-family:SBL Greek;-inkscape-font-specification:SBL Greek"
       x="-211.16499"
       y="148.73219"
       id="text3012"
       sodipodi:linespacing="125%"><tspan
         sodipodi:role="line"
         id="tspan3014"
         x="-211.16499"
         y="148.73219">Φιλιππος Ἰασωνι. </tspan><tspan
         sodipodi:role="line"
         x="-211.16499"
         y="182.45459"
         id="tspan3016">Χαιρειν.</tspan></text>
  </g>
</svg>
