<?xml version="1.0" encoding="UTF-8" standalone="no"?>
<svg
   xmlns:dc="http://purl.org/dc/elements/1.1/"
   xmlns:cc="http://creativecommons.org/ns#"
   xmlns:rdf="http://www.w3.org/1999/02/22-rdf-syntax-ns#"
   xmlns:svg="http://www.w3.org/2000/svg"
   xmlns="http://www.w3.org/2000/svg"
   xmlns:sodipodi="http://sodipodi.sourceforge.net/DTD/sodipodi-0.dtd"
   xmlns:inkscape="http://www.inkscape.org/namespaces/inkscape"
   width="454.34125"
   viewBox="0 0 363.473 694.6229"
   version="1.1"
   height="868.27863"
   id="svg2"
   inkscape:version="0.48.3.1 r9886"
   sodipodi:docname="npcs.image.b6da3f1e2041b840.6d616e312e737667.svg">
  <metadata
     id="metadata113">
    <rdf:RDF>
      <cc:Work
         rdf:about="">
        <dc:format>image/svg+xml</dc:format>
        <dc:type
           rdf:resource="http://purl.org/dc/dcmitype/StillImage" />
        <dc:title />
      </cc:Work>
    </rdf:RDF>
  </metadata>
  <sodipodi:namedview
     pagecolor="#ffffff"
     bordercolor="#666666"
     borderopacity="1"
     objecttolerance="10"
     gridtolerance="10"
     guidetolerance="10"
     inkscape:pageopacity="0"
     inkscape:pageshadow="2"
     inkscape:window-width="1615"
     inkscape:window-height="1026"
     id="namedview111"
     showgrid="false"
     inkscape:zoom="0.23838384"
     inkscape:cx="246.38625"
     inkscape:cy="419.92625"
     inkscape:window-x="65"
     inkscape:window-y="24"
     inkscape:window-maximized="1"
     inkscape:current-layer="svg2"
     fit-margin-top="0"
     fit-margin-left="0"
     fit-margin-right="0"
     fit-margin-bottom="0" />
  <defs
     id="defs4" />
  <g
     id="Layer 3"
     transform="translate(-108.891,-37.318116)">
    <path
       d="m 221.76,465.439 -9.411,52.705 -8.873,28.251 -1.794,32.61 c 0,0 0.506,15.793 1.883,32 1.376,16.207 3.817,62.721 3.817,62.721 l -5.649,14.587 -20.566,31.191 6.619,9.598 27.44,2.839 33.125,-0.853 6.951,-13.239 -15.559,-20.459 1.543,-17.419 5.572,-79.632 13.984,-47.64 6.934,-22.063 5.68,-36.663 -51.696,-28.534 z"
       id="path7"
       inkscape:connector-curvature="0"
       style="fill:#c89347" />
    <path
       d="m 395.094,478.742 3.994,48.199 -4.182,20.313 3.494,63.906 17.416,66.333 56.548,32.901 -14.182,12.481 -77.722,-9.077 1.702,-18.722 -2.837,-23.827 -22.655,-67.837 -8.364,-29.274 2.987,-27.482 -10.537,-43.261 54.338,-24.653 z"
       id="path9"
       inkscape:connector-curvature="0"
       style="fill:#c89347" />
  </g>
  <g
     id="Layer 7"
     transform="translate(-108.891,-37.318116)">
    <path
       d="m 389.132,169.138 64.592,70.513 -74.33,95.702 -9.94,-29.768 33.355,-56.65 -36.461,-32.284 22.784,-47.513 z"
       id="path12"
       inkscape:connector-curvature="0"
       style="fill:#c89347" />
  </g>
  <g
     id="Layer 4"
     transform="translate(-108.891,-37.318116)">
    <path
       d="m 200.223,151.353 -24.124,17.247 -17.203,22.907 42.345,46.492 2.31,112.344 122.513,21.44 57.395,-9.739 7.5,-45.003 -5.315,-89.734 21.427,-41.47 -36.989,-36.279 -32.556,-6.212 -65.408,-7.72 -71.895,15.727 z"
       id="path15"
       inkscape:connector-curvature="0"
       style="fill:#825d6f" />
    <path
       d="m 222.937,345.592 -10.447,154.358 118.209,12.021 71.787,-8.647 -23.62,-149.215 -155.929,-8.517 z"
       id="path17"
       inkscape:connector-curvature="0"
       style="fill:#825d6f" />
    <path
       d="m 373.021,198.044 11.819,35.295 4.91,75.818 -14.952,38.288 -58.072,10.14 -54.385,-18.436 -12.905,-53.463 11.586,-41.438 -11.586,-20.321 70.495,13.23 53.09,-39.113 z"
       id="path19"
       inkscape:connector-curvature="0"
       style="fill:#c3a6b4" />
    <path
       d="m 269.715,371.411 -9.997,130.41 70.313,10.15 71.453,-8.146 -20.037,-132.749 -111.732,0.335 z"
       id="path21"
       inkscape:connector-curvature="0"
       style="fill:#cdafbe" />
    <path
       d="m 369.523,149.558 23.344,15.964 15.255,20.563 -8.619,14.184 -26.655,-34.495 -3.325,-16.216 z"
       id="path23"
       inkscape:connector-curvature="0"
       style="fill:#c3a6b4" />
    <path
       d="m 345.018,148.919 -36.846,21.167 -26.655,-3.528 -18.548,-0.319 61.337,29.738 20.712,-47.058 z"
       id="path25"
       inkscape:connector-curvature="0"
       style="fill:#c3a6b4" />
    <path
       d="m 351.766,145.925 -28.954,61.103 -66.53,-30.032 -14.82,-7.928 48.253,46.875 31.02,6.893 49.721,-35.044 -18.69,-41.867 z"
       id="path27"
       inkscape:connector-curvature="0"
       style="fill:#c3a6b4" />
    <path
       d="m 282.683,221.398 -23.369,-12.813 -13.405,-22.849 36.774,35.662 z"
       id="path29"
       inkscape:connector-curvature="0"
       style="fill:#c3a6b4" />
    <path
       d="m 397.188,205.726 -24.032,-38.004 4.191,23.194 13.413,26.547 6.428,-11.737 z"
       id="path31"
       inkscape:connector-curvature="0"
       style="fill:#c3a6b4" />
  </g>
  <g
     id="Layer 6"
     transform="translate(-108.891,-37.318116)">
    <path
       d="m 161.085,191.742 -52.194,69.592 91.043,79.208 15.461,-23.093 -52.372,-60.172 34.713,-23.13 -36.651,-42.405 z"
       id="path34"
       inkscape:connector-curvature="0"
       style="fill:#c89347" />
  </g>
  <g
     id="Layer 5"
     transform="translate(-108.891,-37.318116)">
    <path
       d="m 231.356,145.255 22.076,-7.797 2.887,-14.975 67.407,17.114 20.939,6.98 -34.264,20.622 -33.629,-0.635 -45.416,-21.309 z"
       id="path37"
       inkscape:connector-curvature="0"
       style="fill:#84612f" />
    <path
       d="m 310.623,157.712 -14.379,-4.575 27.482,-13.54 20.939,6.98 -34.264,20.622 -5.987,2.278 6.209,-11.765 z"
       id="path39"
       inkscape:connector-curvature="0"
       style="fill:#c89347" />
  </g>
  <g
     id="Layer 1"
     transform="translate(-108.891,-37.318116)">
    <path
       d="m 251.539,58.369 c 0,0 21.9,-21.2619 41.778,-21.0493 19.878,0.2126 37.733,21.8997 37.733,21.8997 l 5.528,48.8976 c 0,0 -3.385,17.859 -8.067,24.548 -4.682,6.688 -10.122,12.853 -10.122,12.853 0,0 -8.48,5.555 -21.075,2.261 -13.079,-3.421 -33.608,-10.746 -39.723,-17.052 -6.115,-6.306 -8.4,-31.2474 -8.4,-31.2474 l 6.224,-15.7862 -3.876,-25.3244 z"
       id="path42"
       inkscape:connector-curvature="0"
       style="fill:#c89347" />
    <path
       d="m 290.455,105.324 c 0,0 10.368,2.731 18.505,2.006 8.138,-0.724 11.371,-4.459 11.371,-4.459 0,0 -4.348,7.302 -12.486,8.027 -8.137,0.724 -17.39,-5.574 -17.39,-5.574 z"
       id="path44"
       inkscape:connector-curvature="0"
       style="fill:#976f35" />
    <path
       d="m 271.119,86.3534 12.843,3.4401 7.798,-4.8161 1.949,5.7335 -3.211,6.3068 -4.128,4.8163 3.555,3.325 7.453,1.835 -1.146,-6.192 2.472,-2.6125 -1.783,-6.4656 5.797,-11.5934 -12.263,-7.3574 -16.275,-0.2229 -8.909,-1.2186 -1.835,15.4805 7.683,-0.4587 z"
       id="path46"
       inkscape:connector-curvature="0"
       style="fill:#976f35" />
    <path
       d="m 309.183,79.0157 6.912,-10.7016 13.823,8.2492 -6.243,6.6885 -10.702,0.8918 -3.79,-5.1279 z"
       id="path48"
       inkscape:connector-curvature="0"
       style="fill:#976f35" />
    <path
       d="m 266.699,78.4417 c 0,0 -0.859,4.7241 -4.008,9.5914 -3.15,4.8672 -2.863,19.1829 0.286,24.0499 3.149,4.867 9.794,16.74 9.794,16.74 l 14.533,6.394 c 0,0 5.011,6.108 6.394,7.557 1.384,1.45 12.204,1.555 15.088,1.375 3.107,-0.193 10.49,-2.731 10.49,-2.731 l 7.364,-5.426 -8.182,11.091 -17.007,3.057 -26.742,-9.303 c 0,0 -15.53,-5.05 -20.54,-12.208 -5.01,-7.158 -5.916,-25.918 -5.916,-25.918 l 5.05,-19.3913 -1.242,-25.5728 18.075,-15.0053 16.175,-4.383 -16.319,9.305 c 0,0 -3.126,6.3107 -3.949,14.0052 -0.823,7.6945 0.656,16.7729 0.656,16.7729 z"
       id="path50"
       inkscape:connector-curvature="0"
       style="fill:#976f35" />
    <path
       d="m 273.189,81.389 10.545,-1.9452 8.572,2.2486 -6.711,4.6228 -9.448,-1.5747 -2.958,-3.3515 z"
       id="path52"
       inkscape:connector-curvature="0"
       style="fill:#fffef7" />
    <path
       d="m 313.579,81.9549 7.094,-2.8806 7.341,1.0456 -1.598,4.6658 -9.54,1.2535 -3.297,-4.0843 z"
       id="path54"
       inkscape:connector-curvature="0"
       style="fill:#fffef7" />
    <path
       d="m 278.458,103.898 -5.275,5.16 0.229,-3.784 5.046,-1.376 z"
       id="path56"
       inkscape:connector-curvature="0"
       style="fill:#976f35" />
    <path
       d="m 277.968,80.3777 5.821,-1.0649 3.276,1.0649 0.505,2.2549 -0.466,2.6824 -1.725,1.0549 -7.609,-1.3925 -0.385,-2.5781 0.583,-2.0216 z"
       id="path58"
       inkscape:connector-curvature="0"
       style="fill:#7b2725" />
    <path
       d="m 316.301,82.7335 0.498,-1.991 3.852,-1.6471 4.503,0.5449 1.494,2.6942 -1.21,2.5678 -7.06,1.2899 -1.366,-1.2899 -0.711,-2.1688 z"
       id="path60"
       inkscape:connector-curvature="0"
       style="fill:#7b2725" />
    <path
       d="m 279.159,82.856 c 0,-1.7977 1.457,-3.255 3.255,-3.255 1.798,0 3.255,1.4573 3.255,3.255 0,1.7977 -1.457,3.2551 -3.255,3.2551 -1.798,0 -3.255,-1.4574 -3.255,-3.2551 z"
       id="path62"
       inkscape:connector-curvature="0"
       style="fill:#000000" />
    <path
       d="m 317.93,82.4328 c 0,-1.7977 1.457,-3.2551 3.255,-3.2551 1.798,0 3.255,1.4574 3.255,3.2551 0,1.7977 -1.457,3.255 -3.255,3.255 -1.798,0 -3.255,-1.4573 -3.255,-3.255 z"
       id="path64"
       inkscape:connector-curvature="0"
       style="fill:#000000" />
    <path
       d="m 309.763,79.4732 5.963,10.091 -1.147,6.5362 4.587,2.4081 -0.459,2.9815 -1.032,-2.6376 -4.357,-2.5227 0.687,-6.7655 -4.242,-10.091 z"
       id="path66"
       inkscape:connector-curvature="0"
       style="fill:#ffd79d" />
    <path
       d="m 270.66,74.313 3.44,-1.4907 13.99,0.5734 7.454,3.2108 4.816,-2.9815 -0.23,-5.0455 -7.568,-1.1467 -7.109,-2.8667 -6.307,2.8667 -5.963,1.6054 -6.422,2.8668 3.899,2.408 z"
       id="path68"
       inkscape:connector-curvature="0"
       style="fill:#2f1f18" />
    <path
       d="m 312.4,75.6891 -3.555,-2.6374 0.803,-5.1602 6.192,-0.688 6.192,-2.7521 6.422,3.8988 6.192,2.6374 -3.784,4.1281 -3.669,-1.6054 -9.403,-1.376 -5.39,3.5548 z"
       id="path70"
       inkscape:connector-curvature="0"
       style="fill:#2f1f18" />
    <path
       d="m 277.279,40.4654 -19.634,7.5514 -13.592,22.4655 3.312,13.1436 1.554,18.4191 5.139,-19.1029 0,-19.0673 14.725,-20.3889 8.496,-3.0205 z"
       id="path72"
       inkscape:connector-curvature="0"
       style="fill:#000000" />
  </g>
  <g
     id="Layer 8"
     transform="translate(-108.891,-37.318116)">
    <path
       d="m 250.169,77.6845 -4.809,3.6023 -0.785,17.0057 3.521,9.8805 4.278,1.032 -1.297,-10.8959 2.655,-12.0514 -3.563,-8.5732 z"
       id="path75"
       inkscape:connector-curvature="0"
       style="fill:#976f35" />
  </g>
  <g
     id="mouth"
     transform="translate(-108.891,-37.318116)">
    <path
       d="m 280.716,115.348 24.533,0.203 17.234,-1.622 -10.949,12.368 -11.962,0.608 -18.856,-11.557 z"
       id="path78"
       inkscape:connector-curvature="0"
       style="fill:#7b2725" />
    <path
       d="m 282.342,115.53 23.107,0.418 16.626,-2.204 -7.165,4.632 -8.875,1.34 -16.772,-0.72 -6.921,-3.466 z"
       id="path80"
       inkscape:connector-curvature="0"
       style="fill:#fffef7" />
    <path
       d="m 280.256,115.601 25.321,0.954 16.951,-2.861 -13.455,0.212 c 0,0 -1.92,0.954 -3.827,1.033 -1.907,0.08 -3.801,-0.715 -3.801,-0.715 l -21.189,1.377 z"
       id="path82"
       inkscape:connector-curvature="0"
       style="fill:#976f35" />
    <path
       d="m 281.17,115.614 c 0,0 8.156,9.545 12.623,10.943 4.466,1.398 19.195,0.366 21.76,-0.953 2.564,-1.32 6.782,-11.73 6.782,-11.73 0,0 -5.386,6.096 -8.688,7.283 -3.303,1.186 -12.708,1.137 -15.725,0.635 -3.016,-0.503 -16.752,-6.178 -16.752,-6.178 z"
       id="path84"
       inkscape:connector-curvature="0"
       style="fill:#af813f" />
    <path
       d="m 370.491,154.281 15.483,70.337 -11.579,-25.475 -3.904,-44.862 z"
       id="path86"
       inkscape:connector-curvature="0"
       style="fill:#c3a6b4" />
    <path
       d="m 315.912,90.662 5.513,5.7425 -1.608,3.2157 -5.053,-3.5603 1.148,-5.3979 z"
       id="path88"
       inkscape:connector-curvature="0"
       style="fill:#976f35" />
    <path
       d="m 323.607,101.113 5.398,2.297 0.574,6.547 -5.972,-8.844 z"
       id="path90"
       inkscape:connector-curvature="0"
       style="fill:#976f35" />
    <path
       d="m 295.469,127.299 19.524,-0.804 -3.216,5.283 -5.168,-1.723 -7.12,1.723 -4.02,-4.479 z"
       id="path92"
       inkscape:connector-curvature="0"
       style="fill:#976f35" />
    <path
       d="m 316.855,87.8012 14.378,0.8318 2.971,12.477 -8.675,-2.3769 -8.674,-10.9319 z"
       id="path94"
       inkscape:connector-curvature="0"
       style="fill:#e4b26a" />
    <path
       d="m 283.243,91.3037 8.837,-0.9491 -4.998,8.9382 -12.112,1.5022 -3.664,-2.3068 -2.849,-9.2276 4.777,-1.3645 10.009,3.4076 z"
       id="path96"
       inkscape:connector-curvature="0"
       style="fill:#e4b26a" />
    <path
       d="m 305.18,42.5324 19.381,12.9915 4.685,7.8801 -25.271,5.9169 -15.658,-4.033 -2.305,-9.551 6.176,-13.4175 12.992,0.213 z"
       id="path98"
       inkscape:connector-curvature="0"
       style="fill:#e4b26a" />
    <path
       d="m 309.25,78.1763 4.023,10.5717 0.426,8.519 4.046,5.75 -7.241,2.769 -5.75,-3.621 0.213,-6.3888 0.837,-18.3128 3.446,0.7129 z"
       id="path100"
       inkscape:connector-curvature="0"
       style="fill:#e4b26a" />
    <path
       d="m 293.937,135.588 12.734,-2.967 14.263,2.444 -3.453,5.546 -19.777,1.151 -3.767,-6.174 z"
       id="path102"
       inkscape:connector-curvature="0"
       style="fill:#e4b26a" />
  </g>
</svg>
