<?xml version="1.0" encoding="UTF-8"?>
<!DOCTYPE svg PUBLIC "-//W3C//DTD SVG 1.1//EN"
  "http://www.w3.org/Graphics/SVG/1.1/DTD/svg11.dtd">
<svg xmlns:xlink="http://www.w3.org/1999/xlink" width="612pt" viewBox="0,0,612,792" xmlns="http://www.w3.org/2000/svg" version="1.1" height="792pt">
<defs/>
<g id="Layer 8">
<path fill="#abb1ba" d="M170.178 693.634 L379.856 695.897 L352.703 703.439 L203.364 699.668 L170.178 693.634 Z" opacity="1"/>
</g>
<g id="legs">
<path fill="#ffd79d" d="M267.294 490.269 L267.294 516.451 L260.833 551.135 L273.416 658.846 L270.03 668.253 L262.985 679.749 L249.912 686.293 L245.262 693.112 L253.334 695.886 L270.577 696.231 L287.476 696.231 L296.787 694.162 L295.408 679.332 L293.172 661.404 L292.649 590.725 L297.217 563.036 L295.857 519.172 L297.217 488.229 L267.294 490.269 Z" opacity="1"/>
<path fill="#ffd79d" d="M359.229 491.06 L359.229 517.243 L365.69 551.926 L353.107 659.638 L356.493 669.045 L363.539 680.541 L376.611 687.084 L381.261 693.904 L373.19 696.678 L355.946 697.022 L339.048 697.022 L329.736 694.953 L331.116 680.124 L333.351 662.195 L333.875 591.517 L329.306 563.827 L330.666 519.963 L329.306 489.02 L359.229 491.06 Z" opacity="1"/>
<path fill="#ecbb73" d="M352.594 517.108 L339.142 518.369 L346.559 525.144 L351.992 523.937 L352.594 517.108 Z" opacity="1"/>
<path fill="#ecbb73" d="M359.254 498.764 L329.759 499.621 L330.932 515.087 L336.094 513.553 L339.442 508.67 L350.464 508.949 L355.181 511.598 L358.835 510.623 L359.254 498.764 Z" opacity="1"/>
</g>
<g id="Layer 3">
<path fill="#a84f4c" d="M257.288 387.248 L257.731 496.943 L373.176 504.021 L368.753 384.151 L257.288 387.248 Z" opacity="1"/>
<path fill="#803c3a" d="M257.288 387.248 L257.098 401.048 L316.612 414.728 L369.271 406.471 L368.753 384.151 L257.288 387.248 Z" opacity="1"/>
<path fill="#ecbb73" d="M273.929 516.316 L287.382 517.577 L279.964 524.352 L274.531 523.145 L273.929 516.316 Z" opacity="1"/>
<path fill="#ecbb73" d="M267.27 497.972 L296.764 498.829 L295.592 514.296 L290.43 512.761 L287.081 507.878 L276.059 508.157 L271.342 510.807 L267.688 509.831 L267.27 497.972 Z" opacity="1"/>
</g>
<g id="necks">
<path fill="#ffd79d" d="M251.707 224.708 L291.91 205.286 L291.972 187.22 L328.071 182.36 L328.765 203.881 L364.171 217.765 L362.782 246.228 L256.567 246.923 L251.707 224.708 Z" opacity="1"/>
<path fill="#ecbb73" d="M290.425 183.048 L327.629 180.563 L328.933 205.567 L305.385 230.52 L263.174 219.665 L291.551 205.341 L290.425 183.048 Z" opacity="1"/>
<path fill="#ffd79d" d="M247.376 228.921 L235.931 242.58 L223.73 315.111 L215.599 342.4 L214.58 422.87 L214.58 422.87 L218.655 452.41 L230.453 466.306 L245.563 465.66 L244.143 461.011 L237.581 458.863 L230.481 438.977 L237.674 446.716 L241.778 445.786 L238.711 438.843 L236.527 425.971 L231.186 413.4 L239.998 340.192 L253.556 279.862 L267.823 325.252 L247.376 228.921 Z" opacity="1"/>
<path fill="#e4b26a" d="M290.898 184.799 L327.644 185.841 L328.647 197.21 L305.909 205.236 L291.423 201.78 L290.898 184.799 Z" opacity="1"/>
<path fill="#e4b26a" d="M270.129 185.507 " opacity="1"/>
</g>
<g id="Layer 7">
<path fill="#ffd79d" d="M372.744 226.166 L384.189 239.826 L396.39 312.357 L404.521 339.646 L405.54 420.116 L405.54 420.116 L401.466 449.656 L389.667 463.551 L374.557 462.906 L375.978 458.256 L382.54 456.109 L389.639 436.223 L382.446 443.962 L378.342 443.031 L381.409 436.089 L383.594 423.216 L388.934 410.646 L380.122 337.437 L366.565 277.108 L352.297 322.498 L372.744 226.166 Z" opacity="1"/>
</g>
<g id="Layer 2">
<path fill="#a84f4c" d="M245.303 228.301 L259.708 218.456 L308.289 229.315 L357.441 214.455 L372.301 222.457 L368.311 297.014 L372.734 345.67 L380.253 379.728 L376.62 396.482 L316.041 398.299 L251.539 392.424 L243.397 374.105 L253.574 343.572 L255.61 292.684 L245.303 228.301 Z" opacity="1"/>
<path fill="#803c3a" d="M304.979 265.681 L300.811 276.519 L307.689 285.272 L312.881 283.716 L319.832 273.03 L304.979 265.681 Z" opacity="1"/>
<path fill="#803c3a" d="M306.825 229.684 L270.165 241.11 L251.596 224.923 L261.595 215.877 L306.825 229.684 Z" opacity="1"/>
<path fill="#976f35" d="M313.286 255.399 L320.992 272.406 L310.629 282.769 L303.72 276.126 L304.783 264.168 L313.286 255.399 Z" opacity="1"/>
<path stroke-linejoin="round" stroke-width="1" stroke="#c89347" d="M288.189 207.033 L281.93 223.245 C281.93 223.245 287.996 233.798 295.902 241.836C303.807 249.875 313.552 255.399 313.552 255.399C313.552 255.399 321.428 246.654 327.739 237.486C334.05 228.318 338.796 218.728 338.796 218.728L331.694 204.66 " fill="none" stroke-linecap="round" opacity="1"/>
</g>
<g id="Layer 1">
<path fill="#ffd79d" d="M261.989 126.456 C261.989 87.924 279.985 72.6237 310.082 72.6237C340.18 72.6237 354.053 91.3763 354.053 129.909C354.053 150.909 348.376 170.437 348.376 170.437C348.376 170.437 322.266 191.507 308.571 191.507C297.134 191.507 270.009 172.013 270.009 172.013C270.009 172.013 261.989 150.346 261.989 126.456Z" opacity="1"/>
<path fill="#ecbb73" d="M299.611 158.115 L301.335 149.518 L308.109 151.472 L315.144 149.127 L311.1 156.976 L299.611 158.115 Z" opacity="1"/>
<path fill="#424242" d="M303.57 151.16 C303.57 150.931 304.394 150.745 305.412 150.745C306.429 150.745 307.253 150.931 307.253 151.16C307.253 151.388 306.429 151.574 305.412 151.574C304.394 151.574 303.57 151.388 303.57 151.16Z" opacity="1"/>
<path fill="#ecbb73" d="M273.121 133.09 L302.896 131.963 L300.677 121.636 L285.21 118.322 L272.745 126.703 L273.121 133.09 Z" opacity="1"/>
<path fill="#ecbb73" d="M341.993 133.2 L312.218 132.073 L314.394 122.29 L329.703 119.479 L342.369 126.813 L341.993 133.2 Z" opacity="1"/>
<path fill="#ecbb73" d="M285.971 157.31 L282.122 160.772 L281.14 165.735 L279.118 159.22 L285.971 157.31 Z" opacity="1"/>
<path fill="#ffd79d" d="M261.331 120.395 L252.337 123.143 L252.836 137.634 L261.081 149.876 L264.579 148.876 L261.331 120.395 Z" opacity="1"/>
<path fill="#ffd79d" d="M355.521 119.645 L364.515 122.393 L364.015 136.884 L355.77 149.126 L352.273 148.127 L355.521 119.645 Z" opacity="1"/>
<path fill="#ecbb73" d="M328.931 154.65 L332.779 158.112 L333.761 163.076 L335.783 156.56 L328.931 154.65 Z" opacity="1"/>
<path fill="#ecbb73" d="M259.79 126.719 L254.679 126.027 L255.993 135.731 L259.126 143.212 L257.812 135.226 L256.498 128.756 L259.025 130.273 L259.126 133.912 L260.643 131.385 L259.79 126.719 Z" opacity="1"/>
<path fill="#ecbb73" d="M356.79 126.482 L361.901 125.79 L360.587 135.495 L357.453 142.975 L358.768 134.989 L360.082 128.52 L357.555 130.036 L357.453 133.675 L355.937 131.148 L356.79 126.482 Z" opacity="1"/>
<path fill="#2f1f18" d="M272.564 127.078 L284.332 118.994 L298.256 121.009 L293.053 117.17 L280.211 117.747 L272.564 127.078 Z" opacity="1"/>
<path fill="#2f1f18" d="M342.553 127.222 L330.784 119.138 L316.861 121.154 L322.063 117.315 L334.905 117.892 L342.553 127.222 Z" opacity="1"/>
<path fill="#d2b68e" d="M313.445 257.653 L320.858 271.339 L313.303 276.043 L307.03 273.335 L307.315 264.924 L313.445 257.653 Z" opacity="1"/>
<path fill="#ecbb73" d="M302.575 174.415 L314.416 174.301 L312.139 177.831 L305.08 177.945 L302.575 174.415 Z" opacity="1"/>
</g>
<g id="mouth">
<path fill="#7b2725" d="M289.854 161.308 L325.131 159.838 L320.022 171.307 L297.303 171.307 L289.854 161.308 Z" opacity="1"/>
<path fill="#e48f6a" d="M297.125 170.967 L319.986 170.127 L324.69 160.132 L320.323 171.509 L319.843 173.555 L308.86 174.525 L298.259 174.353 L297.053 171.94 L290.442 162.043 L297.125 170.967 Z" opacity="1"/>
<path fill="#fffaf2" d="M289.854 161.308 L325.131 159.838 L323.102 164.496 L291.914 164.86 L289.854 161.308 Z" opacity="1"/>
<path fill="#e48f6a" d="M290.118 161.033 L324.822 159.958 L322.204 159.252 L307.485 159.139 L292.478 160.155 L290.118 161.033 Z" opacity="1"/>
<path fill="#dbd9ca" d="M289.854 161.308 L297.382 161.059 L297.591 164.622 L291.914 164.86 L289.854 161.308 Z" opacity="1"/>
<path fill="#dbd9ca" d="M325.072 160.066 L317.138 160.117 L317.539 164.539 L323.189 164.382 L325.072 160.066 Z" opacity="1"/>
<path fill="#c8c5b8" d="M289.854 161.308 L292.482 161.312 L293.392 164.548 L291.914 164.86 L289.854 161.308 Z" opacity="1"/>
<path fill="#c8c5b8" d="M325.072 160.066 L320.993 160.403 L320.791 164.143 L323.189 164.382 L325.072 160.066 Z" opacity="1"/>
<path fill="#ecbb73" d="M245.199 233.034 L243.716 234.643 L246.508 270.78 L239.411 316.389 L234.49 321.889 L232.438 341.329 L231.017 406.691 L232.972 395.735 L240.858 337.518 L253.882 279.921 L245.199 233.034 Z" opacity="1"/>
<path fill="#f1eede" d="M296.968 161.152 L302.068 161.059 L302.278 164.622 L297.348 164.825 L296.968 161.152 Z" opacity="1"/>
<path fill="#f1eede" d="M312.443 160.372 L317.134 160.288 L317.469 164.56 L312.694 164.477 L312.443 160.372 Z" opacity="1"/>
<path fill="#ecbb73" d="M371.506 243.232 L372.1 255.112 L374.755 268.598 L381.852 314.208 L386.773 319.707 L388.825 339.147 L390.246 404.509 L388.291 393.553 L380.405 335.336 L369.13 286.991 L371.506 243.232 Z" opacity="1"/>
</g>
<g id="Layer 5">
<path fill="#ffffff" d="M276.013 131.745 L279.839 127.36 L293.553 125.774 L296.538 130.719 L293.086 134.357 L281.238 135.104 L276.013 131.745 Z" opacity="1"/>
<path fill="#a1b4b4" d="M280.67 130.717 C280.67 127.594 283.201 125.063 286.324 125.063C289.446 125.063 291.978 127.594 291.978 130.717C291.978 133.839 289.446 136.371 286.324 136.371C283.201 136.371 280.67 133.839 280.67 130.717Z" opacity="1"/>
<path fill="#cad2dd" d="M276.013 131.745 L278.542 126.197 L293.553 125.774 L296.538 130.719 L295.266 131.927 C295.266 131.927 290.328 131.696 286.035 131.927C281.743 132.158 278.096 132.85 278.096 132.85L276.013 131.745 Z" opacity="1"/>
<path fill="#708e8e" d="M286.317 125.068 C283.195 125.068 280.682 127.581 280.682 130.703C280.682 131.284 280.775 131.868 280.938 132.395C280.938 132.395 283.052 132.076 285.788 131.929C288.525 131.782 291.884 131.807 291.884 131.807C291.968 131.419 291.996 131.117 291.996 130.703C291.996 127.581 289.44 125.068 286.317 125.068Z" opacity="1"/>
<path fill="#555555" d="M282.733 130.637 C282.733 128.711 284.295 127.149 286.221 127.149C288.147 127.149 289.709 128.711 289.709 130.637C289.709 132.563 288.147 134.124 286.221 134.124C284.295 134.124 282.733 132.563 282.733 130.637Z" opacity="1"/>
<path fill="#000000" d="M286.231 127.133 C284.305 127.133 282.747 128.691 282.747 130.617C282.747 131.19 282.808 131.668 283.052 132.145C283.052 132.145 284.826 131.957 286.434 131.881C288.042 131.805 289.486 131.841 289.486 131.841C289.643 131.444 289.716 131.071 289.716 130.617C289.716 128.691 288.157 127.133 286.231 127.133Z" opacity="1"/>
<path fill="#ffd79d" d="M280.263 135.287 L295.543 134.235 L294.166 138.588 L280.564 139.688 L280.263 135.287 Z" opacity="1"/>
<path fill="#ffffff" d="M287.779 133.346 C287.779 132.738 288.272 132.246 288.879 132.246C289.487 132.246 289.979 132.738 289.979 133.346C289.979 133.953 289.487 134.446 288.879 134.446C288.272 134.446 287.779 133.953 287.779 133.346Z" opacity="0.459677"/>
<path fill="#ecbb73" d="M292.661 123.073 L281.288 122.407 L278.542 126.29 L293.644 125.843 L292.661 123.073 Z" opacity="1"/>
<path fill="#ecbb73" d="M264.336 147.766 L264.559 152.464 L269.73 171.655 L284.631 181.473 L300.074 189.669 L273.391 169.44 L271.447 157.787 L264.336 147.766 Z" opacity="1"/>
<path fill="#ecbb73" d="M300.496 148.98 L302.494 144.375 L298.845 146.026 L297.281 149.501 L300.756 151.674 L300.496 148.98 Z" opacity="1"/>
<path fill="#ecbb73" d="M302.755 132.036 L303.884 138.379 L300.496 135.512 L297.715 131.862 L302.755 132.036 Z" opacity="1"/>
</g>
<g id="Layer 6">
<path fill="#ffffff" d="M338.445 131.883 L334.62 127.499 L320.906 125.913 L317.92 130.857 L321.372 134.496 L333.221 135.242 L338.445 131.883 Z" opacity="1"/>
<path fill="#a1b4b4" d="M333.789 130.855 C333.789 127.732 331.257 125.201 328.135 125.201C325.012 125.201 322.481 127.732 322.481 130.855C322.481 133.978 325.012 136.509 328.135 136.509C331.257 136.509 333.789 133.978 333.789 130.855Z" opacity="1"/>
<path fill="#cad2dd" d="M338.445 131.883 L335.684 125.899 L320.906 125.913 L317.92 130.857 L319.192 132.065 C319.192 132.065 324.131 131.834 328.423 132.065C332.716 132.296 336.362 132.988 336.362 132.988L338.445 131.883 Z" opacity="1"/>
<path fill="#708e8e" d="M328.141 125.206 C331.264 125.206 333.777 127.719 333.777 130.842C333.777 131.422 333.683 132.007 333.521 132.534C333.521 132.534 331.407 132.214 328.67 132.067C325.934 131.92 322.575 131.946 322.575 131.946C322.49 131.557 322.462 131.256 322.462 130.842C322.462 127.719 325.018 125.206 328.141 125.206Z" opacity="1"/>
<path fill="#555555" d="M331.725 130.775 C331.725 128.849 330.164 127.288 328.237 127.288C326.311 127.288 324.75 128.849 324.75 130.775C324.75 132.701 326.311 134.263 328.237 134.263C330.164 134.263 331.725 132.701 331.725 130.775Z" opacity="1"/>
<path fill="#000000" d="M328.227 127.271 C330.153 127.271 331.712 128.83 331.712 130.756C331.712 131.328 331.651 131.807 331.406 132.284C331.406 132.284 329.633 132.095 328.024 132.019C326.416 131.943 324.973 131.98 324.973 131.98C324.815 131.582 324.743 131.21 324.743 130.756C324.743 128.83 326.301 127.271 328.227 127.271Z" opacity="1"/>
<path fill="#ffd79d" d="M334.195 135.426 L318.915 134.373 L320.293 138.726 L333.895 139.827 L334.195 135.426 Z" opacity="1"/>
<path fill="#ffffff" d="M326.679 133.484 C326.679 132.877 326.187 132.384 325.579 132.384C324.972 132.384 324.479 132.877 324.479 133.484C324.479 134.092 324.972 134.584 325.579 134.584C326.187 134.584 326.679 134.092 326.679 133.484Z" opacity="0.459677"/>
<path fill="#ecbb73" d="M322.052 123.036 L334.831 123.036 L336.172 126.253 L321.069 125.806 L322.052 123.036 Z" opacity="1"/>
</g>
<g id="Layer 4">
<path fill="#2f1f18" d="M256.584 110.151 L259.582 91.4133 L265.786 82.3071 L270.442 73.9148 L283.567 68.1782 L296.669 65.2682 L317.795 63.1814 L330.037 66.929 L337.567 71.8448 L352.772 78.9213 L358.269 104.905 L352.772 138.383 L350.274 129.639 L352.023 115.398 L344.236 103.606 L335.006 92.9563 L324.712 98.9909 L318.677 108.575 L308.383 94.7312 L295.249 106.8 L282.825 99.7009 L290.279 90.8265 L278.565 93.3113 L279.63 106.445 L270.401 112.125 L265.078 113.841 L267.561 125.259 L264.366 136.263 L256.584 110.151 Z" opacity="1"/>
</g>
</svg>
